M48
; DRILL file {KiCad 8.0.3} date 2025-04-06T07:45:21+0900
; FORMAT={-:-/ absolute / inch / decimal}
; #@! TF.CreationDate,2025-04-06T07:45:21+09:00
; #@! TF.GenerationSoftware,Kicad,Pcbnew,8.0.3
; #@! TF.FileFunction,Plated,1,2,PTH
FMAT,2
INCH
; #@! TA.AperFunction,Plated,PTH,ViaDrill
T1C0.0157
; #@! TA.AperFunction,Plated,PTH,ComponentDrill
T2C0.0295
; #@! TA.AperFunction,Plated,PTH,ComponentDrill
T3C0.0315
; #@! TA.AperFunction,Plated,PTH,ComponentDrill
T4C0.0374
; #@! TA.AperFunction,Plated,PTH,ComponentDrill
T5C0.0394
; #@! TA.AperFunction,Plated,PTH,ComponentDrill
T6C0.0906
%
G90
G05
T1
X1.73Y-2.3
X1.84Y-2.41
X1.85Y-2.17
X1.99Y-2.54
X2.59Y-3.22
X3.2092Y-3.2908
T2
X2.2442Y-1.07
X2.2442Y-1.12
X2.2442Y-1.17
X2.2442Y-1.3
X2.2442Y-1.35
X2.2442Y-1.4
X2.2442Y-1.53
X2.2442Y-1.58
X2.2442Y-1.63
X2.2442Y-1.76
X2.2442Y-1.81
X2.2442Y-1.86
T3
X2.17Y-3.08
X2.18Y-2.02
X2.18Y-2.15
X2.18Y-2.28
X2.18Y-2.41
X2.18Y-2.54
X2.18Y-2.67
X2.18Y-2.8
X2.18Y-2.93
X2.38Y-1.07
X2.38Y-1.3
X2.38Y-1.53
X2.38Y-1.76
X2.57Y-3.08
X2.58Y-2.02
X2.58Y-2.15
X2.58Y-2.28
X2.58Y-2.41
X2.58Y-2.54
X2.58Y-2.67
X2.58Y-2.8
X2.58Y-2.93
X2.6904Y-1.9204
X2.6904Y-2.0204
X2.6904Y-2.1204
X2.6904Y-2.2204
X2.6904Y-2.3204
X2.6904Y-2.4204
X2.6904Y-2.5204
X2.6904Y-2.6204
X2.6904Y-2.7204
X2.6904Y-2.8204
X2.6904Y-2.9204
X2.6904Y-3.0204
X2.6904Y-3.1204
X2.6904Y-3.2204
X2.78Y-1.07
X2.78Y-1.3
X2.78Y-1.53
X2.78Y-1.76
X2.9904Y-1.9204
X2.9904Y-2.0204
X2.9904Y-2.1204
X2.9904Y-2.2204
X2.9904Y-2.3204
X2.9904Y-2.4204
X2.9904Y-2.5204
X2.9904Y-2.6204
X2.9904Y-2.7204
X2.9904Y-2.8204
X2.9904Y-2.9204
X2.9904Y-3.0204
X2.9904Y-3.1204
X2.9904Y-3.2204
X3.19Y-2.7408
X3.19Y-2.8392
T4
X1.891Y-3.2222
X1.891Y-3.3206
X1.891Y-3.3994
X1.891Y-3.4978
T5
X1.44Y-1.76
X1.44Y-1.86
X1.44Y-1.96
X1.44Y-2.06
X1.44Y-2.16
X1.44Y-2.26
X2.04Y-1.76
X2.04Y-1.86
X2.04Y-1.96
X2.04Y-2.06
X2.04Y-2.16
X2.04Y-2.26
X2.071Y-3.609
X2.171Y-3.609
X2.271Y-3.609
X2.371Y-3.609
X2.471Y-3.609
X2.571Y-3.609
X2.96Y-3.53
X2.96Y-3.63
X3.06Y-3.53
X3.06Y-3.63
X3.16Y-3.53
X3.16Y-3.63
X3.189Y-2.119
X3.189Y-2.219
X3.189Y-2.319
X3.189Y-2.419
X3.189Y-2.519
X3.189Y-2.619
T6
X1.7843Y-3.1013
X1.7843Y-3.6187
M30
