%TF.GenerationSoftware,KiCad,Pcbnew,8.0.3*%
%TF.CreationDate,2025-04-06T07:58:34+09:00*%
%TF.ProjectId,Device-ATmega88_Board,44657669-6365-42d4-9154-6d6567613838,rev?*%
%TF.SameCoordinates,Original*%
%TF.FileFunction,Copper,L1,Top*%
%TF.FilePolarity,Positive*%
%FSLAX46Y46*%
G04 Gerber Fmt 4.6, Leading zero omitted, Abs format (unit mm)*
G04 Created by KiCad (PCBNEW 8.0.3) date 2025-04-06 07:58:34*
%MOMM*%
%LPD*%
G01*
G04 APERTURE LIST*
%ADD10C,0.100000*%
%ADD11C,0.150000*%
%ADD12C,0.300000*%
%ADD13C,0.400000*%
%TA.AperFunction,ComponentPad*%
%ADD14C,1.600000*%
%TD*%
%TA.AperFunction,ComponentPad*%
%ADD15O,1.600000X1.600000*%
%TD*%
%TA.AperFunction,ComponentPad*%
%ADD16R,1.500000X1.050000*%
%TD*%
%TA.AperFunction,ComponentPad*%
%ADD17O,1.500000X1.050000*%
%TD*%
%TA.AperFunction,ComponentPad*%
%ADD18R,1.600000X1.600000*%
%TD*%
%TA.AperFunction,ComponentPad*%
%ADD19R,1.700000X1.700000*%
%TD*%
%TA.AperFunction,ComponentPad*%
%ADD20O,1.700000X1.700000*%
%TD*%
%TA.AperFunction,ComponentPad*%
%ADD21R,1.500000X1.600000*%
%TD*%
%TA.AperFunction,ComponentPad*%
%ADD22C,3.000000*%
%TD*%
%TA.AperFunction,ComponentPad*%
%ADD23R,1.500000X1.500000*%
%TD*%
%TA.AperFunction,ComponentPad*%
%ADD24C,1.500000*%
%TD*%
%TA.AperFunction,ViaPad*%
%ADD25C,0.800000*%
%TD*%
%TA.AperFunction,Conductor*%
%ADD26C,0.400000*%
%TD*%
G04 APERTURE END LIST*
D10*
D11*
X177002200Y-166007200D02*
X285002200Y-166007200D01*
X285002200Y-198007200D01*
X177002200Y-198007200D01*
X177002200Y-166007200D01*
D10*
D11*
X10000000Y-10000000D02*
X287002200Y-10000000D01*
X287002200Y-200007200D01*
X10000000Y-200007200D01*
X10000000Y-10000000D01*
D10*
D11*
X12000000Y-12000000D02*
X285002200Y-12000000D01*
X285002200Y-198007200D01*
X12000000Y-198007200D01*
X12000000Y-12000000D01*
D10*
D11*
X60000000Y-12000000D02*
X60000000Y-10000000D01*
D10*
D11*
X110000000Y-12000000D02*
X110000000Y-10000000D01*
D10*
D11*
X160000000Y-12000000D02*
X160000000Y-10000000D01*
D10*
D11*
X210000000Y-12000000D02*
X210000000Y-10000000D01*
D10*
D11*
X260000000Y-12000000D02*
X260000000Y-10000000D01*
D10*
D11*
X36089160Y-11593604D02*
X35346303Y-11593604D01*
X35717731Y-11593604D02*
X35717731Y-10293604D01*
X35717731Y-10293604D02*
X35593922Y-10479319D01*
X35593922Y-10479319D02*
X35470112Y-10603128D01*
X35470112Y-10603128D02*
X35346303Y-10665033D01*
D10*
D11*
X85346303Y-10417414D02*
X85408207Y-10355509D01*
X85408207Y-10355509D02*
X85532017Y-10293604D01*
X85532017Y-10293604D02*
X85841541Y-10293604D01*
X85841541Y-10293604D02*
X85965350Y-10355509D01*
X85965350Y-10355509D02*
X86027255Y-10417414D01*
X86027255Y-10417414D02*
X86089160Y-10541223D01*
X86089160Y-10541223D02*
X86089160Y-10665033D01*
X86089160Y-10665033D02*
X86027255Y-10850747D01*
X86027255Y-10850747D02*
X85284398Y-11593604D01*
X85284398Y-11593604D02*
X86089160Y-11593604D01*
D10*
D11*
X135284398Y-10293604D02*
X136089160Y-10293604D01*
X136089160Y-10293604D02*
X135655826Y-10788842D01*
X135655826Y-10788842D02*
X135841541Y-10788842D01*
X135841541Y-10788842D02*
X135965350Y-10850747D01*
X135965350Y-10850747D02*
X136027255Y-10912652D01*
X136027255Y-10912652D02*
X136089160Y-11036461D01*
X136089160Y-11036461D02*
X136089160Y-11345985D01*
X136089160Y-11345985D02*
X136027255Y-11469795D01*
X136027255Y-11469795D02*
X135965350Y-11531700D01*
X135965350Y-11531700D02*
X135841541Y-11593604D01*
X135841541Y-11593604D02*
X135470112Y-11593604D01*
X135470112Y-11593604D02*
X135346303Y-11531700D01*
X135346303Y-11531700D02*
X135284398Y-11469795D01*
D10*
D11*
X185965350Y-10726938D02*
X185965350Y-11593604D01*
X185655826Y-10231700D02*
X185346303Y-11160271D01*
X185346303Y-11160271D02*
X186151064Y-11160271D01*
D10*
D11*
X236027255Y-10293604D02*
X235408207Y-10293604D01*
X235408207Y-10293604D02*
X235346303Y-10912652D01*
X235346303Y-10912652D02*
X235408207Y-10850747D01*
X235408207Y-10850747D02*
X235532017Y-10788842D01*
X235532017Y-10788842D02*
X235841541Y-10788842D01*
X235841541Y-10788842D02*
X235965350Y-10850747D01*
X235965350Y-10850747D02*
X236027255Y-10912652D01*
X236027255Y-10912652D02*
X236089160Y-11036461D01*
X236089160Y-11036461D02*
X236089160Y-11345985D01*
X236089160Y-11345985D02*
X236027255Y-11469795D01*
X236027255Y-11469795D02*
X235965350Y-11531700D01*
X235965350Y-11531700D02*
X235841541Y-11593604D01*
X235841541Y-11593604D02*
X235532017Y-11593604D01*
X235532017Y-11593604D02*
X235408207Y-11531700D01*
X235408207Y-11531700D02*
X235346303Y-11469795D01*
D10*
D11*
X285965350Y-10293604D02*
X285717731Y-10293604D01*
X285717731Y-10293604D02*
X285593922Y-10355509D01*
X285593922Y-10355509D02*
X285532017Y-10417414D01*
X285532017Y-10417414D02*
X285408207Y-10603128D01*
X285408207Y-10603128D02*
X285346303Y-10850747D01*
X285346303Y-10850747D02*
X285346303Y-11345985D01*
X285346303Y-11345985D02*
X285408207Y-11469795D01*
X285408207Y-11469795D02*
X285470112Y-11531700D01*
X285470112Y-11531700D02*
X285593922Y-11593604D01*
X285593922Y-11593604D02*
X285841541Y-11593604D01*
X285841541Y-11593604D02*
X285965350Y-11531700D01*
X285965350Y-11531700D02*
X286027255Y-11469795D01*
X286027255Y-11469795D02*
X286089160Y-11345985D01*
X286089160Y-11345985D02*
X286089160Y-11036461D01*
X286089160Y-11036461D02*
X286027255Y-10912652D01*
X286027255Y-10912652D02*
X285965350Y-10850747D01*
X285965350Y-10850747D02*
X285841541Y-10788842D01*
X285841541Y-10788842D02*
X285593922Y-10788842D01*
X285593922Y-10788842D02*
X285470112Y-10850747D01*
X285470112Y-10850747D02*
X285408207Y-10912652D01*
X285408207Y-10912652D02*
X285346303Y-11036461D01*
D10*
D11*
X60000000Y-198007200D02*
X60000000Y-200007200D01*
D10*
D11*
X110000000Y-198007200D02*
X110000000Y-200007200D01*
D10*
D11*
X160000000Y-198007200D02*
X160000000Y-200007200D01*
D10*
D11*
X210000000Y-198007200D02*
X210000000Y-200007200D01*
D10*
D11*
X260000000Y-198007200D02*
X260000000Y-200007200D01*
D10*
D11*
X36089160Y-199600804D02*
X35346303Y-199600804D01*
X35717731Y-199600804D02*
X35717731Y-198300804D01*
X35717731Y-198300804D02*
X35593922Y-198486519D01*
X35593922Y-198486519D02*
X35470112Y-198610328D01*
X35470112Y-198610328D02*
X35346303Y-198672233D01*
D10*
D11*
X85346303Y-198424614D02*
X85408207Y-198362709D01*
X85408207Y-198362709D02*
X85532017Y-198300804D01*
X85532017Y-198300804D02*
X85841541Y-198300804D01*
X85841541Y-198300804D02*
X85965350Y-198362709D01*
X85965350Y-198362709D02*
X86027255Y-198424614D01*
X86027255Y-198424614D02*
X86089160Y-198548423D01*
X86089160Y-198548423D02*
X86089160Y-198672233D01*
X86089160Y-198672233D02*
X86027255Y-198857947D01*
X86027255Y-198857947D02*
X85284398Y-199600804D01*
X85284398Y-199600804D02*
X86089160Y-199600804D01*
D10*
D11*
X135284398Y-198300804D02*
X136089160Y-198300804D01*
X136089160Y-198300804D02*
X135655826Y-198796042D01*
X135655826Y-198796042D02*
X135841541Y-198796042D01*
X135841541Y-198796042D02*
X135965350Y-198857947D01*
X135965350Y-198857947D02*
X136027255Y-198919852D01*
X136027255Y-198919852D02*
X136089160Y-199043661D01*
X136089160Y-199043661D02*
X136089160Y-199353185D01*
X136089160Y-199353185D02*
X136027255Y-199476995D01*
X136027255Y-199476995D02*
X135965350Y-199538900D01*
X135965350Y-199538900D02*
X135841541Y-199600804D01*
X135841541Y-199600804D02*
X135470112Y-199600804D01*
X135470112Y-199600804D02*
X135346303Y-199538900D01*
X135346303Y-199538900D02*
X135284398Y-199476995D01*
D10*
D11*
X185965350Y-198734138D02*
X185965350Y-199600804D01*
X185655826Y-198238900D02*
X185346303Y-199167471D01*
X185346303Y-199167471D02*
X186151064Y-199167471D01*
D10*
D11*
X236027255Y-198300804D02*
X235408207Y-198300804D01*
X235408207Y-198300804D02*
X235346303Y-198919852D01*
X235346303Y-198919852D02*
X235408207Y-198857947D01*
X235408207Y-198857947D02*
X235532017Y-198796042D01*
X235532017Y-198796042D02*
X235841541Y-198796042D01*
X235841541Y-198796042D02*
X235965350Y-198857947D01*
X235965350Y-198857947D02*
X236027255Y-198919852D01*
X236027255Y-198919852D02*
X236089160Y-199043661D01*
X236089160Y-199043661D02*
X236089160Y-199353185D01*
X236089160Y-199353185D02*
X236027255Y-199476995D01*
X236027255Y-199476995D02*
X235965350Y-199538900D01*
X235965350Y-199538900D02*
X235841541Y-199600804D01*
X235841541Y-199600804D02*
X235532017Y-199600804D01*
X235532017Y-199600804D02*
X235408207Y-199538900D01*
X235408207Y-199538900D02*
X235346303Y-199476995D01*
D10*
D11*
X285965350Y-198300804D02*
X285717731Y-198300804D01*
X285717731Y-198300804D02*
X285593922Y-198362709D01*
X285593922Y-198362709D02*
X285532017Y-198424614D01*
X285532017Y-198424614D02*
X285408207Y-198610328D01*
X285408207Y-198610328D02*
X285346303Y-198857947D01*
X285346303Y-198857947D02*
X285346303Y-199353185D01*
X285346303Y-199353185D02*
X285408207Y-199476995D01*
X285408207Y-199476995D02*
X285470112Y-199538900D01*
X285470112Y-199538900D02*
X285593922Y-199600804D01*
X285593922Y-199600804D02*
X285841541Y-199600804D01*
X285841541Y-199600804D02*
X285965350Y-199538900D01*
X285965350Y-199538900D02*
X286027255Y-199476995D01*
X286027255Y-199476995D02*
X286089160Y-199353185D01*
X286089160Y-199353185D02*
X286089160Y-199043661D01*
X286089160Y-199043661D02*
X286027255Y-198919852D01*
X286027255Y-198919852D02*
X285965350Y-198857947D01*
X285965350Y-198857947D02*
X285841541Y-198796042D01*
X285841541Y-198796042D02*
X285593922Y-198796042D01*
X285593922Y-198796042D02*
X285470112Y-198857947D01*
X285470112Y-198857947D02*
X285408207Y-198919852D01*
X285408207Y-198919852D02*
X285346303Y-199043661D01*
D10*
D11*
X10000000Y-60000000D02*
X12000000Y-60000000D01*
D10*
D11*
X10000000Y-110000000D02*
X12000000Y-110000000D01*
D10*
D11*
X10000000Y-160000000D02*
X12000000Y-160000000D01*
D10*
D11*
X10690476Y-35222176D02*
X11309523Y-35222176D01*
X10566666Y-35593604D02*
X10999999Y-34293604D01*
X10999999Y-34293604D02*
X11433333Y-35593604D01*
D10*
D11*
X11092857Y-84912652D02*
X11278571Y-84974557D01*
X11278571Y-84974557D02*
X11340476Y-85036461D01*
X11340476Y-85036461D02*
X11402380Y-85160271D01*
X11402380Y-85160271D02*
X11402380Y-85345985D01*
X11402380Y-85345985D02*
X11340476Y-85469795D01*
X11340476Y-85469795D02*
X11278571Y-85531700D01*
X11278571Y-85531700D02*
X11154761Y-85593604D01*
X11154761Y-85593604D02*
X10659523Y-85593604D01*
X10659523Y-85593604D02*
X10659523Y-84293604D01*
X10659523Y-84293604D02*
X11092857Y-84293604D01*
X11092857Y-84293604D02*
X11216666Y-84355509D01*
X11216666Y-84355509D02*
X11278571Y-84417414D01*
X11278571Y-84417414D02*
X11340476Y-84541223D01*
X11340476Y-84541223D02*
X11340476Y-84665033D01*
X11340476Y-84665033D02*
X11278571Y-84788842D01*
X11278571Y-84788842D02*
X11216666Y-84850747D01*
X11216666Y-84850747D02*
X11092857Y-84912652D01*
X11092857Y-84912652D02*
X10659523Y-84912652D01*
D10*
D11*
X11402380Y-135469795D02*
X11340476Y-135531700D01*
X11340476Y-135531700D02*
X11154761Y-135593604D01*
X11154761Y-135593604D02*
X11030952Y-135593604D01*
X11030952Y-135593604D02*
X10845238Y-135531700D01*
X10845238Y-135531700D02*
X10721428Y-135407890D01*
X10721428Y-135407890D02*
X10659523Y-135284080D01*
X10659523Y-135284080D02*
X10597619Y-135036461D01*
X10597619Y-135036461D02*
X10597619Y-134850747D01*
X10597619Y-134850747D02*
X10659523Y-134603128D01*
X10659523Y-134603128D02*
X10721428Y-134479319D01*
X10721428Y-134479319D02*
X10845238Y-134355509D01*
X10845238Y-134355509D02*
X11030952Y-134293604D01*
X11030952Y-134293604D02*
X11154761Y-134293604D01*
X11154761Y-134293604D02*
X11340476Y-134355509D01*
X11340476Y-134355509D02*
X11402380Y-134417414D01*
D10*
D11*
X10659523Y-185593604D02*
X10659523Y-184293604D01*
X10659523Y-184293604D02*
X10969047Y-184293604D01*
X10969047Y-184293604D02*
X11154761Y-184355509D01*
X11154761Y-184355509D02*
X11278571Y-184479319D01*
X11278571Y-184479319D02*
X11340476Y-184603128D01*
X11340476Y-184603128D02*
X11402380Y-184850747D01*
X11402380Y-184850747D02*
X11402380Y-185036461D01*
X11402380Y-185036461D02*
X11340476Y-185284080D01*
X11340476Y-185284080D02*
X11278571Y-185407890D01*
X11278571Y-185407890D02*
X11154761Y-185531700D01*
X11154761Y-185531700D02*
X10969047Y-185593604D01*
X10969047Y-185593604D02*
X10659523Y-185593604D01*
D10*
D11*
X287002200Y-60000000D02*
X285002200Y-60000000D01*
D10*
D11*
X287002200Y-110000000D02*
X285002200Y-110000000D01*
D10*
D11*
X287002200Y-160000000D02*
X285002200Y-160000000D01*
D10*
D11*
X285692676Y-35222176D02*
X286311723Y-35222176D01*
X285568866Y-35593604D02*
X286002199Y-34293604D01*
X286002199Y-34293604D02*
X286435533Y-35593604D01*
D10*
D11*
X286095057Y-84912652D02*
X286280771Y-84974557D01*
X286280771Y-84974557D02*
X286342676Y-85036461D01*
X286342676Y-85036461D02*
X286404580Y-85160271D01*
X286404580Y-85160271D02*
X286404580Y-85345985D01*
X286404580Y-85345985D02*
X286342676Y-85469795D01*
X286342676Y-85469795D02*
X286280771Y-85531700D01*
X286280771Y-85531700D02*
X286156961Y-85593604D01*
X286156961Y-85593604D02*
X285661723Y-85593604D01*
X285661723Y-85593604D02*
X285661723Y-84293604D01*
X285661723Y-84293604D02*
X286095057Y-84293604D01*
X286095057Y-84293604D02*
X286218866Y-84355509D01*
X286218866Y-84355509D02*
X286280771Y-84417414D01*
X286280771Y-84417414D02*
X286342676Y-84541223D01*
X286342676Y-84541223D02*
X286342676Y-84665033D01*
X286342676Y-84665033D02*
X286280771Y-84788842D01*
X286280771Y-84788842D02*
X286218866Y-84850747D01*
X286218866Y-84850747D02*
X286095057Y-84912652D01*
X286095057Y-84912652D02*
X285661723Y-84912652D01*
D10*
D11*
X286404580Y-135469795D02*
X286342676Y-135531700D01*
X286342676Y-135531700D02*
X286156961Y-135593604D01*
X286156961Y-135593604D02*
X286033152Y-135593604D01*
X286033152Y-135593604D02*
X285847438Y-135531700D01*
X285847438Y-135531700D02*
X285723628Y-135407890D01*
X285723628Y-135407890D02*
X285661723Y-135284080D01*
X285661723Y-135284080D02*
X285599819Y-135036461D01*
X285599819Y-135036461D02*
X285599819Y-134850747D01*
X285599819Y-134850747D02*
X285661723Y-134603128D01*
X285661723Y-134603128D02*
X285723628Y-134479319D01*
X285723628Y-134479319D02*
X285847438Y-134355509D01*
X285847438Y-134355509D02*
X286033152Y-134293604D01*
X286033152Y-134293604D02*
X286156961Y-134293604D01*
X286156961Y-134293604D02*
X286342676Y-134355509D01*
X286342676Y-134355509D02*
X286404580Y-134417414D01*
D10*
D11*
X285661723Y-185593604D02*
X285661723Y-184293604D01*
X285661723Y-184293604D02*
X285971247Y-184293604D01*
X285971247Y-184293604D02*
X286156961Y-184355509D01*
X286156961Y-184355509D02*
X286280771Y-184479319D01*
X286280771Y-184479319D02*
X286342676Y-184603128D01*
X286342676Y-184603128D02*
X286404580Y-184850747D01*
X286404580Y-184850747D02*
X286404580Y-185036461D01*
X286404580Y-185036461D02*
X286342676Y-185284080D01*
X286342676Y-185284080D02*
X286280771Y-185407890D01*
X286280771Y-185407890D02*
X286156961Y-185531700D01*
X286156961Y-185531700D02*
X285971247Y-185593604D01*
X285971247Y-185593604D02*
X285661723Y-185593604D01*
D10*
D11*
X200458026Y-193793328D02*
X200458026Y-192293328D01*
X200458026Y-192293328D02*
X200815169Y-192293328D01*
X200815169Y-192293328D02*
X201029455Y-192364757D01*
X201029455Y-192364757D02*
X201172312Y-192507614D01*
X201172312Y-192507614D02*
X201243741Y-192650471D01*
X201243741Y-192650471D02*
X201315169Y-192936185D01*
X201315169Y-192936185D02*
X201315169Y-193150471D01*
X201315169Y-193150471D02*
X201243741Y-193436185D01*
X201243741Y-193436185D02*
X201172312Y-193579042D01*
X201172312Y-193579042D02*
X201029455Y-193721900D01*
X201029455Y-193721900D02*
X200815169Y-193793328D01*
X200815169Y-193793328D02*
X200458026Y-193793328D01*
X202600884Y-193793328D02*
X202600884Y-193007614D01*
X202600884Y-193007614D02*
X202529455Y-192864757D01*
X202529455Y-192864757D02*
X202386598Y-192793328D01*
X202386598Y-192793328D02*
X202100884Y-192793328D01*
X202100884Y-192793328D02*
X201958026Y-192864757D01*
X202600884Y-193721900D02*
X202458026Y-193793328D01*
X202458026Y-193793328D02*
X202100884Y-193793328D01*
X202100884Y-193793328D02*
X201958026Y-193721900D01*
X201958026Y-193721900D02*
X201886598Y-193579042D01*
X201886598Y-193579042D02*
X201886598Y-193436185D01*
X201886598Y-193436185D02*
X201958026Y-193293328D01*
X201958026Y-193293328D02*
X202100884Y-193221900D01*
X202100884Y-193221900D02*
X202458026Y-193221900D01*
X202458026Y-193221900D02*
X202600884Y-193150471D01*
X203100884Y-192793328D02*
X203672312Y-192793328D01*
X203315169Y-192293328D02*
X203315169Y-193579042D01*
X203315169Y-193579042D02*
X203386598Y-193721900D01*
X203386598Y-193721900D02*
X203529455Y-193793328D01*
X203529455Y-193793328D02*
X203672312Y-193793328D01*
X204743741Y-193721900D02*
X204600884Y-193793328D01*
X204600884Y-193793328D02*
X204315170Y-193793328D01*
X204315170Y-193793328D02*
X204172312Y-193721900D01*
X204172312Y-193721900D02*
X204100884Y-193579042D01*
X204100884Y-193579042D02*
X204100884Y-193007614D01*
X204100884Y-193007614D02*
X204172312Y-192864757D01*
X204172312Y-192864757D02*
X204315170Y-192793328D01*
X204315170Y-192793328D02*
X204600884Y-192793328D01*
X204600884Y-192793328D02*
X204743741Y-192864757D01*
X204743741Y-192864757D02*
X204815170Y-193007614D01*
X204815170Y-193007614D02*
X204815170Y-193150471D01*
X204815170Y-193150471D02*
X204100884Y-193293328D01*
X205458026Y-193650471D02*
X205529455Y-193721900D01*
X205529455Y-193721900D02*
X205458026Y-193793328D01*
X205458026Y-193793328D02*
X205386598Y-193721900D01*
X205386598Y-193721900D02*
X205458026Y-193650471D01*
X205458026Y-193650471D02*
X205458026Y-193793328D01*
X205458026Y-192864757D02*
X205529455Y-192936185D01*
X205529455Y-192936185D02*
X205458026Y-193007614D01*
X205458026Y-193007614D02*
X205386598Y-192936185D01*
X205386598Y-192936185D02*
X205458026Y-192864757D01*
X205458026Y-192864757D02*
X205458026Y-193007614D01*
D10*
D11*
X177002200Y-194507200D02*
X285002200Y-194507200D01*
D10*
D11*
X178458026Y-196593328D02*
X178458026Y-195093328D01*
X179315169Y-196593328D02*
X178672312Y-195736185D01*
X179315169Y-195093328D02*
X178458026Y-195950471D01*
X179958026Y-196593328D02*
X179958026Y-195593328D01*
X179958026Y-195093328D02*
X179886598Y-195164757D01*
X179886598Y-195164757D02*
X179958026Y-195236185D01*
X179958026Y-195236185D02*
X180029455Y-195164757D01*
X180029455Y-195164757D02*
X179958026Y-195093328D01*
X179958026Y-195093328D02*
X179958026Y-195236185D01*
X181529455Y-196450471D02*
X181458027Y-196521900D01*
X181458027Y-196521900D02*
X181243741Y-196593328D01*
X181243741Y-196593328D02*
X181100884Y-196593328D01*
X181100884Y-196593328D02*
X180886598Y-196521900D01*
X180886598Y-196521900D02*
X180743741Y-196379042D01*
X180743741Y-196379042D02*
X180672312Y-196236185D01*
X180672312Y-196236185D02*
X180600884Y-195950471D01*
X180600884Y-195950471D02*
X180600884Y-195736185D01*
X180600884Y-195736185D02*
X180672312Y-195450471D01*
X180672312Y-195450471D02*
X180743741Y-195307614D01*
X180743741Y-195307614D02*
X180886598Y-195164757D01*
X180886598Y-195164757D02*
X181100884Y-195093328D01*
X181100884Y-195093328D02*
X181243741Y-195093328D01*
X181243741Y-195093328D02*
X181458027Y-195164757D01*
X181458027Y-195164757D02*
X181529455Y-195236185D01*
X182815170Y-196593328D02*
X182815170Y-195807614D01*
X182815170Y-195807614D02*
X182743741Y-195664757D01*
X182743741Y-195664757D02*
X182600884Y-195593328D01*
X182600884Y-195593328D02*
X182315170Y-195593328D01*
X182315170Y-195593328D02*
X182172312Y-195664757D01*
X182815170Y-196521900D02*
X182672312Y-196593328D01*
X182672312Y-196593328D02*
X182315170Y-196593328D01*
X182315170Y-196593328D02*
X182172312Y-196521900D01*
X182172312Y-196521900D02*
X182100884Y-196379042D01*
X182100884Y-196379042D02*
X182100884Y-196236185D01*
X182100884Y-196236185D02*
X182172312Y-196093328D01*
X182172312Y-196093328D02*
X182315170Y-196021900D01*
X182315170Y-196021900D02*
X182672312Y-196021900D01*
X182672312Y-196021900D02*
X182815170Y-195950471D01*
X184172313Y-196593328D02*
X184172313Y-195093328D01*
X184172313Y-196521900D02*
X184029455Y-196593328D01*
X184029455Y-196593328D02*
X183743741Y-196593328D01*
X183743741Y-196593328D02*
X183600884Y-196521900D01*
X183600884Y-196521900D02*
X183529455Y-196450471D01*
X183529455Y-196450471D02*
X183458027Y-196307614D01*
X183458027Y-196307614D02*
X183458027Y-195879042D01*
X183458027Y-195879042D02*
X183529455Y-195736185D01*
X183529455Y-195736185D02*
X183600884Y-195664757D01*
X183600884Y-195664757D02*
X183743741Y-195593328D01*
X183743741Y-195593328D02*
X184029455Y-195593328D01*
X184029455Y-195593328D02*
X184172313Y-195664757D01*
X186029455Y-195807614D02*
X186529455Y-195807614D01*
X186743741Y-196593328D02*
X186029455Y-196593328D01*
X186029455Y-196593328D02*
X186029455Y-195093328D01*
X186029455Y-195093328D02*
X186743741Y-195093328D01*
X187386598Y-196450471D02*
X187458027Y-196521900D01*
X187458027Y-196521900D02*
X187386598Y-196593328D01*
X187386598Y-196593328D02*
X187315170Y-196521900D01*
X187315170Y-196521900D02*
X187386598Y-196450471D01*
X187386598Y-196450471D02*
X187386598Y-196593328D01*
X188100884Y-196593328D02*
X188100884Y-195093328D01*
X188100884Y-195093328D02*
X188458027Y-195093328D01*
X188458027Y-195093328D02*
X188672313Y-195164757D01*
X188672313Y-195164757D02*
X188815170Y-195307614D01*
X188815170Y-195307614D02*
X188886599Y-195450471D01*
X188886599Y-195450471D02*
X188958027Y-195736185D01*
X188958027Y-195736185D02*
X188958027Y-195950471D01*
X188958027Y-195950471D02*
X188886599Y-196236185D01*
X188886599Y-196236185D02*
X188815170Y-196379042D01*
X188815170Y-196379042D02*
X188672313Y-196521900D01*
X188672313Y-196521900D02*
X188458027Y-196593328D01*
X188458027Y-196593328D02*
X188100884Y-196593328D01*
X189600884Y-196450471D02*
X189672313Y-196521900D01*
X189672313Y-196521900D02*
X189600884Y-196593328D01*
X189600884Y-196593328D02*
X189529456Y-196521900D01*
X189529456Y-196521900D02*
X189600884Y-196450471D01*
X189600884Y-196450471D02*
X189600884Y-196593328D01*
X190243742Y-196164757D02*
X190958028Y-196164757D01*
X190100885Y-196593328D02*
X190600885Y-195093328D01*
X190600885Y-195093328D02*
X191100885Y-196593328D01*
X191600884Y-196450471D02*
X191672313Y-196521900D01*
X191672313Y-196521900D02*
X191600884Y-196593328D01*
X191600884Y-196593328D02*
X191529456Y-196521900D01*
X191529456Y-196521900D02*
X191600884Y-196450471D01*
X191600884Y-196450471D02*
X191600884Y-196593328D01*
X193672313Y-195736185D02*
X193529456Y-195664757D01*
X193529456Y-195664757D02*
X193458027Y-195593328D01*
X193458027Y-195593328D02*
X193386599Y-195450471D01*
X193386599Y-195450471D02*
X193386599Y-195379042D01*
X193386599Y-195379042D02*
X193458027Y-195236185D01*
X193458027Y-195236185D02*
X193529456Y-195164757D01*
X193529456Y-195164757D02*
X193672313Y-195093328D01*
X193672313Y-195093328D02*
X193958027Y-195093328D01*
X193958027Y-195093328D02*
X194100885Y-195164757D01*
X194100885Y-195164757D02*
X194172313Y-195236185D01*
X194172313Y-195236185D02*
X194243742Y-195379042D01*
X194243742Y-195379042D02*
X194243742Y-195450471D01*
X194243742Y-195450471D02*
X194172313Y-195593328D01*
X194172313Y-195593328D02*
X194100885Y-195664757D01*
X194100885Y-195664757D02*
X193958027Y-195736185D01*
X193958027Y-195736185D02*
X193672313Y-195736185D01*
X193672313Y-195736185D02*
X193529456Y-195807614D01*
X193529456Y-195807614D02*
X193458027Y-195879042D01*
X193458027Y-195879042D02*
X193386599Y-196021900D01*
X193386599Y-196021900D02*
X193386599Y-196307614D01*
X193386599Y-196307614D02*
X193458027Y-196450471D01*
X193458027Y-196450471D02*
X193529456Y-196521900D01*
X193529456Y-196521900D02*
X193672313Y-196593328D01*
X193672313Y-196593328D02*
X193958027Y-196593328D01*
X193958027Y-196593328D02*
X194100885Y-196521900D01*
X194100885Y-196521900D02*
X194172313Y-196450471D01*
X194172313Y-196450471D02*
X194243742Y-196307614D01*
X194243742Y-196307614D02*
X194243742Y-196021900D01*
X194243742Y-196021900D02*
X194172313Y-195879042D01*
X194172313Y-195879042D02*
X194100885Y-195807614D01*
X194100885Y-195807614D02*
X193958027Y-195736185D01*
X194886598Y-196450471D02*
X194958027Y-196521900D01*
X194958027Y-196521900D02*
X194886598Y-196593328D01*
X194886598Y-196593328D02*
X194815170Y-196521900D01*
X194815170Y-196521900D02*
X194886598Y-196450471D01*
X194886598Y-196450471D02*
X194886598Y-196593328D01*
X195886599Y-195093328D02*
X196029456Y-195093328D01*
X196029456Y-195093328D02*
X196172313Y-195164757D01*
X196172313Y-195164757D02*
X196243742Y-195236185D01*
X196243742Y-195236185D02*
X196315170Y-195379042D01*
X196315170Y-195379042D02*
X196386599Y-195664757D01*
X196386599Y-195664757D02*
X196386599Y-196021900D01*
X196386599Y-196021900D02*
X196315170Y-196307614D01*
X196315170Y-196307614D02*
X196243742Y-196450471D01*
X196243742Y-196450471D02*
X196172313Y-196521900D01*
X196172313Y-196521900D02*
X196029456Y-196593328D01*
X196029456Y-196593328D02*
X195886599Y-196593328D01*
X195886599Y-196593328D02*
X195743742Y-196521900D01*
X195743742Y-196521900D02*
X195672313Y-196450471D01*
X195672313Y-196450471D02*
X195600884Y-196307614D01*
X195600884Y-196307614D02*
X195529456Y-196021900D01*
X195529456Y-196021900D02*
X195529456Y-195664757D01*
X195529456Y-195664757D02*
X195600884Y-195379042D01*
X195600884Y-195379042D02*
X195672313Y-195236185D01*
X195672313Y-195236185D02*
X195743742Y-195164757D01*
X195743742Y-195164757D02*
X195886599Y-195093328D01*
X197029455Y-196450471D02*
X197100884Y-196521900D01*
X197100884Y-196521900D02*
X197029455Y-196593328D01*
X197029455Y-196593328D02*
X196958027Y-196521900D01*
X196958027Y-196521900D02*
X197029455Y-196450471D01*
X197029455Y-196450471D02*
X197029455Y-196593328D01*
X197600884Y-195093328D02*
X198529456Y-195093328D01*
X198529456Y-195093328D02*
X198029456Y-195664757D01*
X198029456Y-195664757D02*
X198243741Y-195664757D01*
X198243741Y-195664757D02*
X198386599Y-195736185D01*
X198386599Y-195736185D02*
X198458027Y-195807614D01*
X198458027Y-195807614D02*
X198529456Y-195950471D01*
X198529456Y-195950471D02*
X198529456Y-196307614D01*
X198529456Y-196307614D02*
X198458027Y-196450471D01*
X198458027Y-196450471D02*
X198386599Y-196521900D01*
X198386599Y-196521900D02*
X198243741Y-196593328D01*
X198243741Y-196593328D02*
X197815170Y-196593328D01*
X197815170Y-196593328D02*
X197672313Y-196521900D01*
X197672313Y-196521900D02*
X197600884Y-196450471D01*
D10*
D11*
X177002200Y-191507200D02*
X285002200Y-191507200D01*
D10*
D12*
X264413853Y-193785528D02*
X263913853Y-193071242D01*
X263556710Y-193785528D02*
X263556710Y-192285528D01*
X263556710Y-192285528D02*
X264128139Y-192285528D01*
X264128139Y-192285528D02*
X264270996Y-192356957D01*
X264270996Y-192356957D02*
X264342425Y-192428385D01*
X264342425Y-192428385D02*
X264413853Y-192571242D01*
X264413853Y-192571242D02*
X264413853Y-192785528D01*
X264413853Y-192785528D02*
X264342425Y-192928385D01*
X264342425Y-192928385D02*
X264270996Y-192999814D01*
X264270996Y-192999814D02*
X264128139Y-193071242D01*
X264128139Y-193071242D02*
X263556710Y-193071242D01*
X265628139Y-193714100D02*
X265485282Y-193785528D01*
X265485282Y-193785528D02*
X265199568Y-193785528D01*
X265199568Y-193785528D02*
X265056710Y-193714100D01*
X265056710Y-193714100D02*
X264985282Y-193571242D01*
X264985282Y-193571242D02*
X264985282Y-192999814D01*
X264985282Y-192999814D02*
X265056710Y-192856957D01*
X265056710Y-192856957D02*
X265199568Y-192785528D01*
X265199568Y-192785528D02*
X265485282Y-192785528D01*
X265485282Y-192785528D02*
X265628139Y-192856957D01*
X265628139Y-192856957D02*
X265699568Y-192999814D01*
X265699568Y-192999814D02*
X265699568Y-193142671D01*
X265699568Y-193142671D02*
X264985282Y-193285528D01*
X266199567Y-192785528D02*
X266556710Y-193785528D01*
X266556710Y-193785528D02*
X266913853Y-192785528D01*
X267485281Y-193642671D02*
X267556710Y-193714100D01*
X267556710Y-193714100D02*
X267485281Y-193785528D01*
X267485281Y-193785528D02*
X267413853Y-193714100D01*
X267413853Y-193714100D02*
X267485281Y-193642671D01*
X267485281Y-193642671D02*
X267485281Y-193785528D01*
X267485281Y-192856957D02*
X267556710Y-192928385D01*
X267556710Y-192928385D02*
X267485281Y-192999814D01*
X267485281Y-192999814D02*
X267413853Y-192928385D01*
X267413853Y-192928385D02*
X267485281Y-192856957D01*
X267485281Y-192856957D02*
X267485281Y-192999814D01*
D10*
D11*
X178386598Y-193721900D02*
X178600884Y-193793328D01*
X178600884Y-193793328D02*
X178958026Y-193793328D01*
X178958026Y-193793328D02*
X179100884Y-193721900D01*
X179100884Y-193721900D02*
X179172312Y-193650471D01*
X179172312Y-193650471D02*
X179243741Y-193507614D01*
X179243741Y-193507614D02*
X179243741Y-193364757D01*
X179243741Y-193364757D02*
X179172312Y-193221900D01*
X179172312Y-193221900D02*
X179100884Y-193150471D01*
X179100884Y-193150471D02*
X178958026Y-193079042D01*
X178958026Y-193079042D02*
X178672312Y-193007614D01*
X178672312Y-193007614D02*
X178529455Y-192936185D01*
X178529455Y-192936185D02*
X178458026Y-192864757D01*
X178458026Y-192864757D02*
X178386598Y-192721900D01*
X178386598Y-192721900D02*
X178386598Y-192579042D01*
X178386598Y-192579042D02*
X178458026Y-192436185D01*
X178458026Y-192436185D02*
X178529455Y-192364757D01*
X178529455Y-192364757D02*
X178672312Y-192293328D01*
X178672312Y-192293328D02*
X179029455Y-192293328D01*
X179029455Y-192293328D02*
X179243741Y-192364757D01*
X179886597Y-193793328D02*
X179886597Y-192793328D01*
X179886597Y-192293328D02*
X179815169Y-192364757D01*
X179815169Y-192364757D02*
X179886597Y-192436185D01*
X179886597Y-192436185D02*
X179958026Y-192364757D01*
X179958026Y-192364757D02*
X179886597Y-192293328D01*
X179886597Y-192293328D02*
X179886597Y-192436185D01*
X180458026Y-192793328D02*
X181243741Y-192793328D01*
X181243741Y-192793328D02*
X180458026Y-193793328D01*
X180458026Y-193793328D02*
X181243741Y-193793328D01*
X182386598Y-193721900D02*
X182243741Y-193793328D01*
X182243741Y-193793328D02*
X181958027Y-193793328D01*
X181958027Y-193793328D02*
X181815169Y-193721900D01*
X181815169Y-193721900D02*
X181743741Y-193579042D01*
X181743741Y-193579042D02*
X181743741Y-193007614D01*
X181743741Y-193007614D02*
X181815169Y-192864757D01*
X181815169Y-192864757D02*
X181958027Y-192793328D01*
X181958027Y-192793328D02*
X182243741Y-192793328D01*
X182243741Y-192793328D02*
X182386598Y-192864757D01*
X182386598Y-192864757D02*
X182458027Y-193007614D01*
X182458027Y-193007614D02*
X182458027Y-193150471D01*
X182458027Y-193150471D02*
X181743741Y-193293328D01*
X183100883Y-193650471D02*
X183172312Y-193721900D01*
X183172312Y-193721900D02*
X183100883Y-193793328D01*
X183100883Y-193793328D02*
X183029455Y-193721900D01*
X183029455Y-193721900D02*
X183100883Y-193650471D01*
X183100883Y-193650471D02*
X183100883Y-193793328D01*
X183100883Y-192864757D02*
X183172312Y-192936185D01*
X183172312Y-192936185D02*
X183100883Y-193007614D01*
X183100883Y-193007614D02*
X183029455Y-192936185D01*
X183029455Y-192936185D02*
X183100883Y-192864757D01*
X183100883Y-192864757D02*
X183100883Y-193007614D01*
X184886598Y-193364757D02*
X185600884Y-193364757D01*
X184743741Y-193793328D02*
X185243741Y-192293328D01*
X185243741Y-192293328D02*
X185743741Y-193793328D01*
X186886598Y-192793328D02*
X186886598Y-193793328D01*
X186529455Y-192221900D02*
X186172312Y-193293328D01*
X186172312Y-193293328D02*
X187100883Y-193293328D01*
D10*
D11*
X263458026Y-196593328D02*
X263458026Y-195093328D01*
X264815170Y-196593328D02*
X264815170Y-195093328D01*
X264815170Y-196521900D02*
X264672312Y-196593328D01*
X264672312Y-196593328D02*
X264386598Y-196593328D01*
X264386598Y-196593328D02*
X264243741Y-196521900D01*
X264243741Y-196521900D02*
X264172312Y-196450471D01*
X264172312Y-196450471D02*
X264100884Y-196307614D01*
X264100884Y-196307614D02*
X264100884Y-195879042D01*
X264100884Y-195879042D02*
X264172312Y-195736185D01*
X264172312Y-195736185D02*
X264243741Y-195664757D01*
X264243741Y-195664757D02*
X264386598Y-195593328D01*
X264386598Y-195593328D02*
X264672312Y-195593328D01*
X264672312Y-195593328D02*
X264815170Y-195664757D01*
X265529455Y-196450471D02*
X265600884Y-196521900D01*
X265600884Y-196521900D02*
X265529455Y-196593328D01*
X265529455Y-196593328D02*
X265458027Y-196521900D01*
X265458027Y-196521900D02*
X265529455Y-196450471D01*
X265529455Y-196450471D02*
X265529455Y-196593328D01*
X265529455Y-195664757D02*
X265600884Y-195736185D01*
X265600884Y-195736185D02*
X265529455Y-195807614D01*
X265529455Y-195807614D02*
X265458027Y-195736185D01*
X265458027Y-195736185D02*
X265529455Y-195664757D01*
X265529455Y-195664757D02*
X265529455Y-195807614D01*
X268172313Y-196593328D02*
X267315170Y-196593328D01*
X267743741Y-196593328D02*
X267743741Y-195093328D01*
X267743741Y-195093328D02*
X267600884Y-195307614D01*
X267600884Y-195307614D02*
X267458027Y-195450471D01*
X267458027Y-195450471D02*
X267315170Y-195521900D01*
X269886598Y-195021900D02*
X268600884Y-196950471D01*
X271172313Y-196593328D02*
X270315170Y-196593328D01*
X270743741Y-196593328D02*
X270743741Y-195093328D01*
X270743741Y-195093328D02*
X270600884Y-195307614D01*
X270600884Y-195307614D02*
X270458027Y-195450471D01*
X270458027Y-195450471D02*
X270315170Y-195521900D01*
D10*
D11*
X177002200Y-187507200D02*
X285002200Y-187507200D01*
D10*
D13*
X178693928Y-188211638D02*
X179836785Y-188211638D01*
X179015357Y-190211638D02*
X179265357Y-188211638D01*
X180253452Y-190211638D02*
X180420119Y-188878304D01*
X180503452Y-188211638D02*
X180396309Y-188306876D01*
X180396309Y-188306876D02*
X180479643Y-188402114D01*
X180479643Y-188402114D02*
X180586786Y-188306876D01*
X180586786Y-188306876D02*
X180503452Y-188211638D01*
X180503452Y-188211638D02*
X180479643Y-188402114D01*
X181086786Y-188878304D02*
X181848690Y-188878304D01*
X181455833Y-188211638D02*
X181241548Y-189925923D01*
X181241548Y-189925923D02*
X181312976Y-190116400D01*
X181312976Y-190116400D02*
X181491548Y-190211638D01*
X181491548Y-190211638D02*
X181682024Y-190211638D01*
X182634405Y-190211638D02*
X182455833Y-190116400D01*
X182455833Y-190116400D02*
X182384405Y-189925923D01*
X182384405Y-189925923D02*
X182598690Y-188211638D01*
X184170119Y-190116400D02*
X183967738Y-190211638D01*
X183967738Y-190211638D02*
X183586785Y-190211638D01*
X183586785Y-190211638D02*
X183408214Y-190116400D01*
X183408214Y-190116400D02*
X183336785Y-189925923D01*
X183336785Y-189925923D02*
X183432024Y-189164019D01*
X183432024Y-189164019D02*
X183551071Y-188973542D01*
X183551071Y-188973542D02*
X183753452Y-188878304D01*
X183753452Y-188878304D02*
X184134404Y-188878304D01*
X184134404Y-188878304D02*
X184312976Y-188973542D01*
X184312976Y-188973542D02*
X184384404Y-189164019D01*
X184384404Y-189164019D02*
X184360595Y-189354495D01*
X184360595Y-189354495D02*
X183384404Y-189544971D01*
X185134405Y-190021161D02*
X185217738Y-190116400D01*
X185217738Y-190116400D02*
X185110595Y-190211638D01*
X185110595Y-190211638D02*
X185027262Y-190116400D01*
X185027262Y-190116400D02*
X185134405Y-190021161D01*
X185134405Y-190021161D02*
X185110595Y-190211638D01*
X185265357Y-188973542D02*
X185348690Y-189068780D01*
X185348690Y-189068780D02*
X185241548Y-189164019D01*
X185241548Y-189164019D02*
X185158214Y-189068780D01*
X185158214Y-189068780D02*
X185265357Y-188973542D01*
X185265357Y-188973542D02*
X185241548Y-189164019D01*
D10*
D11*
X178958026Y-185607614D02*
X178458026Y-185607614D01*
X178458026Y-186393328D02*
X178458026Y-184893328D01*
X178458026Y-184893328D02*
X179172312Y-184893328D01*
X179743740Y-186393328D02*
X179743740Y-185393328D01*
X179743740Y-184893328D02*
X179672312Y-184964757D01*
X179672312Y-184964757D02*
X179743740Y-185036185D01*
X179743740Y-185036185D02*
X179815169Y-184964757D01*
X179815169Y-184964757D02*
X179743740Y-184893328D01*
X179743740Y-184893328D02*
X179743740Y-185036185D01*
X180672312Y-186393328D02*
X180529455Y-186321900D01*
X180529455Y-186321900D02*
X180458026Y-186179042D01*
X180458026Y-186179042D02*
X180458026Y-184893328D01*
X181815169Y-186321900D02*
X181672312Y-186393328D01*
X181672312Y-186393328D02*
X181386598Y-186393328D01*
X181386598Y-186393328D02*
X181243740Y-186321900D01*
X181243740Y-186321900D02*
X181172312Y-186179042D01*
X181172312Y-186179042D02*
X181172312Y-185607614D01*
X181172312Y-185607614D02*
X181243740Y-185464757D01*
X181243740Y-185464757D02*
X181386598Y-185393328D01*
X181386598Y-185393328D02*
X181672312Y-185393328D01*
X181672312Y-185393328D02*
X181815169Y-185464757D01*
X181815169Y-185464757D02*
X181886598Y-185607614D01*
X181886598Y-185607614D02*
X181886598Y-185750471D01*
X181886598Y-185750471D02*
X181172312Y-185893328D01*
X182529454Y-186250471D02*
X182600883Y-186321900D01*
X182600883Y-186321900D02*
X182529454Y-186393328D01*
X182529454Y-186393328D02*
X182458026Y-186321900D01*
X182458026Y-186321900D02*
X182529454Y-186250471D01*
X182529454Y-186250471D02*
X182529454Y-186393328D01*
X182529454Y-185464757D02*
X182600883Y-185536185D01*
X182600883Y-185536185D02*
X182529454Y-185607614D01*
X182529454Y-185607614D02*
X182458026Y-185536185D01*
X182458026Y-185536185D02*
X182529454Y-185464757D01*
X182529454Y-185464757D02*
X182529454Y-185607614D01*
X184386597Y-186393328D02*
X184386597Y-184893328D01*
X184386597Y-184893328D02*
X184743740Y-184893328D01*
X184743740Y-184893328D02*
X184958026Y-184964757D01*
X184958026Y-184964757D02*
X185100883Y-185107614D01*
X185100883Y-185107614D02*
X185172312Y-185250471D01*
X185172312Y-185250471D02*
X185243740Y-185536185D01*
X185243740Y-185536185D02*
X185243740Y-185750471D01*
X185243740Y-185750471D02*
X185172312Y-186036185D01*
X185172312Y-186036185D02*
X185100883Y-186179042D01*
X185100883Y-186179042D02*
X184958026Y-186321900D01*
X184958026Y-186321900D02*
X184743740Y-186393328D01*
X184743740Y-186393328D02*
X184386597Y-186393328D01*
X186458026Y-186321900D02*
X186315169Y-186393328D01*
X186315169Y-186393328D02*
X186029455Y-186393328D01*
X186029455Y-186393328D02*
X185886597Y-186321900D01*
X185886597Y-186321900D02*
X185815169Y-186179042D01*
X185815169Y-186179042D02*
X185815169Y-185607614D01*
X185815169Y-185607614D02*
X185886597Y-185464757D01*
X185886597Y-185464757D02*
X186029455Y-185393328D01*
X186029455Y-185393328D02*
X186315169Y-185393328D01*
X186315169Y-185393328D02*
X186458026Y-185464757D01*
X186458026Y-185464757D02*
X186529455Y-185607614D01*
X186529455Y-185607614D02*
X186529455Y-185750471D01*
X186529455Y-185750471D02*
X185815169Y-185893328D01*
X187029454Y-185393328D02*
X187386597Y-186393328D01*
X187386597Y-186393328D02*
X187743740Y-185393328D01*
X188315168Y-186393328D02*
X188315168Y-185393328D01*
X188315168Y-184893328D02*
X188243740Y-184964757D01*
X188243740Y-184964757D02*
X188315168Y-185036185D01*
X188315168Y-185036185D02*
X188386597Y-184964757D01*
X188386597Y-184964757D02*
X188315168Y-184893328D01*
X188315168Y-184893328D02*
X188315168Y-185036185D01*
X189672312Y-186321900D02*
X189529454Y-186393328D01*
X189529454Y-186393328D02*
X189243740Y-186393328D01*
X189243740Y-186393328D02*
X189100883Y-186321900D01*
X189100883Y-186321900D02*
X189029454Y-186250471D01*
X189029454Y-186250471D02*
X188958026Y-186107614D01*
X188958026Y-186107614D02*
X188958026Y-185679042D01*
X188958026Y-185679042D02*
X189029454Y-185536185D01*
X189029454Y-185536185D02*
X189100883Y-185464757D01*
X189100883Y-185464757D02*
X189243740Y-185393328D01*
X189243740Y-185393328D02*
X189529454Y-185393328D01*
X189529454Y-185393328D02*
X189672312Y-185464757D01*
X190886597Y-186321900D02*
X190743740Y-186393328D01*
X190743740Y-186393328D02*
X190458026Y-186393328D01*
X190458026Y-186393328D02*
X190315168Y-186321900D01*
X190315168Y-186321900D02*
X190243740Y-186179042D01*
X190243740Y-186179042D02*
X190243740Y-185607614D01*
X190243740Y-185607614D02*
X190315168Y-185464757D01*
X190315168Y-185464757D02*
X190458026Y-185393328D01*
X190458026Y-185393328D02*
X190743740Y-185393328D01*
X190743740Y-185393328D02*
X190886597Y-185464757D01*
X190886597Y-185464757D02*
X190958026Y-185607614D01*
X190958026Y-185607614D02*
X190958026Y-185750471D01*
X190958026Y-185750471D02*
X190243740Y-185893328D01*
X191600882Y-185821900D02*
X192743740Y-185821900D01*
X193386597Y-185964757D02*
X194100883Y-185964757D01*
X193243740Y-186393328D02*
X193743740Y-184893328D01*
X193743740Y-184893328D02*
X194243740Y-186393328D01*
X194529454Y-184893328D02*
X195386597Y-184893328D01*
X194958025Y-186393328D02*
X194958025Y-184893328D01*
X195886596Y-186393328D02*
X195886596Y-185393328D01*
X195886596Y-185536185D02*
X195958025Y-185464757D01*
X195958025Y-185464757D02*
X196100882Y-185393328D01*
X196100882Y-185393328D02*
X196315168Y-185393328D01*
X196315168Y-185393328D02*
X196458025Y-185464757D01*
X196458025Y-185464757D02*
X196529454Y-185607614D01*
X196529454Y-185607614D02*
X196529454Y-186393328D01*
X196529454Y-185607614D02*
X196600882Y-185464757D01*
X196600882Y-185464757D02*
X196743739Y-185393328D01*
X196743739Y-185393328D02*
X196958025Y-185393328D01*
X196958025Y-185393328D02*
X197100882Y-185464757D01*
X197100882Y-185464757D02*
X197172311Y-185607614D01*
X197172311Y-185607614D02*
X197172311Y-186393328D01*
X198458025Y-186321900D02*
X198315168Y-186393328D01*
X198315168Y-186393328D02*
X198029454Y-186393328D01*
X198029454Y-186393328D02*
X197886596Y-186321900D01*
X197886596Y-186321900D02*
X197815168Y-186179042D01*
X197815168Y-186179042D02*
X197815168Y-185607614D01*
X197815168Y-185607614D02*
X197886596Y-185464757D01*
X197886596Y-185464757D02*
X198029454Y-185393328D01*
X198029454Y-185393328D02*
X198315168Y-185393328D01*
X198315168Y-185393328D02*
X198458025Y-185464757D01*
X198458025Y-185464757D02*
X198529454Y-185607614D01*
X198529454Y-185607614D02*
X198529454Y-185750471D01*
X198529454Y-185750471D02*
X197815168Y-185893328D01*
X199815168Y-185393328D02*
X199815168Y-186607614D01*
X199815168Y-186607614D02*
X199743739Y-186750471D01*
X199743739Y-186750471D02*
X199672310Y-186821900D01*
X199672310Y-186821900D02*
X199529453Y-186893328D01*
X199529453Y-186893328D02*
X199315168Y-186893328D01*
X199315168Y-186893328D02*
X199172310Y-186821900D01*
X199815168Y-186321900D02*
X199672310Y-186393328D01*
X199672310Y-186393328D02*
X199386596Y-186393328D01*
X199386596Y-186393328D02*
X199243739Y-186321900D01*
X199243739Y-186321900D02*
X199172310Y-186250471D01*
X199172310Y-186250471D02*
X199100882Y-186107614D01*
X199100882Y-186107614D02*
X199100882Y-185679042D01*
X199100882Y-185679042D02*
X199172310Y-185536185D01*
X199172310Y-185536185D02*
X199243739Y-185464757D01*
X199243739Y-185464757D02*
X199386596Y-185393328D01*
X199386596Y-185393328D02*
X199672310Y-185393328D01*
X199672310Y-185393328D02*
X199815168Y-185464757D01*
X201172311Y-186393328D02*
X201172311Y-185607614D01*
X201172311Y-185607614D02*
X201100882Y-185464757D01*
X201100882Y-185464757D02*
X200958025Y-185393328D01*
X200958025Y-185393328D02*
X200672311Y-185393328D01*
X200672311Y-185393328D02*
X200529453Y-185464757D01*
X201172311Y-186321900D02*
X201029453Y-186393328D01*
X201029453Y-186393328D02*
X200672311Y-186393328D01*
X200672311Y-186393328D02*
X200529453Y-186321900D01*
X200529453Y-186321900D02*
X200458025Y-186179042D01*
X200458025Y-186179042D02*
X200458025Y-186036185D01*
X200458025Y-186036185D02*
X200529453Y-185893328D01*
X200529453Y-185893328D02*
X200672311Y-185821900D01*
X200672311Y-185821900D02*
X201029453Y-185821900D01*
X201029453Y-185821900D02*
X201172311Y-185750471D01*
X202100882Y-185536185D02*
X201958025Y-185464757D01*
X201958025Y-185464757D02*
X201886596Y-185393328D01*
X201886596Y-185393328D02*
X201815168Y-185250471D01*
X201815168Y-185250471D02*
X201815168Y-185179042D01*
X201815168Y-185179042D02*
X201886596Y-185036185D01*
X201886596Y-185036185D02*
X201958025Y-184964757D01*
X201958025Y-184964757D02*
X202100882Y-184893328D01*
X202100882Y-184893328D02*
X202386596Y-184893328D01*
X202386596Y-184893328D02*
X202529454Y-184964757D01*
X202529454Y-184964757D02*
X202600882Y-185036185D01*
X202600882Y-185036185D02*
X202672311Y-185179042D01*
X202672311Y-185179042D02*
X202672311Y-185250471D01*
X202672311Y-185250471D02*
X202600882Y-185393328D01*
X202600882Y-185393328D02*
X202529454Y-185464757D01*
X202529454Y-185464757D02*
X202386596Y-185536185D01*
X202386596Y-185536185D02*
X202100882Y-185536185D01*
X202100882Y-185536185D02*
X201958025Y-185607614D01*
X201958025Y-185607614D02*
X201886596Y-185679042D01*
X201886596Y-185679042D02*
X201815168Y-185821900D01*
X201815168Y-185821900D02*
X201815168Y-186107614D01*
X201815168Y-186107614D02*
X201886596Y-186250471D01*
X201886596Y-186250471D02*
X201958025Y-186321900D01*
X201958025Y-186321900D02*
X202100882Y-186393328D01*
X202100882Y-186393328D02*
X202386596Y-186393328D01*
X202386596Y-186393328D02*
X202529454Y-186321900D01*
X202529454Y-186321900D02*
X202600882Y-186250471D01*
X202600882Y-186250471D02*
X202672311Y-186107614D01*
X202672311Y-186107614D02*
X202672311Y-185821900D01*
X202672311Y-185821900D02*
X202600882Y-185679042D01*
X202600882Y-185679042D02*
X202529454Y-185607614D01*
X202529454Y-185607614D02*
X202386596Y-185536185D01*
X203529453Y-185536185D02*
X203386596Y-185464757D01*
X203386596Y-185464757D02*
X203315167Y-185393328D01*
X203315167Y-185393328D02*
X203243739Y-185250471D01*
X203243739Y-185250471D02*
X203243739Y-185179042D01*
X203243739Y-185179042D02*
X203315167Y-185036185D01*
X203315167Y-185036185D02*
X203386596Y-184964757D01*
X203386596Y-184964757D02*
X203529453Y-184893328D01*
X203529453Y-184893328D02*
X203815167Y-184893328D01*
X203815167Y-184893328D02*
X203958025Y-184964757D01*
X203958025Y-184964757D02*
X204029453Y-185036185D01*
X204029453Y-185036185D02*
X204100882Y-185179042D01*
X204100882Y-185179042D02*
X204100882Y-185250471D01*
X204100882Y-185250471D02*
X204029453Y-185393328D01*
X204029453Y-185393328D02*
X203958025Y-185464757D01*
X203958025Y-185464757D02*
X203815167Y-185536185D01*
X203815167Y-185536185D02*
X203529453Y-185536185D01*
X203529453Y-185536185D02*
X203386596Y-185607614D01*
X203386596Y-185607614D02*
X203315167Y-185679042D01*
X203315167Y-185679042D02*
X203243739Y-185821900D01*
X203243739Y-185821900D02*
X203243739Y-186107614D01*
X203243739Y-186107614D02*
X203315167Y-186250471D01*
X203315167Y-186250471D02*
X203386596Y-186321900D01*
X203386596Y-186321900D02*
X203529453Y-186393328D01*
X203529453Y-186393328D02*
X203815167Y-186393328D01*
X203815167Y-186393328D02*
X203958025Y-186321900D01*
X203958025Y-186321900D02*
X204029453Y-186250471D01*
X204029453Y-186250471D02*
X204100882Y-186107614D01*
X204100882Y-186107614D02*
X204100882Y-185821900D01*
X204100882Y-185821900D02*
X204029453Y-185679042D01*
X204029453Y-185679042D02*
X203958025Y-185607614D01*
X203958025Y-185607614D02*
X203815167Y-185536185D01*
X204386596Y-186536185D02*
X205529453Y-186536185D01*
X206386595Y-185607614D02*
X206600881Y-185679042D01*
X206600881Y-185679042D02*
X206672310Y-185750471D01*
X206672310Y-185750471D02*
X206743738Y-185893328D01*
X206743738Y-185893328D02*
X206743738Y-186107614D01*
X206743738Y-186107614D02*
X206672310Y-186250471D01*
X206672310Y-186250471D02*
X206600881Y-186321900D01*
X206600881Y-186321900D02*
X206458024Y-186393328D01*
X206458024Y-186393328D02*
X205886595Y-186393328D01*
X205886595Y-186393328D02*
X205886595Y-184893328D01*
X205886595Y-184893328D02*
X206386595Y-184893328D01*
X206386595Y-184893328D02*
X206529453Y-184964757D01*
X206529453Y-184964757D02*
X206600881Y-185036185D01*
X206600881Y-185036185D02*
X206672310Y-185179042D01*
X206672310Y-185179042D02*
X206672310Y-185321900D01*
X206672310Y-185321900D02*
X206600881Y-185464757D01*
X206600881Y-185464757D02*
X206529453Y-185536185D01*
X206529453Y-185536185D02*
X206386595Y-185607614D01*
X206386595Y-185607614D02*
X205886595Y-185607614D01*
X207600881Y-186393328D02*
X207458024Y-186321900D01*
X207458024Y-186321900D02*
X207386595Y-186250471D01*
X207386595Y-186250471D02*
X207315167Y-186107614D01*
X207315167Y-186107614D02*
X207315167Y-185679042D01*
X207315167Y-185679042D02*
X207386595Y-185536185D01*
X207386595Y-185536185D02*
X207458024Y-185464757D01*
X207458024Y-185464757D02*
X207600881Y-185393328D01*
X207600881Y-185393328D02*
X207815167Y-185393328D01*
X207815167Y-185393328D02*
X207958024Y-185464757D01*
X207958024Y-185464757D02*
X208029453Y-185536185D01*
X208029453Y-185536185D02*
X208100881Y-185679042D01*
X208100881Y-185679042D02*
X208100881Y-186107614D01*
X208100881Y-186107614D02*
X208029453Y-186250471D01*
X208029453Y-186250471D02*
X207958024Y-186321900D01*
X207958024Y-186321900D02*
X207815167Y-186393328D01*
X207815167Y-186393328D02*
X207600881Y-186393328D01*
X209386596Y-186393328D02*
X209386596Y-185607614D01*
X209386596Y-185607614D02*
X209315167Y-185464757D01*
X209315167Y-185464757D02*
X209172310Y-185393328D01*
X209172310Y-185393328D02*
X208886596Y-185393328D01*
X208886596Y-185393328D02*
X208743738Y-185464757D01*
X209386596Y-186321900D02*
X209243738Y-186393328D01*
X209243738Y-186393328D02*
X208886596Y-186393328D01*
X208886596Y-186393328D02*
X208743738Y-186321900D01*
X208743738Y-186321900D02*
X208672310Y-186179042D01*
X208672310Y-186179042D02*
X208672310Y-186036185D01*
X208672310Y-186036185D02*
X208743738Y-185893328D01*
X208743738Y-185893328D02*
X208886596Y-185821900D01*
X208886596Y-185821900D02*
X209243738Y-185821900D01*
X209243738Y-185821900D02*
X209386596Y-185750471D01*
X210100881Y-186393328D02*
X210100881Y-185393328D01*
X210100881Y-185679042D02*
X210172310Y-185536185D01*
X210172310Y-185536185D02*
X210243739Y-185464757D01*
X210243739Y-185464757D02*
X210386596Y-185393328D01*
X210386596Y-185393328D02*
X210529453Y-185393328D01*
X211672310Y-186393328D02*
X211672310Y-184893328D01*
X211672310Y-186321900D02*
X211529452Y-186393328D01*
X211529452Y-186393328D02*
X211243738Y-186393328D01*
X211243738Y-186393328D02*
X211100881Y-186321900D01*
X211100881Y-186321900D02*
X211029452Y-186250471D01*
X211029452Y-186250471D02*
X210958024Y-186107614D01*
X210958024Y-186107614D02*
X210958024Y-185679042D01*
X210958024Y-185679042D02*
X211029452Y-185536185D01*
X211029452Y-185536185D02*
X211100881Y-185464757D01*
X211100881Y-185464757D02*
X211243738Y-185393328D01*
X211243738Y-185393328D02*
X211529452Y-185393328D01*
X211529452Y-185393328D02*
X211672310Y-185464757D01*
X212386595Y-186250471D02*
X212458024Y-186321900D01*
X212458024Y-186321900D02*
X212386595Y-186393328D01*
X212386595Y-186393328D02*
X212315167Y-186321900D01*
X212315167Y-186321900D02*
X212386595Y-186250471D01*
X212386595Y-186250471D02*
X212386595Y-186393328D01*
X213100881Y-186393328D02*
X213100881Y-184893328D01*
X213243739Y-185821900D02*
X213672310Y-186393328D01*
X213672310Y-185393328D02*
X213100881Y-185964757D01*
X214315167Y-186393328D02*
X214315167Y-185393328D01*
X214315167Y-184893328D02*
X214243739Y-184964757D01*
X214243739Y-184964757D02*
X214315167Y-185036185D01*
X214315167Y-185036185D02*
X214386596Y-184964757D01*
X214386596Y-184964757D02*
X214315167Y-184893328D01*
X214315167Y-184893328D02*
X214315167Y-185036185D01*
X215672311Y-186321900D02*
X215529453Y-186393328D01*
X215529453Y-186393328D02*
X215243739Y-186393328D01*
X215243739Y-186393328D02*
X215100882Y-186321900D01*
X215100882Y-186321900D02*
X215029453Y-186250471D01*
X215029453Y-186250471D02*
X214958025Y-186107614D01*
X214958025Y-186107614D02*
X214958025Y-185679042D01*
X214958025Y-185679042D02*
X215029453Y-185536185D01*
X215029453Y-185536185D02*
X215100882Y-185464757D01*
X215100882Y-185464757D02*
X215243739Y-185393328D01*
X215243739Y-185393328D02*
X215529453Y-185393328D01*
X215529453Y-185393328D02*
X215672311Y-185464757D01*
X216958025Y-186393328D02*
X216958025Y-185607614D01*
X216958025Y-185607614D02*
X216886596Y-185464757D01*
X216886596Y-185464757D02*
X216743739Y-185393328D01*
X216743739Y-185393328D02*
X216458025Y-185393328D01*
X216458025Y-185393328D02*
X216315167Y-185464757D01*
X216958025Y-186321900D02*
X216815167Y-186393328D01*
X216815167Y-186393328D02*
X216458025Y-186393328D01*
X216458025Y-186393328D02*
X216315167Y-186321900D01*
X216315167Y-186321900D02*
X216243739Y-186179042D01*
X216243739Y-186179042D02*
X216243739Y-186036185D01*
X216243739Y-186036185D02*
X216315167Y-185893328D01*
X216315167Y-185893328D02*
X216458025Y-185821900D01*
X216458025Y-185821900D02*
X216815167Y-185821900D01*
X216815167Y-185821900D02*
X216958025Y-185750471D01*
X218315168Y-186393328D02*
X218315168Y-184893328D01*
X218315168Y-186321900D02*
X218172310Y-186393328D01*
X218172310Y-186393328D02*
X217886596Y-186393328D01*
X217886596Y-186393328D02*
X217743739Y-186321900D01*
X217743739Y-186321900D02*
X217672310Y-186250471D01*
X217672310Y-186250471D02*
X217600882Y-186107614D01*
X217600882Y-186107614D02*
X217600882Y-185679042D01*
X217600882Y-185679042D02*
X217672310Y-185536185D01*
X217672310Y-185536185D02*
X217743739Y-185464757D01*
X217743739Y-185464757D02*
X217886596Y-185393328D01*
X217886596Y-185393328D02*
X218172310Y-185393328D01*
X218172310Y-185393328D02*
X218315168Y-185464757D01*
X218672311Y-186536185D02*
X219815168Y-186536185D01*
X220172310Y-185393328D02*
X220172310Y-186893328D01*
X220172310Y-185464757D02*
X220315168Y-185393328D01*
X220315168Y-185393328D02*
X220600882Y-185393328D01*
X220600882Y-185393328D02*
X220743739Y-185464757D01*
X220743739Y-185464757D02*
X220815168Y-185536185D01*
X220815168Y-185536185D02*
X220886596Y-185679042D01*
X220886596Y-185679042D02*
X220886596Y-186107614D01*
X220886596Y-186107614D02*
X220815168Y-186250471D01*
X220815168Y-186250471D02*
X220743739Y-186321900D01*
X220743739Y-186321900D02*
X220600882Y-186393328D01*
X220600882Y-186393328D02*
X220315168Y-186393328D01*
X220315168Y-186393328D02*
X220172310Y-186321900D01*
X222172311Y-186321900D02*
X222029453Y-186393328D01*
X222029453Y-186393328D02*
X221743739Y-186393328D01*
X221743739Y-186393328D02*
X221600882Y-186321900D01*
X221600882Y-186321900D02*
X221529453Y-186250471D01*
X221529453Y-186250471D02*
X221458025Y-186107614D01*
X221458025Y-186107614D02*
X221458025Y-185679042D01*
X221458025Y-185679042D02*
X221529453Y-185536185D01*
X221529453Y-185536185D02*
X221600882Y-185464757D01*
X221600882Y-185464757D02*
X221743739Y-185393328D01*
X221743739Y-185393328D02*
X222029453Y-185393328D01*
X222029453Y-185393328D02*
X222172311Y-185464757D01*
X222815167Y-186393328D02*
X222815167Y-184893328D01*
X222815167Y-185464757D02*
X222958025Y-185393328D01*
X222958025Y-185393328D02*
X223243739Y-185393328D01*
X223243739Y-185393328D02*
X223386596Y-185464757D01*
X223386596Y-185464757D02*
X223458025Y-185536185D01*
X223458025Y-185536185D02*
X223529453Y-185679042D01*
X223529453Y-185679042D02*
X223529453Y-186107614D01*
X223529453Y-186107614D02*
X223458025Y-186250471D01*
X223458025Y-186250471D02*
X223386596Y-186321900D01*
X223386596Y-186321900D02*
X223243739Y-186393328D01*
X223243739Y-186393328D02*
X222958025Y-186393328D01*
X222958025Y-186393328D02*
X222815167Y-186321900D01*
D10*
D11*
X177002200Y-181507200D02*
X285002200Y-181507200D01*
D10*
D11*
X178386598Y-183621900D02*
X178600884Y-183693328D01*
X178600884Y-183693328D02*
X178958026Y-183693328D01*
X178958026Y-183693328D02*
X179100884Y-183621900D01*
X179100884Y-183621900D02*
X179172312Y-183550471D01*
X179172312Y-183550471D02*
X179243741Y-183407614D01*
X179243741Y-183407614D02*
X179243741Y-183264757D01*
X179243741Y-183264757D02*
X179172312Y-183121900D01*
X179172312Y-183121900D02*
X179100884Y-183050471D01*
X179100884Y-183050471D02*
X178958026Y-182979042D01*
X178958026Y-182979042D02*
X178672312Y-182907614D01*
X178672312Y-182907614D02*
X178529455Y-182836185D01*
X178529455Y-182836185D02*
X178458026Y-182764757D01*
X178458026Y-182764757D02*
X178386598Y-182621900D01*
X178386598Y-182621900D02*
X178386598Y-182479042D01*
X178386598Y-182479042D02*
X178458026Y-182336185D01*
X178458026Y-182336185D02*
X178529455Y-182264757D01*
X178529455Y-182264757D02*
X178672312Y-182193328D01*
X178672312Y-182193328D02*
X179029455Y-182193328D01*
X179029455Y-182193328D02*
X179243741Y-182264757D01*
X179886597Y-183693328D02*
X179886597Y-182193328D01*
X180529455Y-183693328D02*
X180529455Y-182907614D01*
X180529455Y-182907614D02*
X180458026Y-182764757D01*
X180458026Y-182764757D02*
X180315169Y-182693328D01*
X180315169Y-182693328D02*
X180100883Y-182693328D01*
X180100883Y-182693328D02*
X179958026Y-182764757D01*
X179958026Y-182764757D02*
X179886597Y-182836185D01*
X181815169Y-183621900D02*
X181672312Y-183693328D01*
X181672312Y-183693328D02*
X181386598Y-183693328D01*
X181386598Y-183693328D02*
X181243740Y-183621900D01*
X181243740Y-183621900D02*
X181172312Y-183479042D01*
X181172312Y-183479042D02*
X181172312Y-182907614D01*
X181172312Y-182907614D02*
X181243740Y-182764757D01*
X181243740Y-182764757D02*
X181386598Y-182693328D01*
X181386598Y-182693328D02*
X181672312Y-182693328D01*
X181672312Y-182693328D02*
X181815169Y-182764757D01*
X181815169Y-182764757D02*
X181886598Y-182907614D01*
X181886598Y-182907614D02*
X181886598Y-183050471D01*
X181886598Y-183050471D02*
X181172312Y-183193328D01*
X183100883Y-183621900D02*
X182958026Y-183693328D01*
X182958026Y-183693328D02*
X182672312Y-183693328D01*
X182672312Y-183693328D02*
X182529454Y-183621900D01*
X182529454Y-183621900D02*
X182458026Y-183479042D01*
X182458026Y-183479042D02*
X182458026Y-182907614D01*
X182458026Y-182907614D02*
X182529454Y-182764757D01*
X182529454Y-182764757D02*
X182672312Y-182693328D01*
X182672312Y-182693328D02*
X182958026Y-182693328D01*
X182958026Y-182693328D02*
X183100883Y-182764757D01*
X183100883Y-182764757D02*
X183172312Y-182907614D01*
X183172312Y-182907614D02*
X183172312Y-183050471D01*
X183172312Y-183050471D02*
X182458026Y-183193328D01*
X183600883Y-182693328D02*
X184172311Y-182693328D01*
X183815168Y-182193328D02*
X183815168Y-183479042D01*
X183815168Y-183479042D02*
X183886597Y-183621900D01*
X183886597Y-183621900D02*
X184029454Y-183693328D01*
X184029454Y-183693328D02*
X184172311Y-183693328D01*
X184672311Y-183550471D02*
X184743740Y-183621900D01*
X184743740Y-183621900D02*
X184672311Y-183693328D01*
X184672311Y-183693328D02*
X184600883Y-183621900D01*
X184600883Y-183621900D02*
X184672311Y-183550471D01*
X184672311Y-183550471D02*
X184672311Y-183693328D01*
X184672311Y-182764757D02*
X184743740Y-182836185D01*
X184743740Y-182836185D02*
X184672311Y-182907614D01*
X184672311Y-182907614D02*
X184600883Y-182836185D01*
X184600883Y-182836185D02*
X184672311Y-182764757D01*
X184672311Y-182764757D02*
X184672311Y-182907614D01*
D10*
D11*
X197002200Y-191507200D02*
X197002200Y-194507200D01*
D10*
D11*
X261002200Y-191507200D02*
X261002200Y-198007200D01*
D14*
%TO.P,R13,1*%
%TO.N,RST*%
X65278000Y-78232000D03*
D15*
%TO.P,R13,2*%
%TO.N,+5V*%
X55118000Y-78232000D03*
%TD*%
D14*
%TO.P,R6,1*%
%TO.N,TXD*%
X65532000Y-54610000D03*
D15*
%TO.P,R6,2*%
%TO.N,7SEG-B*%
X55372000Y-54610000D03*
%TD*%
D16*
%TO.P,Q1,1,E*%
%TO.N,GND*%
X57002000Y-29718000D03*
D17*
%TO.P,Q1,2,C*%
%TO.N,7SEG-D1*%
X57002000Y-28448000D03*
%TO.P,Q1,3,B*%
%TO.N,Net-(Q1-Pad3)*%
X57002000Y-27178000D03*
%TD*%
D14*
%TO.P,R7,1*%
%TO.N,Net-(R7-Pad1)*%
X65532000Y-57912000D03*
D15*
%TO.P,R7,2*%
%TO.N,7SEG-C*%
X55372000Y-57912000D03*
%TD*%
D16*
%TO.P,Q3,1,E*%
%TO.N,GND*%
X57002000Y-41402000D03*
D17*
%TO.P,Q3,2,C*%
%TO.N,7SEG-D3*%
X57002000Y-40132000D03*
%TO.P,Q3,3,B*%
%TO.N,Net-(Q3-Pad3)*%
X57002000Y-38862000D03*
%TD*%
D14*
%TO.P,R8,1*%
%TO.N,Net-(R8-Pad1)*%
X65532000Y-61214000D03*
D15*
%TO.P,R8,2*%
%TO.N,7SEG-D*%
X55372000Y-61214000D03*
%TD*%
D14*
%TO.P,R9,1*%
%TO.N,Net-(R9-Pad1)*%
X65532000Y-64516000D03*
D15*
%TO.P,R9,2*%
%TO.N,7SEG-E*%
X55372000Y-64516000D03*
%TD*%
D14*
%TO.P,R3,1*%
%TO.N,Net-(R3-Pad1)*%
X70612000Y-38862000D03*
D15*
%TO.P,R3,2*%
%TO.N,Net-(Q3-Pad3)*%
X60452000Y-38862000D03*
%TD*%
D14*
%TO.P,R10,1*%
%TO.N,Net-(R10-Pad1)*%
X65532000Y-67818000D03*
D15*
%TO.P,R10,2*%
%TO.N,7SEG-F*%
X55372000Y-67818000D03*
%TD*%
D16*
%TO.P,Q4,1,E*%
%TO.N,GND*%
X57002000Y-47244000D03*
D17*
%TO.P,Q4,2,C*%
%TO.N,7SEG-D4*%
X57002000Y-45974000D03*
%TO.P,Q4,3,B*%
%TO.N,Net-(Q4-Pad3)*%
X57002000Y-44704000D03*
%TD*%
D18*
%TO.P,U1,1,~{RESET}/PC6*%
%TO.N,RST*%
X68336000Y-48778000D03*
D15*
%TO.P,U1,2,PD0*%
%TO.N,RXD*%
X68336000Y-51318000D03*
%TO.P,U1,3,PD1*%
%TO.N,TXD*%
X68336000Y-53858000D03*
%TO.P,U1,4,PD2*%
%TO.N,Net-(R7-Pad1)*%
X68336000Y-56398000D03*
%TO.P,U1,5,PD3*%
%TO.N,Net-(R8-Pad1)*%
X68336000Y-58938000D03*
%TO.P,U1,6,PD4*%
%TO.N,Net-(R9-Pad1)*%
X68336000Y-61478000D03*
%TO.P,U1,7,VCC*%
%TO.N,+5V*%
X68336000Y-64018000D03*
%TO.P,U1,8,GND*%
%TO.N,GND*%
X68336000Y-66558000D03*
%TO.P,U1,9,XTAL1/PB6*%
%TO.N,unconnected-(U1-Pad9)*%
X68336000Y-69098000D03*
%TO.P,U1,10,XTAL2/PB7*%
%TO.N,unconnected-(U1-Pad10)*%
X68336000Y-71638000D03*
%TO.P,U1,11,PD5*%
%TO.N,Net-(R10-Pad1)*%
X68336000Y-74178000D03*
%TO.P,U1,12,PD6*%
%TO.N,Net-(R11-Pad1)*%
X68336000Y-76718000D03*
%TO.P,U1,13,PD7*%
%TO.N,Net-(R12-Pad1)*%
X68336000Y-79258000D03*
%TO.P,U1,14,PB0*%
%TO.N,Net-(R1-Pad1)*%
X68336000Y-81798000D03*
%TO.P,U1,15,PB1*%
%TO.N,Net-(R2-Pad1)*%
X75956000Y-81798000D03*
%TO.P,U1,16,PB2*%
%TO.N,Net-(R3-Pad1)*%
X75956000Y-79258000D03*
%TO.P,U1,17,PB3*%
%TO.N,MOSI*%
X75956000Y-76718000D03*
%TO.P,U1,18,PB4*%
%TO.N,MISO*%
X75956000Y-74178000D03*
%TO.P,U1,19,PB5*%
%TO.N,SCK*%
X75956000Y-71638000D03*
%TO.P,U1,20,AVCC*%
%TO.N,+5V*%
X75956000Y-69098000D03*
%TO.P,U1,21,AREF*%
X75956000Y-66558000D03*
%TO.P,U1,22,GND*%
%TO.N,GND*%
X75956000Y-64018000D03*
%TO.P,U1,23,PC0*%
%TO.N,AD0*%
X75956000Y-61478000D03*
%TO.P,U1,24,PC1*%
%TO.N,AD1*%
X75956000Y-58938000D03*
%TO.P,U1,25,PC2*%
%TO.N,AD2*%
X75956000Y-56398000D03*
%TO.P,U1,26,PC3*%
%TO.N,AD3*%
X75956000Y-53858000D03*
%TO.P,U1,27,PC4*%
%TO.N,SDA*%
X75956000Y-51318000D03*
%TO.P,U1,28,PC5*%
%TO.N,SCL*%
X75956000Y-48778000D03*
%TD*%
D14*
%TO.P,R4,1*%
%TO.N,MOSI*%
X70612000Y-44704000D03*
D15*
%TO.P,R4,2*%
%TO.N,Net-(Q4-Pad3)*%
X60452000Y-44704000D03*
%TD*%
D16*
%TO.P,Q2,1,E*%
%TO.N,GND*%
X57002000Y-35560000D03*
D17*
%TO.P,Q2,2,C*%
%TO.N,7SEG-D2*%
X57002000Y-34290000D03*
%TO.P,Q2,3,B*%
%TO.N,Net-(Q2-Pad3)*%
X57002000Y-33020000D03*
%TD*%
D14*
%TO.P,R5,1*%
%TO.N,RXD*%
X65532000Y-51308000D03*
D15*
%TO.P,R5,2*%
%TO.N,7SEG-A*%
X55372000Y-51308000D03*
%TD*%
D19*
%TO.P,J5,1,Pin_1*%
%TO.N,MISO*%
X80264000Y-89662000D03*
D20*
%TO.P,J5,2,Pin_2*%
%TO.N,+5V*%
X80264000Y-92202000D03*
%TO.P,J5,3,Pin_3*%
%TO.N,SCK*%
X77724000Y-89662000D03*
%TO.P,J5,4,Pin_4*%
%TO.N,MOSI*%
X77724000Y-92202000D03*
%TO.P,J5,5,Pin_5*%
%TO.N,RST*%
X75184000Y-89662000D03*
%TO.P,J5,6,Pin_6*%
%TO.N,GND*%
X75184000Y-92202000D03*
%TD*%
D19*
%TO.P,J3,1,Pin_1*%
%TO.N,SDA*%
X52603000Y-91669000D03*
D20*
%TO.P,J3,2,Pin_2*%
%TO.N,SCL*%
X55143000Y-91669000D03*
%TO.P,J3,3,Pin_3*%
%TO.N,+5V*%
X57683000Y-91669000D03*
%TO.P,J3,4,Pin_4*%
%TO.N,GND*%
X60223000Y-91669000D03*
%TO.P,J3,5,Pin_5*%
%TO.N,RXD*%
X62763000Y-91669000D03*
%TO.P,J3,6,Pin_6*%
%TO.N,TXD*%
X65303000Y-91669000D03*
%TD*%
D21*
%TO.P,J2,1,VBUS*%
%TO.N,+5V*%
X48032000Y-81844000D03*
D14*
%TO.P,J2,2,D-*%
%TO.N,unconnected-(J2-Pad2)*%
X48032000Y-84344000D03*
%TO.P,J2,3,D+*%
%TO.N,unconnected-(J2-Pad3)*%
X48032000Y-86344000D03*
%TO.P,J2,4,GND*%
%TO.N,GND*%
X48032000Y-88844000D03*
D22*
%TO.P,J2,5,Shield*%
X45322000Y-78774000D03*
X45322000Y-91914000D03*
%TD*%
D19*
%TO.P,J4,1,Pin_1*%
%TO.N,+5V*%
X81001000Y-66523000D03*
D20*
%TO.P,J4,2,Pin_2*%
%TO.N,GND*%
X81001000Y-63983000D03*
%TO.P,J4,3,Pin_3*%
%TO.N,AD0*%
X81001000Y-61443000D03*
%TO.P,J4,4,Pin_4*%
%TO.N,AD1*%
X81001000Y-58903000D03*
%TO.P,J4,5,Pin_5*%
%TO.N,AD2*%
X81001000Y-56363000D03*
%TO.P,J4,6,Pin_6*%
%TO.N,AD3*%
X81001000Y-53823000D03*
%TD*%
D14*
%TO.P,R12,1*%
%TO.N,Net-(R12-Pad1)*%
X65532000Y-74422000D03*
D15*
%TO.P,R12,2*%
%TO.N,7SEG-DP*%
X55372000Y-74422000D03*
%TD*%
D14*
%TO.P,R2,1*%
%TO.N,Net-(R2-Pad1)*%
X70612000Y-33020000D03*
D15*
%TO.P,R2,2*%
%TO.N,Net-(Q2-Pad3)*%
X60452000Y-33020000D03*
%TD*%
D14*
%TO.P,R1,1*%
%TO.N,Net-(R1-Pad1)*%
X70612000Y-27178000D03*
D15*
%TO.P,R1,2*%
%TO.N,Net-(Q1-Pad3)*%
X60452000Y-27178000D03*
%TD*%
D23*
%TO.P,J1,1,Pin_1*%
%TO.N,7SEG-E*%
X36576000Y-44704000D03*
D24*
%TO.P,J1,2,Pin_2*%
%TO.N,7SEG-D*%
X36576000Y-47244000D03*
%TO.P,J1,3,Pin_3*%
%TO.N,7SEG-DP*%
X36576000Y-49784000D03*
%TO.P,J1,4,Pin_4*%
%TO.N,7SEG-C*%
X36576000Y-52324000D03*
%TO.P,J1,5,Pin_5*%
%TO.N,7SEG-G*%
X36576000Y-54864000D03*
%TO.P,J1,6,Pin_6*%
%TO.N,7SEG-D4*%
X36576000Y-57404000D03*
%TO.P,J1,7,Pin_7*%
%TO.N,7SEG-B*%
X51816000Y-57404000D03*
%TO.P,J1,8,Pin_8*%
%TO.N,7SEG-D3*%
X51816000Y-54864000D03*
%TO.P,J1,9,Pin_9*%
%TO.N,7SEG-D2*%
X51816000Y-52324000D03*
%TO.P,J1,10,Pin_10*%
%TO.N,7SEG-F*%
X51816000Y-49784000D03*
%TO.P,J1,11,Pin_11*%
%TO.N,7SEG-A*%
X51816000Y-47244000D03*
%TO.P,J1,12,Pin_12*%
%TO.N,7SEG-D1*%
X51816000Y-44704000D03*
%TD*%
D14*
%TO.P,C1,1*%
%TO.N,GND*%
X81026000Y-72116000D03*
%TO.P,C1,2*%
%TO.N,+5V*%
X81026000Y-69616000D03*
%TD*%
%TO.P,R11,1*%
%TO.N,Net-(R11-Pad1)*%
X65532000Y-71120000D03*
D15*
%TO.P,R11,2*%
%TO.N,7SEG-G*%
X55372000Y-71120000D03*
%TD*%
D25*
%TO.N,+5V*%
X81513511Y-83586489D03*
%TO.N,7SEG-E*%
X46990000Y-55118000D03*
X50546000Y-64516000D03*
%TO.N,7SEG-D*%
X46736000Y-61214000D03*
X43942000Y-58420000D03*
%TO.N,MOSI*%
X65786000Y-81788000D03*
%TD*%
D26*
%TO.N,+5V*%
X48032000Y-80746000D02*
X50800000Y-77978000D01*
X82225511Y-82874489D02*
X82225511Y-70815511D01*
X50800000Y-77978000D02*
X55626000Y-77978000D01*
X81513511Y-83586489D02*
X82225511Y-82874489D01*
X81001000Y-69591000D02*
X81026000Y-69616000D01*
X82225511Y-70815511D02*
X81026000Y-69616000D01*
X48032000Y-81844000D02*
X48032000Y-80746000D01*
X81001000Y-66523000D02*
X81001000Y-69591000D01*
%TO.N,7SEG-E*%
X50546000Y-64516000D02*
X55372000Y-64516000D01*
X46990000Y-55118000D02*
X36576000Y-44704000D01*
%TO.N,7SEG-D*%
X43942000Y-58420000D02*
X43942000Y-54610000D01*
X55372000Y-61214000D02*
X46736000Y-61214000D01*
X43942000Y-54610000D02*
X36576000Y-47244000D01*
%TO.N,7SEG-DP*%
X36576000Y-49784000D02*
X35426489Y-50933511D01*
X48514000Y-74422000D02*
X55626000Y-74422000D01*
X35426489Y-61334489D02*
X48514000Y-74422000D01*
X35426489Y-50933511D02*
X35426489Y-61334489D01*
%TO.N,7SEG-C*%
X44196000Y-59944000D02*
X36576000Y-52324000D01*
X53848000Y-57912000D02*
X51816000Y-59944000D01*
X51816000Y-59944000D02*
X44196000Y-59944000D01*
X55372000Y-57912000D02*
X53848000Y-57912000D01*
%TO.N,7SEG-G*%
X55372000Y-71120000D02*
X52832000Y-71120000D01*
X52832000Y-71120000D02*
X36576000Y-54864000D01*
%TO.N,7SEG-B*%
X54610000Y-54610000D02*
X55372000Y-54610000D01*
X51816000Y-57404000D02*
X54610000Y-54610000D01*
%TO.N,7SEG-D3*%
X53848000Y-52832000D02*
X51816000Y-54864000D01*
X53848000Y-42481978D02*
X53848000Y-52832000D01*
X56197978Y-40132000D02*
X53848000Y-42481978D01*
X57002000Y-40132000D02*
X56197978Y-40132000D01*
%TO.N,7SEG-D2*%
X57002000Y-34290000D02*
X56197978Y-34290000D01*
X53086000Y-51054000D02*
X51816000Y-52324000D01*
X56197978Y-34290000D02*
X53086000Y-37401978D01*
X53086000Y-37401978D02*
X53086000Y-51054000D01*
%TO.N,7SEG-D1*%
X56197978Y-28448000D02*
X51816000Y-32829978D01*
X51816000Y-32829978D02*
X51816000Y-44704000D01*
X57002000Y-28448000D02*
X56197978Y-28448000D01*
%TO.N,SDA*%
X70358000Y-61293344D02*
X68832855Y-62818489D01*
X63754000Y-88352924D02*
X66552511Y-91151435D01*
X63754000Y-67310000D02*
X63754000Y-88352924D01*
X54152000Y-93218000D02*
X52603000Y-91669000D01*
X67056000Y-65786000D02*
X66223511Y-66618489D01*
X64445511Y-66618489D02*
X63754000Y-67310000D01*
X65521076Y-93218000D02*
X54152000Y-93218000D01*
X75956000Y-51318000D02*
X70358000Y-56916000D01*
X66552511Y-91151435D02*
X66552511Y-92186565D01*
X70358000Y-56916000D02*
X70358000Y-61293344D01*
X66223511Y-66618489D02*
X64445511Y-66618489D01*
X67056000Y-63500000D02*
X67056000Y-65786000D01*
X66552511Y-92186565D02*
X65521076Y-93218000D01*
X68832855Y-62818489D02*
X67737511Y-62818489D01*
X67737511Y-62818489D02*
X67056000Y-63500000D01*
%TO.N,RXD*%
X60706000Y-89612000D02*
X62763000Y-91669000D01*
X65532000Y-51308000D02*
X60706000Y-56134000D01*
X60706000Y-56134000D02*
X60706000Y-89612000D01*
X65532000Y-51308000D02*
X68326000Y-51308000D01*
X68326000Y-51308000D02*
X68336000Y-51318000D01*
%TO.N,TXD*%
X62484000Y-57658000D02*
X62484000Y-88850000D01*
X67584000Y-54610000D02*
X68336000Y-53858000D01*
X62484000Y-88850000D02*
X65303000Y-91669000D01*
X65532000Y-54610000D02*
X67584000Y-54610000D01*
X65532000Y-54610000D02*
X62484000Y-57658000D01*
%TO.N,MOSI*%
X72156000Y-80518000D02*
X75956000Y-76718000D01*
X67056000Y-80518000D02*
X72156000Y-80518000D01*
X65786000Y-81788000D02*
X67056000Y-80518000D01*
%TO.N,Net-(Q1-Pad3)*%
X57002000Y-27178000D02*
X60452000Y-27178000D01*
%TO.N,Net-(Q2-Pad3)*%
X57002000Y-33020000D02*
X60452000Y-33020000D01*
%TO.N,Net-(Q3-Pad3)*%
X57002000Y-38862000D02*
X60452000Y-38862000D01*
%TO.N,Net-(Q4-Pad3)*%
X57002000Y-44704000D02*
X60452000Y-44704000D01*
%TO.N,Net-(R1-Pad1)*%
X81534000Y-85852000D02*
X83058000Y-84328000D01*
X83058000Y-33020000D02*
X77216000Y-27178000D01*
X68336000Y-81798000D02*
X72390000Y-85852000D01*
X72390000Y-85852000D02*
X81534000Y-85852000D01*
X70612000Y-27178000D02*
X77216000Y-27178000D01*
X83058000Y-84328000D02*
X83058000Y-33020000D01*
%TO.N,Net-(R3-Pad1)*%
X70612000Y-38862000D02*
X77155511Y-45405511D01*
X77155511Y-78058489D02*
X75956000Y-79258000D01*
X77155511Y-45405511D02*
X77155511Y-78058489D01*
%TO.N,Net-(R7-Pad1)*%
X67046000Y-56398000D02*
X65532000Y-57912000D01*
X68336000Y-56398000D02*
X67046000Y-56398000D01*
%TO.N,Net-(R8-Pad1)*%
X67808000Y-58938000D02*
X65532000Y-61214000D01*
X68336000Y-58938000D02*
X67808000Y-58938000D01*
%TO.N,Net-(R9-Pad1)*%
X65532000Y-63150630D02*
X65532000Y-64516000D01*
X67204630Y-61478000D02*
X65532000Y-63150630D01*
X68336000Y-61478000D02*
X67204630Y-61478000D01*
%TO.N,Net-(R10-Pad1)*%
X65532000Y-67818000D02*
X65532000Y-68949370D01*
X68832855Y-70438489D02*
X69535511Y-71141145D01*
X65532000Y-68949370D02*
X67021119Y-70438489D01*
X69535511Y-71141145D02*
X69535511Y-72978489D01*
X67021119Y-70438489D02*
X68832855Y-70438489D01*
X69535511Y-72978489D02*
X68336000Y-74178000D01*
%TO.N,Net-(R11-Pad1)*%
X66802000Y-72390000D02*
X66802000Y-75184000D01*
X65532000Y-71120000D02*
X66802000Y-72390000D01*
X66802000Y-75184000D02*
X68336000Y-76718000D01*
%TO.N,Net-(R12-Pad1)*%
X65532000Y-76454000D02*
X68336000Y-79258000D01*
X65532000Y-74422000D02*
X65532000Y-76454000D01*
%TO.N,SCL*%
X56825511Y-54934489D02*
X64770000Y-46990000D01*
X56825511Y-89986489D02*
X56825511Y-54934489D01*
X74168000Y-46990000D02*
X64770000Y-46990000D01*
X55143000Y-91669000D02*
X56825511Y-89986489D01*
X75956000Y-48778000D02*
X74168000Y-46990000D01*
%TD*%
%TA.AperFunction,Conductor*%
%TO.N,GND*%
G36*
X83762121Y-25420002D02*
G01*
X83808614Y-25473658D01*
X83820000Y-25526000D01*
X83820000Y-32475839D01*
X83799998Y-32543960D01*
X83746342Y-32590453D01*
X83676068Y-32600557D01*
X83611488Y-32571063D01*
X83604905Y-32564934D01*
X77667648Y-26627676D01*
X77667642Y-26627671D01*
X77629137Y-26601943D01*
X77551601Y-26550135D01*
X77460427Y-26512369D01*
X77460426Y-26512368D01*
X77422669Y-26496729D01*
X77422663Y-26496727D01*
X77422662Y-26496727D01*
X77354221Y-26483113D01*
X77354220Y-26483112D01*
X77285787Y-26469500D01*
X77285782Y-26469500D01*
X77285781Y-26469500D01*
X71778878Y-26469500D01*
X71710757Y-26449498D01*
X71675665Y-26415771D01*
X71618200Y-26333703D01*
X71618195Y-26333697D01*
X71456302Y-26171804D01*
X71456296Y-26171799D01*
X71268749Y-26040477D01*
X71061246Y-25943717D01*
X71061240Y-25943715D01*
X70967771Y-25918670D01*
X70840087Y-25884457D01*
X70612000Y-25864502D01*
X70383913Y-25884457D01*
X70162759Y-25943715D01*
X70162753Y-25943717D01*
X69955250Y-26040477D01*
X69767703Y-26171799D01*
X69767697Y-26171804D01*
X69605804Y-26333697D01*
X69605799Y-26333703D01*
X69474477Y-26521250D01*
X69377717Y-26728753D01*
X69377715Y-26728759D01*
X69318457Y-26949913D01*
X69298502Y-27178000D01*
X69318457Y-27406086D01*
X69377715Y-27627240D01*
X69377717Y-27627246D01*
X69474477Y-27834749D01*
X69510713Y-27886500D01*
X69605802Y-28022300D01*
X69767700Y-28184198D01*
X69955251Y-28315523D01*
X70162757Y-28412284D01*
X70383913Y-28471543D01*
X70612000Y-28491498D01*
X70840087Y-28471543D01*
X71061243Y-28412284D01*
X71268749Y-28315523D01*
X71456300Y-28184198D01*
X71618198Y-28022300D01*
X71675665Y-27940229D01*
X71731122Y-27895901D01*
X71778878Y-27886500D01*
X76870339Y-27886500D01*
X76938460Y-27906502D01*
X76959434Y-27923405D01*
X82312595Y-33276565D01*
X82346621Y-33338877D01*
X82349500Y-33365660D01*
X82349500Y-52980023D01*
X82329498Y-53048144D01*
X82275842Y-53094637D01*
X82205568Y-53104741D01*
X82140988Y-53075247D01*
X82118017Y-53048938D01*
X82076724Y-52985735D01*
X82076720Y-52985729D01*
X81924237Y-52820091D01*
X81841987Y-52756073D01*
X81746576Y-52681811D01*
X81548574Y-52574658D01*
X81548572Y-52574657D01*
X81548571Y-52574656D01*
X81335639Y-52501557D01*
X81335630Y-52501555D01*
X81291476Y-52494187D01*
X81113569Y-52464500D01*
X80888431Y-52464500D01*
X80740211Y-52489233D01*
X80666369Y-52501555D01*
X80666360Y-52501557D01*
X80453428Y-52574656D01*
X80453426Y-52574658D01*
X80362775Y-52623716D01*
X80255426Y-52681810D01*
X80255424Y-52681811D01*
X80077762Y-52820091D01*
X79925279Y-52985729D01*
X79925275Y-52985734D01*
X79802141Y-53174206D01*
X79711703Y-53380386D01*
X79711702Y-53380387D01*
X79656437Y-53598624D01*
X79656436Y-53598630D01*
X79656436Y-53598632D01*
X79637844Y-53823000D01*
X79652678Y-54002021D01*
X79656437Y-54047375D01*
X79711702Y-54265612D01*
X79711703Y-54265613D01*
X79711704Y-54265616D01*
X79787816Y-54439135D01*
X79802141Y-54471793D01*
X79925275Y-54660265D01*
X79925279Y-54660270D01*
X79963973Y-54702302D01*
X80056161Y-54802444D01*
X80077762Y-54825908D01*
X80093212Y-54837933D01*
X80255424Y-54964189D01*
X80288680Y-54982186D01*
X80339071Y-55032200D01*
X80354423Y-55101516D01*
X80329862Y-55168129D01*
X80288680Y-55203813D01*
X80255426Y-55221810D01*
X80255424Y-55221811D01*
X80077762Y-55360091D01*
X79925279Y-55525729D01*
X79925275Y-55525734D01*
X79802141Y-55714206D01*
X79711705Y-55920381D01*
X79711704Y-55920384D01*
X79656437Y-56138624D01*
X79656436Y-56138630D01*
X79656436Y-56138632D01*
X79637844Y-56363000D01*
X79642020Y-56413401D01*
X79656437Y-56587375D01*
X79711702Y-56805612D01*
X79711703Y-56805613D01*
X79711704Y-56805616D01*
X79755650Y-56905804D01*
X79802141Y-57011793D01*
X79925275Y-57200265D01*
X79925279Y-57200270D01*
X80037711Y-57322402D01*
X80073860Y-57361670D01*
X80077762Y-57365908D01*
X80105428Y-57387441D01*
X80255424Y-57504189D01*
X80288680Y-57522186D01*
X80339071Y-57572200D01*
X80354423Y-57641516D01*
X80329862Y-57708129D01*
X80288680Y-57743813D01*
X80255426Y-57761810D01*
X80255424Y-57761811D01*
X80077762Y-57900091D01*
X79925279Y-58065729D01*
X79925275Y-58065734D01*
X79802141Y-58254206D01*
X79711703Y-58460386D01*
X79711702Y-58460387D01*
X79656437Y-58678624D01*
X79656436Y-58678630D01*
X79656436Y-58678632D01*
X79637844Y-58903000D01*
X79655019Y-59110270D01*
X79656437Y-59127375D01*
X79711702Y-59345612D01*
X79711703Y-59345613D01*
X79711704Y-59345616D01*
X79802140Y-59551791D01*
X79802141Y-59551793D01*
X79925275Y-59740265D01*
X79925279Y-59740270D01*
X79963973Y-59782302D01*
X80057610Y-59884018D01*
X80077762Y-59905908D01*
X80126953Y-59944195D01*
X80255424Y-60044189D01*
X80288680Y-60062186D01*
X80339071Y-60112200D01*
X80354423Y-60181516D01*
X80329862Y-60248129D01*
X80288680Y-60283813D01*
X80255426Y-60301810D01*
X80255424Y-60301811D01*
X80077762Y-60440091D01*
X79925279Y-60605729D01*
X79925275Y-60605734D01*
X79802141Y-60794206D01*
X79711703Y-61000386D01*
X79711702Y-61000387D01*
X79656437Y-61218624D01*
X79656436Y-61218630D01*
X79656436Y-61218632D01*
X79637844Y-61443000D01*
X79656094Y-61663246D01*
X79656437Y-61667375D01*
X79711702Y-61885612D01*
X79711703Y-61885613D01*
X79711704Y-61885616D01*
X79798193Y-62082793D01*
X79802141Y-62091793D01*
X79925275Y-62280265D01*
X79925279Y-62280270D01*
X80077762Y-62445908D01*
X80126953Y-62484195D01*
X80255424Y-62584189D01*
X80289205Y-62602470D01*
X80339596Y-62652482D01*
X80354949Y-62721799D01*
X80330389Y-62788412D01*
X80289209Y-62824096D01*
X80255704Y-62842228D01*
X80255698Y-62842232D01*
X80078097Y-62980465D01*
X79925674Y-63146041D01*
X79802580Y-63334451D01*
X79712179Y-63540543D01*
X79712176Y-63540550D01*
X79664455Y-63728999D01*
X79664456Y-63729000D01*
X80570297Y-63729000D01*
X80535075Y-63790007D01*
X80501000Y-63917174D01*
X80501000Y-64048826D01*
X80535075Y-64175993D01*
X80570297Y-64237000D01*
X79664455Y-64237000D01*
X79712176Y-64425449D01*
X79712179Y-64425456D01*
X79802580Y-64631548D01*
X79925674Y-64819958D01*
X80068981Y-64975632D01*
X80100401Y-65039297D01*
X80092414Y-65109843D01*
X80047555Y-65164872D01*
X80020313Y-65179024D01*
X79904795Y-65222111D01*
X79904792Y-65222112D01*
X79787738Y-65309738D01*
X79700112Y-65426792D01*
X79700110Y-65426797D01*
X79649011Y-65563795D01*
X79649009Y-65563803D01*
X79642500Y-65624350D01*
X79642500Y-67421649D01*
X79649009Y-67482196D01*
X79649011Y-67482204D01*
X79700110Y-67619202D01*
X79700112Y-67619207D01*
X79787738Y-67736261D01*
X79904792Y-67823887D01*
X79904794Y-67823888D01*
X79904796Y-67823889D01*
X79963875Y-67845924D01*
X80041795Y-67874988D01*
X80041803Y-67874990D01*
X80102350Y-67881499D01*
X80102355Y-67881499D01*
X80102362Y-67881500D01*
X80166500Y-67881500D01*
X80234621Y-67901502D01*
X80281114Y-67955158D01*
X80292500Y-68007500D01*
X80292500Y-68466627D01*
X80272498Y-68534748D01*
X80238772Y-68569839D01*
X80181699Y-68609802D01*
X80181697Y-68609804D01*
X80019799Y-68771703D01*
X79888477Y-68959250D01*
X79791717Y-69166753D01*
X79791715Y-69166759D01*
X79749023Y-69326087D01*
X79732457Y-69387913D01*
X79712502Y-69616000D01*
X79732457Y-69844087D01*
X79743611Y-69885715D01*
X79791715Y-70065240D01*
X79791717Y-70065246D01*
X79888477Y-70272749D01*
X79993818Y-70423192D01*
X80019802Y-70460300D01*
X80181700Y-70622198D01*
X80181703Y-70622200D01*
X80369253Y-70753525D01*
X80374015Y-70756274D01*
X80372971Y-70758082D01*
X80419439Y-70798990D01*
X80438905Y-70867265D01*
X80418369Y-70935227D01*
X80373223Y-70974354D01*
X80374267Y-70976161D01*
X80369501Y-70978912D01*
X80298109Y-71028899D01*
X80985211Y-71716000D01*
X80973339Y-71716000D01*
X80871606Y-71743259D01*
X80780394Y-71795920D01*
X80705920Y-71870394D01*
X80653259Y-71961606D01*
X80626000Y-72063339D01*
X80626000Y-72075209D01*
X79938900Y-71388109D01*
X79888913Y-71459500D01*
X79792188Y-71666926D01*
X79792186Y-71666931D01*
X79732951Y-71887997D01*
X79713004Y-72116000D01*
X79732951Y-72344002D01*
X79792186Y-72565068D01*
X79792188Y-72565073D01*
X79888913Y-72772501D01*
X79938899Y-72843888D01*
X80626000Y-72156788D01*
X80626000Y-72168661D01*
X80653259Y-72270394D01*
X80705920Y-72361606D01*
X80780394Y-72436080D01*
X80871606Y-72488741D01*
X80973339Y-72516000D01*
X80985208Y-72516000D01*
X80298110Y-73203097D01*
X80298110Y-73203100D01*
X80369498Y-73253086D01*
X80576926Y-73349811D01*
X80576931Y-73349813D01*
X80797999Y-73409048D01*
X80797995Y-73409048D01*
X81026000Y-73428995D01*
X81254004Y-73409048D01*
X81254008Y-73409047D01*
X81358399Y-73381075D01*
X81429375Y-73382764D01*
X81488171Y-73422557D01*
X81516120Y-73487821D01*
X81517011Y-73502781D01*
X81517011Y-82528828D01*
X81497009Y-82596949D01*
X81480109Y-82617919D01*
X81455733Y-82642296D01*
X81446975Y-82651054D01*
X81384662Y-82685078D01*
X81384078Y-82685203D01*
X81231227Y-82717693D01*
X81056758Y-82795371D01*
X80902255Y-82907624D01*
X80774476Y-83049537D01*
X80774469Y-83049547D01*
X80678987Y-83214927D01*
X80678984Y-83214934D01*
X80619968Y-83396561D01*
X80600007Y-83586489D01*
X80619968Y-83776416D01*
X80650037Y-83868959D01*
X80678984Y-83958045D01*
X80678987Y-83958050D01*
X80774469Y-84123430D01*
X80774476Y-84123440D01*
X80902255Y-84265353D01*
X80902258Y-84265355D01*
X81056759Y-84377607D01*
X81231223Y-84455283D01*
X81418024Y-84494989D01*
X81584848Y-84494989D01*
X81652969Y-84514991D01*
X81699462Y-84568647D01*
X81709566Y-84638921D01*
X81680072Y-84703501D01*
X81673944Y-84710084D01*
X81277434Y-85106595D01*
X81215121Y-85140620D01*
X81188338Y-85143500D01*
X72735660Y-85143500D01*
X72667539Y-85123498D01*
X72646565Y-85106595D01*
X69665981Y-82126011D01*
X69631955Y-82063699D01*
X69629556Y-82025934D01*
X69633756Y-81977927D01*
X69649498Y-81798000D01*
X69629543Y-81569913D01*
X69580025Y-81385110D01*
X69581715Y-81314135D01*
X69621509Y-81255339D01*
X69686773Y-81227391D01*
X69701732Y-81226500D01*
X72225777Y-81226500D01*
X72225782Y-81226500D01*
X72294221Y-81212886D01*
X72362662Y-81199273D01*
X72400427Y-81183630D01*
X72491601Y-81145865D01*
X72607643Y-81068328D01*
X74433375Y-79242593D01*
X74495684Y-79208571D01*
X74566499Y-79213635D01*
X74623335Y-79256182D01*
X74647987Y-79320709D01*
X74660724Y-79466282D01*
X74662457Y-79486087D01*
X74686513Y-79575865D01*
X74721715Y-79707240D01*
X74721717Y-79707246D01*
X74760072Y-79789498D01*
X74818477Y-79914749D01*
X74949802Y-80102300D01*
X75111700Y-80264198D01*
X75299251Y-80395523D01*
X75331153Y-80410399D01*
X75338457Y-80413805D01*
X75391742Y-80460722D01*
X75411203Y-80528999D01*
X75390661Y-80596959D01*
X75338457Y-80642195D01*
X75299250Y-80660477D01*
X75111703Y-80791799D01*
X75111697Y-80791804D01*
X74949804Y-80953697D01*
X74949799Y-80953703D01*
X74818477Y-81141250D01*
X74721717Y-81348753D01*
X74721715Y-81348759D01*
X74703579Y-81416444D01*
X74662457Y-81569913D01*
X74642502Y-81798000D01*
X74662456Y-82026081D01*
X74662457Y-82026086D01*
X74721715Y-82247240D01*
X74721717Y-82247246D01*
X74818477Y-82454749D01*
X74949802Y-82642300D01*
X75111700Y-82804198D01*
X75299251Y-82935523D01*
X75506757Y-83032284D01*
X75727913Y-83091543D01*
X75956000Y-83111498D01*
X76184087Y-83091543D01*
X76405243Y-83032284D01*
X76612749Y-82935523D01*
X76800300Y-82804198D01*
X76962198Y-82642300D01*
X77093523Y-82454749D01*
X77190284Y-82247243D01*
X77249543Y-82026087D01*
X77269498Y-81798000D01*
X77249543Y-81569913D01*
X77190284Y-81348757D01*
X77093523Y-81141251D01*
X76962198Y-80953700D01*
X76800300Y-80791802D01*
X76786301Y-80782000D01*
X76641686Y-80680739D01*
X76612749Y-80660477D01*
X76573543Y-80642195D01*
X76520258Y-80595279D01*
X76500796Y-80527002D01*
X76521337Y-80459042D01*
X76573543Y-80413805D01*
X76580847Y-80410399D01*
X76612749Y-80395523D01*
X76800300Y-80264198D01*
X76962198Y-80102300D01*
X77093523Y-79914749D01*
X77190284Y-79707243D01*
X77249543Y-79486087D01*
X77269498Y-79258000D01*
X77249556Y-79030063D01*
X77263544Y-78960460D01*
X77285977Y-78929991D01*
X77705839Y-78510131D01*
X77783376Y-78394089D01*
X77836784Y-78265150D01*
X77864011Y-78128270D01*
X77864011Y-77988707D01*
X77864011Y-45335730D01*
X77836784Y-45198849D01*
X77810782Y-45136076D01*
X77783376Y-45069910D01*
X77705839Y-44953868D01*
X77705834Y-44953862D01*
X71941981Y-39190010D01*
X71907955Y-39127698D01*
X71905556Y-39089933D01*
X71916592Y-38963791D01*
X71925498Y-38862000D01*
X71905543Y-38633913D01*
X71846284Y-38412757D01*
X71749523Y-38205251D01*
X71618198Y-38017700D01*
X71456300Y-37855802D01*
X71268749Y-37724477D01*
X71206496Y-37695448D01*
X71061246Y-37627717D01*
X71061240Y-37627715D01*
X70967771Y-37602670D01*
X70840087Y-37568457D01*
X70612000Y-37548502D01*
X70383913Y-37568457D01*
X70162759Y-37627715D01*
X70162753Y-37627717D01*
X69955250Y-37724477D01*
X69767703Y-37855799D01*
X69767697Y-37855804D01*
X69605804Y-38017697D01*
X69605799Y-38017703D01*
X69474477Y-38205250D01*
X69377717Y-38412753D01*
X69377715Y-38412759D01*
X69318457Y-38633913D01*
X69298502Y-38862000D01*
X69318457Y-39090087D01*
X69352670Y-39217771D01*
X69377715Y-39311240D01*
X69377717Y-39311246D01*
X69474477Y-39518749D01*
X69510713Y-39570500D01*
X69605802Y-39706300D01*
X69767700Y-39868198D01*
X69955251Y-39999523D01*
X70162757Y-40096284D01*
X70383913Y-40155543D01*
X70612000Y-40175498D01*
X70839934Y-40155556D01*
X70909538Y-40169544D01*
X70940010Y-40191981D01*
X76410106Y-45662077D01*
X76444132Y-45724389D01*
X76447011Y-45751172D01*
X76447011Y-47390701D01*
X76427009Y-47458822D01*
X76373353Y-47505315D01*
X76303079Y-47515419D01*
X76288403Y-47512408D01*
X76184087Y-47484457D01*
X75956000Y-47464502D01*
X75955999Y-47464502D01*
X75889138Y-47470351D01*
X75728063Y-47484443D01*
X75658460Y-47470455D01*
X75627990Y-47448020D01*
X74619643Y-46439672D01*
X74608104Y-46431962D01*
X74574275Y-46409358D01*
X74503601Y-46362135D01*
X74412427Y-46324369D01*
X74412426Y-46324368D01*
X74374669Y-46308729D01*
X74374663Y-46308727D01*
X74374662Y-46308727D01*
X74306221Y-46295113D01*
X74306220Y-46295112D01*
X74237787Y-46281500D01*
X74237782Y-46281500D01*
X74237781Y-46281500D01*
X64839781Y-46281500D01*
X64700218Y-46281500D01*
X64700212Y-46281500D01*
X64631779Y-46295112D01*
X64631778Y-46295113D01*
X64586151Y-46304189D01*
X64563337Y-46308727D01*
X64563334Y-46308728D01*
X64525572Y-46324368D01*
X64525572Y-46324369D01*
X64501757Y-46334233D01*
X64434401Y-46362133D01*
X64434400Y-46362134D01*
X64318361Y-46439669D01*
X64318354Y-46439674D01*
X56730659Y-54027368D01*
X56668347Y-54061394D01*
X56597531Y-54056329D01*
X56540696Y-54013782D01*
X56527369Y-53991522D01*
X56509523Y-53953252D01*
X56509523Y-53953251D01*
X56378198Y-53765700D01*
X56216300Y-53603802D01*
X56208916Y-53598632D01*
X56028749Y-53472477D01*
X55821246Y-53375717D01*
X55821240Y-53375715D01*
X55727771Y-53350670D01*
X55600087Y-53316457D01*
X55372000Y-53296502D01*
X55143913Y-53316457D01*
X54922759Y-53375715D01*
X54922753Y-53375717D01*
X54715250Y-53472477D01*
X54527703Y-53603799D01*
X54527697Y-53603804D01*
X54365804Y-53765697D01*
X54365799Y-53765703D01*
X54234476Y-53953251D01*
X54234475Y-53953252D01*
X54211734Y-54002021D01*
X54167550Y-54053529D01*
X54158359Y-54059670D01*
X53292473Y-54925556D01*
X53230161Y-54959581D01*
X53159345Y-54954516D01*
X53102510Y-54911969D01*
X53077858Y-54847445D01*
X53063403Y-54682211D01*
X53077391Y-54612613D01*
X53099822Y-54582147D01*
X54398328Y-53283643D01*
X54475865Y-53167601D01*
X54529273Y-53038661D01*
X54556500Y-52901782D01*
X54556500Y-52762218D01*
X54556500Y-52569276D01*
X54576502Y-52501155D01*
X54630158Y-52454662D01*
X54700432Y-52444558D01*
X54735745Y-52455079D01*
X54922757Y-52542284D01*
X55143913Y-52601543D01*
X55372000Y-52621498D01*
X55600087Y-52601543D01*
X55821243Y-52542284D01*
X56028749Y-52445523D01*
X56216300Y-52314198D01*
X56378198Y-52152300D01*
X56509523Y-51964749D01*
X56606284Y-51757243D01*
X56665543Y-51536087D01*
X56685498Y-51308000D01*
X56665543Y-51079913D01*
X56606284Y-50858757D01*
X56509523Y-50651251D01*
X56378198Y-50463700D01*
X56216300Y-50301802D01*
X56028749Y-50170477D01*
X55968964Y-50142599D01*
X55821246Y-50073717D01*
X55821240Y-50073715D01*
X55720504Y-50046723D01*
X55600087Y-50014457D01*
X55372000Y-49994502D01*
X55143913Y-50014457D01*
X54922759Y-50073715D01*
X54922753Y-50073717D01*
X54735750Y-50160918D01*
X54665558Y-50171579D01*
X54600745Y-50142599D01*
X54561889Y-50083179D01*
X54556500Y-50046723D01*
X54556500Y-44602206D01*
X55743500Y-44602206D01*
X55743500Y-44805793D01*
X55783217Y-45005461D01*
X55783219Y-45005466D01*
X55861124Y-45193546D01*
X55861126Y-45193550D01*
X55911539Y-45268999D01*
X55932754Y-45336752D01*
X55913971Y-45405218D01*
X55911539Y-45409001D01*
X55861126Y-45484449D01*
X55861124Y-45484453D01*
X55783219Y-45672533D01*
X55783217Y-45672538D01*
X55743500Y-45872206D01*
X55743500Y-46075793D01*
X55783217Y-46275461D01*
X55783220Y-46275471D01*
X55814977Y-46352140D01*
X55822566Y-46422730D01*
X55804451Y-46464352D01*
X55805873Y-46465128D01*
X55801555Y-46473034D01*
X55750505Y-46609906D01*
X55744000Y-46670402D01*
X55744000Y-46990000D01*
X56574821Y-46990000D01*
X56599401Y-46992420D01*
X56675209Y-47007500D01*
X56675210Y-47007500D01*
X56708170Y-47007500D01*
X56701925Y-47013745D01*
X56652556Y-47099255D01*
X56627000Y-47194630D01*
X56627000Y-47293370D01*
X56652556Y-47388745D01*
X56701925Y-47474255D01*
X56725670Y-47498000D01*
X55744000Y-47498000D01*
X55744000Y-47817597D01*
X55750505Y-47878093D01*
X55801555Y-48014964D01*
X55801555Y-48014965D01*
X55889095Y-48131904D01*
X56006034Y-48219444D01*
X56142906Y-48270494D01*
X56203402Y-48276999D01*
X56203415Y-48277000D01*
X56748000Y-48277000D01*
X56748000Y-47520330D01*
X56771745Y-47544075D01*
X56857255Y-47593444D01*
X56952630Y-47619000D01*
X57051370Y-47619000D01*
X57146745Y-47593444D01*
X57232255Y-47544075D01*
X57256000Y-47520330D01*
X57256000Y-48277000D01*
X57800585Y-48277000D01*
X57800597Y-48276999D01*
X57861093Y-48270494D01*
X57997964Y-48219444D01*
X57997965Y-48219444D01*
X58114904Y-48131904D01*
X58202444Y-48014965D01*
X58202444Y-48014964D01*
X58253494Y-47878093D01*
X58259999Y-47817597D01*
X58260000Y-47817585D01*
X58260000Y-47498000D01*
X57278330Y-47498000D01*
X57302075Y-47474255D01*
X57351444Y-47388745D01*
X57377000Y-47293370D01*
X57377000Y-47194630D01*
X57351444Y-47099255D01*
X57302075Y-47013745D01*
X57295830Y-47007500D01*
X57328790Y-47007500D01*
X57328791Y-47007500D01*
X57404598Y-46992420D01*
X57429179Y-46990000D01*
X58260000Y-46990000D01*
X58260000Y-46670414D01*
X58259999Y-46670402D01*
X58253494Y-46609906D01*
X58202444Y-46473036D01*
X58198127Y-46465129D01*
X58200147Y-46464025D01*
X58179752Y-46409358D01*
X58189021Y-46352140D01*
X58220783Y-46275461D01*
X58260500Y-46075791D01*
X58260500Y-45872209D01*
X58220783Y-45672539D01*
X58185235Y-45586718D01*
X58177646Y-45516128D01*
X58209425Y-45452641D01*
X58270484Y-45416414D01*
X58301644Y-45412500D01*
X59285122Y-45412500D01*
X59353243Y-45432502D01*
X59388335Y-45466229D01*
X59423275Y-45516128D01*
X59445802Y-45548300D01*
X59607700Y-45710198D01*
X59795251Y-45841523D01*
X60002757Y-45938284D01*
X60223913Y-45997543D01*
X60452000Y-46017498D01*
X60680087Y-45997543D01*
X60901243Y-45938284D01*
X61108749Y-45841523D01*
X61296300Y-45710198D01*
X61458198Y-45548300D01*
X61589523Y-45360749D01*
X61686284Y-45153243D01*
X61745543Y-44932087D01*
X61765498Y-44704000D01*
X69298502Y-44704000D01*
X69317694Y-44923371D01*
X69318457Y-44932086D01*
X69377715Y-45153240D01*
X69377717Y-45153246D01*
X69474477Y-45360749D01*
X69583214Y-45516042D01*
X69605802Y-45548300D01*
X69767700Y-45710198D01*
X69955251Y-45841523D01*
X70162757Y-45938284D01*
X70383913Y-45997543D01*
X70612000Y-46017498D01*
X70840087Y-45997543D01*
X71061243Y-45938284D01*
X71268749Y-45841523D01*
X71456300Y-45710198D01*
X71618198Y-45548300D01*
X71749523Y-45360749D01*
X71846284Y-45153243D01*
X71905543Y-44932087D01*
X71925498Y-44704000D01*
X71905543Y-44475913D01*
X71846284Y-44254757D01*
X71749523Y-44047251D01*
X71618198Y-43859700D01*
X71456300Y-43697802D01*
X71268749Y-43566477D01*
X71061246Y-43469717D01*
X71061240Y-43469715D01*
X70967771Y-43444670D01*
X70840087Y-43410457D01*
X70612000Y-43390502D01*
X70383913Y-43410457D01*
X70162759Y-43469715D01*
X70162753Y-43469717D01*
X69955250Y-43566477D01*
X69767703Y-43697799D01*
X69767697Y-43697804D01*
X69605804Y-43859697D01*
X69605799Y-43859703D01*
X69474477Y-44047250D01*
X69377717Y-44254753D01*
X69377715Y-44254759D01*
X69318457Y-44475913D01*
X69298502Y-44704000D01*
X61765498Y-44704000D01*
X61745543Y-44475913D01*
X61686284Y-44254757D01*
X61589523Y-44047251D01*
X61458198Y-43859700D01*
X61296300Y-43697802D01*
X61108749Y-43566477D01*
X60901246Y-43469717D01*
X60901240Y-43469715D01*
X60807771Y-43444670D01*
X60680087Y-43410457D01*
X60452000Y-43390502D01*
X60223913Y-43410457D01*
X60002759Y-43469715D01*
X60002753Y-43469717D01*
X59795250Y-43566477D01*
X59607703Y-43697799D01*
X59607697Y-43697804D01*
X59445804Y-43859697D01*
X59445799Y-43859703D01*
X59388335Y-43941771D01*
X59332878Y-43986099D01*
X59285122Y-43995500D01*
X58032280Y-43995500D01*
X57964159Y-43975498D01*
X57943185Y-43958595D01*
X57885820Y-43901230D01*
X57885818Y-43901228D01*
X57716546Y-43788124D01*
X57528461Y-43710217D01*
X57516270Y-43707792D01*
X57328793Y-43670500D01*
X57328791Y-43670500D01*
X56675209Y-43670500D01*
X56675206Y-43670500D01*
X56475538Y-43710217D01*
X56475533Y-43710219D01*
X56287453Y-43788124D01*
X56118186Y-43901225D01*
X56118179Y-43901230D01*
X55974230Y-44045179D01*
X55974225Y-44045186D01*
X55861124Y-44214453D01*
X55783219Y-44402533D01*
X55783217Y-44402538D01*
X55743500Y-44602206D01*
X54556500Y-44602206D01*
X54556500Y-42827637D01*
X54576502Y-42759516D01*
X54593400Y-42738547D01*
X55528905Y-41803041D01*
X55591217Y-41769016D01*
X55662032Y-41774081D01*
X55718868Y-41816628D01*
X55743679Y-41883148D01*
X55744000Y-41892137D01*
X55744000Y-41975597D01*
X55750505Y-42036093D01*
X55801555Y-42172964D01*
X55801555Y-42172965D01*
X55889095Y-42289904D01*
X56006034Y-42377444D01*
X56142906Y-42428494D01*
X56203402Y-42434999D01*
X56203415Y-42435000D01*
X56748000Y-42435000D01*
X56748000Y-41678330D01*
X56771745Y-41702075D01*
X56857255Y-41751444D01*
X56952630Y-41777000D01*
X57051370Y-41777000D01*
X57146745Y-41751444D01*
X57232255Y-41702075D01*
X57256000Y-41678330D01*
X57256000Y-42435000D01*
X57800585Y-42435000D01*
X57800597Y-42434999D01*
X57861093Y-42428494D01*
X57997964Y-42377444D01*
X57997965Y-42377444D01*
X58114904Y-42289904D01*
X58202444Y-42172965D01*
X58202444Y-42172964D01*
X58253494Y-42036093D01*
X58259999Y-41975597D01*
X58260000Y-41975585D01*
X58260000Y-41656000D01*
X57278330Y-41656000D01*
X57302075Y-41632255D01*
X57351444Y-41546745D01*
X57377000Y-41451370D01*
X57377000Y-41352630D01*
X57351444Y-41257255D01*
X57302075Y-41171745D01*
X57295830Y-41165500D01*
X57328790Y-41165500D01*
X57328791Y-41165500D01*
X57404598Y-41150420D01*
X57429179Y-41148000D01*
X58260000Y-41148000D01*
X58260000Y-40828414D01*
X58259999Y-40828402D01*
X58253494Y-40767906D01*
X58202444Y-40631036D01*
X58198127Y-40623129D01*
X58200147Y-40622025D01*
X58179752Y-40567358D01*
X58189021Y-40510140D01*
X58220783Y-40433461D01*
X58260500Y-40233791D01*
X58260500Y-40030209D01*
X58220783Y-39830539D01*
X58185235Y-39744718D01*
X58177646Y-39674128D01*
X58209425Y-39610641D01*
X58270484Y-39574414D01*
X58301644Y-39570500D01*
X59285122Y-39570500D01*
X59353243Y-39590502D01*
X59388335Y-39624229D01*
X59423275Y-39674128D01*
X59445802Y-39706300D01*
X59607700Y-39868198D01*
X59795251Y-39999523D01*
X60002757Y-40096284D01*
X60223913Y-40155543D01*
X60452000Y-40175498D01*
X60680087Y-40155543D01*
X60901243Y-40096284D01*
X61108749Y-39999523D01*
X61296300Y-39868198D01*
X61458198Y-39706300D01*
X61589523Y-39518749D01*
X61686284Y-39311243D01*
X61745543Y-39090087D01*
X61765498Y-38862000D01*
X61745543Y-38633913D01*
X61686284Y-38412757D01*
X61589523Y-38205251D01*
X61458198Y-38017700D01*
X61296300Y-37855802D01*
X61108749Y-37724477D01*
X61046496Y-37695448D01*
X60901246Y-37627717D01*
X60901240Y-37627715D01*
X60807771Y-37602670D01*
X60680087Y-37568457D01*
X60452000Y-37548502D01*
X60223913Y-37568457D01*
X60002759Y-37627715D01*
X60002753Y-37627717D01*
X59795250Y-37724477D01*
X59607703Y-37855799D01*
X59607697Y-37855804D01*
X59445804Y-38017697D01*
X59445799Y-38017703D01*
X59388335Y-38099771D01*
X59332878Y-38144099D01*
X59285122Y-38153500D01*
X58032280Y-38153500D01*
X57964159Y-38133498D01*
X57943185Y-38116595D01*
X57885820Y-38059230D01*
X57885818Y-38059228D01*
X57716546Y-37946124D01*
X57528461Y-37868217D01*
X57328793Y-37828500D01*
X57328791Y-37828500D01*
X56675209Y-37828500D01*
X56675206Y-37828500D01*
X56475538Y-37868217D01*
X56475533Y-37868219D01*
X56287453Y-37946124D01*
X56118186Y-38059225D01*
X56118179Y-38059230D01*
X55974230Y-38203179D01*
X55974225Y-38203186D01*
X55861124Y-38372453D01*
X55783219Y-38560533D01*
X55783217Y-38560538D01*
X55743500Y-38760206D01*
X55743500Y-38963793D01*
X55783217Y-39163461D01*
X55783219Y-39163466D01*
X55861123Y-39351544D01*
X55861997Y-39352852D01*
X55862244Y-39353641D01*
X55864041Y-39357003D01*
X55863403Y-39357343D01*
X55883211Y-39420605D01*
X55864427Y-39489072D01*
X55827233Y-39527618D01*
X55746340Y-39581669D01*
X55746333Y-39581674D01*
X54009595Y-41318412D01*
X53947283Y-41352438D01*
X53876467Y-41347373D01*
X53819632Y-41304826D01*
X53794821Y-41238306D01*
X53794500Y-41229317D01*
X53794500Y-37747637D01*
X53814502Y-37679516D01*
X53831400Y-37658547D01*
X55528905Y-35961041D01*
X55591217Y-35927016D01*
X55662032Y-35932081D01*
X55718868Y-35974628D01*
X55743679Y-36041148D01*
X55744000Y-36050137D01*
X55744000Y-36133597D01*
X55750505Y-36194093D01*
X55801555Y-36330964D01*
X55801555Y-36330965D01*
X55889095Y-36447904D01*
X56006034Y-36535444D01*
X56142906Y-36586494D01*
X56203402Y-36592999D01*
X56203415Y-36593000D01*
X56748000Y-36593000D01*
X56748000Y-35836330D01*
X56771745Y-35860075D01*
X56857255Y-35909444D01*
X56952630Y-35935000D01*
X57051370Y-35935000D01*
X57146745Y-35909444D01*
X57232255Y-35860075D01*
X57256000Y-35836330D01*
X57256000Y-36593000D01*
X57800585Y-36593000D01*
X57800597Y-36592999D01*
X57861093Y-36586494D01*
X57997964Y-36535444D01*
X57997965Y-36535444D01*
X58114904Y-36447904D01*
X58202444Y-36330965D01*
X58202444Y-36330964D01*
X58253494Y-36194093D01*
X58259999Y-36133597D01*
X58260000Y-36133585D01*
X58260000Y-35814000D01*
X57278330Y-35814000D01*
X57302075Y-35790255D01*
X57351444Y-35704745D01*
X57377000Y-35609370D01*
X57377000Y-35510630D01*
X57351444Y-35415255D01*
X57302075Y-35329745D01*
X57295830Y-35323500D01*
X57328790Y-35323500D01*
X57328791Y-35323500D01*
X57404598Y-35308420D01*
X57429179Y-35306000D01*
X58260000Y-35306000D01*
X58260000Y-34986414D01*
X58259999Y-34986402D01*
X58253494Y-34925906D01*
X58202444Y-34789036D01*
X58198127Y-34781129D01*
X58200147Y-34780025D01*
X58179752Y-34725358D01*
X58189021Y-34668140D01*
X58220783Y-34591461D01*
X58260500Y-34391791D01*
X58260500Y-34188209D01*
X58220783Y-33988539D01*
X58185235Y-33902718D01*
X58177646Y-33832128D01*
X58209425Y-33768641D01*
X58270484Y-33732414D01*
X58301644Y-33728500D01*
X59285122Y-33728500D01*
X59353243Y-33748502D01*
X59388335Y-33782229D01*
X59423275Y-33832128D01*
X59445802Y-33864300D01*
X59607700Y-34026198D01*
X59795251Y-34157523D01*
X60002757Y-34254284D01*
X60223913Y-34313543D01*
X60452000Y-34333498D01*
X60680087Y-34313543D01*
X60901243Y-34254284D01*
X61108749Y-34157523D01*
X61296300Y-34026198D01*
X61458198Y-33864300D01*
X61589523Y-33676749D01*
X61686284Y-33469243D01*
X61745543Y-33248087D01*
X61765498Y-33020000D01*
X69298502Y-33020000D01*
X69318457Y-33248087D01*
X69338118Y-33321461D01*
X69377715Y-33469240D01*
X69377717Y-33469246D01*
X69474477Y-33676749D01*
X69510713Y-33728500D01*
X69605802Y-33864300D01*
X69767700Y-34026198D01*
X69955251Y-34157523D01*
X70162757Y-34254284D01*
X70383913Y-34313543D01*
X70612000Y-34333498D01*
X70840087Y-34313543D01*
X71061243Y-34254284D01*
X71268749Y-34157523D01*
X71456300Y-34026198D01*
X71618198Y-33864300D01*
X71749523Y-33676749D01*
X71846284Y-33469243D01*
X71905543Y-33248087D01*
X71925498Y-33020000D01*
X71905543Y-32791913D01*
X71846284Y-32570757D01*
X71749523Y-32363251D01*
X71618198Y-32175700D01*
X71456300Y-32013802D01*
X71268749Y-31882477D01*
X71061246Y-31785717D01*
X71061240Y-31785715D01*
X70967771Y-31760670D01*
X70840087Y-31726457D01*
X70612000Y-31706502D01*
X70383913Y-31726457D01*
X70162759Y-31785715D01*
X70162753Y-31785717D01*
X69955250Y-31882477D01*
X69767703Y-32013799D01*
X69767697Y-32013804D01*
X69605804Y-32175697D01*
X69605799Y-32175703D01*
X69474477Y-32363250D01*
X69377717Y-32570753D01*
X69377715Y-32570759D01*
X69328348Y-32755000D01*
X69318457Y-32791913D01*
X69298502Y-33020000D01*
X61765498Y-33020000D01*
X61745543Y-32791913D01*
X61686284Y-32570757D01*
X61589523Y-32363251D01*
X61458198Y-32175700D01*
X61296300Y-32013802D01*
X61108749Y-31882477D01*
X60901246Y-31785717D01*
X60901240Y-31785715D01*
X60807771Y-31760670D01*
X60680087Y-31726457D01*
X60452000Y-31706502D01*
X60223913Y-31726457D01*
X60002759Y-31785715D01*
X60002753Y-31785717D01*
X59795250Y-31882477D01*
X59607703Y-32013799D01*
X59607697Y-32013804D01*
X59445804Y-32175697D01*
X59445799Y-32175703D01*
X59388335Y-32257771D01*
X59332878Y-32302099D01*
X59285122Y-32311500D01*
X58032280Y-32311500D01*
X57964159Y-32291498D01*
X57943185Y-32274595D01*
X57885820Y-32217230D01*
X57885818Y-32217228D01*
X57716546Y-32104124D01*
X57528461Y-32026217D01*
X57328793Y-31986500D01*
X57328791Y-31986500D01*
X56675209Y-31986500D01*
X56675206Y-31986500D01*
X56475538Y-32026217D01*
X56475533Y-32026219D01*
X56287453Y-32104124D01*
X56118186Y-32217225D01*
X56118179Y-32217230D01*
X55974230Y-32361179D01*
X55974225Y-32361186D01*
X55861124Y-32530453D01*
X55783219Y-32718533D01*
X55783217Y-32718538D01*
X55743500Y-32918206D01*
X55743500Y-33121793D01*
X55768622Y-33248086D01*
X55783217Y-33321461D01*
X55861124Y-33509546D01*
X55861992Y-33510845D01*
X55862238Y-33511630D01*
X55864041Y-33515003D01*
X55863401Y-33515344D01*
X55883211Y-33578595D01*
X55864432Y-33647063D01*
X55827238Y-33685614D01*
X55816264Y-33692947D01*
X55803804Y-33701273D01*
X55765598Y-33726802D01*
X55765597Y-33726803D01*
X55746334Y-33739674D01*
X55746327Y-33739679D01*
X52739595Y-36746411D01*
X52677283Y-36780437D01*
X52606467Y-36775372D01*
X52549632Y-36732825D01*
X52524821Y-36666305D01*
X52524500Y-36657316D01*
X52524500Y-33175637D01*
X52544502Y-33107516D01*
X52561400Y-33086547D01*
X55528905Y-30119041D01*
X55591217Y-30085016D01*
X55662032Y-30090081D01*
X55718868Y-30132628D01*
X55743679Y-30199148D01*
X55744000Y-30208137D01*
X55744000Y-30291597D01*
X55750505Y-30352093D01*
X55801555Y-30488964D01*
X55801555Y-30488965D01*
X55889095Y-30605904D01*
X56006034Y-30693444D01*
X56142906Y-30744494D01*
X56203402Y-30750999D01*
X56203415Y-30751000D01*
X56748000Y-30751000D01*
X56748000Y-29994330D01*
X56771745Y-30018075D01*
X56857255Y-30067444D01*
X56952630Y-30093000D01*
X57051370Y-30093000D01*
X57146745Y-30067444D01*
X57232255Y-30018075D01*
X57256000Y-29994330D01*
X57256000Y-30751000D01*
X57800585Y-30751000D01*
X57800597Y-30750999D01*
X57861093Y-30744494D01*
X57997964Y-30693444D01*
X57997965Y-30693444D01*
X58114904Y-30605904D01*
X58202444Y-30488965D01*
X58202444Y-30488964D01*
X58253494Y-30352093D01*
X58259999Y-30291597D01*
X58260000Y-30291585D01*
X58260000Y-29972000D01*
X57278330Y-29972000D01*
X57302075Y-29948255D01*
X57351444Y-29862745D01*
X57377000Y-29767370D01*
X57377000Y-29668630D01*
X57351444Y-29573255D01*
X57302075Y-29487745D01*
X57295830Y-29481500D01*
X57328790Y-29481500D01*
X57328791Y-29481500D01*
X57404598Y-29466420D01*
X57429179Y-29464000D01*
X58260000Y-29464000D01*
X58260000Y-29144414D01*
X58259999Y-29144402D01*
X58253494Y-29083906D01*
X58202444Y-28947036D01*
X58198127Y-28939129D01*
X58200147Y-28938025D01*
X58179752Y-28883358D01*
X58189021Y-28826140D01*
X58220783Y-28749461D01*
X58260500Y-28549791D01*
X58260500Y-28346209D01*
X58220783Y-28146539D01*
X58185235Y-28060718D01*
X58177646Y-27990128D01*
X58209425Y-27926641D01*
X58270484Y-27890414D01*
X58301644Y-27886500D01*
X59285122Y-27886500D01*
X59353243Y-27906502D01*
X59388335Y-27940229D01*
X59423275Y-27990128D01*
X59445802Y-28022300D01*
X59607700Y-28184198D01*
X59795251Y-28315523D01*
X60002757Y-28412284D01*
X60223913Y-28471543D01*
X60452000Y-28491498D01*
X60680087Y-28471543D01*
X60901243Y-28412284D01*
X61108749Y-28315523D01*
X61296300Y-28184198D01*
X61458198Y-28022300D01*
X61589523Y-27834749D01*
X61686284Y-27627243D01*
X61745543Y-27406087D01*
X61765498Y-27178000D01*
X61745543Y-26949913D01*
X61686284Y-26728757D01*
X61589523Y-26521251D01*
X61458198Y-26333700D01*
X61296300Y-26171802D01*
X61108749Y-26040477D01*
X60901246Y-25943717D01*
X60901240Y-25943715D01*
X60807771Y-25918670D01*
X60680087Y-25884457D01*
X60452000Y-25864502D01*
X60223913Y-25884457D01*
X60002759Y-25943715D01*
X60002753Y-25943717D01*
X59795250Y-26040477D01*
X59607703Y-26171799D01*
X59607697Y-26171804D01*
X59445804Y-26333697D01*
X59445799Y-26333703D01*
X59388335Y-26415771D01*
X59332878Y-26460099D01*
X59285122Y-26469500D01*
X58032280Y-26469500D01*
X57964159Y-26449498D01*
X57943185Y-26432595D01*
X57885820Y-26375230D01*
X57885818Y-26375228D01*
X57716546Y-26262124D01*
X57528461Y-26184217D01*
X57328793Y-26144500D01*
X57328791Y-26144500D01*
X56675209Y-26144500D01*
X56675206Y-26144500D01*
X56475538Y-26184217D01*
X56475533Y-26184219D01*
X56287453Y-26262124D01*
X56118186Y-26375225D01*
X56118179Y-26375230D01*
X55974230Y-26519179D01*
X55974225Y-26519186D01*
X55861124Y-26688453D01*
X55783219Y-26876533D01*
X55783217Y-26876538D01*
X55743500Y-27076206D01*
X55743500Y-27279793D01*
X55783217Y-27479461D01*
X55783219Y-27479466D01*
X55861123Y-27667544D01*
X55861997Y-27668852D01*
X55862244Y-27669641D01*
X55864041Y-27673003D01*
X55863403Y-27673343D01*
X55883211Y-27736605D01*
X55864427Y-27805072D01*
X55827233Y-27843618D01*
X55746340Y-27897669D01*
X55746333Y-27897674D01*
X51265676Y-32378329D01*
X51265671Y-32378335D01*
X51188136Y-32494375D01*
X51156498Y-32570756D01*
X51134729Y-32623309D01*
X51134727Y-32623317D01*
X51107500Y-32760194D01*
X51107500Y-43598161D01*
X51087498Y-43666282D01*
X51053772Y-43701373D01*
X51003961Y-43736251D01*
X51003959Y-43736253D01*
X50848248Y-43891965D01*
X50721944Y-44072346D01*
X50628881Y-44271920D01*
X50628879Y-44271926D01*
X50593881Y-44402539D01*
X50571885Y-44484629D01*
X50552693Y-44704000D01*
X50571885Y-44923371D01*
X50593881Y-45005461D01*
X50628879Y-45136073D01*
X50628880Y-45136076D01*
X50690862Y-45268999D01*
X50721944Y-45335654D01*
X50789758Y-45432502D01*
X50848251Y-45516038D01*
X50848254Y-45516042D01*
X51003957Y-45671745D01*
X51003961Y-45671748D01*
X51003962Y-45671749D01*
X51184346Y-45798056D01*
X51225532Y-45817261D01*
X51316768Y-45859805D01*
X51370053Y-45906722D01*
X51389514Y-45974999D01*
X51368972Y-46042959D01*
X51316768Y-46088195D01*
X51184346Y-46149944D01*
X51003965Y-46276248D01*
X51003959Y-46276253D01*
X50848253Y-46431959D01*
X50848248Y-46431965D01*
X50721944Y-46612346D01*
X50628881Y-46811920D01*
X50628879Y-46811926D01*
X50606738Y-46894556D01*
X50571885Y-47024629D01*
X50552693Y-47244000D01*
X50571885Y-47463371D01*
X50588629Y-47525858D01*
X50628879Y-47676073D01*
X50628881Y-47676079D01*
X50715172Y-47861132D01*
X50721944Y-47875654D01*
X50819491Y-48014964D01*
X50848251Y-48056038D01*
X50848254Y-48056042D01*
X51003957Y-48211745D01*
X51003961Y-48211748D01*
X51003962Y-48211749D01*
X51184346Y-48338056D01*
X51254500Y-48370769D01*
X51316768Y-48399805D01*
X51370053Y-48446722D01*
X51389514Y-48514999D01*
X51368972Y-48582959D01*
X51316768Y-48628195D01*
X51184346Y-48689944D01*
X51003965Y-48816248D01*
X51003959Y-48816253D01*
X50848253Y-48971959D01*
X50848248Y-48971965D01*
X50721944Y-49152346D01*
X50628881Y-49351920D01*
X50628879Y-49351926D01*
X50599170Y-49462800D01*
X50571885Y-49564629D01*
X50552693Y-49784000D01*
X50571885Y-50003371D01*
X50593270Y-50083179D01*
X50628879Y-50216073D01*
X50628881Y-50216079D01*
X50673516Y-50311799D01*
X50721944Y-50415654D01*
X50844092Y-50590099D01*
X50848251Y-50596038D01*
X50848254Y-50596042D01*
X51003957Y-50751745D01*
X51003961Y-50751748D01*
X51003962Y-50751749D01*
X51184346Y-50878056D01*
X51289219Y-50926958D01*
X51316768Y-50939805D01*
X51370053Y-50986722D01*
X51389514Y-51054999D01*
X51368972Y-51122959D01*
X51316768Y-51168195D01*
X51184346Y-51229944D01*
X51003965Y-51356248D01*
X51003959Y-51356253D01*
X50848253Y-51511959D01*
X50848248Y-51511965D01*
X50721944Y-51692346D01*
X50628881Y-51891920D01*
X50628879Y-51891926D01*
X50595499Y-52016500D01*
X50571885Y-52104629D01*
X50552693Y-52324000D01*
X50571885Y-52543371D01*
X50628880Y-52756076D01*
X50721944Y-52955654D01*
X50848251Y-53136038D01*
X50848254Y-53136042D01*
X51003957Y-53291745D01*
X51003961Y-53291748D01*
X51003962Y-53291749D01*
X51184346Y-53418056D01*
X51289219Y-53466958D01*
X51316768Y-53479805D01*
X51370053Y-53526722D01*
X51389514Y-53594999D01*
X51368972Y-53662959D01*
X51316768Y-53708195D01*
X51184346Y-53769944D01*
X51003965Y-53896248D01*
X51003959Y-53896253D01*
X50848253Y-54051959D01*
X50848248Y-54051965D01*
X50721944Y-54232346D01*
X50628881Y-54431920D01*
X50628879Y-54431926D01*
X50571885Y-54644629D01*
X50552693Y-54864000D01*
X50571885Y-55083371D01*
X50584111Y-55128999D01*
X50628879Y-55296073D01*
X50628881Y-55296079D01*
X50719100Y-55489556D01*
X50721944Y-55495654D01*
X50828864Y-55648351D01*
X50848251Y-55676038D01*
X50848254Y-55676042D01*
X51003957Y-55831745D01*
X51003961Y-55831748D01*
X51003962Y-55831749D01*
X51184346Y-55958056D01*
X51289219Y-56006958D01*
X51316768Y-56019805D01*
X51370053Y-56066722D01*
X51389514Y-56134999D01*
X51368972Y-56202959D01*
X51316768Y-56248195D01*
X51184346Y-56309944D01*
X51003965Y-56436248D01*
X51003959Y-56436253D01*
X50848253Y-56591959D01*
X50848248Y-56591965D01*
X50721944Y-56772346D01*
X50628881Y-56971920D01*
X50628879Y-56971926D01*
X50575169Y-57172372D01*
X50571885Y-57184629D01*
X50552693Y-57404000D01*
X50571885Y-57623371D01*
X50588148Y-57684065D01*
X50628879Y-57836073D01*
X50628881Y-57836079D01*
X50721942Y-58035650D01*
X50721944Y-58035654D01*
X50837772Y-58201072D01*
X50848251Y-58216038D01*
X50848254Y-58216042D01*
X51003957Y-58371745D01*
X51003961Y-58371748D01*
X51003962Y-58371749D01*
X51184346Y-58498056D01*
X51383924Y-58591120D01*
X51596629Y-58648115D01*
X51799442Y-58665858D01*
X51865557Y-58691720D01*
X51907197Y-58749223D01*
X51911138Y-58820111D01*
X51877554Y-58880473D01*
X51559434Y-59198595D01*
X51497122Y-59232620D01*
X51470338Y-59235500D01*
X44713228Y-59235500D01*
X44645107Y-59215498D01*
X44598614Y-59161842D01*
X44588510Y-59091568D01*
X44618004Y-59026988D01*
X44619592Y-59025190D01*
X44681034Y-58956951D01*
X44681035Y-58956949D01*
X44681040Y-58956944D01*
X44776527Y-58791556D01*
X44828622Y-58631226D01*
X44835543Y-58609926D01*
X44851259Y-58460386D01*
X44855504Y-58420000D01*
X44835542Y-58230072D01*
X44776527Y-58048444D01*
X44697751Y-57912000D01*
X44681042Y-57883059D01*
X44677158Y-57877713D01*
X44678763Y-57876546D01*
X44652144Y-57821055D01*
X44650500Y-57800770D01*
X44650500Y-54540220D01*
X44650499Y-54540216D01*
X44623273Y-54403338D01*
X44607630Y-54365572D01*
X44569865Y-54274399D01*
X44492328Y-54158357D01*
X44492323Y-54158351D01*
X37859829Y-47525858D01*
X37825803Y-47463546D01*
X37823403Y-47425785D01*
X37837858Y-47260553D01*
X37863720Y-47194440D01*
X37921223Y-47152800D01*
X37992110Y-47148859D01*
X38052473Y-47182444D01*
X46055334Y-55185305D01*
X46089360Y-55247617D01*
X46091549Y-55261228D01*
X46096457Y-55307927D01*
X46123711Y-55391804D01*
X46155473Y-55489556D01*
X46155476Y-55489561D01*
X46250958Y-55654941D01*
X46250965Y-55654951D01*
X46378744Y-55796864D01*
X46378747Y-55796866D01*
X46533248Y-55909118D01*
X46707712Y-55986794D01*
X46894513Y-56026500D01*
X47085487Y-56026500D01*
X47272288Y-55986794D01*
X47446752Y-55909118D01*
X47601253Y-55796866D01*
X47607479Y-55789951D01*
X47729034Y-55654951D01*
X47729035Y-55654949D01*
X47729040Y-55654944D01*
X47824527Y-55489556D01*
X47883542Y-55307928D01*
X47903504Y-55118000D01*
X47883542Y-54928072D01*
X47824527Y-54746444D01*
X47729040Y-54581056D01*
X47729038Y-54581054D01*
X47729034Y-54581048D01*
X47601255Y-54439135D01*
X47446752Y-54326882D01*
X47272288Y-54249206D01*
X47119432Y-54216715D01*
X47056958Y-54182986D01*
X47056534Y-54182563D01*
X37871405Y-44997434D01*
X37837379Y-44935122D01*
X37834500Y-44908339D01*
X37834500Y-43905367D01*
X37834499Y-43905350D01*
X37827990Y-43844803D01*
X37827988Y-43844795D01*
X37787502Y-43736251D01*
X37776889Y-43707796D01*
X37776888Y-43707794D01*
X37776887Y-43707792D01*
X37689261Y-43590738D01*
X37572207Y-43503112D01*
X37572202Y-43503110D01*
X37435204Y-43452011D01*
X37435196Y-43452009D01*
X37374649Y-43445500D01*
X37374638Y-43445500D01*
X35777362Y-43445500D01*
X35777350Y-43445500D01*
X35716803Y-43452009D01*
X35716795Y-43452011D01*
X35579797Y-43503110D01*
X35579792Y-43503112D01*
X35462738Y-43590738D01*
X35375112Y-43707792D01*
X35375110Y-43707797D01*
X35324011Y-43844795D01*
X35324009Y-43844803D01*
X35317500Y-43905350D01*
X35317500Y-45502649D01*
X35324009Y-45563196D01*
X35324011Y-45563204D01*
X35375110Y-45700202D01*
X35375112Y-45700207D01*
X35462738Y-45817261D01*
X35579792Y-45904887D01*
X35579794Y-45904888D01*
X35579796Y-45904889D01*
X35638875Y-45926924D01*
X35716795Y-45955988D01*
X35716803Y-45955990D01*
X35777350Y-45962499D01*
X35777355Y-45962499D01*
X35777362Y-45962500D01*
X35812423Y-45962500D01*
X35880544Y-45982502D01*
X35927037Y-46036158D01*
X35937141Y-46106432D01*
X35907647Y-46171012D01*
X35884694Y-46191713D01*
X35763965Y-46276248D01*
X35763959Y-46276253D01*
X35608253Y-46431959D01*
X35608248Y-46431965D01*
X35481944Y-46612346D01*
X35388881Y-46811920D01*
X35388879Y-46811926D01*
X35366738Y-46894556D01*
X35331885Y-47024629D01*
X35312693Y-47244000D01*
X35331885Y-47463371D01*
X35348629Y-47525858D01*
X35388879Y-47676073D01*
X35388881Y-47676079D01*
X35475172Y-47861132D01*
X35481944Y-47875654D01*
X35579491Y-48014964D01*
X35608251Y-48056038D01*
X35608254Y-48056042D01*
X35763957Y-48211745D01*
X35763961Y-48211748D01*
X35763962Y-48211749D01*
X35944346Y-48338056D01*
X36014500Y-48370769D01*
X36076768Y-48399805D01*
X36130053Y-48446722D01*
X36149514Y-48514999D01*
X36128972Y-48582959D01*
X36076768Y-48628195D01*
X35944346Y-48689944D01*
X35763965Y-48816248D01*
X35763959Y-48816253D01*
X35608253Y-48971959D01*
X35608248Y-48971965D01*
X35481944Y-49152346D01*
X35388881Y-49351920D01*
X35388879Y-49351926D01*
X35331885Y-49564629D01*
X35312693Y-49784000D01*
X35328596Y-49965780D01*
X35314606Y-50035385D01*
X35292171Y-50065856D01*
X34876159Y-50481870D01*
X34876158Y-50481872D01*
X34798624Y-50597909D01*
X34745218Y-50726844D01*
X34745216Y-50726849D01*
X34719457Y-50856351D01*
X34719456Y-50856354D01*
X34717989Y-50863726D01*
X34717989Y-61404273D01*
X34725511Y-61442086D01*
X34725511Y-61442087D01*
X34745214Y-61541145D01*
X34745216Y-61541150D01*
X34747965Y-61547786D01*
X34747965Y-61547787D01*
X34798624Y-61670090D01*
X34876160Y-61786131D01*
X34876165Y-61786137D01*
X48062352Y-74972323D01*
X48062358Y-74972328D01*
X48178400Y-75049865D01*
X48248133Y-75078749D01*
X48307338Y-75103273D01*
X48444219Y-75130500D01*
X48583782Y-75130500D01*
X54205122Y-75130500D01*
X54273243Y-75150502D01*
X54308335Y-75184229D01*
X54365802Y-75266300D01*
X54527700Y-75428198D01*
X54715251Y-75559523D01*
X54922757Y-75656284D01*
X55143913Y-75715543D01*
X55372000Y-75735498D01*
X55600087Y-75715543D01*
X55821243Y-75656284D01*
X55937761Y-75601950D01*
X56007953Y-75591290D01*
X56072766Y-75620270D01*
X56111622Y-75679690D01*
X56117011Y-75716146D01*
X56117011Y-77092087D01*
X56097009Y-77160208D01*
X56043353Y-77206701D01*
X55973079Y-77216805D01*
X55918741Y-77195300D01*
X55774752Y-77094478D01*
X55567246Y-76997717D01*
X55567240Y-76997715D01*
X55374562Y-76946087D01*
X55346087Y-76938457D01*
X55118000Y-76918502D01*
X54889913Y-76938457D01*
X54668759Y-76997715D01*
X54668753Y-76997717D01*
X54461250Y-77094477D01*
X54273703Y-77225799D01*
X54273697Y-77225804D01*
X54266907Y-77232595D01*
X54204595Y-77266621D01*
X54177812Y-77269500D01*
X50730212Y-77269500D01*
X50661779Y-77283112D01*
X50661778Y-77283113D01*
X50616151Y-77292189D01*
X50593337Y-77296727D01*
X50593334Y-77296728D01*
X50555572Y-77312368D01*
X50555572Y-77312369D01*
X50531757Y-77322233D01*
X50464401Y-77350133D01*
X50464400Y-77350134D01*
X50348357Y-77427671D01*
X50348351Y-77427676D01*
X47481676Y-80294351D01*
X47481671Y-80294357D01*
X47404134Y-80410400D01*
X47388471Y-80448217D01*
X47388468Y-80448223D01*
X47384533Y-80457722D01*
X47339983Y-80513002D01*
X47272619Y-80535420D01*
X47268126Y-80535500D01*
X47233350Y-80535500D01*
X47172803Y-80542009D01*
X47172795Y-80542011D01*
X47035797Y-80593110D01*
X47035792Y-80593112D01*
X46918738Y-80680738D01*
X46831112Y-80797792D01*
X46831110Y-80797797D01*
X46780011Y-80934795D01*
X46780009Y-80934803D01*
X46773500Y-80995350D01*
X46773500Y-82692649D01*
X46780009Y-82753196D01*
X46780011Y-82753204D01*
X46831110Y-82890202D01*
X46831112Y-82890207D01*
X46918738Y-83007261D01*
X47035792Y-83094887D01*
X47035796Y-83094889D01*
X47139660Y-83133629D01*
X47196496Y-83176176D01*
X47221306Y-83242696D01*
X47206214Y-83312070D01*
X47184723Y-83340779D01*
X47025799Y-83499703D01*
X46894477Y-83687250D01*
X46797717Y-83894753D01*
X46797715Y-83894759D01*
X46738457Y-84115913D01*
X46718502Y-84344000D01*
X46738457Y-84572086D01*
X46797715Y-84793240D01*
X46797717Y-84793246D01*
X46894477Y-85000749D01*
X47025799Y-85188296D01*
X47025804Y-85188302D01*
X47092407Y-85254905D01*
X47126433Y-85317217D01*
X47121368Y-85388032D01*
X47092407Y-85433095D01*
X47025804Y-85499697D01*
X47025799Y-85499703D01*
X46894477Y-85687250D01*
X46797717Y-85894753D01*
X46797716Y-85894757D01*
X46738457Y-86115913D01*
X46718502Y-86344000D01*
X46738457Y-86572087D01*
X46797716Y-86793243D01*
X46894477Y-87000749D01*
X47025802Y-87188300D01*
X47187700Y-87350198D01*
X47187703Y-87350200D01*
X47375253Y-87481525D01*
X47380015Y-87484274D01*
X47378971Y-87486082D01*
X47425439Y-87526990D01*
X47444905Y-87595265D01*
X47424369Y-87663227D01*
X47379223Y-87702354D01*
X47380267Y-87704161D01*
X47375501Y-87706912D01*
X47304109Y-87756900D01*
X47927463Y-88380254D01*
X47848657Y-88401370D01*
X47740343Y-88463905D01*
X47651905Y-88552343D01*
X47589370Y-88660657D01*
X47568254Y-88739463D01*
X46944900Y-88116109D01*
X46894913Y-88187500D01*
X46798188Y-88394926D01*
X46798186Y-88394931D01*
X46738951Y-88615997D01*
X46719004Y-88844000D01*
X46738951Y-89072002D01*
X46798186Y-89293068D01*
X46798188Y-89293073D01*
X46894913Y-89500501D01*
X46944899Y-89571888D01*
X47568253Y-88948534D01*
X47589370Y-89027343D01*
X47651905Y-89135657D01*
X47740343Y-89224095D01*
X47848657Y-89286630D01*
X47927463Y-89307745D01*
X47304110Y-89931098D01*
X47304110Y-89931100D01*
X47375498Y-89981086D01*
X47582926Y-90077811D01*
X47582931Y-90077813D01*
X47803999Y-90137048D01*
X47803995Y-90137048D01*
X48032000Y-90156995D01*
X48260002Y-90137048D01*
X48481068Y-90077813D01*
X48481073Y-90077811D01*
X48688497Y-89981088D01*
X48759888Y-89931099D01*
X48759888Y-89931097D01*
X48136536Y-89307745D01*
X48215343Y-89286630D01*
X48323657Y-89224095D01*
X48412095Y-89135657D01*
X48474630Y-89027343D01*
X48495745Y-88948536D01*
X49119097Y-89571888D01*
X49119099Y-89571888D01*
X49169088Y-89500497D01*
X49265811Y-89293073D01*
X49265813Y-89293068D01*
X49325048Y-89072002D01*
X49344995Y-88844000D01*
X49325048Y-88615997D01*
X49265813Y-88394931D01*
X49265811Y-88394926D01*
X49169086Y-88187498D01*
X49119100Y-88116110D01*
X49119098Y-88116110D01*
X48495745Y-88739463D01*
X48474630Y-88660657D01*
X48412095Y-88552343D01*
X48323657Y-88463905D01*
X48215343Y-88401370D01*
X48136535Y-88380253D01*
X48759888Y-87756899D01*
X48759888Y-87756898D01*
X48688501Y-87706913D01*
X48683734Y-87704161D01*
X48684817Y-87702284D01*
X48638561Y-87661561D01*
X48619095Y-87593285D01*
X48639632Y-87525324D01*
X48684992Y-87486019D01*
X48683985Y-87484274D01*
X48688746Y-87481525D01*
X48688749Y-87481523D01*
X48876300Y-87350198D01*
X49038198Y-87188300D01*
X49169523Y-87000749D01*
X49266284Y-86793243D01*
X49325543Y-86572087D01*
X49345498Y-86344000D01*
X49325543Y-86115913D01*
X49266284Y-85894757D01*
X49169523Y-85687251D01*
X49038198Y-85499700D01*
X48971593Y-85433095D01*
X48937567Y-85370783D01*
X48942632Y-85299968D01*
X48971593Y-85254905D01*
X49038198Y-85188300D01*
X49169523Y-85000749D01*
X49266284Y-84793243D01*
X49325543Y-84572087D01*
X49345498Y-84344000D01*
X49325543Y-84115913D01*
X49266284Y-83894757D01*
X49169523Y-83687251D01*
X49038198Y-83499700D01*
X48879277Y-83340779D01*
X48845251Y-83278467D01*
X48850316Y-83207652D01*
X48892863Y-83150816D01*
X48924332Y-83133631D01*
X49028204Y-83094889D01*
X49145261Y-83007261D01*
X49232889Y-82890204D01*
X49283989Y-82753201D01*
X49287807Y-82717693D01*
X49290499Y-82692649D01*
X49290500Y-82692632D01*
X49290500Y-80995367D01*
X49290499Y-80995350D01*
X49283990Y-80934803D01*
X49283988Y-80934795D01*
X49232889Y-80797797D01*
X49232889Y-80797796D01*
X49190983Y-80741816D01*
X49166173Y-80675295D01*
X49181265Y-80605921D01*
X49202750Y-80577219D01*
X51056568Y-78723402D01*
X51118878Y-78689379D01*
X51145661Y-78686500D01*
X53805896Y-78686500D01*
X53874017Y-78706502D01*
X53920090Y-78759249D01*
X53926969Y-78774000D01*
X53980477Y-78888749D01*
X54063634Y-79007510D01*
X54111802Y-79076300D01*
X54273700Y-79238198D01*
X54461251Y-79369523D01*
X54668757Y-79466284D01*
X54889913Y-79525543D01*
X55118000Y-79545498D01*
X55346087Y-79525543D01*
X55567243Y-79466284D01*
X55774749Y-79369523D01*
X55918740Y-79268698D01*
X55986014Y-79246011D01*
X56054874Y-79263296D01*
X56103459Y-79315065D01*
X56117011Y-79371912D01*
X56117011Y-89640826D01*
X56097009Y-89708947D01*
X56080106Y-89729922D01*
X55510501Y-90299526D01*
X55448189Y-90333551D01*
X55400668Y-90334712D01*
X55378596Y-90331029D01*
X55255569Y-90310500D01*
X55030431Y-90310500D01*
X54907407Y-90331029D01*
X54808369Y-90347555D01*
X54808360Y-90347557D01*
X54595428Y-90420656D01*
X54595426Y-90420658D01*
X54397426Y-90527810D01*
X54397424Y-90527811D01*
X54219762Y-90666091D01*
X54158754Y-90732363D01*
X54097901Y-90768933D01*
X54026936Y-90766798D01*
X53968391Y-90726636D01*
X53947999Y-90691057D01*
X53921941Y-90621196D01*
X53903889Y-90572796D01*
X53903888Y-90572794D01*
X53903887Y-90572792D01*
X53816261Y-90455738D01*
X53699207Y-90368112D01*
X53699202Y-90368110D01*
X53562204Y-90317011D01*
X53562196Y-90317009D01*
X53501649Y-90310500D01*
X53501638Y-90310500D01*
X51704362Y-90310500D01*
X51704350Y-90310500D01*
X51643803Y-90317009D01*
X51643795Y-90317011D01*
X51506797Y-90368110D01*
X51506792Y-90368112D01*
X51389738Y-90455738D01*
X51302112Y-90572792D01*
X51302110Y-90572797D01*
X51251011Y-90709795D01*
X51251009Y-90709803D01*
X51244500Y-90770350D01*
X51244500Y-92567649D01*
X51251009Y-92628196D01*
X51251011Y-92628204D01*
X51302110Y-92765202D01*
X51302112Y-92765207D01*
X51389738Y-92882261D01*
X51506792Y-92969887D01*
X51506794Y-92969888D01*
X51506796Y-92969889D01*
X51565875Y-92991924D01*
X51643795Y-93020988D01*
X51643803Y-93020990D01*
X51704350Y-93027499D01*
X51704355Y-93027499D01*
X51704362Y-93027500D01*
X52907340Y-93027500D01*
X52975461Y-93047502D01*
X52996430Y-93064400D01*
X53700358Y-93768328D01*
X53816399Y-93845865D01*
X53907572Y-93883630D01*
X53945338Y-93899273D01*
X54082219Y-93926500D01*
X54082220Y-93926500D01*
X65590853Y-93926500D01*
X65590858Y-93926500D01*
X65659297Y-93912886D01*
X65727738Y-93899273D01*
X65765503Y-93883630D01*
X65856677Y-93845865D01*
X65972719Y-93768328D01*
X67102839Y-92638208D01*
X67180376Y-92522166D01*
X67220056Y-92426368D01*
X67233784Y-92393227D01*
X67261011Y-92256346D01*
X67261011Y-91081654D01*
X67233784Y-90944773D01*
X67232021Y-90940516D01*
X67191836Y-90843501D01*
X67191834Y-90843498D01*
X67187090Y-90832045D01*
X67180376Y-90815834D01*
X67102839Y-90699792D01*
X67102834Y-90699786D01*
X66065048Y-89662000D01*
X73820844Y-89662000D01*
X73839437Y-89886375D01*
X73894702Y-90104612D01*
X73894703Y-90104613D01*
X73894704Y-90104616D01*
X73984856Y-90310143D01*
X73985141Y-90310793D01*
X74108275Y-90499265D01*
X74108279Y-90499270D01*
X74260762Y-90664908D01*
X74284970Y-90683750D01*
X74438424Y-90803189D01*
X74472205Y-90821470D01*
X74522596Y-90871482D01*
X74537949Y-90940799D01*
X74513389Y-91007412D01*
X74472209Y-91043096D01*
X74438704Y-91061228D01*
X74438698Y-91061232D01*
X74261097Y-91199465D01*
X74108674Y-91365041D01*
X73985580Y-91553451D01*
X73895179Y-91759543D01*
X73895176Y-91759550D01*
X73847455Y-91947999D01*
X73847456Y-91948000D01*
X74753297Y-91948000D01*
X74718075Y-92009007D01*
X74684000Y-92136174D01*
X74684000Y-92267826D01*
X74718075Y-92394993D01*
X74753297Y-92456000D01*
X73847455Y-92456000D01*
X73895176Y-92644449D01*
X73895179Y-92644456D01*
X73985580Y-92850548D01*
X74108674Y-93038958D01*
X74261097Y-93204534D01*
X74438698Y-93342767D01*
X74438699Y-93342768D01*
X74636628Y-93449882D01*
X74636630Y-93449883D01*
X74849483Y-93522955D01*
X74849492Y-93522957D01*
X74930000Y-93536391D01*
X74930000Y-92632702D01*
X74991007Y-92667925D01*
X75118174Y-92702000D01*
X75249826Y-92702000D01*
X75376993Y-92667925D01*
X75438000Y-92632702D01*
X75438000Y-93536390D01*
X75518507Y-93522957D01*
X75518516Y-93522955D01*
X75731369Y-93449883D01*
X75731371Y-93449882D01*
X75929300Y-93342768D01*
X75929301Y-93342767D01*
X76106902Y-93204534D01*
X76259327Y-93038955D01*
X76348217Y-92902899D01*
X76402220Y-92856810D01*
X76472568Y-92847235D01*
X76536925Y-92877212D01*
X76559183Y-92902898D01*
X76648279Y-93039270D01*
X76800762Y-93204908D01*
X76855331Y-93247381D01*
X76978424Y-93343189D01*
X77176426Y-93450342D01*
X77176427Y-93450342D01*
X77176428Y-93450343D01*
X77288227Y-93488723D01*
X77389365Y-93523444D01*
X77611431Y-93560500D01*
X77611435Y-93560500D01*
X77836565Y-93560500D01*
X77836569Y-93560500D01*
X78058635Y-93523444D01*
X78271574Y-93450342D01*
X78469576Y-93343189D01*
X78647240Y-93204906D01*
X78799722Y-93039268D01*
X78799927Y-93038955D01*
X78838609Y-92979747D01*
X78888518Y-92903354D01*
X78942520Y-92857268D01*
X79012868Y-92847692D01*
X79077225Y-92877669D01*
X79099480Y-92903353D01*
X79132607Y-92954058D01*
X79188275Y-93039265D01*
X79188279Y-93039270D01*
X79340762Y-93204908D01*
X79395331Y-93247381D01*
X79518424Y-93343189D01*
X79716426Y-93450342D01*
X79716427Y-93450342D01*
X79716428Y-93450343D01*
X79828227Y-93488723D01*
X79929365Y-93523444D01*
X80151431Y-93560500D01*
X80151435Y-93560500D01*
X80376565Y-93560500D01*
X80376569Y-93560500D01*
X80598635Y-93523444D01*
X80811574Y-93450342D01*
X81009576Y-93343189D01*
X81187240Y-93204906D01*
X81339722Y-93039268D01*
X81339927Y-93038955D01*
X81378609Y-92979747D01*
X81462860Y-92850791D01*
X81553296Y-92644616D01*
X81608564Y-92426368D01*
X81627156Y-92202000D01*
X81608564Y-91977632D01*
X81608562Y-91977624D01*
X81553297Y-91759387D01*
X81553296Y-91759386D01*
X81553296Y-91759384D01*
X81462860Y-91553209D01*
X81445597Y-91526786D01*
X81339724Y-91364734D01*
X81339719Y-91364729D01*
X81337200Y-91361993D01*
X81196524Y-91209179D01*
X81165103Y-91145514D01*
X81173090Y-91074968D01*
X81217948Y-91019939D01*
X81245183Y-91005789D01*
X81360204Y-90962889D01*
X81403562Y-90930432D01*
X81477261Y-90875261D01*
X81564887Y-90758207D01*
X81564887Y-90758206D01*
X81564889Y-90758204D01*
X81615989Y-90621201D01*
X81617800Y-90604362D01*
X81622499Y-90560649D01*
X81622500Y-90560632D01*
X81622500Y-88763367D01*
X81622499Y-88763350D01*
X81615990Y-88702803D01*
X81615988Y-88702795D01*
X81564889Y-88565797D01*
X81564887Y-88565792D01*
X81477261Y-88448738D01*
X81360207Y-88361112D01*
X81360202Y-88361110D01*
X81223204Y-88310011D01*
X81223196Y-88310009D01*
X81162649Y-88303500D01*
X81162638Y-88303500D01*
X79365362Y-88303500D01*
X79365350Y-88303500D01*
X79304803Y-88310009D01*
X79304795Y-88310011D01*
X79167797Y-88361110D01*
X79167792Y-88361112D01*
X79050738Y-88448738D01*
X78963112Y-88565792D01*
X78963111Y-88565795D01*
X78919000Y-88684058D01*
X78876453Y-88740893D01*
X78809932Y-88765703D01*
X78740558Y-88750611D01*
X78708246Y-88725363D01*
X78647240Y-88659094D01*
X78647239Y-88659093D01*
X78647237Y-88659091D01*
X78527372Y-88565796D01*
X78469576Y-88520811D01*
X78271574Y-88413658D01*
X78271572Y-88413657D01*
X78271571Y-88413656D01*
X78058639Y-88340557D01*
X78058630Y-88340555D01*
X78014476Y-88333187D01*
X77836569Y-88303500D01*
X77611431Y-88303500D01*
X77463211Y-88328233D01*
X77389369Y-88340555D01*
X77389360Y-88340557D01*
X77176428Y-88413656D01*
X77176426Y-88413658D01*
X76978426Y-88520810D01*
X76978424Y-88520811D01*
X76800762Y-88659091D01*
X76648279Y-88824729D01*
X76559483Y-88960643D01*
X76505479Y-89006731D01*
X76435131Y-89016306D01*
X76370774Y-88986329D01*
X76348517Y-88960643D01*
X76259720Y-88824729D01*
X76107237Y-88659091D01*
X75987372Y-88565796D01*
X75929576Y-88520811D01*
X75731574Y-88413658D01*
X75731572Y-88413657D01*
X75731571Y-88413656D01*
X75518639Y-88340557D01*
X75518630Y-88340555D01*
X75474476Y-88333187D01*
X75296569Y-88303500D01*
X75071431Y-88303500D01*
X74923211Y-88328233D01*
X74849369Y-88340555D01*
X74849360Y-88340557D01*
X74636428Y-88413656D01*
X74636426Y-88413658D01*
X74438426Y-88520810D01*
X74438424Y-88520811D01*
X74260762Y-88659091D01*
X74108279Y-88824729D01*
X74108275Y-88824734D01*
X73985141Y-89013206D01*
X73894703Y-89219386D01*
X73894702Y-89219387D01*
X73839437Y-89437624D01*
X73839436Y-89437630D01*
X73839436Y-89437632D01*
X73830770Y-89542218D01*
X73820844Y-89662000D01*
X66065048Y-89662000D01*
X64499405Y-88096357D01*
X64465379Y-88034045D01*
X64462500Y-88007262D01*
X64462500Y-79493276D01*
X64482502Y-79425155D01*
X64536158Y-79378662D01*
X64606432Y-79368558D01*
X64641745Y-79379079D01*
X64828757Y-79466284D01*
X65049913Y-79525543D01*
X65278000Y-79545498D01*
X65506087Y-79525543D01*
X65727243Y-79466284D01*
X65934749Y-79369523D01*
X66122300Y-79238198D01*
X66284198Y-79076300D01*
X66415523Y-78888749D01*
X66512284Y-78681243D01*
X66512284Y-78681240D01*
X66514145Y-78677251D01*
X66561062Y-78623965D01*
X66629339Y-78604504D01*
X66697299Y-78625045D01*
X66717435Y-78641405D01*
X67006018Y-78929988D01*
X67040044Y-78992300D01*
X67042443Y-79030062D01*
X67037770Y-79083487D01*
X67022503Y-79257994D01*
X67022502Y-79258000D01*
X67042457Y-79486087D01*
X67052395Y-79523175D01*
X67087066Y-79652569D01*
X67085376Y-79723546D01*
X67045582Y-79782341D01*
X66989943Y-79808759D01*
X66986218Y-79809500D01*
X66966740Y-79813374D01*
X66888472Y-79828942D01*
X66849337Y-79836727D01*
X66849334Y-79836728D01*
X66773807Y-79868013D01*
X66720398Y-79890135D01*
X66604357Y-79967671D01*
X66604351Y-79967676D01*
X65719465Y-80852563D01*
X65657153Y-80886589D01*
X65656567Y-80886714D01*
X65503716Y-80919204D01*
X65329247Y-80996882D01*
X65174744Y-81109135D01*
X65046965Y-81251048D01*
X65046958Y-81251058D01*
X64951476Y-81416438D01*
X64951473Y-81416445D01*
X64892457Y-81598072D01*
X64872496Y-81788000D01*
X64892457Y-81977927D01*
X64908106Y-82026087D01*
X64951473Y-82159556D01*
X64951476Y-82159561D01*
X65046958Y-82324941D01*
X65046965Y-82324951D01*
X65174744Y-82466864D01*
X65174747Y-82466866D01*
X65329248Y-82579118D01*
X65503712Y-82656794D01*
X65690513Y-82696500D01*
X65881487Y-82696500D01*
X66068288Y-82656794D01*
X66242752Y-82579118D01*
X66397253Y-82466866D01*
X66525040Y-82324944D01*
X66620527Y-82159556D01*
X66679542Y-81977928D01*
X66684449Y-81931231D01*
X66711460Y-81865575D01*
X66720655Y-81855314D01*
X66811765Y-81764204D01*
X66874075Y-81730180D01*
X66944890Y-81735245D01*
X67001726Y-81777792D01*
X67026378Y-81842319D01*
X67042456Y-82026081D01*
X67042457Y-82026087D01*
X67055873Y-82076156D01*
X67101715Y-82247240D01*
X67101717Y-82247246D01*
X67198477Y-82454749D01*
X67329802Y-82642300D01*
X67491700Y-82804198D01*
X67679251Y-82935523D01*
X67886757Y-83032284D01*
X68107913Y-83091543D01*
X68336000Y-83111498D01*
X68563935Y-83091556D01*
X68633539Y-83105544D01*
X68664011Y-83127981D01*
X71938352Y-86402323D01*
X71938358Y-86402328D01*
X72054399Y-86479865D01*
X72145572Y-86517630D01*
X72183338Y-86533273D01*
X72320219Y-86560500D01*
X72320220Y-86560500D01*
X81603777Y-86560500D01*
X81603782Y-86560500D01*
X81672221Y-86546886D01*
X81740662Y-86533273D01*
X81778427Y-86517630D01*
X81869601Y-86479865D01*
X81985643Y-86402328D01*
X82700721Y-85687250D01*
X83604905Y-84783066D01*
X83667217Y-84749041D01*
X83738032Y-84754105D01*
X83794868Y-84796652D01*
X83819679Y-84863172D01*
X83820000Y-84872161D01*
X83820000Y-94108000D01*
X83799998Y-94176121D01*
X83746342Y-94222614D01*
X83694000Y-94234000D01*
X34162000Y-94234000D01*
X34093879Y-94213998D01*
X34047386Y-94160342D01*
X34036000Y-94108000D01*
X34036000Y-91913995D01*
X43309308Y-91913995D01*
X43309308Y-91914004D01*
X43328052Y-92188048D01*
X43328053Y-92188054D01*
X43383942Y-92457011D01*
X43383944Y-92457019D01*
X43475938Y-92715865D01*
X43602314Y-92959756D01*
X43602316Y-92959759D01*
X43732541Y-93144248D01*
X44347532Y-92529256D01*
X44444829Y-92663175D01*
X44572825Y-92791171D01*
X44706741Y-92888466D01*
X44092715Y-93502492D01*
X44092715Y-93502494D01*
X44161313Y-93558304D01*
X44161318Y-93558307D01*
X44396030Y-93701038D01*
X44647989Y-93810480D01*
X44912509Y-93884595D01*
X45184635Y-93921999D01*
X45184649Y-93922000D01*
X45459351Y-93922000D01*
X45459364Y-93921999D01*
X45731490Y-93884595D01*
X45996010Y-93810480D01*
X46247969Y-93701038D01*
X46482679Y-93558309D01*
X46551283Y-93502493D01*
X46551283Y-93502492D01*
X45937257Y-92888466D01*
X46071175Y-92791171D01*
X46199171Y-92663175D01*
X46296467Y-92529257D01*
X46911457Y-93144247D01*
X47041682Y-92959762D01*
X47041685Y-92959756D01*
X47168061Y-92715865D01*
X47260055Y-92457019D01*
X47260057Y-92457011D01*
X47315946Y-92188054D01*
X47315947Y-92188048D01*
X47334692Y-91914004D01*
X47334692Y-91913995D01*
X47315947Y-91639951D01*
X47315946Y-91639945D01*
X47260057Y-91370988D01*
X47260055Y-91370980D01*
X47168061Y-91112134D01*
X47041685Y-90868243D01*
X47041681Y-90868237D01*
X46911457Y-90683750D01*
X46296466Y-91298741D01*
X46199171Y-91164825D01*
X46071175Y-91036829D01*
X45937256Y-90939532D01*
X46551283Y-90325504D01*
X46482680Y-90269691D01*
X46247969Y-90126961D01*
X45996010Y-90017519D01*
X45731490Y-89943404D01*
X45459364Y-89906000D01*
X45184635Y-89906000D01*
X44912509Y-89943404D01*
X44647989Y-90017519D01*
X44396030Y-90126961D01*
X44161325Y-90269687D01*
X44092715Y-90325505D01*
X44092714Y-90325505D01*
X44706742Y-90939533D01*
X44572825Y-91036829D01*
X44444829Y-91164825D01*
X44347533Y-91298742D01*
X43732541Y-90683750D01*
X43602317Y-90868236D01*
X43475938Y-91112134D01*
X43383944Y-91370980D01*
X43383942Y-91370988D01*
X43328053Y-91639945D01*
X43328052Y-91639951D01*
X43309308Y-91913995D01*
X34036000Y-91913995D01*
X34036000Y-78773995D01*
X43309308Y-78773995D01*
X43309308Y-78774004D01*
X43328052Y-79048048D01*
X43328053Y-79048054D01*
X43383942Y-79317011D01*
X43383944Y-79317019D01*
X43475938Y-79575865D01*
X43602314Y-79819756D01*
X43602316Y-79819759D01*
X43732541Y-80004248D01*
X44347532Y-79389256D01*
X44444829Y-79523175D01*
X44572825Y-79651171D01*
X44706741Y-79748466D01*
X44092715Y-80362492D01*
X44092715Y-80362494D01*
X44161313Y-80418304D01*
X44161318Y-80418307D01*
X44396030Y-80561038D01*
X44647989Y-80670480D01*
X44912509Y-80744595D01*
X45184635Y-80781999D01*
X45184649Y-80782000D01*
X45459351Y-80782000D01*
X45459364Y-80781999D01*
X45731490Y-80744595D01*
X45996010Y-80670480D01*
X46247969Y-80561038D01*
X46482679Y-80418309D01*
X46551283Y-80362493D01*
X46551283Y-80362492D01*
X45937257Y-79748466D01*
X46071175Y-79651171D01*
X46199171Y-79523175D01*
X46296467Y-79389257D01*
X46911457Y-80004247D01*
X47041682Y-79819762D01*
X47041685Y-79819756D01*
X47168061Y-79575865D01*
X47260055Y-79317019D01*
X47260057Y-79317011D01*
X47315946Y-79048054D01*
X47315947Y-79048048D01*
X47334692Y-78774004D01*
X47334692Y-78773995D01*
X47315947Y-78499951D01*
X47315946Y-78499945D01*
X47260057Y-78230988D01*
X47260055Y-78230980D01*
X47168061Y-77972134D01*
X47041685Y-77728243D01*
X47041681Y-77728237D01*
X46911457Y-77543750D01*
X46296466Y-78158741D01*
X46199171Y-78024825D01*
X46071175Y-77896829D01*
X45937256Y-77799532D01*
X46551283Y-77185504D01*
X46482680Y-77129691D01*
X46247969Y-76986961D01*
X45996010Y-76877519D01*
X45731490Y-76803404D01*
X45459364Y-76766000D01*
X45184635Y-76766000D01*
X44912509Y-76803404D01*
X44647989Y-76877519D01*
X44396030Y-76986961D01*
X44161325Y-77129687D01*
X44092715Y-77185505D01*
X44092714Y-77185505D01*
X44706742Y-77799533D01*
X44572825Y-77896829D01*
X44444829Y-78024825D01*
X44347533Y-78158742D01*
X43732541Y-77543750D01*
X43602317Y-77728236D01*
X43475938Y-77972134D01*
X43383944Y-78230980D01*
X43383942Y-78230988D01*
X43328053Y-78499945D01*
X43328052Y-78499951D01*
X43309308Y-78773995D01*
X34036000Y-78773995D01*
X34036000Y-25526000D01*
X34056002Y-25457879D01*
X34109658Y-25411386D01*
X34162000Y-25400000D01*
X83694000Y-25400000D01*
X83762121Y-25420002D01*
G37*
%TD.AperFunction*%
%TA.AperFunction,Conductor*%
G36*
X74566499Y-53813635D02*
G01*
X74623335Y-53856182D01*
X74647987Y-53920709D01*
X74662456Y-54086081D01*
X74662457Y-54086087D01*
X74688308Y-54182563D01*
X74721715Y-54307240D01*
X74721717Y-54307246D01*
X74818477Y-54514749D01*
X74924367Y-54665976D01*
X74949802Y-54702300D01*
X75111700Y-54864198D01*
X75299251Y-54995523D01*
X75334359Y-55011894D01*
X75338457Y-55013805D01*
X75391742Y-55060722D01*
X75411203Y-55128999D01*
X75390661Y-55196959D01*
X75338457Y-55242195D01*
X75299250Y-55260477D01*
X75111703Y-55391799D01*
X75111697Y-55391804D01*
X74949804Y-55553697D01*
X74949799Y-55553703D01*
X74818477Y-55741250D01*
X74721717Y-55948753D01*
X74721715Y-55948759D01*
X74665144Y-56159885D01*
X74662457Y-56169913D01*
X74642502Y-56398000D01*
X74662457Y-56626087D01*
X74676291Y-56677715D01*
X74721715Y-56847240D01*
X74721717Y-56847246D01*
X74818477Y-57054749D01*
X74949795Y-57242291D01*
X74949802Y-57242300D01*
X75111700Y-57404198D01*
X75299251Y-57535523D01*
X75334359Y-57551894D01*
X75338457Y-57553805D01*
X75391742Y-57600722D01*
X75411203Y-57668999D01*
X75390661Y-57736959D01*
X75338457Y-57782195D01*
X75299250Y-57800477D01*
X75111703Y-57931799D01*
X75111697Y-57931804D01*
X74949804Y-58093697D01*
X74949799Y-58093703D01*
X74818477Y-58281250D01*
X74721717Y-58488753D01*
X74721715Y-58488759D01*
X74670841Y-58678624D01*
X74662457Y-58709913D01*
X74642502Y-58938000D01*
X74662457Y-59166087D01*
X74667043Y-59183202D01*
X74721715Y-59387240D01*
X74721717Y-59387246D01*
X74818477Y-59594749D01*
X74949795Y-59782291D01*
X74949802Y-59782300D01*
X75111700Y-59944198D01*
X75299251Y-60075523D01*
X75334359Y-60091894D01*
X75338457Y-60093805D01*
X75391742Y-60140722D01*
X75411203Y-60208999D01*
X75390661Y-60276959D01*
X75338457Y-60322195D01*
X75299250Y-60340477D01*
X75111703Y-60471799D01*
X75111697Y-60471804D01*
X74949804Y-60633697D01*
X74949799Y-60633703D01*
X74818477Y-60821250D01*
X74721717Y-61028753D01*
X74721715Y-61028759D01*
X74711079Y-61068453D01*
X74662457Y-61249913D01*
X74642502Y-61478000D01*
X74662457Y-61706087D01*
X74696670Y-61833771D01*
X74721715Y-61927240D01*
X74721717Y-61927246D01*
X74818477Y-62134749D01*
X74924367Y-62285976D01*
X74949802Y-62322300D01*
X75111700Y-62484198D01*
X75299251Y-62615523D01*
X75315509Y-62623104D01*
X75339047Y-62634080D01*
X75392332Y-62680996D01*
X75411794Y-62749273D01*
X75391253Y-62817233D01*
X75339051Y-62862468D01*
X75299504Y-62880910D01*
X75112025Y-63012184D01*
X75112019Y-63012189D01*
X74950189Y-63174019D01*
X74950184Y-63174025D01*
X74818912Y-63361501D01*
X74722188Y-63568926D01*
X74722186Y-63568931D01*
X74669917Y-63764000D01*
X75644314Y-63764000D01*
X75635920Y-63772394D01*
X75583259Y-63863606D01*
X75556000Y-63965339D01*
X75556000Y-64070661D01*
X75583259Y-64172394D01*
X75635920Y-64263606D01*
X75644314Y-64272000D01*
X74669918Y-64272000D01*
X74722186Y-64467068D01*
X74722188Y-64467073D01*
X74818912Y-64674498D01*
X74950184Y-64861974D01*
X74950189Y-64861980D01*
X75112019Y-65023810D01*
X75112025Y-65023815D01*
X75299503Y-65155089D01*
X75339049Y-65173530D01*
X75392334Y-65220447D01*
X75411794Y-65288724D01*
X75391252Y-65356684D01*
X75339049Y-65401918D01*
X75299252Y-65420475D01*
X75111703Y-65551799D01*
X75111697Y-65551804D01*
X74949804Y-65713697D01*
X74949799Y-65713703D01*
X74818477Y-65901250D01*
X74721717Y-66108753D01*
X74721715Y-66108759D01*
X74662457Y-66329913D01*
X74642502Y-66558000D01*
X74662457Y-66786087D01*
X74721716Y-67007243D01*
X74818477Y-67214749D01*
X74949802Y-67402300D01*
X75111700Y-67564198D01*
X75299251Y-67695523D01*
X75334359Y-67711894D01*
X75338457Y-67713805D01*
X75391742Y-67760722D01*
X75411203Y-67828999D01*
X75390661Y-67896959D01*
X75338457Y-67942195D01*
X75299250Y-67960477D01*
X75111703Y-68091799D01*
X75111697Y-68091804D01*
X74949804Y-68253697D01*
X74949799Y-68253703D01*
X74818477Y-68441250D01*
X74721717Y-68648753D01*
X74721715Y-68648759D01*
X74679056Y-68807964D01*
X74662457Y-68869913D01*
X74642502Y-69098000D01*
X74653674Y-69225702D01*
X74662457Y-69326086D01*
X74721715Y-69547240D01*
X74721717Y-69547246D01*
X74818477Y-69754749D01*
X74910178Y-69885712D01*
X74949802Y-69942300D01*
X75111700Y-70104198D01*
X75299251Y-70235523D01*
X75334359Y-70251894D01*
X75338457Y-70253805D01*
X75391742Y-70300722D01*
X75411203Y-70368999D01*
X75390661Y-70436959D01*
X75338457Y-70482195D01*
X75299250Y-70500477D01*
X75111703Y-70631799D01*
X75111697Y-70631804D01*
X74949804Y-70793697D01*
X74949799Y-70793703D01*
X74818477Y-70981250D01*
X74721717Y-71188753D01*
X74721716Y-71188757D01*
X74662457Y-71409913D01*
X74642502Y-71638000D01*
X74662457Y-71866087D01*
X74668328Y-71887997D01*
X74721715Y-72087240D01*
X74721717Y-72087246D01*
X74772300Y-72195721D01*
X74818477Y-72294749D01*
X74949802Y-72482300D01*
X75111700Y-72644198D01*
X75299251Y-72775523D01*
X75334359Y-72791894D01*
X75338457Y-72793805D01*
X75391742Y-72840722D01*
X75411203Y-72908999D01*
X75390661Y-72976959D01*
X75338457Y-73022195D01*
X75299250Y-73040477D01*
X75111703Y-73171799D01*
X75111697Y-73171804D01*
X74949804Y-73333697D01*
X74949799Y-73333703D01*
X74818477Y-73521250D01*
X74721717Y-73728753D01*
X74721715Y-73728759D01*
X74662457Y-73949913D01*
X74642502Y-74178000D01*
X74662457Y-74406086D01*
X74721715Y-74627240D01*
X74721717Y-74627246D01*
X74818477Y-74834749D01*
X74914807Y-74972323D01*
X74949802Y-75022300D01*
X75111700Y-75184198D01*
X75299251Y-75315523D01*
X75334359Y-75331894D01*
X75338457Y-75333805D01*
X75391742Y-75380722D01*
X75411203Y-75448999D01*
X75390661Y-75516959D01*
X75338457Y-75562195D01*
X75299250Y-75580477D01*
X75111703Y-75711799D01*
X75111697Y-75711804D01*
X74949804Y-75873697D01*
X74949799Y-75873703D01*
X74818477Y-76061250D01*
X74721717Y-76268753D01*
X74721716Y-76268757D01*
X74662457Y-76489913D01*
X74642502Y-76718000D01*
X74661837Y-76939003D01*
X74662444Y-76945933D01*
X74648455Y-77015538D01*
X74626018Y-77046010D01*
X71899434Y-79772595D01*
X71837122Y-79806621D01*
X71810339Y-79809500D01*
X69707091Y-79809500D01*
X69638970Y-79789498D01*
X69592477Y-79735842D01*
X69582373Y-79665568D01*
X69585384Y-79650889D01*
X69629543Y-79486087D01*
X69649498Y-79258000D01*
X69629543Y-79029913D01*
X69570284Y-78808757D01*
X69473523Y-78601251D01*
X69342198Y-78413700D01*
X69180300Y-78251802D01*
X68992749Y-78120477D01*
X68953543Y-78102195D01*
X68900258Y-78055279D01*
X68880796Y-77987002D01*
X68901337Y-77919042D01*
X68953543Y-77873805D01*
X68955997Y-77872660D01*
X68992749Y-77855523D01*
X69180300Y-77724198D01*
X69342198Y-77562300D01*
X69473523Y-77374749D01*
X69570284Y-77167243D01*
X69629543Y-76946087D01*
X69649498Y-76718000D01*
X69629543Y-76489913D01*
X69570284Y-76268757D01*
X69473523Y-76061251D01*
X69342198Y-75873700D01*
X69180300Y-75711802D01*
X69134439Y-75679690D01*
X69023417Y-75601951D01*
X68992749Y-75580477D01*
X68953543Y-75562195D01*
X68900258Y-75515279D01*
X68880796Y-75447002D01*
X68901337Y-75379042D01*
X68953543Y-75333805D01*
X68955997Y-75332660D01*
X68992749Y-75315523D01*
X69180300Y-75184198D01*
X69342198Y-75022300D01*
X69473523Y-74834749D01*
X69570284Y-74627243D01*
X69629543Y-74406087D01*
X69649498Y-74178000D01*
X69629556Y-73950063D01*
X69643544Y-73880460D01*
X69665977Y-73849991D01*
X70085839Y-73430131D01*
X70163376Y-73314089D01*
X70194661Y-73238559D01*
X70216784Y-73185151D01*
X70244011Y-73048270D01*
X70244011Y-71071364D01*
X70216784Y-70934483D01*
X70174706Y-70832898D01*
X70163376Y-70805545D01*
X70085839Y-70689503D01*
X69415491Y-70019154D01*
X69381466Y-69956842D01*
X69386531Y-69886026D01*
X69401374Y-69857788D01*
X69473523Y-69754749D01*
X69570284Y-69547243D01*
X69629543Y-69326087D01*
X69649498Y-69098000D01*
X69629543Y-68869913D01*
X69570284Y-68648757D01*
X69473523Y-68441251D01*
X69342198Y-68253700D01*
X69180300Y-68091802D01*
X69115012Y-68046087D01*
X68992749Y-67960477D01*
X68952951Y-67941919D01*
X68899666Y-67895002D01*
X68880205Y-67826725D01*
X68900747Y-67758765D01*
X68952951Y-67713529D01*
X68992498Y-67695087D01*
X69179974Y-67563815D01*
X69179980Y-67563810D01*
X69341810Y-67401980D01*
X69341815Y-67401974D01*
X69473087Y-67214498D01*
X69569811Y-67007073D01*
X69569813Y-67007068D01*
X69622082Y-66812000D01*
X68647686Y-66812000D01*
X68656080Y-66803606D01*
X68708741Y-66712394D01*
X68736000Y-66610661D01*
X68736000Y-66505339D01*
X68708741Y-66403606D01*
X68656080Y-66312394D01*
X68647686Y-66304000D01*
X69622082Y-66304000D01*
X69569813Y-66108931D01*
X69569811Y-66108926D01*
X69473087Y-65901501D01*
X69341815Y-65714025D01*
X69341810Y-65714019D01*
X69179980Y-65552189D01*
X69179974Y-65552184D01*
X68992497Y-65420911D01*
X68952949Y-65402469D01*
X68899665Y-65355551D01*
X68880205Y-65287273D01*
X68900748Y-65219314D01*
X68952950Y-65174081D01*
X68992749Y-65155523D01*
X69180300Y-65024198D01*
X69342198Y-64862300D01*
X69473523Y-64674749D01*
X69570284Y-64467243D01*
X69629543Y-64246087D01*
X69649498Y-64018000D01*
X69629543Y-63789913D01*
X69570284Y-63568757D01*
X69473523Y-63361251D01*
X69473522Y-63361250D01*
X69473521Y-63361247D01*
X69459433Y-63341127D01*
X69436745Y-63273853D01*
X69454030Y-63204993D01*
X69473544Y-63179769D01*
X70908328Y-61744986D01*
X70985865Y-61628944D01*
X71039273Y-61500005D01*
X71055056Y-61420661D01*
X71066500Y-61363125D01*
X71066500Y-57261659D01*
X71086502Y-57193538D01*
X71103400Y-57172569D01*
X74433374Y-53842594D01*
X74495684Y-53808570D01*
X74566499Y-53813635D01*
G37*
%TD.AperFunction*%
%TD*%
M02*
