%TF.GenerationSoftware,KiCad,Pcbnew,8.0.3*%
%TF.CreationDate,2025-04-06T07:58:35+09:00*%
%TF.ProjectId,Device-ATmega88_Board,44657669-6365-42d4-9154-6d6567613838,rev?*%
%TF.SameCoordinates,Original*%
%TF.FileFunction,Copper,L2,Bot*%
%TF.FilePolarity,Positive*%
%FSLAX46Y46*%
G04 Gerber Fmt 4.6, Leading zero omitted, Abs format (unit mm)*
G04 Created by KiCad (PCBNEW 8.0.3) date 2025-04-06 07:58:35*
%MOMM*%
%LPD*%
G01*
G04 APERTURE LIST*
%ADD10C,0.100000*%
%ADD11C,0.150000*%
%ADD12C,0.300000*%
%ADD13C,0.400000*%
%TA.AperFunction,ComponentPad*%
%ADD14C,1.600000*%
%TD*%
%TA.AperFunction,ComponentPad*%
%ADD15O,1.600000X1.600000*%
%TD*%
%TA.AperFunction,ComponentPad*%
%ADD16R,1.500000X1.050000*%
%TD*%
%TA.AperFunction,ComponentPad*%
%ADD17O,1.500000X1.050000*%
%TD*%
%TA.AperFunction,ComponentPad*%
%ADD18R,1.600000X1.600000*%
%TD*%
%TA.AperFunction,ComponentPad*%
%ADD19R,1.700000X1.700000*%
%TD*%
%TA.AperFunction,ComponentPad*%
%ADD20O,1.700000X1.700000*%
%TD*%
%TA.AperFunction,ComponentPad*%
%ADD21R,1.500000X1.600000*%
%TD*%
%TA.AperFunction,ComponentPad*%
%ADD22C,3.000000*%
%TD*%
%TA.AperFunction,ComponentPad*%
%ADD23R,1.500000X1.500000*%
%TD*%
%TA.AperFunction,ComponentPad*%
%ADD24C,1.500000*%
%TD*%
%TA.AperFunction,ViaPad*%
%ADD25C,0.800000*%
%TD*%
%TA.AperFunction,Conductor*%
%ADD26C,0.400000*%
%TD*%
G04 APERTURE END LIST*
D10*
D11*
X177002200Y-166007200D02*
X285002200Y-166007200D01*
X285002200Y-198007200D01*
X177002200Y-198007200D01*
X177002200Y-166007200D01*
D10*
D11*
X10000000Y-10000000D02*
X287002200Y-10000000D01*
X287002200Y-200007200D01*
X10000000Y-200007200D01*
X10000000Y-10000000D01*
D10*
D11*
X12000000Y-12000000D02*
X285002200Y-12000000D01*
X285002200Y-198007200D01*
X12000000Y-198007200D01*
X12000000Y-12000000D01*
D10*
D11*
X60000000Y-12000000D02*
X60000000Y-10000000D01*
D10*
D11*
X110000000Y-12000000D02*
X110000000Y-10000000D01*
D10*
D11*
X160000000Y-12000000D02*
X160000000Y-10000000D01*
D10*
D11*
X210000000Y-12000000D02*
X210000000Y-10000000D01*
D10*
D11*
X260000000Y-12000000D02*
X260000000Y-10000000D01*
D10*
D11*
X36089160Y-11593604D02*
X35346303Y-11593604D01*
X35717731Y-11593604D02*
X35717731Y-10293604D01*
X35717731Y-10293604D02*
X35593922Y-10479319D01*
X35593922Y-10479319D02*
X35470112Y-10603128D01*
X35470112Y-10603128D02*
X35346303Y-10665033D01*
D10*
D11*
X85346303Y-10417414D02*
X85408207Y-10355509D01*
X85408207Y-10355509D02*
X85532017Y-10293604D01*
X85532017Y-10293604D02*
X85841541Y-10293604D01*
X85841541Y-10293604D02*
X85965350Y-10355509D01*
X85965350Y-10355509D02*
X86027255Y-10417414D01*
X86027255Y-10417414D02*
X86089160Y-10541223D01*
X86089160Y-10541223D02*
X86089160Y-10665033D01*
X86089160Y-10665033D02*
X86027255Y-10850747D01*
X86027255Y-10850747D02*
X85284398Y-11593604D01*
X85284398Y-11593604D02*
X86089160Y-11593604D01*
D10*
D11*
X135284398Y-10293604D02*
X136089160Y-10293604D01*
X136089160Y-10293604D02*
X135655826Y-10788842D01*
X135655826Y-10788842D02*
X135841541Y-10788842D01*
X135841541Y-10788842D02*
X135965350Y-10850747D01*
X135965350Y-10850747D02*
X136027255Y-10912652D01*
X136027255Y-10912652D02*
X136089160Y-11036461D01*
X136089160Y-11036461D02*
X136089160Y-11345985D01*
X136089160Y-11345985D02*
X136027255Y-11469795D01*
X136027255Y-11469795D02*
X135965350Y-11531700D01*
X135965350Y-11531700D02*
X135841541Y-11593604D01*
X135841541Y-11593604D02*
X135470112Y-11593604D01*
X135470112Y-11593604D02*
X135346303Y-11531700D01*
X135346303Y-11531700D02*
X135284398Y-11469795D01*
D10*
D11*
X185965350Y-10726938D02*
X185965350Y-11593604D01*
X185655826Y-10231700D02*
X185346303Y-11160271D01*
X185346303Y-11160271D02*
X186151064Y-11160271D01*
D10*
D11*
X236027255Y-10293604D02*
X235408207Y-10293604D01*
X235408207Y-10293604D02*
X235346303Y-10912652D01*
X235346303Y-10912652D02*
X235408207Y-10850747D01*
X235408207Y-10850747D02*
X235532017Y-10788842D01*
X235532017Y-10788842D02*
X235841541Y-10788842D01*
X235841541Y-10788842D02*
X235965350Y-10850747D01*
X235965350Y-10850747D02*
X236027255Y-10912652D01*
X236027255Y-10912652D02*
X236089160Y-11036461D01*
X236089160Y-11036461D02*
X236089160Y-11345985D01*
X236089160Y-11345985D02*
X236027255Y-11469795D01*
X236027255Y-11469795D02*
X235965350Y-11531700D01*
X235965350Y-11531700D02*
X235841541Y-11593604D01*
X235841541Y-11593604D02*
X235532017Y-11593604D01*
X235532017Y-11593604D02*
X235408207Y-11531700D01*
X235408207Y-11531700D02*
X235346303Y-11469795D01*
D10*
D11*
X285965350Y-10293604D02*
X285717731Y-10293604D01*
X285717731Y-10293604D02*
X285593922Y-10355509D01*
X285593922Y-10355509D02*
X285532017Y-10417414D01*
X285532017Y-10417414D02*
X285408207Y-10603128D01*
X285408207Y-10603128D02*
X285346303Y-10850747D01*
X285346303Y-10850747D02*
X285346303Y-11345985D01*
X285346303Y-11345985D02*
X285408207Y-11469795D01*
X285408207Y-11469795D02*
X285470112Y-11531700D01*
X285470112Y-11531700D02*
X285593922Y-11593604D01*
X285593922Y-11593604D02*
X285841541Y-11593604D01*
X285841541Y-11593604D02*
X285965350Y-11531700D01*
X285965350Y-11531700D02*
X286027255Y-11469795D01*
X286027255Y-11469795D02*
X286089160Y-11345985D01*
X286089160Y-11345985D02*
X286089160Y-11036461D01*
X286089160Y-11036461D02*
X286027255Y-10912652D01*
X286027255Y-10912652D02*
X285965350Y-10850747D01*
X285965350Y-10850747D02*
X285841541Y-10788842D01*
X285841541Y-10788842D02*
X285593922Y-10788842D01*
X285593922Y-10788842D02*
X285470112Y-10850747D01*
X285470112Y-10850747D02*
X285408207Y-10912652D01*
X285408207Y-10912652D02*
X285346303Y-11036461D01*
D10*
D11*
X60000000Y-198007200D02*
X60000000Y-200007200D01*
D10*
D11*
X110000000Y-198007200D02*
X110000000Y-200007200D01*
D10*
D11*
X160000000Y-198007200D02*
X160000000Y-200007200D01*
D10*
D11*
X210000000Y-198007200D02*
X210000000Y-200007200D01*
D10*
D11*
X260000000Y-198007200D02*
X260000000Y-200007200D01*
D10*
D11*
X36089160Y-199600804D02*
X35346303Y-199600804D01*
X35717731Y-199600804D02*
X35717731Y-198300804D01*
X35717731Y-198300804D02*
X35593922Y-198486519D01*
X35593922Y-198486519D02*
X35470112Y-198610328D01*
X35470112Y-198610328D02*
X35346303Y-198672233D01*
D10*
D11*
X85346303Y-198424614D02*
X85408207Y-198362709D01*
X85408207Y-198362709D02*
X85532017Y-198300804D01*
X85532017Y-198300804D02*
X85841541Y-198300804D01*
X85841541Y-198300804D02*
X85965350Y-198362709D01*
X85965350Y-198362709D02*
X86027255Y-198424614D01*
X86027255Y-198424614D02*
X86089160Y-198548423D01*
X86089160Y-198548423D02*
X86089160Y-198672233D01*
X86089160Y-198672233D02*
X86027255Y-198857947D01*
X86027255Y-198857947D02*
X85284398Y-199600804D01*
X85284398Y-199600804D02*
X86089160Y-199600804D01*
D10*
D11*
X135284398Y-198300804D02*
X136089160Y-198300804D01*
X136089160Y-198300804D02*
X135655826Y-198796042D01*
X135655826Y-198796042D02*
X135841541Y-198796042D01*
X135841541Y-198796042D02*
X135965350Y-198857947D01*
X135965350Y-198857947D02*
X136027255Y-198919852D01*
X136027255Y-198919852D02*
X136089160Y-199043661D01*
X136089160Y-199043661D02*
X136089160Y-199353185D01*
X136089160Y-199353185D02*
X136027255Y-199476995D01*
X136027255Y-199476995D02*
X135965350Y-199538900D01*
X135965350Y-199538900D02*
X135841541Y-199600804D01*
X135841541Y-199600804D02*
X135470112Y-199600804D01*
X135470112Y-199600804D02*
X135346303Y-199538900D01*
X135346303Y-199538900D02*
X135284398Y-199476995D01*
D10*
D11*
X185965350Y-198734138D02*
X185965350Y-199600804D01*
X185655826Y-198238900D02*
X185346303Y-199167471D01*
X185346303Y-199167471D02*
X186151064Y-199167471D01*
D10*
D11*
X236027255Y-198300804D02*
X235408207Y-198300804D01*
X235408207Y-198300804D02*
X235346303Y-198919852D01*
X235346303Y-198919852D02*
X235408207Y-198857947D01*
X235408207Y-198857947D02*
X235532017Y-198796042D01*
X235532017Y-198796042D02*
X235841541Y-198796042D01*
X235841541Y-198796042D02*
X235965350Y-198857947D01*
X235965350Y-198857947D02*
X236027255Y-198919852D01*
X236027255Y-198919852D02*
X236089160Y-199043661D01*
X236089160Y-199043661D02*
X236089160Y-199353185D01*
X236089160Y-199353185D02*
X236027255Y-199476995D01*
X236027255Y-199476995D02*
X235965350Y-199538900D01*
X235965350Y-199538900D02*
X235841541Y-199600804D01*
X235841541Y-199600804D02*
X235532017Y-199600804D01*
X235532017Y-199600804D02*
X235408207Y-199538900D01*
X235408207Y-199538900D02*
X235346303Y-199476995D01*
D10*
D11*
X285965350Y-198300804D02*
X285717731Y-198300804D01*
X285717731Y-198300804D02*
X285593922Y-198362709D01*
X285593922Y-198362709D02*
X285532017Y-198424614D01*
X285532017Y-198424614D02*
X285408207Y-198610328D01*
X285408207Y-198610328D02*
X285346303Y-198857947D01*
X285346303Y-198857947D02*
X285346303Y-199353185D01*
X285346303Y-199353185D02*
X285408207Y-199476995D01*
X285408207Y-199476995D02*
X285470112Y-199538900D01*
X285470112Y-199538900D02*
X285593922Y-199600804D01*
X285593922Y-199600804D02*
X285841541Y-199600804D01*
X285841541Y-199600804D02*
X285965350Y-199538900D01*
X285965350Y-199538900D02*
X286027255Y-199476995D01*
X286027255Y-199476995D02*
X286089160Y-199353185D01*
X286089160Y-199353185D02*
X286089160Y-199043661D01*
X286089160Y-199043661D02*
X286027255Y-198919852D01*
X286027255Y-198919852D02*
X285965350Y-198857947D01*
X285965350Y-198857947D02*
X285841541Y-198796042D01*
X285841541Y-198796042D02*
X285593922Y-198796042D01*
X285593922Y-198796042D02*
X285470112Y-198857947D01*
X285470112Y-198857947D02*
X285408207Y-198919852D01*
X285408207Y-198919852D02*
X285346303Y-199043661D01*
D10*
D11*
X10000000Y-60000000D02*
X12000000Y-60000000D01*
D10*
D11*
X10000000Y-110000000D02*
X12000000Y-110000000D01*
D10*
D11*
X10000000Y-160000000D02*
X12000000Y-160000000D01*
D10*
D11*
X10690476Y-35222176D02*
X11309523Y-35222176D01*
X10566666Y-35593604D02*
X10999999Y-34293604D01*
X10999999Y-34293604D02*
X11433333Y-35593604D01*
D10*
D11*
X11092857Y-84912652D02*
X11278571Y-84974557D01*
X11278571Y-84974557D02*
X11340476Y-85036461D01*
X11340476Y-85036461D02*
X11402380Y-85160271D01*
X11402380Y-85160271D02*
X11402380Y-85345985D01*
X11402380Y-85345985D02*
X11340476Y-85469795D01*
X11340476Y-85469795D02*
X11278571Y-85531700D01*
X11278571Y-85531700D02*
X11154761Y-85593604D01*
X11154761Y-85593604D02*
X10659523Y-85593604D01*
X10659523Y-85593604D02*
X10659523Y-84293604D01*
X10659523Y-84293604D02*
X11092857Y-84293604D01*
X11092857Y-84293604D02*
X11216666Y-84355509D01*
X11216666Y-84355509D02*
X11278571Y-84417414D01*
X11278571Y-84417414D02*
X11340476Y-84541223D01*
X11340476Y-84541223D02*
X11340476Y-84665033D01*
X11340476Y-84665033D02*
X11278571Y-84788842D01*
X11278571Y-84788842D02*
X11216666Y-84850747D01*
X11216666Y-84850747D02*
X11092857Y-84912652D01*
X11092857Y-84912652D02*
X10659523Y-84912652D01*
D10*
D11*
X11402380Y-135469795D02*
X11340476Y-135531700D01*
X11340476Y-135531700D02*
X11154761Y-135593604D01*
X11154761Y-135593604D02*
X11030952Y-135593604D01*
X11030952Y-135593604D02*
X10845238Y-135531700D01*
X10845238Y-135531700D02*
X10721428Y-135407890D01*
X10721428Y-135407890D02*
X10659523Y-135284080D01*
X10659523Y-135284080D02*
X10597619Y-135036461D01*
X10597619Y-135036461D02*
X10597619Y-134850747D01*
X10597619Y-134850747D02*
X10659523Y-134603128D01*
X10659523Y-134603128D02*
X10721428Y-134479319D01*
X10721428Y-134479319D02*
X10845238Y-134355509D01*
X10845238Y-134355509D02*
X11030952Y-134293604D01*
X11030952Y-134293604D02*
X11154761Y-134293604D01*
X11154761Y-134293604D02*
X11340476Y-134355509D01*
X11340476Y-134355509D02*
X11402380Y-134417414D01*
D10*
D11*
X10659523Y-185593604D02*
X10659523Y-184293604D01*
X10659523Y-184293604D02*
X10969047Y-184293604D01*
X10969047Y-184293604D02*
X11154761Y-184355509D01*
X11154761Y-184355509D02*
X11278571Y-184479319D01*
X11278571Y-184479319D02*
X11340476Y-184603128D01*
X11340476Y-184603128D02*
X11402380Y-184850747D01*
X11402380Y-184850747D02*
X11402380Y-185036461D01*
X11402380Y-185036461D02*
X11340476Y-185284080D01*
X11340476Y-185284080D02*
X11278571Y-185407890D01*
X11278571Y-185407890D02*
X11154761Y-185531700D01*
X11154761Y-185531700D02*
X10969047Y-185593604D01*
X10969047Y-185593604D02*
X10659523Y-185593604D01*
D10*
D11*
X287002200Y-60000000D02*
X285002200Y-60000000D01*
D10*
D11*
X287002200Y-110000000D02*
X285002200Y-110000000D01*
D10*
D11*
X287002200Y-160000000D02*
X285002200Y-160000000D01*
D10*
D11*
X285692676Y-35222176D02*
X286311723Y-35222176D01*
X285568866Y-35593604D02*
X286002199Y-34293604D01*
X286002199Y-34293604D02*
X286435533Y-35593604D01*
D10*
D11*
X286095057Y-84912652D02*
X286280771Y-84974557D01*
X286280771Y-84974557D02*
X286342676Y-85036461D01*
X286342676Y-85036461D02*
X286404580Y-85160271D01*
X286404580Y-85160271D02*
X286404580Y-85345985D01*
X286404580Y-85345985D02*
X286342676Y-85469795D01*
X286342676Y-85469795D02*
X286280771Y-85531700D01*
X286280771Y-85531700D02*
X286156961Y-85593604D01*
X286156961Y-85593604D02*
X285661723Y-85593604D01*
X285661723Y-85593604D02*
X285661723Y-84293604D01*
X285661723Y-84293604D02*
X286095057Y-84293604D01*
X286095057Y-84293604D02*
X286218866Y-84355509D01*
X286218866Y-84355509D02*
X286280771Y-84417414D01*
X286280771Y-84417414D02*
X286342676Y-84541223D01*
X286342676Y-84541223D02*
X286342676Y-84665033D01*
X286342676Y-84665033D02*
X286280771Y-84788842D01*
X286280771Y-84788842D02*
X286218866Y-84850747D01*
X286218866Y-84850747D02*
X286095057Y-84912652D01*
X286095057Y-84912652D02*
X285661723Y-84912652D01*
D10*
D11*
X286404580Y-135469795D02*
X286342676Y-135531700D01*
X286342676Y-135531700D02*
X286156961Y-135593604D01*
X286156961Y-135593604D02*
X286033152Y-135593604D01*
X286033152Y-135593604D02*
X285847438Y-135531700D01*
X285847438Y-135531700D02*
X285723628Y-135407890D01*
X285723628Y-135407890D02*
X285661723Y-135284080D01*
X285661723Y-135284080D02*
X285599819Y-135036461D01*
X285599819Y-135036461D02*
X285599819Y-134850747D01*
X285599819Y-134850747D02*
X285661723Y-134603128D01*
X285661723Y-134603128D02*
X285723628Y-134479319D01*
X285723628Y-134479319D02*
X285847438Y-134355509D01*
X285847438Y-134355509D02*
X286033152Y-134293604D01*
X286033152Y-134293604D02*
X286156961Y-134293604D01*
X286156961Y-134293604D02*
X286342676Y-134355509D01*
X286342676Y-134355509D02*
X286404580Y-134417414D01*
D10*
D11*
X285661723Y-185593604D02*
X285661723Y-184293604D01*
X285661723Y-184293604D02*
X285971247Y-184293604D01*
X285971247Y-184293604D02*
X286156961Y-184355509D01*
X286156961Y-184355509D02*
X286280771Y-184479319D01*
X286280771Y-184479319D02*
X286342676Y-184603128D01*
X286342676Y-184603128D02*
X286404580Y-184850747D01*
X286404580Y-184850747D02*
X286404580Y-185036461D01*
X286404580Y-185036461D02*
X286342676Y-185284080D01*
X286342676Y-185284080D02*
X286280771Y-185407890D01*
X286280771Y-185407890D02*
X286156961Y-185531700D01*
X286156961Y-185531700D02*
X285971247Y-185593604D01*
X285971247Y-185593604D02*
X285661723Y-185593604D01*
D10*
D11*
X200458026Y-193793328D02*
X200458026Y-192293328D01*
X200458026Y-192293328D02*
X200815169Y-192293328D01*
X200815169Y-192293328D02*
X201029455Y-192364757D01*
X201029455Y-192364757D02*
X201172312Y-192507614D01*
X201172312Y-192507614D02*
X201243741Y-192650471D01*
X201243741Y-192650471D02*
X201315169Y-192936185D01*
X201315169Y-192936185D02*
X201315169Y-193150471D01*
X201315169Y-193150471D02*
X201243741Y-193436185D01*
X201243741Y-193436185D02*
X201172312Y-193579042D01*
X201172312Y-193579042D02*
X201029455Y-193721900D01*
X201029455Y-193721900D02*
X200815169Y-193793328D01*
X200815169Y-193793328D02*
X200458026Y-193793328D01*
X202600884Y-193793328D02*
X202600884Y-193007614D01*
X202600884Y-193007614D02*
X202529455Y-192864757D01*
X202529455Y-192864757D02*
X202386598Y-192793328D01*
X202386598Y-192793328D02*
X202100884Y-192793328D01*
X202100884Y-192793328D02*
X201958026Y-192864757D01*
X202600884Y-193721900D02*
X202458026Y-193793328D01*
X202458026Y-193793328D02*
X202100884Y-193793328D01*
X202100884Y-193793328D02*
X201958026Y-193721900D01*
X201958026Y-193721900D02*
X201886598Y-193579042D01*
X201886598Y-193579042D02*
X201886598Y-193436185D01*
X201886598Y-193436185D02*
X201958026Y-193293328D01*
X201958026Y-193293328D02*
X202100884Y-193221900D01*
X202100884Y-193221900D02*
X202458026Y-193221900D01*
X202458026Y-193221900D02*
X202600884Y-193150471D01*
X203100884Y-192793328D02*
X203672312Y-192793328D01*
X203315169Y-192293328D02*
X203315169Y-193579042D01*
X203315169Y-193579042D02*
X203386598Y-193721900D01*
X203386598Y-193721900D02*
X203529455Y-193793328D01*
X203529455Y-193793328D02*
X203672312Y-193793328D01*
X204743741Y-193721900D02*
X204600884Y-193793328D01*
X204600884Y-193793328D02*
X204315170Y-193793328D01*
X204315170Y-193793328D02*
X204172312Y-193721900D01*
X204172312Y-193721900D02*
X204100884Y-193579042D01*
X204100884Y-193579042D02*
X204100884Y-193007614D01*
X204100884Y-193007614D02*
X204172312Y-192864757D01*
X204172312Y-192864757D02*
X204315170Y-192793328D01*
X204315170Y-192793328D02*
X204600884Y-192793328D01*
X204600884Y-192793328D02*
X204743741Y-192864757D01*
X204743741Y-192864757D02*
X204815170Y-193007614D01*
X204815170Y-193007614D02*
X204815170Y-193150471D01*
X204815170Y-193150471D02*
X204100884Y-193293328D01*
X205458026Y-193650471D02*
X205529455Y-193721900D01*
X205529455Y-193721900D02*
X205458026Y-193793328D01*
X205458026Y-193793328D02*
X205386598Y-193721900D01*
X205386598Y-193721900D02*
X205458026Y-193650471D01*
X205458026Y-193650471D02*
X205458026Y-193793328D01*
X205458026Y-192864757D02*
X205529455Y-192936185D01*
X205529455Y-192936185D02*
X205458026Y-193007614D01*
X205458026Y-193007614D02*
X205386598Y-192936185D01*
X205386598Y-192936185D02*
X205458026Y-192864757D01*
X205458026Y-192864757D02*
X205458026Y-193007614D01*
D10*
D11*
X177002200Y-194507200D02*
X285002200Y-194507200D01*
D10*
D11*
X178458026Y-196593328D02*
X178458026Y-195093328D01*
X179315169Y-196593328D02*
X178672312Y-195736185D01*
X179315169Y-195093328D02*
X178458026Y-195950471D01*
X179958026Y-196593328D02*
X179958026Y-195593328D01*
X179958026Y-195093328D02*
X179886598Y-195164757D01*
X179886598Y-195164757D02*
X179958026Y-195236185D01*
X179958026Y-195236185D02*
X180029455Y-195164757D01*
X180029455Y-195164757D02*
X179958026Y-195093328D01*
X179958026Y-195093328D02*
X179958026Y-195236185D01*
X181529455Y-196450471D02*
X181458027Y-196521900D01*
X181458027Y-196521900D02*
X181243741Y-196593328D01*
X181243741Y-196593328D02*
X181100884Y-196593328D01*
X181100884Y-196593328D02*
X180886598Y-196521900D01*
X180886598Y-196521900D02*
X180743741Y-196379042D01*
X180743741Y-196379042D02*
X180672312Y-196236185D01*
X180672312Y-196236185D02*
X180600884Y-195950471D01*
X180600884Y-195950471D02*
X180600884Y-195736185D01*
X180600884Y-195736185D02*
X180672312Y-195450471D01*
X180672312Y-195450471D02*
X180743741Y-195307614D01*
X180743741Y-195307614D02*
X180886598Y-195164757D01*
X180886598Y-195164757D02*
X181100884Y-195093328D01*
X181100884Y-195093328D02*
X181243741Y-195093328D01*
X181243741Y-195093328D02*
X181458027Y-195164757D01*
X181458027Y-195164757D02*
X181529455Y-195236185D01*
X182815170Y-196593328D02*
X182815170Y-195807614D01*
X182815170Y-195807614D02*
X182743741Y-195664757D01*
X182743741Y-195664757D02*
X182600884Y-195593328D01*
X182600884Y-195593328D02*
X182315170Y-195593328D01*
X182315170Y-195593328D02*
X182172312Y-195664757D01*
X182815170Y-196521900D02*
X182672312Y-196593328D01*
X182672312Y-196593328D02*
X182315170Y-196593328D01*
X182315170Y-196593328D02*
X182172312Y-196521900D01*
X182172312Y-196521900D02*
X182100884Y-196379042D01*
X182100884Y-196379042D02*
X182100884Y-196236185D01*
X182100884Y-196236185D02*
X182172312Y-196093328D01*
X182172312Y-196093328D02*
X182315170Y-196021900D01*
X182315170Y-196021900D02*
X182672312Y-196021900D01*
X182672312Y-196021900D02*
X182815170Y-195950471D01*
X184172313Y-196593328D02*
X184172313Y-195093328D01*
X184172313Y-196521900D02*
X184029455Y-196593328D01*
X184029455Y-196593328D02*
X183743741Y-196593328D01*
X183743741Y-196593328D02*
X183600884Y-196521900D01*
X183600884Y-196521900D02*
X183529455Y-196450471D01*
X183529455Y-196450471D02*
X183458027Y-196307614D01*
X183458027Y-196307614D02*
X183458027Y-195879042D01*
X183458027Y-195879042D02*
X183529455Y-195736185D01*
X183529455Y-195736185D02*
X183600884Y-195664757D01*
X183600884Y-195664757D02*
X183743741Y-195593328D01*
X183743741Y-195593328D02*
X184029455Y-195593328D01*
X184029455Y-195593328D02*
X184172313Y-195664757D01*
X186029455Y-195807614D02*
X186529455Y-195807614D01*
X186743741Y-196593328D02*
X186029455Y-196593328D01*
X186029455Y-196593328D02*
X186029455Y-195093328D01*
X186029455Y-195093328D02*
X186743741Y-195093328D01*
X187386598Y-196450471D02*
X187458027Y-196521900D01*
X187458027Y-196521900D02*
X187386598Y-196593328D01*
X187386598Y-196593328D02*
X187315170Y-196521900D01*
X187315170Y-196521900D02*
X187386598Y-196450471D01*
X187386598Y-196450471D02*
X187386598Y-196593328D01*
X188100884Y-196593328D02*
X188100884Y-195093328D01*
X188100884Y-195093328D02*
X188458027Y-195093328D01*
X188458027Y-195093328D02*
X188672313Y-195164757D01*
X188672313Y-195164757D02*
X188815170Y-195307614D01*
X188815170Y-195307614D02*
X188886599Y-195450471D01*
X188886599Y-195450471D02*
X188958027Y-195736185D01*
X188958027Y-195736185D02*
X188958027Y-195950471D01*
X188958027Y-195950471D02*
X188886599Y-196236185D01*
X188886599Y-196236185D02*
X188815170Y-196379042D01*
X188815170Y-196379042D02*
X188672313Y-196521900D01*
X188672313Y-196521900D02*
X188458027Y-196593328D01*
X188458027Y-196593328D02*
X188100884Y-196593328D01*
X189600884Y-196450471D02*
X189672313Y-196521900D01*
X189672313Y-196521900D02*
X189600884Y-196593328D01*
X189600884Y-196593328D02*
X189529456Y-196521900D01*
X189529456Y-196521900D02*
X189600884Y-196450471D01*
X189600884Y-196450471D02*
X189600884Y-196593328D01*
X190243742Y-196164757D02*
X190958028Y-196164757D01*
X190100885Y-196593328D02*
X190600885Y-195093328D01*
X190600885Y-195093328D02*
X191100885Y-196593328D01*
X191600884Y-196450471D02*
X191672313Y-196521900D01*
X191672313Y-196521900D02*
X191600884Y-196593328D01*
X191600884Y-196593328D02*
X191529456Y-196521900D01*
X191529456Y-196521900D02*
X191600884Y-196450471D01*
X191600884Y-196450471D02*
X191600884Y-196593328D01*
X193672313Y-195736185D02*
X193529456Y-195664757D01*
X193529456Y-195664757D02*
X193458027Y-195593328D01*
X193458027Y-195593328D02*
X193386599Y-195450471D01*
X193386599Y-195450471D02*
X193386599Y-195379042D01*
X193386599Y-195379042D02*
X193458027Y-195236185D01*
X193458027Y-195236185D02*
X193529456Y-195164757D01*
X193529456Y-195164757D02*
X193672313Y-195093328D01*
X193672313Y-195093328D02*
X193958027Y-195093328D01*
X193958027Y-195093328D02*
X194100885Y-195164757D01*
X194100885Y-195164757D02*
X194172313Y-195236185D01*
X194172313Y-195236185D02*
X194243742Y-195379042D01*
X194243742Y-195379042D02*
X194243742Y-195450471D01*
X194243742Y-195450471D02*
X194172313Y-195593328D01*
X194172313Y-195593328D02*
X194100885Y-195664757D01*
X194100885Y-195664757D02*
X193958027Y-195736185D01*
X193958027Y-195736185D02*
X193672313Y-195736185D01*
X193672313Y-195736185D02*
X193529456Y-195807614D01*
X193529456Y-195807614D02*
X193458027Y-195879042D01*
X193458027Y-195879042D02*
X193386599Y-196021900D01*
X193386599Y-196021900D02*
X193386599Y-196307614D01*
X193386599Y-196307614D02*
X193458027Y-196450471D01*
X193458027Y-196450471D02*
X193529456Y-196521900D01*
X193529456Y-196521900D02*
X193672313Y-196593328D01*
X193672313Y-196593328D02*
X193958027Y-196593328D01*
X193958027Y-196593328D02*
X194100885Y-196521900D01*
X194100885Y-196521900D02*
X194172313Y-196450471D01*
X194172313Y-196450471D02*
X194243742Y-196307614D01*
X194243742Y-196307614D02*
X194243742Y-196021900D01*
X194243742Y-196021900D02*
X194172313Y-195879042D01*
X194172313Y-195879042D02*
X194100885Y-195807614D01*
X194100885Y-195807614D02*
X193958027Y-195736185D01*
X194886598Y-196450471D02*
X194958027Y-196521900D01*
X194958027Y-196521900D02*
X194886598Y-196593328D01*
X194886598Y-196593328D02*
X194815170Y-196521900D01*
X194815170Y-196521900D02*
X194886598Y-196450471D01*
X194886598Y-196450471D02*
X194886598Y-196593328D01*
X195886599Y-195093328D02*
X196029456Y-195093328D01*
X196029456Y-195093328D02*
X196172313Y-195164757D01*
X196172313Y-195164757D02*
X196243742Y-195236185D01*
X196243742Y-195236185D02*
X196315170Y-195379042D01*
X196315170Y-195379042D02*
X196386599Y-195664757D01*
X196386599Y-195664757D02*
X196386599Y-196021900D01*
X196386599Y-196021900D02*
X196315170Y-196307614D01*
X196315170Y-196307614D02*
X196243742Y-196450471D01*
X196243742Y-196450471D02*
X196172313Y-196521900D01*
X196172313Y-196521900D02*
X196029456Y-196593328D01*
X196029456Y-196593328D02*
X195886599Y-196593328D01*
X195886599Y-196593328D02*
X195743742Y-196521900D01*
X195743742Y-196521900D02*
X195672313Y-196450471D01*
X195672313Y-196450471D02*
X195600884Y-196307614D01*
X195600884Y-196307614D02*
X195529456Y-196021900D01*
X195529456Y-196021900D02*
X195529456Y-195664757D01*
X195529456Y-195664757D02*
X195600884Y-195379042D01*
X195600884Y-195379042D02*
X195672313Y-195236185D01*
X195672313Y-195236185D02*
X195743742Y-195164757D01*
X195743742Y-195164757D02*
X195886599Y-195093328D01*
X197029455Y-196450471D02*
X197100884Y-196521900D01*
X197100884Y-196521900D02*
X197029455Y-196593328D01*
X197029455Y-196593328D02*
X196958027Y-196521900D01*
X196958027Y-196521900D02*
X197029455Y-196450471D01*
X197029455Y-196450471D02*
X197029455Y-196593328D01*
X197600884Y-195093328D02*
X198529456Y-195093328D01*
X198529456Y-195093328D02*
X198029456Y-195664757D01*
X198029456Y-195664757D02*
X198243741Y-195664757D01*
X198243741Y-195664757D02*
X198386599Y-195736185D01*
X198386599Y-195736185D02*
X198458027Y-195807614D01*
X198458027Y-195807614D02*
X198529456Y-195950471D01*
X198529456Y-195950471D02*
X198529456Y-196307614D01*
X198529456Y-196307614D02*
X198458027Y-196450471D01*
X198458027Y-196450471D02*
X198386599Y-196521900D01*
X198386599Y-196521900D02*
X198243741Y-196593328D01*
X198243741Y-196593328D02*
X197815170Y-196593328D01*
X197815170Y-196593328D02*
X197672313Y-196521900D01*
X197672313Y-196521900D02*
X197600884Y-196450471D01*
D10*
D11*
X177002200Y-191507200D02*
X285002200Y-191507200D01*
D10*
D12*
X264413853Y-193785528D02*
X263913853Y-193071242D01*
X263556710Y-193785528D02*
X263556710Y-192285528D01*
X263556710Y-192285528D02*
X264128139Y-192285528D01*
X264128139Y-192285528D02*
X264270996Y-192356957D01*
X264270996Y-192356957D02*
X264342425Y-192428385D01*
X264342425Y-192428385D02*
X264413853Y-192571242D01*
X264413853Y-192571242D02*
X264413853Y-192785528D01*
X264413853Y-192785528D02*
X264342425Y-192928385D01*
X264342425Y-192928385D02*
X264270996Y-192999814D01*
X264270996Y-192999814D02*
X264128139Y-193071242D01*
X264128139Y-193071242D02*
X263556710Y-193071242D01*
X265628139Y-193714100D02*
X265485282Y-193785528D01*
X265485282Y-193785528D02*
X265199568Y-193785528D01*
X265199568Y-193785528D02*
X265056710Y-193714100D01*
X265056710Y-193714100D02*
X264985282Y-193571242D01*
X264985282Y-193571242D02*
X264985282Y-192999814D01*
X264985282Y-192999814D02*
X265056710Y-192856957D01*
X265056710Y-192856957D02*
X265199568Y-192785528D01*
X265199568Y-192785528D02*
X265485282Y-192785528D01*
X265485282Y-192785528D02*
X265628139Y-192856957D01*
X265628139Y-192856957D02*
X265699568Y-192999814D01*
X265699568Y-192999814D02*
X265699568Y-193142671D01*
X265699568Y-193142671D02*
X264985282Y-193285528D01*
X266199567Y-192785528D02*
X266556710Y-193785528D01*
X266556710Y-193785528D02*
X266913853Y-192785528D01*
X267485281Y-193642671D02*
X267556710Y-193714100D01*
X267556710Y-193714100D02*
X267485281Y-193785528D01*
X267485281Y-193785528D02*
X267413853Y-193714100D01*
X267413853Y-193714100D02*
X267485281Y-193642671D01*
X267485281Y-193642671D02*
X267485281Y-193785528D01*
X267485281Y-192856957D02*
X267556710Y-192928385D01*
X267556710Y-192928385D02*
X267485281Y-192999814D01*
X267485281Y-192999814D02*
X267413853Y-192928385D01*
X267413853Y-192928385D02*
X267485281Y-192856957D01*
X267485281Y-192856957D02*
X267485281Y-192999814D01*
D10*
D11*
X178386598Y-193721900D02*
X178600884Y-193793328D01*
X178600884Y-193793328D02*
X178958026Y-193793328D01*
X178958026Y-193793328D02*
X179100884Y-193721900D01*
X179100884Y-193721900D02*
X179172312Y-193650471D01*
X179172312Y-193650471D02*
X179243741Y-193507614D01*
X179243741Y-193507614D02*
X179243741Y-193364757D01*
X179243741Y-193364757D02*
X179172312Y-193221900D01*
X179172312Y-193221900D02*
X179100884Y-193150471D01*
X179100884Y-193150471D02*
X178958026Y-193079042D01*
X178958026Y-193079042D02*
X178672312Y-193007614D01*
X178672312Y-193007614D02*
X178529455Y-192936185D01*
X178529455Y-192936185D02*
X178458026Y-192864757D01*
X178458026Y-192864757D02*
X178386598Y-192721900D01*
X178386598Y-192721900D02*
X178386598Y-192579042D01*
X178386598Y-192579042D02*
X178458026Y-192436185D01*
X178458026Y-192436185D02*
X178529455Y-192364757D01*
X178529455Y-192364757D02*
X178672312Y-192293328D01*
X178672312Y-192293328D02*
X179029455Y-192293328D01*
X179029455Y-192293328D02*
X179243741Y-192364757D01*
X179886597Y-193793328D02*
X179886597Y-192793328D01*
X179886597Y-192293328D02*
X179815169Y-192364757D01*
X179815169Y-192364757D02*
X179886597Y-192436185D01*
X179886597Y-192436185D02*
X179958026Y-192364757D01*
X179958026Y-192364757D02*
X179886597Y-192293328D01*
X179886597Y-192293328D02*
X179886597Y-192436185D01*
X180458026Y-192793328D02*
X181243741Y-192793328D01*
X181243741Y-192793328D02*
X180458026Y-193793328D01*
X180458026Y-193793328D02*
X181243741Y-193793328D01*
X182386598Y-193721900D02*
X182243741Y-193793328D01*
X182243741Y-193793328D02*
X181958027Y-193793328D01*
X181958027Y-193793328D02*
X181815169Y-193721900D01*
X181815169Y-193721900D02*
X181743741Y-193579042D01*
X181743741Y-193579042D02*
X181743741Y-193007614D01*
X181743741Y-193007614D02*
X181815169Y-192864757D01*
X181815169Y-192864757D02*
X181958027Y-192793328D01*
X181958027Y-192793328D02*
X182243741Y-192793328D01*
X182243741Y-192793328D02*
X182386598Y-192864757D01*
X182386598Y-192864757D02*
X182458027Y-193007614D01*
X182458027Y-193007614D02*
X182458027Y-193150471D01*
X182458027Y-193150471D02*
X181743741Y-193293328D01*
X183100883Y-193650471D02*
X183172312Y-193721900D01*
X183172312Y-193721900D02*
X183100883Y-193793328D01*
X183100883Y-193793328D02*
X183029455Y-193721900D01*
X183029455Y-193721900D02*
X183100883Y-193650471D01*
X183100883Y-193650471D02*
X183100883Y-193793328D01*
X183100883Y-192864757D02*
X183172312Y-192936185D01*
X183172312Y-192936185D02*
X183100883Y-193007614D01*
X183100883Y-193007614D02*
X183029455Y-192936185D01*
X183029455Y-192936185D02*
X183100883Y-192864757D01*
X183100883Y-192864757D02*
X183100883Y-193007614D01*
X184886598Y-193364757D02*
X185600884Y-193364757D01*
X184743741Y-193793328D02*
X185243741Y-192293328D01*
X185243741Y-192293328D02*
X185743741Y-193793328D01*
X186886598Y-192793328D02*
X186886598Y-193793328D01*
X186529455Y-192221900D02*
X186172312Y-193293328D01*
X186172312Y-193293328D02*
X187100883Y-193293328D01*
D10*
D11*
X263458026Y-196593328D02*
X263458026Y-195093328D01*
X264815170Y-196593328D02*
X264815170Y-195093328D01*
X264815170Y-196521900D02*
X264672312Y-196593328D01*
X264672312Y-196593328D02*
X264386598Y-196593328D01*
X264386598Y-196593328D02*
X264243741Y-196521900D01*
X264243741Y-196521900D02*
X264172312Y-196450471D01*
X264172312Y-196450471D02*
X264100884Y-196307614D01*
X264100884Y-196307614D02*
X264100884Y-195879042D01*
X264100884Y-195879042D02*
X264172312Y-195736185D01*
X264172312Y-195736185D02*
X264243741Y-195664757D01*
X264243741Y-195664757D02*
X264386598Y-195593328D01*
X264386598Y-195593328D02*
X264672312Y-195593328D01*
X264672312Y-195593328D02*
X264815170Y-195664757D01*
X265529455Y-196450471D02*
X265600884Y-196521900D01*
X265600884Y-196521900D02*
X265529455Y-196593328D01*
X265529455Y-196593328D02*
X265458027Y-196521900D01*
X265458027Y-196521900D02*
X265529455Y-196450471D01*
X265529455Y-196450471D02*
X265529455Y-196593328D01*
X265529455Y-195664757D02*
X265600884Y-195736185D01*
X265600884Y-195736185D02*
X265529455Y-195807614D01*
X265529455Y-195807614D02*
X265458027Y-195736185D01*
X265458027Y-195736185D02*
X265529455Y-195664757D01*
X265529455Y-195664757D02*
X265529455Y-195807614D01*
X268172313Y-196593328D02*
X267315170Y-196593328D01*
X267743741Y-196593328D02*
X267743741Y-195093328D01*
X267743741Y-195093328D02*
X267600884Y-195307614D01*
X267600884Y-195307614D02*
X267458027Y-195450471D01*
X267458027Y-195450471D02*
X267315170Y-195521900D01*
X269886598Y-195021900D02*
X268600884Y-196950471D01*
X271172313Y-196593328D02*
X270315170Y-196593328D01*
X270743741Y-196593328D02*
X270743741Y-195093328D01*
X270743741Y-195093328D02*
X270600884Y-195307614D01*
X270600884Y-195307614D02*
X270458027Y-195450471D01*
X270458027Y-195450471D02*
X270315170Y-195521900D01*
D10*
D11*
X177002200Y-187507200D02*
X285002200Y-187507200D01*
D10*
D13*
X178693928Y-188211638D02*
X179836785Y-188211638D01*
X179015357Y-190211638D02*
X179265357Y-188211638D01*
X180253452Y-190211638D02*
X180420119Y-188878304D01*
X180503452Y-188211638D02*
X180396309Y-188306876D01*
X180396309Y-188306876D02*
X180479643Y-188402114D01*
X180479643Y-188402114D02*
X180586786Y-188306876D01*
X180586786Y-188306876D02*
X180503452Y-188211638D01*
X180503452Y-188211638D02*
X180479643Y-188402114D01*
X181086786Y-188878304D02*
X181848690Y-188878304D01*
X181455833Y-188211638D02*
X181241548Y-189925923D01*
X181241548Y-189925923D02*
X181312976Y-190116400D01*
X181312976Y-190116400D02*
X181491548Y-190211638D01*
X181491548Y-190211638D02*
X181682024Y-190211638D01*
X182634405Y-190211638D02*
X182455833Y-190116400D01*
X182455833Y-190116400D02*
X182384405Y-189925923D01*
X182384405Y-189925923D02*
X182598690Y-188211638D01*
X184170119Y-190116400D02*
X183967738Y-190211638D01*
X183967738Y-190211638D02*
X183586785Y-190211638D01*
X183586785Y-190211638D02*
X183408214Y-190116400D01*
X183408214Y-190116400D02*
X183336785Y-189925923D01*
X183336785Y-189925923D02*
X183432024Y-189164019D01*
X183432024Y-189164019D02*
X183551071Y-188973542D01*
X183551071Y-188973542D02*
X183753452Y-188878304D01*
X183753452Y-188878304D02*
X184134404Y-188878304D01*
X184134404Y-188878304D02*
X184312976Y-188973542D01*
X184312976Y-188973542D02*
X184384404Y-189164019D01*
X184384404Y-189164019D02*
X184360595Y-189354495D01*
X184360595Y-189354495D02*
X183384404Y-189544971D01*
X185134405Y-190021161D02*
X185217738Y-190116400D01*
X185217738Y-190116400D02*
X185110595Y-190211638D01*
X185110595Y-190211638D02*
X185027262Y-190116400D01*
X185027262Y-190116400D02*
X185134405Y-190021161D01*
X185134405Y-190021161D02*
X185110595Y-190211638D01*
X185265357Y-188973542D02*
X185348690Y-189068780D01*
X185348690Y-189068780D02*
X185241548Y-189164019D01*
X185241548Y-189164019D02*
X185158214Y-189068780D01*
X185158214Y-189068780D02*
X185265357Y-188973542D01*
X185265357Y-188973542D02*
X185241548Y-189164019D01*
D10*
D11*
X178958026Y-185607614D02*
X178458026Y-185607614D01*
X178458026Y-186393328D02*
X178458026Y-184893328D01*
X178458026Y-184893328D02*
X179172312Y-184893328D01*
X179743740Y-186393328D02*
X179743740Y-185393328D01*
X179743740Y-184893328D02*
X179672312Y-184964757D01*
X179672312Y-184964757D02*
X179743740Y-185036185D01*
X179743740Y-185036185D02*
X179815169Y-184964757D01*
X179815169Y-184964757D02*
X179743740Y-184893328D01*
X179743740Y-184893328D02*
X179743740Y-185036185D01*
X180672312Y-186393328D02*
X180529455Y-186321900D01*
X180529455Y-186321900D02*
X180458026Y-186179042D01*
X180458026Y-186179042D02*
X180458026Y-184893328D01*
X181815169Y-186321900D02*
X181672312Y-186393328D01*
X181672312Y-186393328D02*
X181386598Y-186393328D01*
X181386598Y-186393328D02*
X181243740Y-186321900D01*
X181243740Y-186321900D02*
X181172312Y-186179042D01*
X181172312Y-186179042D02*
X181172312Y-185607614D01*
X181172312Y-185607614D02*
X181243740Y-185464757D01*
X181243740Y-185464757D02*
X181386598Y-185393328D01*
X181386598Y-185393328D02*
X181672312Y-185393328D01*
X181672312Y-185393328D02*
X181815169Y-185464757D01*
X181815169Y-185464757D02*
X181886598Y-185607614D01*
X181886598Y-185607614D02*
X181886598Y-185750471D01*
X181886598Y-185750471D02*
X181172312Y-185893328D01*
X182529454Y-186250471D02*
X182600883Y-186321900D01*
X182600883Y-186321900D02*
X182529454Y-186393328D01*
X182529454Y-186393328D02*
X182458026Y-186321900D01*
X182458026Y-186321900D02*
X182529454Y-186250471D01*
X182529454Y-186250471D02*
X182529454Y-186393328D01*
X182529454Y-185464757D02*
X182600883Y-185536185D01*
X182600883Y-185536185D02*
X182529454Y-185607614D01*
X182529454Y-185607614D02*
X182458026Y-185536185D01*
X182458026Y-185536185D02*
X182529454Y-185464757D01*
X182529454Y-185464757D02*
X182529454Y-185607614D01*
X184386597Y-186393328D02*
X184386597Y-184893328D01*
X184386597Y-184893328D02*
X184743740Y-184893328D01*
X184743740Y-184893328D02*
X184958026Y-184964757D01*
X184958026Y-184964757D02*
X185100883Y-185107614D01*
X185100883Y-185107614D02*
X185172312Y-185250471D01*
X185172312Y-185250471D02*
X185243740Y-185536185D01*
X185243740Y-185536185D02*
X185243740Y-185750471D01*
X185243740Y-185750471D02*
X185172312Y-186036185D01*
X185172312Y-186036185D02*
X185100883Y-186179042D01*
X185100883Y-186179042D02*
X184958026Y-186321900D01*
X184958026Y-186321900D02*
X184743740Y-186393328D01*
X184743740Y-186393328D02*
X184386597Y-186393328D01*
X186458026Y-186321900D02*
X186315169Y-186393328D01*
X186315169Y-186393328D02*
X186029455Y-186393328D01*
X186029455Y-186393328D02*
X185886597Y-186321900D01*
X185886597Y-186321900D02*
X185815169Y-186179042D01*
X185815169Y-186179042D02*
X185815169Y-185607614D01*
X185815169Y-185607614D02*
X185886597Y-185464757D01*
X185886597Y-185464757D02*
X186029455Y-185393328D01*
X186029455Y-185393328D02*
X186315169Y-185393328D01*
X186315169Y-185393328D02*
X186458026Y-185464757D01*
X186458026Y-185464757D02*
X186529455Y-185607614D01*
X186529455Y-185607614D02*
X186529455Y-185750471D01*
X186529455Y-185750471D02*
X185815169Y-185893328D01*
X187029454Y-185393328D02*
X187386597Y-186393328D01*
X187386597Y-186393328D02*
X187743740Y-185393328D01*
X188315168Y-186393328D02*
X188315168Y-185393328D01*
X188315168Y-184893328D02*
X188243740Y-184964757D01*
X188243740Y-184964757D02*
X188315168Y-185036185D01*
X188315168Y-185036185D02*
X188386597Y-184964757D01*
X188386597Y-184964757D02*
X188315168Y-184893328D01*
X188315168Y-184893328D02*
X188315168Y-185036185D01*
X189672312Y-186321900D02*
X189529454Y-186393328D01*
X189529454Y-186393328D02*
X189243740Y-186393328D01*
X189243740Y-186393328D02*
X189100883Y-186321900D01*
X189100883Y-186321900D02*
X189029454Y-186250471D01*
X189029454Y-186250471D02*
X188958026Y-186107614D01*
X188958026Y-186107614D02*
X188958026Y-185679042D01*
X188958026Y-185679042D02*
X189029454Y-185536185D01*
X189029454Y-185536185D02*
X189100883Y-185464757D01*
X189100883Y-185464757D02*
X189243740Y-185393328D01*
X189243740Y-185393328D02*
X189529454Y-185393328D01*
X189529454Y-185393328D02*
X189672312Y-185464757D01*
X190886597Y-186321900D02*
X190743740Y-186393328D01*
X190743740Y-186393328D02*
X190458026Y-186393328D01*
X190458026Y-186393328D02*
X190315168Y-186321900D01*
X190315168Y-186321900D02*
X190243740Y-186179042D01*
X190243740Y-186179042D02*
X190243740Y-185607614D01*
X190243740Y-185607614D02*
X190315168Y-185464757D01*
X190315168Y-185464757D02*
X190458026Y-185393328D01*
X190458026Y-185393328D02*
X190743740Y-185393328D01*
X190743740Y-185393328D02*
X190886597Y-185464757D01*
X190886597Y-185464757D02*
X190958026Y-185607614D01*
X190958026Y-185607614D02*
X190958026Y-185750471D01*
X190958026Y-185750471D02*
X190243740Y-185893328D01*
X191600882Y-185821900D02*
X192743740Y-185821900D01*
X193386597Y-185964757D02*
X194100883Y-185964757D01*
X193243740Y-186393328D02*
X193743740Y-184893328D01*
X193743740Y-184893328D02*
X194243740Y-186393328D01*
X194529454Y-184893328D02*
X195386597Y-184893328D01*
X194958025Y-186393328D02*
X194958025Y-184893328D01*
X195886596Y-186393328D02*
X195886596Y-185393328D01*
X195886596Y-185536185D02*
X195958025Y-185464757D01*
X195958025Y-185464757D02*
X196100882Y-185393328D01*
X196100882Y-185393328D02*
X196315168Y-185393328D01*
X196315168Y-185393328D02*
X196458025Y-185464757D01*
X196458025Y-185464757D02*
X196529454Y-185607614D01*
X196529454Y-185607614D02*
X196529454Y-186393328D01*
X196529454Y-185607614D02*
X196600882Y-185464757D01*
X196600882Y-185464757D02*
X196743739Y-185393328D01*
X196743739Y-185393328D02*
X196958025Y-185393328D01*
X196958025Y-185393328D02*
X197100882Y-185464757D01*
X197100882Y-185464757D02*
X197172311Y-185607614D01*
X197172311Y-185607614D02*
X197172311Y-186393328D01*
X198458025Y-186321900D02*
X198315168Y-186393328D01*
X198315168Y-186393328D02*
X198029454Y-186393328D01*
X198029454Y-186393328D02*
X197886596Y-186321900D01*
X197886596Y-186321900D02*
X197815168Y-186179042D01*
X197815168Y-186179042D02*
X197815168Y-185607614D01*
X197815168Y-185607614D02*
X197886596Y-185464757D01*
X197886596Y-185464757D02*
X198029454Y-185393328D01*
X198029454Y-185393328D02*
X198315168Y-185393328D01*
X198315168Y-185393328D02*
X198458025Y-185464757D01*
X198458025Y-185464757D02*
X198529454Y-185607614D01*
X198529454Y-185607614D02*
X198529454Y-185750471D01*
X198529454Y-185750471D02*
X197815168Y-185893328D01*
X199815168Y-185393328D02*
X199815168Y-186607614D01*
X199815168Y-186607614D02*
X199743739Y-186750471D01*
X199743739Y-186750471D02*
X199672310Y-186821900D01*
X199672310Y-186821900D02*
X199529453Y-186893328D01*
X199529453Y-186893328D02*
X199315168Y-186893328D01*
X199315168Y-186893328D02*
X199172310Y-186821900D01*
X199815168Y-186321900D02*
X199672310Y-186393328D01*
X199672310Y-186393328D02*
X199386596Y-186393328D01*
X199386596Y-186393328D02*
X199243739Y-186321900D01*
X199243739Y-186321900D02*
X199172310Y-186250471D01*
X199172310Y-186250471D02*
X199100882Y-186107614D01*
X199100882Y-186107614D02*
X199100882Y-185679042D01*
X199100882Y-185679042D02*
X199172310Y-185536185D01*
X199172310Y-185536185D02*
X199243739Y-185464757D01*
X199243739Y-185464757D02*
X199386596Y-185393328D01*
X199386596Y-185393328D02*
X199672310Y-185393328D01*
X199672310Y-185393328D02*
X199815168Y-185464757D01*
X201172311Y-186393328D02*
X201172311Y-185607614D01*
X201172311Y-185607614D02*
X201100882Y-185464757D01*
X201100882Y-185464757D02*
X200958025Y-185393328D01*
X200958025Y-185393328D02*
X200672311Y-185393328D01*
X200672311Y-185393328D02*
X200529453Y-185464757D01*
X201172311Y-186321900D02*
X201029453Y-186393328D01*
X201029453Y-186393328D02*
X200672311Y-186393328D01*
X200672311Y-186393328D02*
X200529453Y-186321900D01*
X200529453Y-186321900D02*
X200458025Y-186179042D01*
X200458025Y-186179042D02*
X200458025Y-186036185D01*
X200458025Y-186036185D02*
X200529453Y-185893328D01*
X200529453Y-185893328D02*
X200672311Y-185821900D01*
X200672311Y-185821900D02*
X201029453Y-185821900D01*
X201029453Y-185821900D02*
X201172311Y-185750471D01*
X202100882Y-185536185D02*
X201958025Y-185464757D01*
X201958025Y-185464757D02*
X201886596Y-185393328D01*
X201886596Y-185393328D02*
X201815168Y-185250471D01*
X201815168Y-185250471D02*
X201815168Y-185179042D01*
X201815168Y-185179042D02*
X201886596Y-185036185D01*
X201886596Y-185036185D02*
X201958025Y-184964757D01*
X201958025Y-184964757D02*
X202100882Y-184893328D01*
X202100882Y-184893328D02*
X202386596Y-184893328D01*
X202386596Y-184893328D02*
X202529454Y-184964757D01*
X202529454Y-184964757D02*
X202600882Y-185036185D01*
X202600882Y-185036185D02*
X202672311Y-185179042D01*
X202672311Y-185179042D02*
X202672311Y-185250471D01*
X202672311Y-185250471D02*
X202600882Y-185393328D01*
X202600882Y-185393328D02*
X202529454Y-185464757D01*
X202529454Y-185464757D02*
X202386596Y-185536185D01*
X202386596Y-185536185D02*
X202100882Y-185536185D01*
X202100882Y-185536185D02*
X201958025Y-185607614D01*
X201958025Y-185607614D02*
X201886596Y-185679042D01*
X201886596Y-185679042D02*
X201815168Y-185821900D01*
X201815168Y-185821900D02*
X201815168Y-186107614D01*
X201815168Y-186107614D02*
X201886596Y-186250471D01*
X201886596Y-186250471D02*
X201958025Y-186321900D01*
X201958025Y-186321900D02*
X202100882Y-186393328D01*
X202100882Y-186393328D02*
X202386596Y-186393328D01*
X202386596Y-186393328D02*
X202529454Y-186321900D01*
X202529454Y-186321900D02*
X202600882Y-186250471D01*
X202600882Y-186250471D02*
X202672311Y-186107614D01*
X202672311Y-186107614D02*
X202672311Y-185821900D01*
X202672311Y-185821900D02*
X202600882Y-185679042D01*
X202600882Y-185679042D02*
X202529454Y-185607614D01*
X202529454Y-185607614D02*
X202386596Y-185536185D01*
X203529453Y-185536185D02*
X203386596Y-185464757D01*
X203386596Y-185464757D02*
X203315167Y-185393328D01*
X203315167Y-185393328D02*
X203243739Y-185250471D01*
X203243739Y-185250471D02*
X203243739Y-185179042D01*
X203243739Y-185179042D02*
X203315167Y-185036185D01*
X203315167Y-185036185D02*
X203386596Y-184964757D01*
X203386596Y-184964757D02*
X203529453Y-184893328D01*
X203529453Y-184893328D02*
X203815167Y-184893328D01*
X203815167Y-184893328D02*
X203958025Y-184964757D01*
X203958025Y-184964757D02*
X204029453Y-185036185D01*
X204029453Y-185036185D02*
X204100882Y-185179042D01*
X204100882Y-185179042D02*
X204100882Y-185250471D01*
X204100882Y-185250471D02*
X204029453Y-185393328D01*
X204029453Y-185393328D02*
X203958025Y-185464757D01*
X203958025Y-185464757D02*
X203815167Y-185536185D01*
X203815167Y-185536185D02*
X203529453Y-185536185D01*
X203529453Y-185536185D02*
X203386596Y-185607614D01*
X203386596Y-185607614D02*
X203315167Y-185679042D01*
X203315167Y-185679042D02*
X203243739Y-185821900D01*
X203243739Y-185821900D02*
X203243739Y-186107614D01*
X203243739Y-186107614D02*
X203315167Y-186250471D01*
X203315167Y-186250471D02*
X203386596Y-186321900D01*
X203386596Y-186321900D02*
X203529453Y-186393328D01*
X203529453Y-186393328D02*
X203815167Y-186393328D01*
X203815167Y-186393328D02*
X203958025Y-186321900D01*
X203958025Y-186321900D02*
X204029453Y-186250471D01*
X204029453Y-186250471D02*
X204100882Y-186107614D01*
X204100882Y-186107614D02*
X204100882Y-185821900D01*
X204100882Y-185821900D02*
X204029453Y-185679042D01*
X204029453Y-185679042D02*
X203958025Y-185607614D01*
X203958025Y-185607614D02*
X203815167Y-185536185D01*
X204386596Y-186536185D02*
X205529453Y-186536185D01*
X206386595Y-185607614D02*
X206600881Y-185679042D01*
X206600881Y-185679042D02*
X206672310Y-185750471D01*
X206672310Y-185750471D02*
X206743738Y-185893328D01*
X206743738Y-185893328D02*
X206743738Y-186107614D01*
X206743738Y-186107614D02*
X206672310Y-186250471D01*
X206672310Y-186250471D02*
X206600881Y-186321900D01*
X206600881Y-186321900D02*
X206458024Y-186393328D01*
X206458024Y-186393328D02*
X205886595Y-186393328D01*
X205886595Y-186393328D02*
X205886595Y-184893328D01*
X205886595Y-184893328D02*
X206386595Y-184893328D01*
X206386595Y-184893328D02*
X206529453Y-184964757D01*
X206529453Y-184964757D02*
X206600881Y-185036185D01*
X206600881Y-185036185D02*
X206672310Y-185179042D01*
X206672310Y-185179042D02*
X206672310Y-185321900D01*
X206672310Y-185321900D02*
X206600881Y-185464757D01*
X206600881Y-185464757D02*
X206529453Y-185536185D01*
X206529453Y-185536185D02*
X206386595Y-185607614D01*
X206386595Y-185607614D02*
X205886595Y-185607614D01*
X207600881Y-186393328D02*
X207458024Y-186321900D01*
X207458024Y-186321900D02*
X207386595Y-186250471D01*
X207386595Y-186250471D02*
X207315167Y-186107614D01*
X207315167Y-186107614D02*
X207315167Y-185679042D01*
X207315167Y-185679042D02*
X207386595Y-185536185D01*
X207386595Y-185536185D02*
X207458024Y-185464757D01*
X207458024Y-185464757D02*
X207600881Y-185393328D01*
X207600881Y-185393328D02*
X207815167Y-185393328D01*
X207815167Y-185393328D02*
X207958024Y-185464757D01*
X207958024Y-185464757D02*
X208029453Y-185536185D01*
X208029453Y-185536185D02*
X208100881Y-185679042D01*
X208100881Y-185679042D02*
X208100881Y-186107614D01*
X208100881Y-186107614D02*
X208029453Y-186250471D01*
X208029453Y-186250471D02*
X207958024Y-186321900D01*
X207958024Y-186321900D02*
X207815167Y-186393328D01*
X207815167Y-186393328D02*
X207600881Y-186393328D01*
X209386596Y-186393328D02*
X209386596Y-185607614D01*
X209386596Y-185607614D02*
X209315167Y-185464757D01*
X209315167Y-185464757D02*
X209172310Y-185393328D01*
X209172310Y-185393328D02*
X208886596Y-185393328D01*
X208886596Y-185393328D02*
X208743738Y-185464757D01*
X209386596Y-186321900D02*
X209243738Y-186393328D01*
X209243738Y-186393328D02*
X208886596Y-186393328D01*
X208886596Y-186393328D02*
X208743738Y-186321900D01*
X208743738Y-186321900D02*
X208672310Y-186179042D01*
X208672310Y-186179042D02*
X208672310Y-186036185D01*
X208672310Y-186036185D02*
X208743738Y-185893328D01*
X208743738Y-185893328D02*
X208886596Y-185821900D01*
X208886596Y-185821900D02*
X209243738Y-185821900D01*
X209243738Y-185821900D02*
X209386596Y-185750471D01*
X210100881Y-186393328D02*
X210100881Y-185393328D01*
X210100881Y-185679042D02*
X210172310Y-185536185D01*
X210172310Y-185536185D02*
X210243739Y-185464757D01*
X210243739Y-185464757D02*
X210386596Y-185393328D01*
X210386596Y-185393328D02*
X210529453Y-185393328D01*
X211672310Y-186393328D02*
X211672310Y-184893328D01*
X211672310Y-186321900D02*
X211529452Y-186393328D01*
X211529452Y-186393328D02*
X211243738Y-186393328D01*
X211243738Y-186393328D02*
X211100881Y-186321900D01*
X211100881Y-186321900D02*
X211029452Y-186250471D01*
X211029452Y-186250471D02*
X210958024Y-186107614D01*
X210958024Y-186107614D02*
X210958024Y-185679042D01*
X210958024Y-185679042D02*
X211029452Y-185536185D01*
X211029452Y-185536185D02*
X211100881Y-185464757D01*
X211100881Y-185464757D02*
X211243738Y-185393328D01*
X211243738Y-185393328D02*
X211529452Y-185393328D01*
X211529452Y-185393328D02*
X211672310Y-185464757D01*
X212386595Y-186250471D02*
X212458024Y-186321900D01*
X212458024Y-186321900D02*
X212386595Y-186393328D01*
X212386595Y-186393328D02*
X212315167Y-186321900D01*
X212315167Y-186321900D02*
X212386595Y-186250471D01*
X212386595Y-186250471D02*
X212386595Y-186393328D01*
X213100881Y-186393328D02*
X213100881Y-184893328D01*
X213243739Y-185821900D02*
X213672310Y-186393328D01*
X213672310Y-185393328D02*
X213100881Y-185964757D01*
X214315167Y-186393328D02*
X214315167Y-185393328D01*
X214315167Y-184893328D02*
X214243739Y-184964757D01*
X214243739Y-184964757D02*
X214315167Y-185036185D01*
X214315167Y-185036185D02*
X214386596Y-184964757D01*
X214386596Y-184964757D02*
X214315167Y-184893328D01*
X214315167Y-184893328D02*
X214315167Y-185036185D01*
X215672311Y-186321900D02*
X215529453Y-186393328D01*
X215529453Y-186393328D02*
X215243739Y-186393328D01*
X215243739Y-186393328D02*
X215100882Y-186321900D01*
X215100882Y-186321900D02*
X215029453Y-186250471D01*
X215029453Y-186250471D02*
X214958025Y-186107614D01*
X214958025Y-186107614D02*
X214958025Y-185679042D01*
X214958025Y-185679042D02*
X215029453Y-185536185D01*
X215029453Y-185536185D02*
X215100882Y-185464757D01*
X215100882Y-185464757D02*
X215243739Y-185393328D01*
X215243739Y-185393328D02*
X215529453Y-185393328D01*
X215529453Y-185393328D02*
X215672311Y-185464757D01*
X216958025Y-186393328D02*
X216958025Y-185607614D01*
X216958025Y-185607614D02*
X216886596Y-185464757D01*
X216886596Y-185464757D02*
X216743739Y-185393328D01*
X216743739Y-185393328D02*
X216458025Y-185393328D01*
X216458025Y-185393328D02*
X216315167Y-185464757D01*
X216958025Y-186321900D02*
X216815167Y-186393328D01*
X216815167Y-186393328D02*
X216458025Y-186393328D01*
X216458025Y-186393328D02*
X216315167Y-186321900D01*
X216315167Y-186321900D02*
X216243739Y-186179042D01*
X216243739Y-186179042D02*
X216243739Y-186036185D01*
X216243739Y-186036185D02*
X216315167Y-185893328D01*
X216315167Y-185893328D02*
X216458025Y-185821900D01*
X216458025Y-185821900D02*
X216815167Y-185821900D01*
X216815167Y-185821900D02*
X216958025Y-185750471D01*
X218315168Y-186393328D02*
X218315168Y-184893328D01*
X218315168Y-186321900D02*
X218172310Y-186393328D01*
X218172310Y-186393328D02*
X217886596Y-186393328D01*
X217886596Y-186393328D02*
X217743739Y-186321900D01*
X217743739Y-186321900D02*
X217672310Y-186250471D01*
X217672310Y-186250471D02*
X217600882Y-186107614D01*
X217600882Y-186107614D02*
X217600882Y-185679042D01*
X217600882Y-185679042D02*
X217672310Y-185536185D01*
X217672310Y-185536185D02*
X217743739Y-185464757D01*
X217743739Y-185464757D02*
X217886596Y-185393328D01*
X217886596Y-185393328D02*
X218172310Y-185393328D01*
X218172310Y-185393328D02*
X218315168Y-185464757D01*
X218672311Y-186536185D02*
X219815168Y-186536185D01*
X220172310Y-185393328D02*
X220172310Y-186893328D01*
X220172310Y-185464757D02*
X220315168Y-185393328D01*
X220315168Y-185393328D02*
X220600882Y-185393328D01*
X220600882Y-185393328D02*
X220743739Y-185464757D01*
X220743739Y-185464757D02*
X220815168Y-185536185D01*
X220815168Y-185536185D02*
X220886596Y-185679042D01*
X220886596Y-185679042D02*
X220886596Y-186107614D01*
X220886596Y-186107614D02*
X220815168Y-186250471D01*
X220815168Y-186250471D02*
X220743739Y-186321900D01*
X220743739Y-186321900D02*
X220600882Y-186393328D01*
X220600882Y-186393328D02*
X220315168Y-186393328D01*
X220315168Y-186393328D02*
X220172310Y-186321900D01*
X222172311Y-186321900D02*
X222029453Y-186393328D01*
X222029453Y-186393328D02*
X221743739Y-186393328D01*
X221743739Y-186393328D02*
X221600882Y-186321900D01*
X221600882Y-186321900D02*
X221529453Y-186250471D01*
X221529453Y-186250471D02*
X221458025Y-186107614D01*
X221458025Y-186107614D02*
X221458025Y-185679042D01*
X221458025Y-185679042D02*
X221529453Y-185536185D01*
X221529453Y-185536185D02*
X221600882Y-185464757D01*
X221600882Y-185464757D02*
X221743739Y-185393328D01*
X221743739Y-185393328D02*
X222029453Y-185393328D01*
X222029453Y-185393328D02*
X222172311Y-185464757D01*
X222815167Y-186393328D02*
X222815167Y-184893328D01*
X222815167Y-185464757D02*
X222958025Y-185393328D01*
X222958025Y-185393328D02*
X223243739Y-185393328D01*
X223243739Y-185393328D02*
X223386596Y-185464757D01*
X223386596Y-185464757D02*
X223458025Y-185536185D01*
X223458025Y-185536185D02*
X223529453Y-185679042D01*
X223529453Y-185679042D02*
X223529453Y-186107614D01*
X223529453Y-186107614D02*
X223458025Y-186250471D01*
X223458025Y-186250471D02*
X223386596Y-186321900D01*
X223386596Y-186321900D02*
X223243739Y-186393328D01*
X223243739Y-186393328D02*
X222958025Y-186393328D01*
X222958025Y-186393328D02*
X222815167Y-186321900D01*
D10*
D11*
X177002200Y-181507200D02*
X285002200Y-181507200D01*
D10*
D11*
X178386598Y-183621900D02*
X178600884Y-183693328D01*
X178600884Y-183693328D02*
X178958026Y-183693328D01*
X178958026Y-183693328D02*
X179100884Y-183621900D01*
X179100884Y-183621900D02*
X179172312Y-183550471D01*
X179172312Y-183550471D02*
X179243741Y-183407614D01*
X179243741Y-183407614D02*
X179243741Y-183264757D01*
X179243741Y-183264757D02*
X179172312Y-183121900D01*
X179172312Y-183121900D02*
X179100884Y-183050471D01*
X179100884Y-183050471D02*
X178958026Y-182979042D01*
X178958026Y-182979042D02*
X178672312Y-182907614D01*
X178672312Y-182907614D02*
X178529455Y-182836185D01*
X178529455Y-182836185D02*
X178458026Y-182764757D01*
X178458026Y-182764757D02*
X178386598Y-182621900D01*
X178386598Y-182621900D02*
X178386598Y-182479042D01*
X178386598Y-182479042D02*
X178458026Y-182336185D01*
X178458026Y-182336185D02*
X178529455Y-182264757D01*
X178529455Y-182264757D02*
X178672312Y-182193328D01*
X178672312Y-182193328D02*
X179029455Y-182193328D01*
X179029455Y-182193328D02*
X179243741Y-182264757D01*
X179886597Y-183693328D02*
X179886597Y-182193328D01*
X180529455Y-183693328D02*
X180529455Y-182907614D01*
X180529455Y-182907614D02*
X180458026Y-182764757D01*
X180458026Y-182764757D02*
X180315169Y-182693328D01*
X180315169Y-182693328D02*
X180100883Y-182693328D01*
X180100883Y-182693328D02*
X179958026Y-182764757D01*
X179958026Y-182764757D02*
X179886597Y-182836185D01*
X181815169Y-183621900D02*
X181672312Y-183693328D01*
X181672312Y-183693328D02*
X181386598Y-183693328D01*
X181386598Y-183693328D02*
X181243740Y-183621900D01*
X181243740Y-183621900D02*
X181172312Y-183479042D01*
X181172312Y-183479042D02*
X181172312Y-182907614D01*
X181172312Y-182907614D02*
X181243740Y-182764757D01*
X181243740Y-182764757D02*
X181386598Y-182693328D01*
X181386598Y-182693328D02*
X181672312Y-182693328D01*
X181672312Y-182693328D02*
X181815169Y-182764757D01*
X181815169Y-182764757D02*
X181886598Y-182907614D01*
X181886598Y-182907614D02*
X181886598Y-183050471D01*
X181886598Y-183050471D02*
X181172312Y-183193328D01*
X183100883Y-183621900D02*
X182958026Y-183693328D01*
X182958026Y-183693328D02*
X182672312Y-183693328D01*
X182672312Y-183693328D02*
X182529454Y-183621900D01*
X182529454Y-183621900D02*
X182458026Y-183479042D01*
X182458026Y-183479042D02*
X182458026Y-182907614D01*
X182458026Y-182907614D02*
X182529454Y-182764757D01*
X182529454Y-182764757D02*
X182672312Y-182693328D01*
X182672312Y-182693328D02*
X182958026Y-182693328D01*
X182958026Y-182693328D02*
X183100883Y-182764757D01*
X183100883Y-182764757D02*
X183172312Y-182907614D01*
X183172312Y-182907614D02*
X183172312Y-183050471D01*
X183172312Y-183050471D02*
X182458026Y-183193328D01*
X183600883Y-182693328D02*
X184172311Y-182693328D01*
X183815168Y-182193328D02*
X183815168Y-183479042D01*
X183815168Y-183479042D02*
X183886597Y-183621900D01*
X183886597Y-183621900D02*
X184029454Y-183693328D01*
X184029454Y-183693328D02*
X184172311Y-183693328D01*
X184672311Y-183550471D02*
X184743740Y-183621900D01*
X184743740Y-183621900D02*
X184672311Y-183693328D01*
X184672311Y-183693328D02*
X184600883Y-183621900D01*
X184600883Y-183621900D02*
X184672311Y-183550471D01*
X184672311Y-183550471D02*
X184672311Y-183693328D01*
X184672311Y-182764757D02*
X184743740Y-182836185D01*
X184743740Y-182836185D02*
X184672311Y-182907614D01*
X184672311Y-182907614D02*
X184600883Y-182836185D01*
X184600883Y-182836185D02*
X184672311Y-182764757D01*
X184672311Y-182764757D02*
X184672311Y-182907614D01*
D10*
D11*
X197002200Y-191507200D02*
X197002200Y-194507200D01*
D10*
D11*
X261002200Y-191507200D02*
X261002200Y-198007200D01*
D14*
%TO.P,R13,1*%
%TO.N,RST*%
X65278000Y-78232000D03*
D15*
%TO.P,R13,2*%
%TO.N,+5V*%
X55118000Y-78232000D03*
%TD*%
D14*
%TO.P,R6,1*%
%TO.N,TXD*%
X65532000Y-54610000D03*
D15*
%TO.P,R6,2*%
%TO.N,7SEG-B*%
X55372000Y-54610000D03*
%TD*%
D16*
%TO.P,Q1,1,E*%
%TO.N,GND*%
X57002000Y-29718000D03*
D17*
%TO.P,Q1,2,C*%
%TO.N,7SEG-D1*%
X57002000Y-28448000D03*
%TO.P,Q1,3,B*%
%TO.N,Net-(Q1-Pad3)*%
X57002000Y-27178000D03*
%TD*%
D14*
%TO.P,R7,1*%
%TO.N,Net-(R7-Pad1)*%
X65532000Y-57912000D03*
D15*
%TO.P,R7,2*%
%TO.N,7SEG-C*%
X55372000Y-57912000D03*
%TD*%
D16*
%TO.P,Q3,1,E*%
%TO.N,GND*%
X57002000Y-41402000D03*
D17*
%TO.P,Q3,2,C*%
%TO.N,7SEG-D3*%
X57002000Y-40132000D03*
%TO.P,Q3,3,B*%
%TO.N,Net-(Q3-Pad3)*%
X57002000Y-38862000D03*
%TD*%
D14*
%TO.P,R8,1*%
%TO.N,Net-(R8-Pad1)*%
X65532000Y-61214000D03*
D15*
%TO.P,R8,2*%
%TO.N,7SEG-D*%
X55372000Y-61214000D03*
%TD*%
D14*
%TO.P,R9,1*%
%TO.N,Net-(R9-Pad1)*%
X65532000Y-64516000D03*
D15*
%TO.P,R9,2*%
%TO.N,7SEG-E*%
X55372000Y-64516000D03*
%TD*%
D14*
%TO.P,R3,1*%
%TO.N,Net-(R3-Pad1)*%
X70612000Y-38862000D03*
D15*
%TO.P,R3,2*%
%TO.N,Net-(Q3-Pad3)*%
X60452000Y-38862000D03*
%TD*%
D14*
%TO.P,R10,1*%
%TO.N,Net-(R10-Pad1)*%
X65532000Y-67818000D03*
D15*
%TO.P,R10,2*%
%TO.N,7SEG-F*%
X55372000Y-67818000D03*
%TD*%
D16*
%TO.P,Q4,1,E*%
%TO.N,GND*%
X57002000Y-47244000D03*
D17*
%TO.P,Q4,2,C*%
%TO.N,7SEG-D4*%
X57002000Y-45974000D03*
%TO.P,Q4,3,B*%
%TO.N,Net-(Q4-Pad3)*%
X57002000Y-44704000D03*
%TD*%
D18*
%TO.P,U1,1,~{RESET}/PC6*%
%TO.N,RST*%
X68336000Y-48778000D03*
D15*
%TO.P,U1,2,PD0*%
%TO.N,RXD*%
X68336000Y-51318000D03*
%TO.P,U1,3,PD1*%
%TO.N,TXD*%
X68336000Y-53858000D03*
%TO.P,U1,4,PD2*%
%TO.N,Net-(R7-Pad1)*%
X68336000Y-56398000D03*
%TO.P,U1,5,PD3*%
%TO.N,Net-(R8-Pad1)*%
X68336000Y-58938000D03*
%TO.P,U1,6,PD4*%
%TO.N,Net-(R9-Pad1)*%
X68336000Y-61478000D03*
%TO.P,U1,7,VCC*%
%TO.N,+5V*%
X68336000Y-64018000D03*
%TO.P,U1,8,GND*%
%TO.N,GND*%
X68336000Y-66558000D03*
%TO.P,U1,9,XTAL1/PB6*%
%TO.N,unconnected-(U1-Pad9)*%
X68336000Y-69098000D03*
%TO.P,U1,10,XTAL2/PB7*%
%TO.N,unconnected-(U1-Pad10)*%
X68336000Y-71638000D03*
%TO.P,U1,11,PD5*%
%TO.N,Net-(R10-Pad1)*%
X68336000Y-74178000D03*
%TO.P,U1,12,PD6*%
%TO.N,Net-(R11-Pad1)*%
X68336000Y-76718000D03*
%TO.P,U1,13,PD7*%
%TO.N,Net-(R12-Pad1)*%
X68336000Y-79258000D03*
%TO.P,U1,14,PB0*%
%TO.N,Net-(R1-Pad1)*%
X68336000Y-81798000D03*
%TO.P,U1,15,PB1*%
%TO.N,Net-(R2-Pad1)*%
X75956000Y-81798000D03*
%TO.P,U1,16,PB2*%
%TO.N,Net-(R3-Pad1)*%
X75956000Y-79258000D03*
%TO.P,U1,17,PB3*%
%TO.N,MOSI*%
X75956000Y-76718000D03*
%TO.P,U1,18,PB4*%
%TO.N,MISO*%
X75956000Y-74178000D03*
%TO.P,U1,19,PB5*%
%TO.N,SCK*%
X75956000Y-71638000D03*
%TO.P,U1,20,AVCC*%
%TO.N,+5V*%
X75956000Y-69098000D03*
%TO.P,U1,21,AREF*%
X75956000Y-66558000D03*
%TO.P,U1,22,GND*%
%TO.N,GND*%
X75956000Y-64018000D03*
%TO.P,U1,23,PC0*%
%TO.N,AD0*%
X75956000Y-61478000D03*
%TO.P,U1,24,PC1*%
%TO.N,AD1*%
X75956000Y-58938000D03*
%TO.P,U1,25,PC2*%
%TO.N,AD2*%
X75956000Y-56398000D03*
%TO.P,U1,26,PC3*%
%TO.N,AD3*%
X75956000Y-53858000D03*
%TO.P,U1,27,PC4*%
%TO.N,SDA*%
X75956000Y-51318000D03*
%TO.P,U1,28,PC5*%
%TO.N,SCL*%
X75956000Y-48778000D03*
%TD*%
D14*
%TO.P,R4,1*%
%TO.N,MOSI*%
X70612000Y-44704000D03*
D15*
%TO.P,R4,2*%
%TO.N,Net-(Q4-Pad3)*%
X60452000Y-44704000D03*
%TD*%
D16*
%TO.P,Q2,1,E*%
%TO.N,GND*%
X57002000Y-35560000D03*
D17*
%TO.P,Q2,2,C*%
%TO.N,7SEG-D2*%
X57002000Y-34290000D03*
%TO.P,Q2,3,B*%
%TO.N,Net-(Q2-Pad3)*%
X57002000Y-33020000D03*
%TD*%
D14*
%TO.P,R5,1*%
%TO.N,RXD*%
X65532000Y-51308000D03*
D15*
%TO.P,R5,2*%
%TO.N,7SEG-A*%
X55372000Y-51308000D03*
%TD*%
D19*
%TO.P,J5,1,Pin_1*%
%TO.N,MISO*%
X80264000Y-89662000D03*
D20*
%TO.P,J5,2,Pin_2*%
%TO.N,+5V*%
X80264000Y-92202000D03*
%TO.P,J5,3,Pin_3*%
%TO.N,SCK*%
X77724000Y-89662000D03*
%TO.P,J5,4,Pin_4*%
%TO.N,MOSI*%
X77724000Y-92202000D03*
%TO.P,J5,5,Pin_5*%
%TO.N,RST*%
X75184000Y-89662000D03*
%TO.P,J5,6,Pin_6*%
%TO.N,GND*%
X75184000Y-92202000D03*
%TD*%
D19*
%TO.P,J3,1,Pin_1*%
%TO.N,SDA*%
X52603000Y-91669000D03*
D20*
%TO.P,J3,2,Pin_2*%
%TO.N,SCL*%
X55143000Y-91669000D03*
%TO.P,J3,3,Pin_3*%
%TO.N,+5V*%
X57683000Y-91669000D03*
%TO.P,J3,4,Pin_4*%
%TO.N,GND*%
X60223000Y-91669000D03*
%TO.P,J3,5,Pin_5*%
%TO.N,RXD*%
X62763000Y-91669000D03*
%TO.P,J3,6,Pin_6*%
%TO.N,TXD*%
X65303000Y-91669000D03*
%TD*%
D21*
%TO.P,J2,1,VBUS*%
%TO.N,+5V*%
X48032000Y-81844000D03*
D14*
%TO.P,J2,2,D-*%
%TO.N,unconnected-(J2-Pad2)*%
X48032000Y-84344000D03*
%TO.P,J2,3,D+*%
%TO.N,unconnected-(J2-Pad3)*%
X48032000Y-86344000D03*
%TO.P,J2,4,GND*%
%TO.N,GND*%
X48032000Y-88844000D03*
D22*
%TO.P,J2,5,Shield*%
X45322000Y-78774000D03*
X45322000Y-91914000D03*
%TD*%
D19*
%TO.P,J4,1,Pin_1*%
%TO.N,+5V*%
X81001000Y-66523000D03*
D20*
%TO.P,J4,2,Pin_2*%
%TO.N,GND*%
X81001000Y-63983000D03*
%TO.P,J4,3,Pin_3*%
%TO.N,AD0*%
X81001000Y-61443000D03*
%TO.P,J4,4,Pin_4*%
%TO.N,AD1*%
X81001000Y-58903000D03*
%TO.P,J4,5,Pin_5*%
%TO.N,AD2*%
X81001000Y-56363000D03*
%TO.P,J4,6,Pin_6*%
%TO.N,AD3*%
X81001000Y-53823000D03*
%TD*%
D14*
%TO.P,R12,1*%
%TO.N,Net-(R12-Pad1)*%
X65532000Y-74422000D03*
D15*
%TO.P,R12,2*%
%TO.N,7SEG-DP*%
X55372000Y-74422000D03*
%TD*%
D14*
%TO.P,R2,1*%
%TO.N,Net-(R2-Pad1)*%
X70612000Y-33020000D03*
D15*
%TO.P,R2,2*%
%TO.N,Net-(Q2-Pad3)*%
X60452000Y-33020000D03*
%TD*%
D14*
%TO.P,R1,1*%
%TO.N,Net-(R1-Pad1)*%
X70612000Y-27178000D03*
D15*
%TO.P,R1,2*%
%TO.N,Net-(Q1-Pad3)*%
X60452000Y-27178000D03*
%TD*%
D23*
%TO.P,J1,1,Pin_1*%
%TO.N,7SEG-E*%
X36576000Y-44704000D03*
D24*
%TO.P,J1,2,Pin_2*%
%TO.N,7SEG-D*%
X36576000Y-47244000D03*
%TO.P,J1,3,Pin_3*%
%TO.N,7SEG-DP*%
X36576000Y-49784000D03*
%TO.P,J1,4,Pin_4*%
%TO.N,7SEG-C*%
X36576000Y-52324000D03*
%TO.P,J1,5,Pin_5*%
%TO.N,7SEG-G*%
X36576000Y-54864000D03*
%TO.P,J1,6,Pin_6*%
%TO.N,7SEG-D4*%
X36576000Y-57404000D03*
%TO.P,J1,7,Pin_7*%
%TO.N,7SEG-B*%
X51816000Y-57404000D03*
%TO.P,J1,8,Pin_8*%
%TO.N,7SEG-D3*%
X51816000Y-54864000D03*
%TO.P,J1,9,Pin_9*%
%TO.N,7SEG-D2*%
X51816000Y-52324000D03*
%TO.P,J1,10,Pin_10*%
%TO.N,7SEG-F*%
X51816000Y-49784000D03*
%TO.P,J1,11,Pin_11*%
%TO.N,7SEG-A*%
X51816000Y-47244000D03*
%TO.P,J1,12,Pin_12*%
%TO.N,7SEG-D1*%
X51816000Y-44704000D03*
%TD*%
D14*
%TO.P,C1,1*%
%TO.N,GND*%
X81026000Y-72116000D03*
%TO.P,C1,2*%
%TO.N,+5V*%
X81026000Y-69616000D03*
%TD*%
%TO.P,R11,1*%
%TO.N,Net-(R11-Pad1)*%
X65532000Y-71120000D03*
D15*
%TO.P,R11,2*%
%TO.N,7SEG-G*%
X55372000Y-71120000D03*
%TD*%
D25*
%TO.N,+5V*%
X81513511Y-83586489D03*
%TO.N,7SEG-E*%
X46990000Y-55118000D03*
X50546000Y-64516000D03*
%TO.N,7SEG-D*%
X46736000Y-61214000D03*
X43942000Y-58420000D03*
%TO.N,MOSI*%
X65786000Y-81788000D03*
%TD*%
D26*
%TO.N,GND*%
X80458000Y-64018000D02*
X80493000Y-63983000D01*
X75956000Y-64018000D02*
X80966000Y-64018000D01*
X80966000Y-64018000D02*
X81001000Y-63983000D01*
%TO.N,+5V*%
X76474000Y-69616000D02*
X75956000Y-69098000D01*
X70876000Y-66558000D02*
X68336000Y-64018000D01*
X75956000Y-66558000D02*
X70876000Y-66558000D01*
X81026000Y-69616000D02*
X76474000Y-69616000D01*
X57683000Y-91669000D02*
X59714511Y-93700511D01*
X55626000Y-89612000D02*
X57683000Y-91669000D01*
X81513511Y-90952489D02*
X81513511Y-83586489D01*
X75956000Y-69098000D02*
X75956000Y-66558000D01*
X80264000Y-92202000D02*
X81513511Y-90952489D01*
X55626000Y-77978000D02*
X55626000Y-89612000D01*
X78765489Y-93700511D02*
X80264000Y-92202000D01*
X59714511Y-93700511D02*
X78765489Y-93700511D01*
%TO.N,7SEG-E*%
X48805511Y-62775511D02*
X50546000Y-64516000D01*
X46990000Y-55118000D02*
X48805511Y-56933511D01*
X48805511Y-56933511D02*
X48805511Y-62775511D01*
%TO.N,7SEG-D*%
X43942000Y-58420000D02*
X46736000Y-61214000D01*
%TO.N,7SEG-D4*%
X40030345Y-57404000D02*
X36576000Y-57404000D01*
X51460345Y-45974000D02*
X40030345Y-57404000D01*
X57002000Y-45974000D02*
X51460345Y-45974000D01*
%TO.N,7SEG-F*%
X49530000Y-52070000D02*
X49530000Y-61976000D01*
X49530000Y-61976000D02*
X55372000Y-67818000D01*
X51816000Y-49784000D02*
X49530000Y-52070000D01*
%TO.N,7SEG-A*%
X51816000Y-47752000D02*
X51816000Y-47244000D01*
X55372000Y-51308000D02*
X51816000Y-47752000D01*
%TO.N,SCK*%
X73660000Y-73934000D02*
X73660000Y-85598000D01*
X75956000Y-71638000D02*
X73660000Y-73934000D01*
X73660000Y-85598000D02*
X77724000Y-89662000D01*
%TO.N,AD0*%
X75956000Y-61478000D02*
X80966000Y-61478000D01*
%TO.N,MISO*%
X75956000Y-74178000D02*
X74756489Y-75377511D01*
X74756489Y-75377511D02*
X74756489Y-84154489D01*
X80264000Y-89662000D02*
X74756489Y-84154489D01*
%TO.N,MOSI*%
X62992000Y-51192630D02*
X69480630Y-44704000D01*
X76454000Y-90932000D02*
X77724000Y-92202000D01*
X65786000Y-83312000D02*
X73406000Y-90932000D01*
X62992000Y-78994000D02*
X62992000Y-51192630D01*
X65786000Y-81788000D02*
X62992000Y-78994000D01*
X65786000Y-81788000D02*
X65786000Y-83312000D01*
X73406000Y-90932000D02*
X76454000Y-90932000D01*
X69480630Y-44704000D02*
X70612000Y-44704000D01*
%TO.N,RST*%
X67056000Y-78232000D02*
X67056000Y-50058000D01*
X67056000Y-78232000D02*
X67056000Y-83058000D01*
X67056000Y-83058000D02*
X73660000Y-89662000D01*
X65278000Y-78232000D02*
X67056000Y-78232000D01*
X67056000Y-50058000D02*
X68336000Y-48778000D01*
X73660000Y-89662000D02*
X75184000Y-89662000D01*
%TO.N,Net-(R2-Pad1)*%
X75956000Y-81798000D02*
X79238000Y-81798000D01*
X79238000Y-81798000D02*
X83058000Y-77978000D01*
X78994000Y-33020000D02*
X70612000Y-33020000D01*
X83058000Y-37084000D02*
X78994000Y-33020000D01*
X83058000Y-77978000D02*
X83058000Y-37084000D01*
%TO.N,AD1*%
X75956000Y-58938000D02*
X80966000Y-58938000D01*
X80966000Y-58938000D02*
X81001000Y-58903000D01*
%TO.N,AD2*%
X80966000Y-56398000D02*
X81001000Y-56363000D01*
X75956000Y-56398000D02*
X80966000Y-56398000D01*
%TO.N,AD3*%
X80966000Y-53858000D02*
X81001000Y-53823000D01*
X75956000Y-53858000D02*
X80966000Y-53858000D01*
%TD*%
%TA.AperFunction,Conductor*%
%TO.N,GND*%
G36*
X83762121Y-25420002D02*
G01*
X83808614Y-25473658D01*
X83820000Y-25526000D01*
X83820000Y-36539838D01*
X83799998Y-36607959D01*
X83746342Y-36654452D01*
X83676068Y-36664556D01*
X83611488Y-36635062D01*
X83604905Y-36628933D01*
X79445648Y-32469676D01*
X79445642Y-32469671D01*
X79407137Y-32443943D01*
X79329601Y-32392135D01*
X79238427Y-32354369D01*
X79238426Y-32354368D01*
X79200669Y-32338729D01*
X79200663Y-32338727D01*
X79200662Y-32338727D01*
X79132221Y-32325113D01*
X79132220Y-32325112D01*
X79063787Y-32311500D01*
X79063782Y-32311500D01*
X79063781Y-32311500D01*
X71778878Y-32311500D01*
X71710757Y-32291498D01*
X71675665Y-32257771D01*
X71618200Y-32175703D01*
X71618195Y-32175697D01*
X71456302Y-32013804D01*
X71456296Y-32013799D01*
X71268749Y-31882477D01*
X71061246Y-31785717D01*
X71061240Y-31785715D01*
X70967771Y-31760670D01*
X70840087Y-31726457D01*
X70612000Y-31706502D01*
X70383913Y-31726457D01*
X70162759Y-31785715D01*
X70162753Y-31785717D01*
X69955250Y-31882477D01*
X69767703Y-32013799D01*
X69767697Y-32013804D01*
X69605804Y-32175697D01*
X69605799Y-32175703D01*
X69474477Y-32363250D01*
X69377717Y-32570753D01*
X69377715Y-32570759D01*
X69318457Y-32791913D01*
X69298502Y-33020000D01*
X69318457Y-33248086D01*
X69377715Y-33469240D01*
X69377717Y-33469246D01*
X69474477Y-33676749D01*
X69510713Y-33728500D01*
X69605802Y-33864300D01*
X69767700Y-34026198D01*
X69955251Y-34157523D01*
X70162757Y-34254284D01*
X70383913Y-34313543D01*
X70612000Y-34333498D01*
X70840087Y-34313543D01*
X71061243Y-34254284D01*
X71268749Y-34157523D01*
X71456300Y-34026198D01*
X71618198Y-33864300D01*
X71675665Y-33782229D01*
X71731122Y-33737901D01*
X71778878Y-33728500D01*
X78648339Y-33728500D01*
X78716460Y-33748502D01*
X78737434Y-33765405D01*
X82312595Y-37340565D01*
X82346621Y-37402877D01*
X82349500Y-37429660D01*
X82349500Y-52980023D01*
X82329498Y-53048144D01*
X82275842Y-53094637D01*
X82205568Y-53104741D01*
X82140988Y-53075247D01*
X82118017Y-53048938D01*
X82076724Y-52985735D01*
X82076720Y-52985729D01*
X81924237Y-52820091D01*
X81841987Y-52756073D01*
X81746576Y-52681811D01*
X81548574Y-52574658D01*
X81548572Y-52574657D01*
X81548571Y-52574656D01*
X81335639Y-52501557D01*
X81335630Y-52501555D01*
X81291476Y-52494187D01*
X81113569Y-52464500D01*
X80888431Y-52464500D01*
X80740211Y-52489233D01*
X80666369Y-52501555D01*
X80666360Y-52501557D01*
X80453428Y-52574656D01*
X80453426Y-52574658D01*
X80362775Y-52623716D01*
X80255426Y-52681810D01*
X80255424Y-52681811D01*
X80077762Y-52820091D01*
X79925279Y-52985729D01*
X79925275Y-52985735D01*
X79855578Y-53092415D01*
X79801574Y-53138504D01*
X79750095Y-53149500D01*
X77122878Y-53149500D01*
X77054757Y-53129498D01*
X77019665Y-53095771D01*
X76962200Y-53013703D01*
X76962195Y-53013697D01*
X76800302Y-52851804D01*
X76800296Y-52851799D01*
X76737998Y-52808177D01*
X76612749Y-52720477D01*
X76573543Y-52702195D01*
X76520258Y-52655279D01*
X76500796Y-52587002D01*
X76521337Y-52519042D01*
X76573543Y-52473805D01*
X76575997Y-52472660D01*
X76612749Y-52455523D01*
X76800300Y-52324198D01*
X76962198Y-52162300D01*
X77093523Y-51974749D01*
X77190284Y-51767243D01*
X77249543Y-51546087D01*
X77269498Y-51318000D01*
X77249543Y-51089913D01*
X77190284Y-50868757D01*
X77093523Y-50661251D01*
X76962198Y-50473700D01*
X76800300Y-50311802D01*
X76800291Y-50311796D01*
X76717790Y-50254028D01*
X76612749Y-50180477D01*
X76573543Y-50162195D01*
X76520258Y-50115279D01*
X76500796Y-50047002D01*
X76521337Y-49979042D01*
X76573543Y-49933805D01*
X76575997Y-49932660D01*
X76612749Y-49915523D01*
X76800300Y-49784198D01*
X76962198Y-49622300D01*
X77093523Y-49434749D01*
X77190284Y-49227243D01*
X77249543Y-49006087D01*
X77269498Y-48778000D01*
X77249543Y-48549913D01*
X77190284Y-48328757D01*
X77093523Y-48121251D01*
X76962198Y-47933700D01*
X76800300Y-47771802D01*
X76663599Y-47676083D01*
X76612749Y-47640477D01*
X76405246Y-47543717D01*
X76405240Y-47543715D01*
X76311771Y-47518670D01*
X76184087Y-47484457D01*
X75956000Y-47464502D01*
X75727913Y-47484457D01*
X75506759Y-47543715D01*
X75506753Y-47543717D01*
X75299250Y-47640477D01*
X75111703Y-47771799D01*
X75111697Y-47771804D01*
X74949804Y-47933697D01*
X74949799Y-47933703D01*
X74818477Y-48121250D01*
X74721717Y-48328753D01*
X74721715Y-48328759D01*
X74665258Y-48539459D01*
X74662457Y-48549913D01*
X74642502Y-48778000D01*
X74659471Y-48971962D01*
X74662457Y-49006086D01*
X74721715Y-49227240D01*
X74721717Y-49227246D01*
X74818477Y-49434749D01*
X74938638Y-49606357D01*
X74949802Y-49622300D01*
X75111700Y-49784198D01*
X75299251Y-49915523D01*
X75334359Y-49931894D01*
X75338457Y-49933805D01*
X75391742Y-49980722D01*
X75411203Y-50048999D01*
X75390661Y-50116959D01*
X75338457Y-50162195D01*
X75299250Y-50180477D01*
X75111703Y-50311799D01*
X75111697Y-50311804D01*
X74949804Y-50473697D01*
X74949799Y-50473703D01*
X74818477Y-50661250D01*
X74721717Y-50868753D01*
X74721715Y-50868759D01*
X74665096Y-51080064D01*
X74662457Y-51089913D01*
X74642502Y-51318000D01*
X74659471Y-51511962D01*
X74662457Y-51546086D01*
X74701647Y-51692347D01*
X74721716Y-51767243D01*
X74818477Y-51974749D01*
X74949802Y-52162300D01*
X75111700Y-52324198D01*
X75299251Y-52455523D01*
X75334359Y-52471894D01*
X75338457Y-52473805D01*
X75391742Y-52520722D01*
X75411203Y-52588999D01*
X75390661Y-52656959D01*
X75338457Y-52702195D01*
X75299250Y-52720477D01*
X75111703Y-52851799D01*
X75111697Y-52851804D01*
X74949804Y-53013697D01*
X74949799Y-53013703D01*
X74818477Y-53201250D01*
X74721717Y-53408753D01*
X74721715Y-53408759D01*
X74669454Y-53603799D01*
X74662457Y-53629913D01*
X74642502Y-53858000D01*
X74662457Y-54086087D01*
X74695526Y-54209500D01*
X74721715Y-54307240D01*
X74721717Y-54307246D01*
X74818477Y-54514749D01*
X74924367Y-54665976D01*
X74949802Y-54702300D01*
X75111700Y-54864198D01*
X75299251Y-54995523D01*
X75334359Y-55011894D01*
X75338457Y-55013805D01*
X75391742Y-55060722D01*
X75411203Y-55128999D01*
X75390661Y-55196959D01*
X75338457Y-55242195D01*
X75299250Y-55260477D01*
X75111703Y-55391799D01*
X75111697Y-55391804D01*
X74949804Y-55553697D01*
X74949799Y-55553703D01*
X74818477Y-55741250D01*
X74721717Y-55948753D01*
X74721715Y-55948759D01*
X74665144Y-56159885D01*
X74662457Y-56169913D01*
X74642502Y-56398000D01*
X74661789Y-56618457D01*
X74662457Y-56626086D01*
X74721715Y-56847240D01*
X74721717Y-56847246D01*
X74818477Y-57054749D01*
X74924367Y-57205976D01*
X74949802Y-57242300D01*
X75111700Y-57404198D01*
X75299251Y-57535523D01*
X75332884Y-57551206D01*
X75338457Y-57553805D01*
X75391742Y-57600722D01*
X75411203Y-57668999D01*
X75390661Y-57736959D01*
X75338457Y-57782195D01*
X75299250Y-57800477D01*
X75111703Y-57931799D01*
X75111697Y-57931804D01*
X74949804Y-58093697D01*
X74949799Y-58093703D01*
X74818477Y-58281250D01*
X74721717Y-58488753D01*
X74721715Y-58488759D01*
X74689248Y-58609928D01*
X74662457Y-58709913D01*
X74642502Y-58938000D01*
X74662457Y-59166087D01*
X74673029Y-59205542D01*
X74721715Y-59387240D01*
X74721717Y-59387246D01*
X74818477Y-59594749D01*
X74924367Y-59745976D01*
X74949802Y-59782300D01*
X75111700Y-59944198D01*
X75299251Y-60075523D01*
X75334359Y-60091894D01*
X75338457Y-60093805D01*
X75391742Y-60140722D01*
X75411203Y-60208999D01*
X75390661Y-60276959D01*
X75338457Y-60322195D01*
X75299250Y-60340477D01*
X75111703Y-60471799D01*
X75111697Y-60471804D01*
X74949804Y-60633697D01*
X74949799Y-60633703D01*
X74818477Y-60821250D01*
X74721717Y-61028753D01*
X74721716Y-61028757D01*
X74662457Y-61249913D01*
X74642502Y-61478000D01*
X74662457Y-61706087D01*
X74696670Y-61833771D01*
X74721715Y-61927240D01*
X74721717Y-61927246D01*
X74818477Y-62134749D01*
X74924367Y-62285976D01*
X74949802Y-62322300D01*
X75111700Y-62484198D01*
X75299251Y-62615523D01*
X75338457Y-62633805D01*
X75339047Y-62634080D01*
X75392332Y-62680996D01*
X75411794Y-62749273D01*
X75391253Y-62817233D01*
X75339051Y-62862468D01*
X75299504Y-62880910D01*
X75112025Y-63012184D01*
X75112019Y-63012189D01*
X74950189Y-63174019D01*
X74950184Y-63174025D01*
X74818912Y-63361501D01*
X74722188Y-63568926D01*
X74722186Y-63568931D01*
X74669917Y-63764000D01*
X75644314Y-63764000D01*
X75635920Y-63772394D01*
X75583259Y-63863606D01*
X75556000Y-63965339D01*
X75556000Y-64070661D01*
X75583259Y-64172394D01*
X75635920Y-64263606D01*
X75644314Y-64272000D01*
X74669918Y-64272000D01*
X74722186Y-64467068D01*
X74722188Y-64467073D01*
X74818912Y-64674498D01*
X74950184Y-64861974D01*
X74950189Y-64861980D01*
X75112019Y-65023810D01*
X75112025Y-65023815D01*
X75299503Y-65155089D01*
X75339049Y-65173530D01*
X75392334Y-65220447D01*
X75411794Y-65288724D01*
X75391252Y-65356684D01*
X75339049Y-65401918D01*
X75299252Y-65420475D01*
X75111703Y-65551799D01*
X75111697Y-65551804D01*
X74949804Y-65713697D01*
X74949799Y-65713703D01*
X74892335Y-65795771D01*
X74836878Y-65840099D01*
X74789122Y-65849500D01*
X71221660Y-65849500D01*
X71153539Y-65829498D01*
X71132565Y-65812595D01*
X69665981Y-64346011D01*
X69631955Y-64283699D01*
X69629556Y-64245934D01*
X69631334Y-64225614D01*
X69649498Y-64018000D01*
X69629543Y-63789913D01*
X69570284Y-63568757D01*
X69473523Y-63361251D01*
X69342198Y-63173700D01*
X69180300Y-63011802D01*
X68992749Y-62880477D01*
X68954130Y-62862469D01*
X68953543Y-62862195D01*
X68900258Y-62815279D01*
X68880796Y-62747002D01*
X68901337Y-62679042D01*
X68953543Y-62633805D01*
X68955997Y-62632660D01*
X68992749Y-62615523D01*
X69180300Y-62484198D01*
X69342198Y-62322300D01*
X69473523Y-62134749D01*
X69570284Y-61927243D01*
X69629543Y-61706087D01*
X69649498Y-61478000D01*
X69629543Y-61249913D01*
X69570284Y-61028757D01*
X69473523Y-60821251D01*
X69342198Y-60633700D01*
X69180300Y-60471802D01*
X68992749Y-60340477D01*
X68953543Y-60322195D01*
X68900258Y-60275279D01*
X68880796Y-60207002D01*
X68901337Y-60139042D01*
X68953543Y-60093805D01*
X68955997Y-60092660D01*
X68992749Y-60075523D01*
X69180300Y-59944198D01*
X69342198Y-59782300D01*
X69473523Y-59594749D01*
X69570284Y-59387243D01*
X69629543Y-59166087D01*
X69649498Y-58938000D01*
X69629543Y-58709913D01*
X69570284Y-58488757D01*
X69473523Y-58281251D01*
X69342198Y-58093700D01*
X69180300Y-57931802D01*
X68992749Y-57800477D01*
X68953543Y-57782195D01*
X68900258Y-57735279D01*
X68880796Y-57667002D01*
X68901337Y-57599042D01*
X68953543Y-57553805D01*
X68959116Y-57551206D01*
X68992749Y-57535523D01*
X69180300Y-57404198D01*
X69342198Y-57242300D01*
X69473523Y-57054749D01*
X69570284Y-56847243D01*
X69629543Y-56626087D01*
X69649498Y-56398000D01*
X69629543Y-56169913D01*
X69570284Y-55948757D01*
X69473523Y-55741251D01*
X69342198Y-55553700D01*
X69180300Y-55391802D01*
X68992749Y-55260477D01*
X68953543Y-55242195D01*
X68900258Y-55195279D01*
X68880796Y-55127002D01*
X68901337Y-55059042D01*
X68953543Y-55013805D01*
X68955997Y-55012660D01*
X68992749Y-54995523D01*
X69180300Y-54864198D01*
X69342198Y-54702300D01*
X69473523Y-54514749D01*
X69570284Y-54307243D01*
X69629543Y-54086087D01*
X69649498Y-53858000D01*
X69629543Y-53629913D01*
X69570284Y-53408757D01*
X69473523Y-53201251D01*
X69342198Y-53013700D01*
X69180300Y-52851802D01*
X68992749Y-52720477D01*
X68953543Y-52702195D01*
X68900258Y-52655279D01*
X68880796Y-52587002D01*
X68901337Y-52519042D01*
X68953543Y-52473805D01*
X68955997Y-52472660D01*
X68992749Y-52455523D01*
X69180300Y-52324198D01*
X69342198Y-52162300D01*
X69473523Y-51974749D01*
X69570284Y-51767243D01*
X69629543Y-51546087D01*
X69649498Y-51318000D01*
X69629543Y-51089913D01*
X69570284Y-50868757D01*
X69473523Y-50661251D01*
X69342198Y-50473700D01*
X69180300Y-50311802D01*
X69180295Y-50311799D01*
X69180292Y-50311796D01*
X69176995Y-50309487D01*
X69132669Y-50254028D01*
X69125363Y-50183409D01*
X69157396Y-50120049D01*
X69218599Y-50084067D01*
X69235801Y-50080999D01*
X69245201Y-50079989D01*
X69382204Y-50028889D01*
X69383562Y-50027873D01*
X69499261Y-49941261D01*
X69586887Y-49824207D01*
X69586887Y-49824206D01*
X69586889Y-49824204D01*
X69637989Y-49687201D01*
X69644500Y-49626638D01*
X69644500Y-47929362D01*
X69644499Y-47929350D01*
X69637990Y-47868803D01*
X69637988Y-47868795D01*
X69601811Y-47771804D01*
X69586889Y-47731796D01*
X69586888Y-47731794D01*
X69586887Y-47731792D01*
X69499261Y-47614738D01*
X69382207Y-47527112D01*
X69382202Y-47527110D01*
X69245204Y-47476011D01*
X69245196Y-47476009D01*
X69184649Y-47469500D01*
X69184638Y-47469500D01*
X68021290Y-47469500D01*
X67953169Y-47449498D01*
X67906676Y-47395842D01*
X67896572Y-47325568D01*
X67926066Y-47260988D01*
X67932195Y-47254405D01*
X69532956Y-45653644D01*
X69595268Y-45619618D01*
X69666083Y-45624683D01*
X69711146Y-45653644D01*
X69767700Y-45710198D01*
X69955251Y-45841523D01*
X70162757Y-45938284D01*
X70383913Y-45997543D01*
X70612000Y-46017498D01*
X70840087Y-45997543D01*
X71061243Y-45938284D01*
X71268749Y-45841523D01*
X71456300Y-45710198D01*
X71618198Y-45548300D01*
X71749523Y-45360749D01*
X71846284Y-45153243D01*
X71905543Y-44932087D01*
X71925498Y-44704000D01*
X71905543Y-44475913D01*
X71846284Y-44254757D01*
X71749523Y-44047251D01*
X71618198Y-43859700D01*
X71456300Y-43697802D01*
X71268749Y-43566477D01*
X71061246Y-43469717D01*
X71061240Y-43469715D01*
X70952928Y-43440693D01*
X70840087Y-43410457D01*
X70612000Y-43390502D01*
X70383913Y-43410457D01*
X70162759Y-43469715D01*
X70162753Y-43469717D01*
X69955250Y-43566477D01*
X69767703Y-43697799D01*
X69767697Y-43697804D01*
X69605804Y-43859697D01*
X69605799Y-43859703D01*
X69548335Y-43941771D01*
X69492878Y-43986099D01*
X69445122Y-43995500D01*
X69410846Y-43995500D01*
X69273967Y-44022727D01*
X69273962Y-44022729D01*
X69220560Y-44044848D01*
X69220560Y-44044849D01*
X69154175Y-44072347D01*
X69145028Y-44076136D01*
X69028992Y-44153669D01*
X69028985Y-44153674D01*
X62441676Y-50740981D01*
X62441671Y-50740987D01*
X62364133Y-50857031D01*
X62351447Y-50887662D01*
X62351446Y-50887665D01*
X62316879Y-50971118D01*
X62316878Y-50971120D01*
X62310728Y-50985965D01*
X62310727Y-50985969D01*
X62287779Y-51101337D01*
X62283500Y-51122844D01*
X62283500Y-79063784D01*
X62310727Y-79200661D01*
X62310729Y-79200666D01*
X62364135Y-79329601D01*
X62441671Y-79445642D01*
X62441676Y-79445648D01*
X64851334Y-81855304D01*
X64885359Y-81917616D01*
X64887549Y-81931227D01*
X64892457Y-81977927D01*
X64908106Y-82026087D01*
X64951473Y-82159556D01*
X64951476Y-82159561D01*
X65046958Y-82324941D01*
X65050843Y-82330288D01*
X65049233Y-82331457D01*
X65075853Y-82386925D01*
X65077500Y-82407229D01*
X65077500Y-83381786D01*
X65104334Y-83516689D01*
X65104726Y-83518660D01*
X65158135Y-83647601D01*
X65235671Y-83763642D01*
X65235676Y-83763648D01*
X72954351Y-91482323D01*
X72954357Y-91482328D01*
X73070399Y-91559865D01*
X73119861Y-91580352D01*
X73119862Y-91580353D01*
X73119863Y-91580353D01*
X73199335Y-91613272D01*
X73199336Y-91613272D01*
X73199338Y-91613273D01*
X73316740Y-91636625D01*
X73336218Y-91640500D01*
X73336219Y-91640500D01*
X73763440Y-91640500D01*
X73831561Y-91660502D01*
X73878054Y-91714158D01*
X73888158Y-91784432D01*
X73885585Y-91797431D01*
X73847456Y-91947999D01*
X73847456Y-91948000D01*
X74753297Y-91948000D01*
X74718075Y-92009007D01*
X74684000Y-92136174D01*
X74684000Y-92267826D01*
X74718075Y-92394993D01*
X74753297Y-92456000D01*
X73847455Y-92456000D01*
X73895176Y-92644449D01*
X73895179Y-92644456D01*
X73970161Y-92815397D01*
X73979208Y-92885815D01*
X73948748Y-92949945D01*
X73888451Y-92987427D01*
X73854774Y-92992011D01*
X66181996Y-92992011D01*
X66113875Y-92972009D01*
X66067382Y-92918353D01*
X66057278Y-92848079D01*
X66086772Y-92783499D01*
X66104605Y-92766579D01*
X66106367Y-92765208D01*
X66226240Y-92671906D01*
X66378722Y-92506268D01*
X66378927Y-92505955D01*
X66411564Y-92456000D01*
X66501860Y-92317791D01*
X66592296Y-92111616D01*
X66647564Y-91893368D01*
X66666156Y-91669000D01*
X66647564Y-91444632D01*
X66637308Y-91404131D01*
X66592297Y-91226387D01*
X66592296Y-91226386D01*
X66592296Y-91226384D01*
X66501860Y-91020209D01*
X66484500Y-90993637D01*
X66378724Y-90831734D01*
X66378720Y-90831729D01*
X66242494Y-90683750D01*
X66226240Y-90666094D01*
X66226239Y-90666093D01*
X66226237Y-90666091D01*
X66144382Y-90602381D01*
X66048576Y-90527811D01*
X65850574Y-90420658D01*
X65850572Y-90420657D01*
X65850571Y-90420656D01*
X65637639Y-90347557D01*
X65637630Y-90347555D01*
X65576545Y-90337362D01*
X65415569Y-90310500D01*
X65190431Y-90310500D01*
X65045971Y-90334606D01*
X64968369Y-90347555D01*
X64968360Y-90347557D01*
X64755428Y-90420656D01*
X64755426Y-90420658D01*
X64557426Y-90527810D01*
X64557424Y-90527811D01*
X64379762Y-90666091D01*
X64227279Y-90831729D01*
X64138483Y-90967643D01*
X64084479Y-91013731D01*
X64014131Y-91023306D01*
X63949774Y-90993329D01*
X63927517Y-90967643D01*
X63838720Y-90831729D01*
X63702494Y-90683750D01*
X63686240Y-90666094D01*
X63686239Y-90666093D01*
X63686237Y-90666091D01*
X63604382Y-90602381D01*
X63508576Y-90527811D01*
X63310574Y-90420658D01*
X63310572Y-90420657D01*
X63310571Y-90420656D01*
X63097639Y-90347557D01*
X63097630Y-90347555D01*
X63036545Y-90337362D01*
X62875569Y-90310500D01*
X62650431Y-90310500D01*
X62505971Y-90334606D01*
X62428369Y-90347555D01*
X62428360Y-90347557D01*
X62215428Y-90420656D01*
X62215426Y-90420658D01*
X62017426Y-90527810D01*
X62017424Y-90527811D01*
X61839762Y-90666091D01*
X61687279Y-90831729D01*
X61598183Y-90968101D01*
X61544179Y-91014189D01*
X61473831Y-91023764D01*
X61409474Y-90993786D01*
X61387217Y-90968100D01*
X61298327Y-90832044D01*
X61145902Y-90666465D01*
X60968301Y-90528232D01*
X60968300Y-90528231D01*
X60770371Y-90421117D01*
X60770369Y-90421116D01*
X60557512Y-90348043D01*
X60557501Y-90348040D01*
X60477000Y-90334606D01*
X60477000Y-91238297D01*
X60415993Y-91203075D01*
X60288826Y-91169000D01*
X60157174Y-91169000D01*
X60030007Y-91203075D01*
X59969000Y-91238297D01*
X59969000Y-90334607D01*
X59968999Y-90334606D01*
X59888498Y-90348040D01*
X59888487Y-90348043D01*
X59675630Y-90421116D01*
X59675628Y-90421117D01*
X59477699Y-90528231D01*
X59477698Y-90528232D01*
X59300097Y-90666465D01*
X59147670Y-90832045D01*
X59058780Y-90968101D01*
X59004776Y-91014189D01*
X58934428Y-91023764D01*
X58870071Y-90993786D01*
X58847816Y-90968101D01*
X58782572Y-90868237D01*
X58758724Y-90831734D01*
X58758720Y-90831729D01*
X58622494Y-90683750D01*
X58606240Y-90666094D01*
X58606239Y-90666093D01*
X58606237Y-90666091D01*
X58524382Y-90602381D01*
X58428576Y-90527811D01*
X58230574Y-90420658D01*
X58230572Y-90420657D01*
X58230571Y-90420656D01*
X58017639Y-90347557D01*
X58017630Y-90347555D01*
X57956545Y-90337362D01*
X57795569Y-90310500D01*
X57570431Y-90310500D01*
X57506501Y-90321167D01*
X57425328Y-90334712D01*
X57354845Y-90326194D01*
X57315496Y-90299525D01*
X56371405Y-89355434D01*
X56337379Y-89293122D01*
X56334500Y-89266339D01*
X56334500Y-78747315D01*
X56346305Y-78694065D01*
X56352284Y-78681243D01*
X56411543Y-78460087D01*
X56431498Y-78232000D01*
X56411543Y-78003913D01*
X56352284Y-77782757D01*
X56255523Y-77575251D01*
X56124198Y-77387700D01*
X55962300Y-77225802D01*
X55849489Y-77146811D01*
X55774749Y-77094477D01*
X55567246Y-76997717D01*
X55567240Y-76997715D01*
X55374562Y-76946087D01*
X55346087Y-76938457D01*
X55118000Y-76918502D01*
X54889913Y-76938457D01*
X54668759Y-76997715D01*
X54668753Y-76997717D01*
X54461250Y-77094477D01*
X54273703Y-77225799D01*
X54273697Y-77225804D01*
X54111804Y-77387697D01*
X54111799Y-77387703D01*
X53980477Y-77575250D01*
X53883717Y-77782753D01*
X53883715Y-77782759D01*
X53824457Y-78003913D01*
X53804502Y-78232000D01*
X53824457Y-78460086D01*
X53883715Y-78681240D01*
X53883717Y-78681246D01*
X53980477Y-78888749D01*
X54048499Y-78985895D01*
X54111802Y-79076300D01*
X54273700Y-79238198D01*
X54461251Y-79369523D01*
X54668757Y-79466284D01*
X54824111Y-79507911D01*
X54884734Y-79544863D01*
X54915755Y-79608724D01*
X54917500Y-79629618D01*
X54917500Y-89681784D01*
X54944727Y-89818661D01*
X54944729Y-89818666D01*
X54998135Y-89947601D01*
X55075671Y-90063642D01*
X55075676Y-90063648D01*
X55107959Y-90095931D01*
X55141985Y-90158243D01*
X55136920Y-90229058D01*
X55094373Y-90285894D01*
X55035346Y-90308297D01*
X55035571Y-90309643D01*
X55030435Y-90310500D01*
X55030431Y-90310500D01*
X54880959Y-90335442D01*
X54808369Y-90347555D01*
X54808360Y-90347557D01*
X54595428Y-90420656D01*
X54595426Y-90420658D01*
X54397426Y-90527810D01*
X54397424Y-90527811D01*
X54219762Y-90666091D01*
X54158754Y-90732363D01*
X54097901Y-90768933D01*
X54026936Y-90766798D01*
X53968391Y-90726636D01*
X53947999Y-90691057D01*
X53921943Y-90621201D01*
X53903889Y-90572796D01*
X53903888Y-90572794D01*
X53903887Y-90572792D01*
X53816261Y-90455738D01*
X53699207Y-90368112D01*
X53699202Y-90368110D01*
X53562204Y-90317011D01*
X53562196Y-90317009D01*
X53501649Y-90310500D01*
X53501638Y-90310500D01*
X51704362Y-90310500D01*
X51704350Y-90310500D01*
X51643803Y-90317009D01*
X51643795Y-90317011D01*
X51506797Y-90368110D01*
X51506792Y-90368112D01*
X51389738Y-90455738D01*
X51302112Y-90572792D01*
X51302110Y-90572797D01*
X51251011Y-90709795D01*
X51251009Y-90709803D01*
X51244500Y-90770350D01*
X51244500Y-92567649D01*
X51251009Y-92628196D01*
X51251011Y-92628204D01*
X51302110Y-92765202D01*
X51302112Y-92765207D01*
X51389738Y-92882261D01*
X51506792Y-92969887D01*
X51506794Y-92969888D01*
X51506796Y-92969889D01*
X51553817Y-92987427D01*
X51643795Y-93020988D01*
X51643803Y-93020990D01*
X51704350Y-93027499D01*
X51704355Y-93027499D01*
X51704362Y-93027500D01*
X51704368Y-93027500D01*
X53501632Y-93027500D01*
X53501638Y-93027500D01*
X53501645Y-93027499D01*
X53501649Y-93027499D01*
X53562196Y-93020990D01*
X53562199Y-93020989D01*
X53562201Y-93020989D01*
X53699204Y-92969889D01*
X53769399Y-92917342D01*
X53816261Y-92882261D01*
X53903886Y-92765208D01*
X53903885Y-92765208D01*
X53903889Y-92765204D01*
X53947999Y-92646939D01*
X53990545Y-92590107D01*
X54057066Y-92565296D01*
X54126440Y-92580388D01*
X54158753Y-92605635D01*
X54216095Y-92667925D01*
X54219762Y-92671908D01*
X54258424Y-92702000D01*
X54397424Y-92810189D01*
X54595426Y-92917342D01*
X54595427Y-92917342D01*
X54595428Y-92917343D01*
X54690395Y-92949945D01*
X54808365Y-92990444D01*
X55030431Y-93027500D01*
X55030435Y-93027500D01*
X55255565Y-93027500D01*
X55255569Y-93027500D01*
X55477635Y-92990444D01*
X55690574Y-92917342D01*
X55888576Y-92810189D01*
X56066240Y-92671906D01*
X56218722Y-92506268D01*
X56218927Y-92505955D01*
X56250903Y-92457011D01*
X56307518Y-92370354D01*
X56361520Y-92324268D01*
X56431868Y-92314692D01*
X56496225Y-92344669D01*
X56518480Y-92370353D01*
X56534579Y-92394993D01*
X56607275Y-92506265D01*
X56607279Y-92506270D01*
X56698754Y-92605637D01*
X56751722Y-92663175D01*
X56759762Y-92671908D01*
X56798424Y-92702000D01*
X56937424Y-92810189D01*
X57135426Y-92917342D01*
X57135427Y-92917342D01*
X57135428Y-92917343D01*
X57230395Y-92949945D01*
X57348365Y-92990444D01*
X57570431Y-93027500D01*
X57570435Y-93027500D01*
X57795571Y-93027500D01*
X57889636Y-93011803D01*
X57940668Y-93003287D01*
X58011152Y-93011803D01*
X58050502Y-93038473D01*
X58583502Y-93571473D01*
X59030935Y-94018905D01*
X59064960Y-94081217D01*
X59059896Y-94152032D01*
X59017349Y-94208868D01*
X58950829Y-94233679D01*
X58941840Y-94234000D01*
X34162000Y-94234000D01*
X34093879Y-94213998D01*
X34047386Y-94160342D01*
X34036000Y-94108000D01*
X34036000Y-91913995D01*
X43309308Y-91913995D01*
X43309308Y-91914004D01*
X43328052Y-92188048D01*
X43328053Y-92188054D01*
X43383942Y-92457011D01*
X43383944Y-92457019D01*
X43475938Y-92715865D01*
X43602314Y-92959756D01*
X43602316Y-92959759D01*
X43732541Y-93144248D01*
X44347532Y-92529256D01*
X44444829Y-92663175D01*
X44572825Y-92791171D01*
X44706741Y-92888466D01*
X44092715Y-93502492D01*
X44092715Y-93502494D01*
X44161313Y-93558304D01*
X44161318Y-93558307D01*
X44396030Y-93701038D01*
X44647989Y-93810480D01*
X44912509Y-93884595D01*
X45184635Y-93921999D01*
X45184649Y-93922000D01*
X45459351Y-93922000D01*
X45459364Y-93921999D01*
X45731490Y-93884595D01*
X45996010Y-93810480D01*
X46247969Y-93701038D01*
X46482679Y-93558309D01*
X46551283Y-93502493D01*
X46551283Y-93502492D01*
X45937257Y-92888466D01*
X46071175Y-92791171D01*
X46199171Y-92663175D01*
X46296467Y-92529257D01*
X46911457Y-93144247D01*
X47041682Y-92959762D01*
X47041685Y-92959756D01*
X47168061Y-92715865D01*
X47260055Y-92457019D01*
X47260057Y-92457011D01*
X47315946Y-92188054D01*
X47315947Y-92188048D01*
X47334692Y-91914004D01*
X47334692Y-91913995D01*
X47315947Y-91639951D01*
X47315946Y-91639945D01*
X47260057Y-91370988D01*
X47260055Y-91370980D01*
X47168061Y-91112134D01*
X47041685Y-90868243D01*
X47041681Y-90868237D01*
X46911457Y-90683750D01*
X46296466Y-91298741D01*
X46199171Y-91164825D01*
X46071175Y-91036829D01*
X45937256Y-90939532D01*
X46551283Y-90325504D01*
X46482680Y-90269691D01*
X46247969Y-90126961D01*
X45996010Y-90017519D01*
X45731490Y-89943404D01*
X45459364Y-89906000D01*
X45184635Y-89906000D01*
X44912509Y-89943404D01*
X44647989Y-90017519D01*
X44396030Y-90126961D01*
X44161325Y-90269687D01*
X44092715Y-90325505D01*
X44092714Y-90325505D01*
X44706742Y-90939533D01*
X44572825Y-91036829D01*
X44444829Y-91164825D01*
X44347533Y-91298742D01*
X43732541Y-90683750D01*
X43602317Y-90868236D01*
X43475938Y-91112134D01*
X43383944Y-91370980D01*
X43383942Y-91370988D01*
X43328053Y-91639945D01*
X43328052Y-91639951D01*
X43309308Y-91913995D01*
X34036000Y-91913995D01*
X34036000Y-84344000D01*
X46718502Y-84344000D01*
X46738457Y-84572086D01*
X46797715Y-84793240D01*
X46797717Y-84793246D01*
X46894477Y-85000749D01*
X47025799Y-85188296D01*
X47025804Y-85188302D01*
X47092407Y-85254905D01*
X47126433Y-85317217D01*
X47121368Y-85388032D01*
X47092407Y-85433095D01*
X47025804Y-85499697D01*
X47025799Y-85499703D01*
X46894477Y-85687250D01*
X46797717Y-85894753D01*
X46797715Y-85894759D01*
X46756214Y-86049642D01*
X46738457Y-86115913D01*
X46718502Y-86344000D01*
X46738457Y-86572087D01*
X46797716Y-86793243D01*
X46894477Y-87000749D01*
X47025802Y-87188300D01*
X47187700Y-87350198D01*
X47187703Y-87350200D01*
X47375253Y-87481525D01*
X47380015Y-87484274D01*
X47378971Y-87486082D01*
X47425439Y-87526990D01*
X47444905Y-87595265D01*
X47424369Y-87663227D01*
X47379223Y-87702354D01*
X47380267Y-87704161D01*
X47375501Y-87706912D01*
X47304109Y-87756900D01*
X47927463Y-88380254D01*
X47848657Y-88401370D01*
X47740343Y-88463905D01*
X47651905Y-88552343D01*
X47589370Y-88660657D01*
X47568254Y-88739463D01*
X46944900Y-88116109D01*
X46894913Y-88187500D01*
X46798188Y-88394926D01*
X46798186Y-88394931D01*
X46738951Y-88615997D01*
X46719004Y-88844000D01*
X46738951Y-89072002D01*
X46798186Y-89293068D01*
X46798188Y-89293073D01*
X46894913Y-89500501D01*
X46944899Y-89571888D01*
X47568253Y-88948534D01*
X47589370Y-89027343D01*
X47651905Y-89135657D01*
X47740343Y-89224095D01*
X47848657Y-89286630D01*
X47927463Y-89307745D01*
X47304110Y-89931098D01*
X47304110Y-89931100D01*
X47375498Y-89981086D01*
X47582926Y-90077811D01*
X47582931Y-90077813D01*
X47803999Y-90137048D01*
X47803995Y-90137048D01*
X48032000Y-90156995D01*
X48260002Y-90137048D01*
X48481068Y-90077813D01*
X48481073Y-90077811D01*
X48688497Y-89981088D01*
X48759888Y-89931099D01*
X48759888Y-89931097D01*
X48136536Y-89307745D01*
X48215343Y-89286630D01*
X48323657Y-89224095D01*
X48412095Y-89135657D01*
X48474630Y-89027343D01*
X48495745Y-88948536D01*
X49119097Y-89571888D01*
X49119099Y-89571888D01*
X49169088Y-89500497D01*
X49265811Y-89293073D01*
X49265813Y-89293068D01*
X49325048Y-89072002D01*
X49344995Y-88844000D01*
X49325048Y-88615997D01*
X49265813Y-88394931D01*
X49265811Y-88394926D01*
X49169086Y-88187498D01*
X49119100Y-88116110D01*
X49119098Y-88116110D01*
X48495745Y-88739463D01*
X48474630Y-88660657D01*
X48412095Y-88552343D01*
X48323657Y-88463905D01*
X48215343Y-88401370D01*
X48136535Y-88380253D01*
X48759888Y-87756899D01*
X48759888Y-87756898D01*
X48688501Y-87706913D01*
X48683734Y-87704161D01*
X48684817Y-87702284D01*
X48638561Y-87661561D01*
X48619095Y-87593285D01*
X48639632Y-87525324D01*
X48684992Y-87486019D01*
X48683985Y-87484274D01*
X48688746Y-87481525D01*
X48688749Y-87481523D01*
X48876300Y-87350198D01*
X49038198Y-87188300D01*
X49169523Y-87000749D01*
X49266284Y-86793243D01*
X49325543Y-86572087D01*
X49345498Y-86344000D01*
X49325543Y-86115913D01*
X49266284Y-85894757D01*
X49169523Y-85687251D01*
X49038198Y-85499700D01*
X48971593Y-85433095D01*
X48937567Y-85370783D01*
X48942632Y-85299968D01*
X48971593Y-85254905D01*
X48974159Y-85252339D01*
X49038198Y-85188300D01*
X49169523Y-85000749D01*
X49266284Y-84793243D01*
X49325543Y-84572087D01*
X49345498Y-84344000D01*
X49325543Y-84115913D01*
X49266284Y-83894757D01*
X49169523Y-83687251D01*
X49038198Y-83499700D01*
X48879277Y-83340779D01*
X48845251Y-83278467D01*
X48850316Y-83207652D01*
X48892863Y-83150816D01*
X48924332Y-83133631D01*
X49028204Y-83094889D01*
X49145261Y-83007261D01*
X49232889Y-82890204D01*
X49283989Y-82753201D01*
X49290500Y-82692638D01*
X49290500Y-80995362D01*
X49290499Y-80995350D01*
X49283990Y-80934803D01*
X49283988Y-80934795D01*
X49232889Y-80797797D01*
X49232887Y-80797792D01*
X49145261Y-80680738D01*
X49028207Y-80593112D01*
X49028202Y-80593110D01*
X48891204Y-80542011D01*
X48891196Y-80542009D01*
X48830649Y-80535500D01*
X48830638Y-80535500D01*
X47233362Y-80535500D01*
X47233350Y-80535500D01*
X47172803Y-80542009D01*
X47172795Y-80542011D01*
X47035797Y-80593110D01*
X47035792Y-80593112D01*
X46918738Y-80680738D01*
X46831112Y-80797792D01*
X46831110Y-80797797D01*
X46780011Y-80934795D01*
X46780009Y-80934803D01*
X46773500Y-80995350D01*
X46773500Y-82692649D01*
X46780009Y-82753196D01*
X46780011Y-82753204D01*
X46831110Y-82890202D01*
X46831112Y-82890207D01*
X46918738Y-83007261D01*
X47035792Y-83094887D01*
X47035796Y-83094889D01*
X47139660Y-83133629D01*
X47196496Y-83176176D01*
X47221306Y-83242696D01*
X47206214Y-83312070D01*
X47184723Y-83340779D01*
X47025799Y-83499703D01*
X46894477Y-83687250D01*
X46797717Y-83894753D01*
X46797715Y-83894759D01*
X46738457Y-84115913D01*
X46718502Y-84344000D01*
X34036000Y-84344000D01*
X34036000Y-78773995D01*
X43309308Y-78773995D01*
X43309308Y-78774004D01*
X43328052Y-79048048D01*
X43328053Y-79048054D01*
X43383942Y-79317011D01*
X43383944Y-79317019D01*
X43475938Y-79575865D01*
X43602314Y-79819756D01*
X43602316Y-79819759D01*
X43732541Y-80004248D01*
X44347532Y-79389256D01*
X44444829Y-79523175D01*
X44572825Y-79651171D01*
X44706741Y-79748466D01*
X44092715Y-80362492D01*
X44092715Y-80362494D01*
X44161313Y-80418304D01*
X44161318Y-80418307D01*
X44396030Y-80561038D01*
X44647989Y-80670480D01*
X44912509Y-80744595D01*
X45184635Y-80781999D01*
X45184649Y-80782000D01*
X45459351Y-80782000D01*
X45459364Y-80781999D01*
X45731490Y-80744595D01*
X45996010Y-80670480D01*
X46247969Y-80561038D01*
X46482679Y-80418309D01*
X46551283Y-80362493D01*
X46551283Y-80362492D01*
X45937257Y-79748466D01*
X46071175Y-79651171D01*
X46199171Y-79523175D01*
X46296467Y-79389257D01*
X46911457Y-80004247D01*
X47041682Y-79819762D01*
X47041685Y-79819756D01*
X47168061Y-79575865D01*
X47260055Y-79317019D01*
X47260057Y-79317011D01*
X47315946Y-79048054D01*
X47315947Y-79048048D01*
X47334692Y-78774004D01*
X47334692Y-78773995D01*
X47315947Y-78499951D01*
X47315946Y-78499945D01*
X47260057Y-78230988D01*
X47260055Y-78230980D01*
X47168061Y-77972134D01*
X47041685Y-77728243D01*
X47041681Y-77728237D01*
X46911457Y-77543750D01*
X46296466Y-78158741D01*
X46199171Y-78024825D01*
X46071175Y-77896829D01*
X45937256Y-77799532D01*
X46551283Y-77185504D01*
X46482680Y-77129691D01*
X46247969Y-76986961D01*
X45996010Y-76877519D01*
X45731490Y-76803404D01*
X45459364Y-76766000D01*
X45184635Y-76766000D01*
X44912509Y-76803404D01*
X44647989Y-76877519D01*
X44396030Y-76986961D01*
X44161325Y-77129687D01*
X44092715Y-77185505D01*
X44092714Y-77185505D01*
X44706742Y-77799533D01*
X44572825Y-77896829D01*
X44444829Y-78024825D01*
X44347533Y-78158742D01*
X43732541Y-77543750D01*
X43602317Y-77728236D01*
X43475938Y-77972134D01*
X43383944Y-78230980D01*
X43383942Y-78230988D01*
X43328053Y-78499945D01*
X43328052Y-78499951D01*
X43309308Y-78773995D01*
X34036000Y-78773995D01*
X34036000Y-74422000D01*
X54058502Y-74422000D01*
X54078457Y-74650086D01*
X54137715Y-74871240D01*
X54137717Y-74871246D01*
X54234477Y-75078749D01*
X54365802Y-75266300D01*
X54527700Y-75428198D01*
X54715251Y-75559523D01*
X54922757Y-75656284D01*
X55143913Y-75715543D01*
X55372000Y-75735498D01*
X55600087Y-75715543D01*
X55821243Y-75656284D01*
X56028749Y-75559523D01*
X56216300Y-75428198D01*
X56378198Y-75266300D01*
X56509523Y-75078749D01*
X56606284Y-74871243D01*
X56665543Y-74650087D01*
X56685498Y-74422000D01*
X56665543Y-74193913D01*
X56606284Y-73972757D01*
X56509523Y-73765251D01*
X56378198Y-73577700D01*
X56216300Y-73415802D01*
X56206654Y-73409048D01*
X56028749Y-73284477D01*
X55821246Y-73187717D01*
X55821240Y-73187715D01*
X55720504Y-73160723D01*
X55600087Y-73128457D01*
X55372000Y-73108502D01*
X55143913Y-73128457D01*
X54922759Y-73187715D01*
X54922753Y-73187717D01*
X54715250Y-73284477D01*
X54527703Y-73415799D01*
X54527697Y-73415804D01*
X54365804Y-73577697D01*
X54365799Y-73577703D01*
X54234477Y-73765250D01*
X54137717Y-73972753D01*
X54137715Y-73972759D01*
X54078457Y-74193913D01*
X54058502Y-74422000D01*
X34036000Y-74422000D01*
X34036000Y-71120000D01*
X54058502Y-71120000D01*
X54078457Y-71348086D01*
X54137715Y-71569240D01*
X54137717Y-71569246D01*
X54234477Y-71776749D01*
X54363915Y-71961606D01*
X54365802Y-71964300D01*
X54527700Y-72126198D01*
X54715251Y-72257523D01*
X54922757Y-72354284D01*
X55143913Y-72413543D01*
X55372000Y-72433498D01*
X55600087Y-72413543D01*
X55821243Y-72354284D01*
X56028749Y-72257523D01*
X56216300Y-72126198D01*
X56378198Y-71964300D01*
X56509523Y-71776749D01*
X56606284Y-71569243D01*
X56665543Y-71348087D01*
X56685498Y-71120000D01*
X56665543Y-70891913D01*
X56606284Y-70670757D01*
X56509523Y-70463251D01*
X56378198Y-70275700D01*
X56216300Y-70113802D01*
X56028749Y-69982477D01*
X55909443Y-69926844D01*
X55821246Y-69885717D01*
X55821240Y-69885715D01*
X55720504Y-69858723D01*
X55600087Y-69826457D01*
X55372000Y-69806502D01*
X55143913Y-69826457D01*
X54922759Y-69885715D01*
X54922753Y-69885717D01*
X54715250Y-69982477D01*
X54527703Y-70113799D01*
X54527697Y-70113804D01*
X54365804Y-70275697D01*
X54365799Y-70275703D01*
X54234477Y-70463250D01*
X54137717Y-70670753D01*
X54137715Y-70670759D01*
X54078457Y-70891913D01*
X54058502Y-71120000D01*
X34036000Y-71120000D01*
X34036000Y-47244000D01*
X35312693Y-47244000D01*
X35331885Y-47463371D01*
X35353414Y-47543716D01*
X35388879Y-47676073D01*
X35388881Y-47676079D01*
X35478747Y-47868799D01*
X35481944Y-47875654D01*
X35522591Y-47933703D01*
X35608251Y-48056038D01*
X35608254Y-48056042D01*
X35763957Y-48211745D01*
X35763961Y-48211748D01*
X35763962Y-48211749D01*
X35944346Y-48338056D01*
X36021847Y-48374195D01*
X36076768Y-48399805D01*
X36130053Y-48446722D01*
X36149514Y-48514999D01*
X36128972Y-48582959D01*
X36076768Y-48628195D01*
X35944346Y-48689944D01*
X35763965Y-48816248D01*
X35763959Y-48816253D01*
X35608253Y-48971959D01*
X35608248Y-48971965D01*
X35481944Y-49152346D01*
X35388881Y-49351920D01*
X35388879Y-49351926D01*
X35331885Y-49564629D01*
X35312693Y-49784000D01*
X35331885Y-50003371D01*
X35353414Y-50083716D01*
X35388879Y-50216073D01*
X35388881Y-50216079D01*
X35433516Y-50311799D01*
X35481944Y-50415654D01*
X35522591Y-50473703D01*
X35608251Y-50596038D01*
X35608254Y-50596042D01*
X35763957Y-50751745D01*
X35763961Y-50751748D01*
X35763962Y-50751749D01*
X35944346Y-50878056D01*
X35964951Y-50887664D01*
X36076768Y-50939805D01*
X36130053Y-50986722D01*
X36149514Y-51054999D01*
X36128972Y-51122959D01*
X36076768Y-51168195D01*
X35944346Y-51229944D01*
X35763965Y-51356248D01*
X35763959Y-51356253D01*
X35608253Y-51511959D01*
X35608248Y-51511965D01*
X35481944Y-51692346D01*
X35388881Y-51891920D01*
X35388879Y-51891926D01*
X35359863Y-52000216D01*
X35331885Y-52104629D01*
X35312693Y-52324000D01*
X35331885Y-52543371D01*
X35388880Y-52756076D01*
X35481944Y-52955654D01*
X35603672Y-53129498D01*
X35608251Y-53136038D01*
X35608254Y-53136042D01*
X35763957Y-53291745D01*
X35763961Y-53291748D01*
X35763962Y-53291749D01*
X35944346Y-53418056D01*
X36040554Y-53462918D01*
X36076768Y-53479805D01*
X36130053Y-53526722D01*
X36149514Y-53594999D01*
X36128972Y-53662959D01*
X36076768Y-53708195D01*
X35944346Y-53769944D01*
X35763965Y-53896248D01*
X35763959Y-53896253D01*
X35608253Y-54051959D01*
X35608248Y-54051965D01*
X35481944Y-54232346D01*
X35388881Y-54431920D01*
X35388879Y-54431926D01*
X35331885Y-54644629D01*
X35312693Y-54864000D01*
X35331885Y-55083371D01*
X35344111Y-55128999D01*
X35388879Y-55296073D01*
X35388881Y-55296079D01*
X35479100Y-55489556D01*
X35481944Y-55495654D01*
X35593479Y-55654941D01*
X35608251Y-55676038D01*
X35608254Y-55676042D01*
X35763957Y-55831745D01*
X35763961Y-55831748D01*
X35763962Y-55831749D01*
X35944346Y-55958056D01*
X36049219Y-56006958D01*
X36076768Y-56019805D01*
X36130053Y-56066722D01*
X36149514Y-56134999D01*
X36128972Y-56202959D01*
X36076768Y-56248195D01*
X35944346Y-56309944D01*
X35763965Y-56436248D01*
X35763959Y-56436253D01*
X35608253Y-56591959D01*
X35608248Y-56591965D01*
X35481944Y-56772346D01*
X35388881Y-56971920D01*
X35388879Y-56971926D01*
X35331885Y-57184629D01*
X35312693Y-57404000D01*
X35331885Y-57623371D01*
X35350757Y-57693802D01*
X35388879Y-57836073D01*
X35388881Y-57836079D01*
X35433516Y-57931799D01*
X35481944Y-58035654D01*
X35603672Y-58209498D01*
X35608251Y-58216038D01*
X35608254Y-58216042D01*
X35763957Y-58371745D01*
X35763961Y-58371748D01*
X35763962Y-58371749D01*
X35944346Y-58498056D01*
X36143924Y-58591120D01*
X36356629Y-58648115D01*
X36576000Y-58667307D01*
X36795371Y-58648115D01*
X37008076Y-58591120D01*
X37207654Y-58498056D01*
X37319129Y-58420000D01*
X43028496Y-58420000D01*
X43048457Y-58609926D01*
X43048458Y-58609928D01*
X43107473Y-58791556D01*
X43107476Y-58791561D01*
X43202958Y-58956941D01*
X43202965Y-58956951D01*
X43330744Y-59098864D01*
X43330747Y-59098866D01*
X43485248Y-59211118D01*
X43659712Y-59288794D01*
X43812568Y-59321284D01*
X43875040Y-59355012D01*
X43875465Y-59355436D01*
X45801334Y-61281304D01*
X45835359Y-61343616D01*
X45837549Y-61357227D01*
X45842457Y-61403927D01*
X45866526Y-61478000D01*
X45901473Y-61585556D01*
X45901476Y-61585561D01*
X45996958Y-61750941D01*
X45996965Y-61750951D01*
X46124744Y-61892864D01*
X46124747Y-61892866D01*
X46279248Y-62005118D01*
X46453712Y-62082794D01*
X46640513Y-62122500D01*
X46831487Y-62122500D01*
X47018288Y-62082794D01*
X47192752Y-62005118D01*
X47347253Y-61892866D01*
X47475040Y-61750944D01*
X47570527Y-61585556D01*
X47629542Y-61403928D01*
X47649504Y-61214000D01*
X47629542Y-61024072D01*
X47570527Y-60842444D01*
X47475040Y-60677056D01*
X47475038Y-60677054D01*
X47475034Y-60677048D01*
X47347255Y-60535135D01*
X47192752Y-60422882D01*
X47018288Y-60345206D01*
X46865431Y-60312715D01*
X46802957Y-60278986D01*
X46802533Y-60278563D01*
X44876664Y-58352693D01*
X44842638Y-58290381D01*
X44840449Y-58276766D01*
X44835542Y-58230072D01*
X44776527Y-58048444D01*
X44681040Y-57883056D01*
X44681038Y-57883054D01*
X44681034Y-57883048D01*
X44553255Y-57741135D01*
X44398752Y-57628882D01*
X44224288Y-57551206D01*
X44037487Y-57511500D01*
X43846513Y-57511500D01*
X43659711Y-57551206D01*
X43485247Y-57628882D01*
X43330744Y-57741135D01*
X43202965Y-57883048D01*
X43202958Y-57883058D01*
X43114857Y-58035654D01*
X43107473Y-58048444D01*
X43102284Y-58064415D01*
X43048457Y-58230072D01*
X43028496Y-58420000D01*
X37319129Y-58420000D01*
X37388038Y-58371749D01*
X37543749Y-58216038D01*
X37578627Y-58166228D01*
X37634085Y-58121900D01*
X37681839Y-58112500D01*
X40100126Y-58112500D01*
X40100127Y-58112500D01*
X40221663Y-58088325D01*
X40237007Y-58085273D01*
X40287367Y-58064413D01*
X40365946Y-58031865D01*
X40481988Y-57954328D01*
X50549344Y-47886970D01*
X50611654Y-47852946D01*
X50682469Y-47858011D01*
X50739305Y-47900558D01*
X50741630Y-47903769D01*
X50762591Y-47933703D01*
X50848251Y-48056038D01*
X50848254Y-48056042D01*
X51003957Y-48211745D01*
X51003961Y-48211748D01*
X51003962Y-48211749D01*
X51184346Y-48338056D01*
X51261847Y-48374195D01*
X51316768Y-48399805D01*
X51370053Y-48446722D01*
X51389514Y-48514999D01*
X51368972Y-48582959D01*
X51316768Y-48628195D01*
X51184346Y-48689944D01*
X51003965Y-48816248D01*
X51003959Y-48816253D01*
X50848253Y-48971959D01*
X50848248Y-48971965D01*
X50721944Y-49152346D01*
X50628881Y-49351920D01*
X50628879Y-49351926D01*
X50571885Y-49564629D01*
X50552693Y-49784000D01*
X50568596Y-49965781D01*
X50554606Y-50035386D01*
X50532171Y-50065857D01*
X48979670Y-51618359D01*
X48979669Y-51618361D01*
X48902136Y-51734397D01*
X48888531Y-51767243D01*
X48848729Y-51863332D01*
X48848727Y-51863337D01*
X48821500Y-52000216D01*
X48821500Y-55643339D01*
X48801498Y-55711460D01*
X48747842Y-55757953D01*
X48677568Y-55768057D01*
X48612988Y-55738563D01*
X48606405Y-55732434D01*
X47924664Y-55050693D01*
X47890638Y-54988381D01*
X47888449Y-54974766D01*
X47887338Y-54964192D01*
X47883542Y-54928072D01*
X47824527Y-54746444D01*
X47729040Y-54581056D01*
X47729038Y-54581054D01*
X47729034Y-54581048D01*
X47601255Y-54439135D01*
X47446752Y-54326882D01*
X47272288Y-54249206D01*
X47085487Y-54209500D01*
X46894513Y-54209500D01*
X46707711Y-54249206D01*
X46533247Y-54326882D01*
X46378744Y-54439135D01*
X46250965Y-54581048D01*
X46250958Y-54581058D01*
X46155476Y-54746438D01*
X46155473Y-54746445D01*
X46096457Y-54928072D01*
X46076496Y-55118000D01*
X46096457Y-55307927D01*
X46123711Y-55391804D01*
X46155473Y-55489556D01*
X46155476Y-55489561D01*
X46250958Y-55654941D01*
X46250965Y-55654951D01*
X46378744Y-55796864D01*
X46378747Y-55796866D01*
X46533248Y-55909118D01*
X46707712Y-55986794D01*
X46860568Y-56019284D01*
X46923040Y-56053012D01*
X46923465Y-56053436D01*
X48060106Y-57190077D01*
X48094132Y-57252389D01*
X48097011Y-57279172D01*
X48097011Y-62845295D01*
X48124238Y-62982172D01*
X48124240Y-62982177D01*
X48177646Y-63111112D01*
X48255182Y-63227153D01*
X48255187Y-63227159D01*
X49611334Y-64583305D01*
X49645359Y-64645617D01*
X49647549Y-64659228D01*
X49652457Y-64705927D01*
X49679928Y-64790471D01*
X49711473Y-64887556D01*
X49711476Y-64887561D01*
X49806958Y-65052941D01*
X49806965Y-65052951D01*
X49934744Y-65194864D01*
X49967641Y-65218765D01*
X50089248Y-65307118D01*
X50263712Y-65384794D01*
X50450513Y-65424500D01*
X50641487Y-65424500D01*
X50828288Y-65384794D01*
X51002752Y-65307118D01*
X51157253Y-65194866D01*
X51189312Y-65159261D01*
X51285034Y-65052951D01*
X51285034Y-65052950D01*
X51285040Y-65052944D01*
X51320042Y-64992317D01*
X51371421Y-64943327D01*
X51441134Y-64929890D01*
X51507046Y-64956276D01*
X51518254Y-64966225D01*
X54042018Y-67489988D01*
X54076043Y-67552300D01*
X54078443Y-67590062D01*
X54058502Y-67818000D01*
X54078457Y-68046087D01*
X54090707Y-68091803D01*
X54137715Y-68267240D01*
X54137717Y-68267246D01*
X54191095Y-68381715D01*
X54234477Y-68474749D01*
X54365802Y-68662300D01*
X54527700Y-68824198D01*
X54715251Y-68955523D01*
X54922757Y-69052284D01*
X55143913Y-69111543D01*
X55372000Y-69131498D01*
X55600087Y-69111543D01*
X55821243Y-69052284D01*
X56028749Y-68955523D01*
X56216300Y-68824198D01*
X56378198Y-68662300D01*
X56509523Y-68474749D01*
X56606284Y-68267243D01*
X56665543Y-68046087D01*
X56685498Y-67818000D01*
X56665543Y-67589913D01*
X56606284Y-67368757D01*
X56509523Y-67161251D01*
X56378198Y-66973700D01*
X56216300Y-66811802D01*
X56179575Y-66786087D01*
X56028749Y-66680477D01*
X55821246Y-66583717D01*
X55821240Y-66583715D01*
X55720504Y-66556723D01*
X55600087Y-66524457D01*
X55372000Y-66504502D01*
X55371999Y-66504502D01*
X55305138Y-66510351D01*
X55144063Y-66524443D01*
X55074460Y-66510455D01*
X55043988Y-66488018D01*
X53071970Y-64516000D01*
X54058502Y-64516000D01*
X54075118Y-64705927D01*
X54078457Y-64744086D01*
X54137715Y-64965240D01*
X54137717Y-64965246D01*
X54234477Y-65172749D01*
X54345634Y-65331498D01*
X54365802Y-65360300D01*
X54527700Y-65522198D01*
X54715251Y-65653523D01*
X54922757Y-65750284D01*
X55143913Y-65809543D01*
X55372000Y-65829498D01*
X55600087Y-65809543D01*
X55821243Y-65750284D01*
X56028749Y-65653523D01*
X56216300Y-65522198D01*
X56378198Y-65360300D01*
X56509523Y-65172749D01*
X56606284Y-64965243D01*
X56665543Y-64744087D01*
X56685498Y-64516000D01*
X56665543Y-64287913D01*
X56606284Y-64066757D01*
X56509523Y-63859251D01*
X56378198Y-63671700D01*
X56216300Y-63509802D01*
X56028749Y-63378477D01*
X55992344Y-63361501D01*
X55821246Y-63281717D01*
X55821240Y-63281715D01*
X55651238Y-63236163D01*
X55600087Y-63222457D01*
X55372000Y-63202502D01*
X55143913Y-63222457D01*
X54922759Y-63281715D01*
X54922753Y-63281717D01*
X54715250Y-63378477D01*
X54527703Y-63509799D01*
X54527697Y-63509804D01*
X54365804Y-63671697D01*
X54365799Y-63671703D01*
X54234477Y-63859250D01*
X54137717Y-64066753D01*
X54137715Y-64066759D01*
X54125861Y-64111000D01*
X54078457Y-64287913D01*
X54058502Y-64516000D01*
X53071970Y-64516000D01*
X50275405Y-61719434D01*
X50241379Y-61657122D01*
X50238500Y-61630339D01*
X50238500Y-61214000D01*
X54058502Y-61214000D01*
X54075118Y-61403927D01*
X54078457Y-61442086D01*
X54137715Y-61663240D01*
X54137717Y-61663246D01*
X54234477Y-61870749D01*
X54274032Y-61927240D01*
X54365802Y-62058300D01*
X54527700Y-62220198D01*
X54715251Y-62351523D01*
X54922757Y-62448284D01*
X55143913Y-62507543D01*
X55372000Y-62527498D01*
X55600087Y-62507543D01*
X55821243Y-62448284D01*
X56028749Y-62351523D01*
X56216300Y-62220198D01*
X56378198Y-62058300D01*
X56509523Y-61870749D01*
X56606284Y-61663243D01*
X56665543Y-61442087D01*
X56685498Y-61214000D01*
X56665543Y-60985913D01*
X56606284Y-60764757D01*
X56509523Y-60557251D01*
X56378198Y-60369700D01*
X56216300Y-60207802D01*
X56215157Y-60207002D01*
X56028749Y-60076477D01*
X55821246Y-59979717D01*
X55821240Y-59979715D01*
X55688689Y-59944198D01*
X55600087Y-59920457D01*
X55372000Y-59900502D01*
X55143913Y-59920457D01*
X54922759Y-59979715D01*
X54922753Y-59979717D01*
X54715250Y-60076477D01*
X54527703Y-60207799D01*
X54527697Y-60207804D01*
X54365804Y-60369697D01*
X54365799Y-60369703D01*
X54234477Y-60557250D01*
X54137717Y-60764753D01*
X54137715Y-60764759D01*
X54116899Y-60842445D01*
X54078457Y-60985913D01*
X54058502Y-61214000D01*
X50238500Y-61214000D01*
X50238500Y-52415661D01*
X50258502Y-52347540D01*
X50275405Y-52326566D01*
X50339526Y-52262445D01*
X50401838Y-52228419D01*
X50472653Y-52233484D01*
X50529489Y-52276031D01*
X50554141Y-52340557D01*
X50571885Y-52543371D01*
X50628880Y-52756076D01*
X50721944Y-52955654D01*
X50843672Y-53129498D01*
X50848251Y-53136038D01*
X50848254Y-53136042D01*
X51003957Y-53291745D01*
X51003961Y-53291748D01*
X51003962Y-53291749D01*
X51184346Y-53418056D01*
X51280554Y-53462918D01*
X51316768Y-53479805D01*
X51370053Y-53526722D01*
X51389514Y-53594999D01*
X51368972Y-53662959D01*
X51316768Y-53708195D01*
X51184346Y-53769944D01*
X51003965Y-53896248D01*
X51003959Y-53896253D01*
X50848253Y-54051959D01*
X50848248Y-54051965D01*
X50721944Y-54232346D01*
X50628881Y-54431920D01*
X50628879Y-54431926D01*
X50571885Y-54644629D01*
X50552693Y-54864000D01*
X50571885Y-55083371D01*
X50584111Y-55128999D01*
X50628879Y-55296073D01*
X50628881Y-55296079D01*
X50719100Y-55489556D01*
X50721944Y-55495654D01*
X50833479Y-55654941D01*
X50848251Y-55676038D01*
X50848254Y-55676042D01*
X51003957Y-55831745D01*
X51003961Y-55831748D01*
X51003962Y-55831749D01*
X51184346Y-55958056D01*
X51289219Y-56006958D01*
X51316768Y-56019805D01*
X51370053Y-56066722D01*
X51389514Y-56134999D01*
X51368972Y-56202959D01*
X51316768Y-56248195D01*
X51184346Y-56309944D01*
X51003965Y-56436248D01*
X51003959Y-56436253D01*
X50848253Y-56591959D01*
X50848248Y-56591965D01*
X50721944Y-56772346D01*
X50628881Y-56971920D01*
X50628879Y-56971926D01*
X50571885Y-57184629D01*
X50552693Y-57404000D01*
X50571885Y-57623371D01*
X50590757Y-57693802D01*
X50628879Y-57836073D01*
X50628881Y-57836079D01*
X50673516Y-57931799D01*
X50721944Y-58035654D01*
X50843672Y-58209498D01*
X50848251Y-58216038D01*
X50848254Y-58216042D01*
X51003957Y-58371745D01*
X51003961Y-58371748D01*
X51003962Y-58371749D01*
X51184346Y-58498056D01*
X51383924Y-58591120D01*
X51596629Y-58648115D01*
X51816000Y-58667307D01*
X52035371Y-58648115D01*
X52248076Y-58591120D01*
X52447654Y-58498056D01*
X52628038Y-58371749D01*
X52783749Y-58216038D01*
X52910056Y-58035654D01*
X52967716Y-57912000D01*
X54058502Y-57912000D01*
X54078457Y-58140087D01*
X54087715Y-58174637D01*
X54137715Y-58361240D01*
X54137717Y-58361246D01*
X54234477Y-58568749D01*
X54303487Y-58667306D01*
X54365802Y-58756300D01*
X54527700Y-58918198D01*
X54715251Y-59049523D01*
X54922757Y-59146284D01*
X55143913Y-59205543D01*
X55372000Y-59225498D01*
X55600087Y-59205543D01*
X55821243Y-59146284D01*
X56028749Y-59049523D01*
X56216300Y-58918198D01*
X56378198Y-58756300D01*
X56509523Y-58568749D01*
X56606284Y-58361243D01*
X56665543Y-58140087D01*
X56685498Y-57912000D01*
X56665543Y-57683913D01*
X56606284Y-57462757D01*
X56509523Y-57255251D01*
X56378198Y-57067700D01*
X56216300Y-56905802D01*
X56028749Y-56774477D01*
X55909443Y-56718844D01*
X55821246Y-56677717D01*
X55821240Y-56677715D01*
X55628562Y-56626087D01*
X55600087Y-56618457D01*
X55372000Y-56598502D01*
X55143913Y-56618457D01*
X54922759Y-56677715D01*
X54922753Y-56677717D01*
X54715250Y-56774477D01*
X54527703Y-56905799D01*
X54527697Y-56905804D01*
X54365804Y-57067697D01*
X54365799Y-57067703D01*
X54234477Y-57255250D01*
X54137717Y-57462753D01*
X54137715Y-57462759D01*
X54094679Y-57623371D01*
X54078457Y-57683913D01*
X54058502Y-57912000D01*
X52967716Y-57912000D01*
X53003120Y-57836076D01*
X53060115Y-57623371D01*
X53079307Y-57404000D01*
X53060115Y-57184629D01*
X53003120Y-56971924D01*
X52910056Y-56772347D01*
X52783749Y-56591962D01*
X52628038Y-56436251D01*
X52447654Y-56309944D01*
X52447648Y-56309941D01*
X52447648Y-56309940D01*
X52315232Y-56248195D01*
X52261946Y-56201278D01*
X52242485Y-56133001D01*
X52263026Y-56065041D01*
X52315232Y-56019805D01*
X52447648Y-55958059D01*
X52447648Y-55958058D01*
X52447654Y-55958056D01*
X52628038Y-55831749D01*
X52783749Y-55676038D01*
X52910056Y-55495654D01*
X53003120Y-55296076D01*
X53060115Y-55083371D01*
X53079307Y-54864000D01*
X53060115Y-54644629D01*
X53050836Y-54610000D01*
X54058502Y-54610000D01*
X54078457Y-54838087D01*
X54085454Y-54864200D01*
X54137715Y-55059240D01*
X54137717Y-55059246D01*
X54205130Y-55203814D01*
X54234477Y-55266749D01*
X54365802Y-55454300D01*
X54527700Y-55616198D01*
X54715251Y-55747523D01*
X54922757Y-55844284D01*
X55143913Y-55903543D01*
X55372000Y-55923498D01*
X55600087Y-55903543D01*
X55821243Y-55844284D01*
X56028749Y-55747523D01*
X56216300Y-55616198D01*
X56378198Y-55454300D01*
X56509523Y-55266749D01*
X56606284Y-55059243D01*
X56665543Y-54838087D01*
X56685498Y-54610000D01*
X56665543Y-54381913D01*
X56606284Y-54160757D01*
X56509523Y-53953251D01*
X56378198Y-53765700D01*
X56216300Y-53603802D01*
X56208916Y-53598632D01*
X56028749Y-53472477D01*
X55821246Y-53375717D01*
X55821240Y-53375715D01*
X55720504Y-53348723D01*
X55600087Y-53316457D01*
X55372000Y-53296502D01*
X55143913Y-53316457D01*
X54922759Y-53375715D01*
X54922753Y-53375717D01*
X54715250Y-53472477D01*
X54527703Y-53603799D01*
X54527697Y-53603804D01*
X54365804Y-53765697D01*
X54365799Y-53765703D01*
X54234477Y-53953250D01*
X54137717Y-54160753D01*
X54137715Y-54160759D01*
X54118533Y-54232347D01*
X54078457Y-54381913D01*
X54058502Y-54610000D01*
X53050836Y-54610000D01*
X53003120Y-54431924D01*
X52910056Y-54232347D01*
X52783749Y-54051962D01*
X52628038Y-53896251D01*
X52447654Y-53769944D01*
X52447648Y-53769941D01*
X52447648Y-53769940D01*
X52315232Y-53708195D01*
X52261946Y-53661278D01*
X52242485Y-53593001D01*
X52263026Y-53525041D01*
X52315232Y-53479805D01*
X52447648Y-53418059D01*
X52447648Y-53418058D01*
X52447654Y-53418056D01*
X52628038Y-53291749D01*
X52783749Y-53136038D01*
X52910056Y-52955654D01*
X53003120Y-52756076D01*
X53060115Y-52543371D01*
X53079307Y-52324000D01*
X53060115Y-52104629D01*
X53003120Y-51891924D01*
X52910056Y-51692347D01*
X52783749Y-51511962D01*
X52628038Y-51356251D01*
X52447654Y-51229944D01*
X52447648Y-51229941D01*
X52447648Y-51229940D01*
X52315232Y-51168195D01*
X52261946Y-51121278D01*
X52242485Y-51053001D01*
X52263026Y-50985041D01*
X52315232Y-50939805D01*
X52447648Y-50878059D01*
X52447648Y-50878058D01*
X52447654Y-50878056D01*
X52628038Y-50751749D01*
X52783749Y-50596038D01*
X52910056Y-50415654D01*
X53003120Y-50216076D01*
X53004747Y-50210003D01*
X53041698Y-50149381D01*
X53105558Y-50118359D01*
X53176053Y-50126787D01*
X53215549Y-50153519D01*
X54042018Y-50979988D01*
X54076044Y-51042300D01*
X54078443Y-51080062D01*
X54058502Y-51308000D01*
X54078457Y-51536087D01*
X54112670Y-51663771D01*
X54137715Y-51757240D01*
X54137717Y-51757246D01*
X54200518Y-51891924D01*
X54234477Y-51964749D01*
X54365802Y-52152300D01*
X54527700Y-52314198D01*
X54715251Y-52445523D01*
X54922757Y-52542284D01*
X55143913Y-52601543D01*
X55372000Y-52621498D01*
X55600087Y-52601543D01*
X55821243Y-52542284D01*
X56028749Y-52445523D01*
X56216300Y-52314198D01*
X56378198Y-52152300D01*
X56509523Y-51964749D01*
X56606284Y-51757243D01*
X56665543Y-51536087D01*
X56685498Y-51308000D01*
X56665543Y-51079913D01*
X56606284Y-50858757D01*
X56509523Y-50651251D01*
X56378198Y-50463700D01*
X56216300Y-50301802D01*
X56028749Y-50170477D01*
X55935055Y-50126787D01*
X55821246Y-50073717D01*
X55821240Y-50073715D01*
X55720504Y-50046723D01*
X55600087Y-50014457D01*
X55372000Y-49994502D01*
X55371999Y-49994502D01*
X55326188Y-49998510D01*
X55144063Y-50014443D01*
X55074460Y-50000455D01*
X55043988Y-49978018D01*
X52982480Y-47916509D01*
X52948454Y-47854197D01*
X52953519Y-47783381D01*
X52957381Y-47774163D01*
X52958482Y-47771802D01*
X53003120Y-47676076D01*
X53060115Y-47463371D01*
X53079307Y-47244000D01*
X53060115Y-47024629D01*
X53010941Y-46841111D01*
X53012631Y-46770135D01*
X53052425Y-46711339D01*
X53117689Y-46683391D01*
X53132648Y-46682500D01*
X55618000Y-46682500D01*
X55686121Y-46702502D01*
X55732614Y-46756158D01*
X55744000Y-46808500D01*
X55744000Y-46990000D01*
X56574821Y-46990000D01*
X56599401Y-46992420D01*
X56675209Y-47007500D01*
X56675210Y-47007500D01*
X56708170Y-47007500D01*
X56701925Y-47013745D01*
X56652556Y-47099255D01*
X56627000Y-47194630D01*
X56627000Y-47293370D01*
X56652556Y-47388745D01*
X56701925Y-47474255D01*
X56725670Y-47498000D01*
X55744000Y-47498000D01*
X55744000Y-47817597D01*
X55750505Y-47878093D01*
X55801555Y-48014964D01*
X55801555Y-48014965D01*
X55889095Y-48131904D01*
X56006034Y-48219444D01*
X56142906Y-48270494D01*
X56203402Y-48276999D01*
X56203415Y-48277000D01*
X56748000Y-48277000D01*
X56748000Y-47520330D01*
X56771745Y-47544075D01*
X56857255Y-47593444D01*
X56952630Y-47619000D01*
X57051370Y-47619000D01*
X57146745Y-47593444D01*
X57232255Y-47544075D01*
X57256000Y-47520330D01*
X57256000Y-48277000D01*
X57800585Y-48277000D01*
X57800597Y-48276999D01*
X57861093Y-48270494D01*
X57997964Y-48219444D01*
X57997965Y-48219444D01*
X58114904Y-48131904D01*
X58202444Y-48014965D01*
X58202444Y-48014964D01*
X58253494Y-47878093D01*
X58259999Y-47817597D01*
X58260000Y-47817585D01*
X58260000Y-47498000D01*
X57278330Y-47498000D01*
X57302075Y-47474255D01*
X57351444Y-47388745D01*
X57377000Y-47293370D01*
X57377000Y-47194630D01*
X57351444Y-47099255D01*
X57302075Y-47013745D01*
X57295830Y-47007500D01*
X57328790Y-47007500D01*
X57328791Y-47007500D01*
X57404598Y-46992420D01*
X57429179Y-46990000D01*
X58260000Y-46990000D01*
X58260000Y-46670414D01*
X58259999Y-46670402D01*
X58253494Y-46609906D01*
X58202444Y-46473036D01*
X58198127Y-46465129D01*
X58200147Y-46464025D01*
X58179752Y-46409358D01*
X58189021Y-46352140D01*
X58220783Y-46275461D01*
X58260500Y-46075791D01*
X58260500Y-45872209D01*
X58220783Y-45672539D01*
X58142876Y-45484454D01*
X58092459Y-45409001D01*
X58071245Y-45341249D01*
X58090028Y-45272782D01*
X58092460Y-45268998D01*
X58142876Y-45193546D01*
X58220783Y-45005461D01*
X58260500Y-44805791D01*
X58260500Y-44704000D01*
X59138502Y-44704000D01*
X59157694Y-44923371D01*
X59158457Y-44932086D01*
X59217715Y-45153240D01*
X59217717Y-45153246D01*
X59314477Y-45360749D01*
X59437714Y-45536750D01*
X59445802Y-45548300D01*
X59607700Y-45710198D01*
X59795251Y-45841523D01*
X60002757Y-45938284D01*
X60223913Y-45997543D01*
X60452000Y-46017498D01*
X60680087Y-45997543D01*
X60901243Y-45938284D01*
X61108749Y-45841523D01*
X61296300Y-45710198D01*
X61458198Y-45548300D01*
X61589523Y-45360749D01*
X61686284Y-45153243D01*
X61745543Y-44932087D01*
X61765498Y-44704000D01*
X61745543Y-44475913D01*
X61686284Y-44254757D01*
X61589523Y-44047251D01*
X61458198Y-43859700D01*
X61296300Y-43697802D01*
X61108749Y-43566477D01*
X60901246Y-43469717D01*
X60901240Y-43469715D01*
X60792928Y-43440693D01*
X60680087Y-43410457D01*
X60452000Y-43390502D01*
X60223913Y-43410457D01*
X60002759Y-43469715D01*
X60002753Y-43469717D01*
X59795250Y-43566477D01*
X59607703Y-43697799D01*
X59607697Y-43697804D01*
X59445804Y-43859697D01*
X59445799Y-43859703D01*
X59314477Y-44047250D01*
X59217717Y-44254753D01*
X59217715Y-44254759D01*
X59158457Y-44475913D01*
X59138502Y-44704000D01*
X58260500Y-44704000D01*
X58260500Y-44602209D01*
X58220783Y-44402539D01*
X58142876Y-44214454D01*
X58029772Y-44045182D01*
X57885818Y-43901228D01*
X57716546Y-43788124D01*
X57528461Y-43710217D01*
X57516270Y-43707792D01*
X57328793Y-43670500D01*
X57328791Y-43670500D01*
X56675209Y-43670500D01*
X56675206Y-43670500D01*
X56475538Y-43710217D01*
X56475533Y-43710219D01*
X56287453Y-43788124D01*
X56118186Y-43901225D01*
X56118179Y-43901230D01*
X55974230Y-44045179D01*
X55974225Y-44045186D01*
X55861124Y-44214453D01*
X55783219Y-44402533D01*
X55783217Y-44402538D01*
X55743500Y-44602206D01*
X55743500Y-44805793D01*
X55783217Y-45005461D01*
X55783219Y-45005466D01*
X55818765Y-45091282D01*
X55826354Y-45161872D01*
X55794575Y-45225359D01*
X55733516Y-45261586D01*
X55702356Y-45265500D01*
X53132648Y-45265500D01*
X53064527Y-45245498D01*
X53018034Y-45191842D01*
X53007930Y-45121568D01*
X53010941Y-45106889D01*
X53038117Y-45005466D01*
X53060115Y-44923371D01*
X53079307Y-44704000D01*
X53060115Y-44484629D01*
X53003120Y-44271924D01*
X52910056Y-44072347D01*
X52783749Y-43891962D01*
X52628038Y-43736251D01*
X52447654Y-43609944D01*
X52447650Y-43609942D01*
X52248079Y-43516881D01*
X52248073Y-43516879D01*
X52158178Y-43492791D01*
X52035371Y-43459885D01*
X51816000Y-43440693D01*
X51596629Y-43459885D01*
X51383926Y-43516879D01*
X51383920Y-43516881D01*
X51184346Y-43609944D01*
X51003965Y-43736248D01*
X51003959Y-43736253D01*
X50848253Y-43891959D01*
X50848248Y-43891965D01*
X50721944Y-44072346D01*
X50628881Y-44271920D01*
X50628879Y-44271926D01*
X50593881Y-44402539D01*
X50571885Y-44484629D01*
X50552693Y-44704000D01*
X50571885Y-44923371D01*
X50593881Y-45005461D01*
X50628879Y-45136073D01*
X50628881Y-45136079D01*
X50721942Y-45335650D01*
X50721944Y-45335654D01*
X50815648Y-45469476D01*
X50838336Y-45536750D01*
X50821051Y-45605611D01*
X50801530Y-45630842D01*
X39773779Y-56658595D01*
X39711467Y-56692621D01*
X39684684Y-56695500D01*
X37681839Y-56695500D01*
X37613718Y-56675498D01*
X37578626Y-56641771D01*
X37543751Y-56591965D01*
X37543749Y-56591962D01*
X37388038Y-56436251D01*
X37207654Y-56309944D01*
X37207648Y-56309941D01*
X37207648Y-56309940D01*
X37075232Y-56248195D01*
X37021946Y-56201278D01*
X37002485Y-56133001D01*
X37023026Y-56065041D01*
X37075232Y-56019805D01*
X37207648Y-55958059D01*
X37207648Y-55958058D01*
X37207654Y-55958056D01*
X37388038Y-55831749D01*
X37543749Y-55676038D01*
X37670056Y-55495654D01*
X37763120Y-55296076D01*
X37820115Y-55083371D01*
X37839307Y-54864000D01*
X37820115Y-54644629D01*
X37763120Y-54431924D01*
X37670056Y-54232347D01*
X37543749Y-54051962D01*
X37388038Y-53896251D01*
X37207654Y-53769944D01*
X37207648Y-53769941D01*
X37207648Y-53769940D01*
X37075232Y-53708195D01*
X37021946Y-53661278D01*
X37002485Y-53593001D01*
X37023026Y-53525041D01*
X37075232Y-53479805D01*
X37207648Y-53418059D01*
X37207648Y-53418058D01*
X37207654Y-53418056D01*
X37388038Y-53291749D01*
X37543749Y-53136038D01*
X37670056Y-52955654D01*
X37763120Y-52756076D01*
X37820115Y-52543371D01*
X37839307Y-52324000D01*
X37820115Y-52104629D01*
X37763120Y-51891924D01*
X37670056Y-51692347D01*
X37543749Y-51511962D01*
X37388038Y-51356251D01*
X37207654Y-51229944D01*
X37207648Y-51229941D01*
X37207648Y-51229940D01*
X37075232Y-51168195D01*
X37021946Y-51121278D01*
X37002485Y-51053001D01*
X37023026Y-50985041D01*
X37075232Y-50939805D01*
X37207648Y-50878059D01*
X37207648Y-50878058D01*
X37207654Y-50878056D01*
X37388038Y-50751749D01*
X37543749Y-50596038D01*
X37670056Y-50415654D01*
X37763120Y-50216076D01*
X37820115Y-50003371D01*
X37839307Y-49784000D01*
X37820115Y-49564629D01*
X37763120Y-49351924D01*
X37670056Y-49152347D01*
X37543749Y-48971962D01*
X37388038Y-48816251D01*
X37207654Y-48689944D01*
X37207648Y-48689941D01*
X37207648Y-48689940D01*
X37075232Y-48628195D01*
X37021946Y-48581278D01*
X37002485Y-48513001D01*
X37023026Y-48445041D01*
X37075232Y-48399805D01*
X37207648Y-48338059D01*
X37207648Y-48338058D01*
X37207654Y-48338056D01*
X37388038Y-48211749D01*
X37543749Y-48056038D01*
X37670056Y-47875654D01*
X37763120Y-47676076D01*
X37820115Y-47463371D01*
X37839307Y-47244000D01*
X37820115Y-47024629D01*
X37763120Y-46811924D01*
X37670056Y-46612347D01*
X37543749Y-46431962D01*
X37388038Y-46276251D01*
X37388037Y-46276250D01*
X37388036Y-46276249D01*
X37388033Y-46276247D01*
X37267306Y-46191713D01*
X37222977Y-46136256D01*
X37215668Y-46065637D01*
X37247698Y-46002276D01*
X37308900Y-45966291D01*
X37339576Y-45962500D01*
X37374632Y-45962500D01*
X37374638Y-45962500D01*
X37374645Y-45962499D01*
X37374649Y-45962499D01*
X37435196Y-45955990D01*
X37435199Y-45955989D01*
X37435201Y-45955989D01*
X37572204Y-45904889D01*
X37689261Y-45817261D01*
X37776889Y-45700204D01*
X37827989Y-45563201D01*
X37829592Y-45548296D01*
X37834499Y-45502649D01*
X37834500Y-45502632D01*
X37834500Y-43905367D01*
X37834499Y-43905350D01*
X37827990Y-43844803D01*
X37827988Y-43844795D01*
X37787501Y-43736248D01*
X37776889Y-43707796D01*
X37776888Y-43707794D01*
X37776887Y-43707792D01*
X37689261Y-43590738D01*
X37572207Y-43503112D01*
X37572202Y-43503110D01*
X37435204Y-43452011D01*
X37435196Y-43452009D01*
X37374649Y-43445500D01*
X37374638Y-43445500D01*
X35777362Y-43445500D01*
X35777350Y-43445500D01*
X35716803Y-43452009D01*
X35716795Y-43452011D01*
X35579797Y-43503110D01*
X35579792Y-43503112D01*
X35462738Y-43590738D01*
X35375112Y-43707792D01*
X35375110Y-43707797D01*
X35324011Y-43844795D01*
X35324009Y-43844803D01*
X35317500Y-43905350D01*
X35317500Y-45502649D01*
X35324009Y-45563196D01*
X35324011Y-45563204D01*
X35375110Y-45700202D01*
X35375112Y-45700207D01*
X35462738Y-45817261D01*
X35579792Y-45904887D01*
X35579794Y-45904888D01*
X35579796Y-45904889D01*
X35638875Y-45926924D01*
X35716795Y-45955988D01*
X35716803Y-45955990D01*
X35777350Y-45962499D01*
X35777355Y-45962499D01*
X35777362Y-45962500D01*
X35777368Y-45962500D01*
X35812423Y-45962500D01*
X35880544Y-45982502D01*
X35927037Y-46036158D01*
X35937141Y-46106432D01*
X35907647Y-46171012D01*
X35884694Y-46191713D01*
X35763965Y-46276248D01*
X35763959Y-46276253D01*
X35608253Y-46431959D01*
X35608248Y-46431965D01*
X35481944Y-46612346D01*
X35388881Y-46811920D01*
X35388879Y-46811926D01*
X35366738Y-46894556D01*
X35331885Y-47024629D01*
X35312693Y-47244000D01*
X34036000Y-47244000D01*
X34036000Y-38760206D01*
X55743500Y-38760206D01*
X55743500Y-38963793D01*
X55783217Y-39163461D01*
X55783219Y-39163466D01*
X55861124Y-39351546D01*
X55861126Y-39351550D01*
X55911539Y-39426999D01*
X55932754Y-39494752D01*
X55913971Y-39563218D01*
X55911539Y-39567001D01*
X55861126Y-39642449D01*
X55861124Y-39642453D01*
X55783219Y-39830533D01*
X55783217Y-39830538D01*
X55743500Y-40030206D01*
X55743500Y-40233793D01*
X55783217Y-40433461D01*
X55783220Y-40433471D01*
X55814977Y-40510140D01*
X55822566Y-40580730D01*
X55804451Y-40622352D01*
X55805873Y-40623128D01*
X55801555Y-40631034D01*
X55750505Y-40767906D01*
X55744000Y-40828402D01*
X55744000Y-41148000D01*
X56574821Y-41148000D01*
X56599401Y-41150420D01*
X56675209Y-41165500D01*
X56675210Y-41165500D01*
X56708170Y-41165500D01*
X56701925Y-41171745D01*
X56652556Y-41257255D01*
X56627000Y-41352630D01*
X56627000Y-41451370D01*
X56652556Y-41546745D01*
X56701925Y-41632255D01*
X56725670Y-41656000D01*
X55744000Y-41656000D01*
X55744000Y-41975597D01*
X55750505Y-42036093D01*
X55801555Y-42172964D01*
X55801555Y-42172965D01*
X55889095Y-42289904D01*
X56006034Y-42377444D01*
X56142906Y-42428494D01*
X56203402Y-42434999D01*
X56203415Y-42435000D01*
X56748000Y-42435000D01*
X56748000Y-41678330D01*
X56771745Y-41702075D01*
X56857255Y-41751444D01*
X56952630Y-41777000D01*
X57051370Y-41777000D01*
X57146745Y-41751444D01*
X57232255Y-41702075D01*
X57256000Y-41678330D01*
X57256000Y-42435000D01*
X57800585Y-42435000D01*
X57800597Y-42434999D01*
X57861093Y-42428494D01*
X57997964Y-42377444D01*
X57997965Y-42377444D01*
X58114904Y-42289904D01*
X58202444Y-42172965D01*
X58202444Y-42172964D01*
X58253494Y-42036093D01*
X58259999Y-41975597D01*
X58260000Y-41975585D01*
X58260000Y-41656000D01*
X57278330Y-41656000D01*
X57302075Y-41632255D01*
X57351444Y-41546745D01*
X57377000Y-41451370D01*
X57377000Y-41352630D01*
X57351444Y-41257255D01*
X57302075Y-41171745D01*
X57295830Y-41165500D01*
X57328790Y-41165500D01*
X57328791Y-41165500D01*
X57404598Y-41150420D01*
X57429179Y-41148000D01*
X58260000Y-41148000D01*
X58260000Y-40828414D01*
X58259999Y-40828402D01*
X58253494Y-40767906D01*
X58202444Y-40631036D01*
X58198127Y-40623129D01*
X58200147Y-40622025D01*
X58179752Y-40567358D01*
X58189021Y-40510140D01*
X58220783Y-40433461D01*
X58260500Y-40233791D01*
X58260500Y-40030209D01*
X58220783Y-39830539D01*
X58142876Y-39642454D01*
X58092459Y-39567001D01*
X58071245Y-39499249D01*
X58090028Y-39430782D01*
X58092454Y-39427005D01*
X58142876Y-39351546D01*
X58220783Y-39163461D01*
X58260500Y-38963791D01*
X58260500Y-38862000D01*
X59138502Y-38862000D01*
X59158457Y-39090086D01*
X59217715Y-39311240D01*
X59217717Y-39311246D01*
X59314477Y-39518749D01*
X59348263Y-39567001D01*
X59445802Y-39706300D01*
X59607700Y-39868198D01*
X59795251Y-39999523D01*
X60002757Y-40096284D01*
X60223913Y-40155543D01*
X60452000Y-40175498D01*
X60680087Y-40155543D01*
X60901243Y-40096284D01*
X61108749Y-39999523D01*
X61296300Y-39868198D01*
X61458198Y-39706300D01*
X61589523Y-39518749D01*
X61686284Y-39311243D01*
X61745543Y-39090087D01*
X61765498Y-38862000D01*
X69298502Y-38862000D01*
X69318457Y-39090086D01*
X69377715Y-39311240D01*
X69377717Y-39311246D01*
X69474477Y-39518749D01*
X69508263Y-39567001D01*
X69605802Y-39706300D01*
X69767700Y-39868198D01*
X69955251Y-39999523D01*
X70162757Y-40096284D01*
X70383913Y-40155543D01*
X70612000Y-40175498D01*
X70840087Y-40155543D01*
X71061243Y-40096284D01*
X71268749Y-39999523D01*
X71456300Y-39868198D01*
X71618198Y-39706300D01*
X71749523Y-39518749D01*
X71846284Y-39311243D01*
X71905543Y-39090087D01*
X71925498Y-38862000D01*
X71905543Y-38633913D01*
X71846284Y-38412757D01*
X71749523Y-38205251D01*
X71618198Y-38017700D01*
X71456300Y-37855802D01*
X71268749Y-37724477D01*
X71061246Y-37627717D01*
X71061240Y-37627715D01*
X70967771Y-37602670D01*
X70840087Y-37568457D01*
X70612000Y-37548502D01*
X70383913Y-37568457D01*
X70162759Y-37627715D01*
X70162753Y-37627717D01*
X69955250Y-37724477D01*
X69767703Y-37855799D01*
X69767697Y-37855804D01*
X69605804Y-38017697D01*
X69605799Y-38017703D01*
X69474477Y-38205250D01*
X69377717Y-38412753D01*
X69377715Y-38412759D01*
X69318457Y-38633913D01*
X69298502Y-38862000D01*
X61765498Y-38862000D01*
X61745543Y-38633913D01*
X61686284Y-38412757D01*
X61589523Y-38205251D01*
X61458198Y-38017700D01*
X61296300Y-37855802D01*
X61108749Y-37724477D01*
X60901246Y-37627717D01*
X60901240Y-37627715D01*
X60807771Y-37602670D01*
X60680087Y-37568457D01*
X60452000Y-37548502D01*
X60223913Y-37568457D01*
X60002759Y-37627715D01*
X60002753Y-37627717D01*
X59795250Y-37724477D01*
X59607703Y-37855799D01*
X59607697Y-37855804D01*
X59445804Y-38017697D01*
X59445799Y-38017703D01*
X59314477Y-38205250D01*
X59217717Y-38412753D01*
X59217715Y-38412759D01*
X59158457Y-38633913D01*
X59138502Y-38862000D01*
X58260500Y-38862000D01*
X58260500Y-38760209D01*
X58220783Y-38560539D01*
X58142876Y-38372454D01*
X58029772Y-38203182D01*
X57885818Y-38059228D01*
X57716546Y-37946124D01*
X57528461Y-37868217D01*
X57328793Y-37828500D01*
X57328791Y-37828500D01*
X56675209Y-37828500D01*
X56675206Y-37828500D01*
X56475538Y-37868217D01*
X56475533Y-37868219D01*
X56287453Y-37946124D01*
X56118186Y-38059225D01*
X56118179Y-38059230D01*
X55974230Y-38203179D01*
X55974225Y-38203186D01*
X55861124Y-38372453D01*
X55783219Y-38560533D01*
X55783217Y-38560538D01*
X55743500Y-38760206D01*
X34036000Y-38760206D01*
X34036000Y-32918206D01*
X55743500Y-32918206D01*
X55743500Y-33121793D01*
X55783217Y-33321461D01*
X55783219Y-33321466D01*
X55861124Y-33509546D01*
X55861126Y-33509550D01*
X55911539Y-33584999D01*
X55932754Y-33652752D01*
X55913971Y-33721218D01*
X55911539Y-33725001D01*
X55861126Y-33800449D01*
X55861124Y-33800453D01*
X55783219Y-33988533D01*
X55783217Y-33988538D01*
X55743500Y-34188206D01*
X55743500Y-34391793D01*
X55783217Y-34591461D01*
X55783220Y-34591471D01*
X55814977Y-34668140D01*
X55822566Y-34738730D01*
X55804451Y-34780352D01*
X55805873Y-34781128D01*
X55801555Y-34789034D01*
X55750505Y-34925906D01*
X55744000Y-34986402D01*
X55744000Y-35306000D01*
X56574821Y-35306000D01*
X56599401Y-35308420D01*
X56675209Y-35323500D01*
X56675210Y-35323500D01*
X56708170Y-35323500D01*
X56701925Y-35329745D01*
X56652556Y-35415255D01*
X56627000Y-35510630D01*
X56627000Y-35609370D01*
X56652556Y-35704745D01*
X56701925Y-35790255D01*
X56725670Y-35814000D01*
X55744000Y-35814000D01*
X55744000Y-36133597D01*
X55750505Y-36194093D01*
X55801555Y-36330964D01*
X55801555Y-36330965D01*
X55889095Y-36447904D01*
X56006034Y-36535444D01*
X56142906Y-36586494D01*
X56203402Y-36592999D01*
X56203415Y-36593000D01*
X56748000Y-36593000D01*
X56748000Y-35836330D01*
X56771745Y-35860075D01*
X56857255Y-35909444D01*
X56952630Y-35935000D01*
X57051370Y-35935000D01*
X57146745Y-35909444D01*
X57232255Y-35860075D01*
X57256000Y-35836330D01*
X57256000Y-36593000D01*
X57800585Y-36593000D01*
X57800597Y-36592999D01*
X57861093Y-36586494D01*
X57997964Y-36535444D01*
X57997965Y-36535444D01*
X58114904Y-36447904D01*
X58202444Y-36330965D01*
X58202444Y-36330964D01*
X58253494Y-36194093D01*
X58259999Y-36133597D01*
X58260000Y-36133585D01*
X58260000Y-35814000D01*
X57278330Y-35814000D01*
X57302075Y-35790255D01*
X57351444Y-35704745D01*
X57377000Y-35609370D01*
X57377000Y-35510630D01*
X57351444Y-35415255D01*
X57302075Y-35329745D01*
X57295830Y-35323500D01*
X57328790Y-35323500D01*
X57328791Y-35323500D01*
X57404598Y-35308420D01*
X57429179Y-35306000D01*
X58260000Y-35306000D01*
X58260000Y-34986414D01*
X58259999Y-34986402D01*
X58253494Y-34925906D01*
X58202444Y-34789036D01*
X58198127Y-34781129D01*
X58200147Y-34780025D01*
X58179752Y-34725358D01*
X58189021Y-34668140D01*
X58220783Y-34591461D01*
X58260500Y-34391791D01*
X58260500Y-34188209D01*
X58220783Y-33988539D01*
X58142876Y-33800454D01*
X58092459Y-33725001D01*
X58071245Y-33657249D01*
X58090028Y-33588782D01*
X58092454Y-33585005D01*
X58142876Y-33509546D01*
X58220783Y-33321461D01*
X58260500Y-33121791D01*
X58260500Y-33020000D01*
X59138502Y-33020000D01*
X59158457Y-33248086D01*
X59217715Y-33469240D01*
X59217717Y-33469246D01*
X59314477Y-33676749D01*
X59350713Y-33728500D01*
X59445802Y-33864300D01*
X59607700Y-34026198D01*
X59795251Y-34157523D01*
X60002757Y-34254284D01*
X60223913Y-34313543D01*
X60452000Y-34333498D01*
X60680087Y-34313543D01*
X60901243Y-34254284D01*
X61108749Y-34157523D01*
X61296300Y-34026198D01*
X61458198Y-33864300D01*
X61589523Y-33676749D01*
X61686284Y-33469243D01*
X61745543Y-33248087D01*
X61765498Y-33020000D01*
X61745543Y-32791913D01*
X61686284Y-32570757D01*
X61589523Y-32363251D01*
X61458198Y-32175700D01*
X61296300Y-32013802D01*
X61108749Y-31882477D01*
X60901246Y-31785717D01*
X60901240Y-31785715D01*
X60807771Y-31760670D01*
X60680087Y-31726457D01*
X60452000Y-31706502D01*
X60223913Y-31726457D01*
X60002759Y-31785715D01*
X60002753Y-31785717D01*
X59795250Y-31882477D01*
X59607703Y-32013799D01*
X59607697Y-32013804D01*
X59445804Y-32175697D01*
X59445799Y-32175703D01*
X59314477Y-32363250D01*
X59217717Y-32570753D01*
X59217715Y-32570759D01*
X59158457Y-32791913D01*
X59138502Y-33020000D01*
X58260500Y-33020000D01*
X58260500Y-32918209D01*
X58220783Y-32718539D01*
X58142876Y-32530454D01*
X58029772Y-32361182D01*
X57885818Y-32217228D01*
X57716546Y-32104124D01*
X57528461Y-32026217D01*
X57328793Y-31986500D01*
X57328791Y-31986500D01*
X56675209Y-31986500D01*
X56675206Y-31986500D01*
X56475538Y-32026217D01*
X56475533Y-32026219D01*
X56287453Y-32104124D01*
X56118186Y-32217225D01*
X56118179Y-32217230D01*
X55974230Y-32361179D01*
X55974225Y-32361186D01*
X55861124Y-32530453D01*
X55783219Y-32718533D01*
X55783217Y-32718538D01*
X55743500Y-32918206D01*
X34036000Y-32918206D01*
X34036000Y-27076206D01*
X55743500Y-27076206D01*
X55743500Y-27279793D01*
X55783217Y-27479461D01*
X55783219Y-27479466D01*
X55861124Y-27667546D01*
X55861126Y-27667550D01*
X55911539Y-27742999D01*
X55932754Y-27810752D01*
X55913971Y-27879218D01*
X55911539Y-27883001D01*
X55861126Y-27958449D01*
X55861124Y-27958453D01*
X55783219Y-28146533D01*
X55783217Y-28146538D01*
X55743500Y-28346206D01*
X55743500Y-28549793D01*
X55783217Y-28749461D01*
X55783220Y-28749471D01*
X55814977Y-28826140D01*
X55822566Y-28896730D01*
X55804451Y-28938352D01*
X55805873Y-28939128D01*
X55801555Y-28947034D01*
X55750505Y-29083906D01*
X55744000Y-29144402D01*
X55744000Y-29464000D01*
X56574821Y-29464000D01*
X56599401Y-29466420D01*
X56675209Y-29481500D01*
X56675210Y-29481500D01*
X56708170Y-29481500D01*
X56701925Y-29487745D01*
X56652556Y-29573255D01*
X56627000Y-29668630D01*
X56627000Y-29767370D01*
X56652556Y-29862745D01*
X56701925Y-29948255D01*
X56725670Y-29972000D01*
X55744000Y-29972000D01*
X55744000Y-30291597D01*
X55750505Y-30352093D01*
X55801555Y-30488964D01*
X55801555Y-30488965D01*
X55889095Y-30605904D01*
X56006034Y-30693444D01*
X56142906Y-30744494D01*
X56203402Y-30750999D01*
X56203415Y-30751000D01*
X56748000Y-30751000D01*
X56748000Y-29994330D01*
X56771745Y-30018075D01*
X56857255Y-30067444D01*
X56952630Y-30093000D01*
X57051370Y-30093000D01*
X57146745Y-30067444D01*
X57232255Y-30018075D01*
X57256000Y-29994330D01*
X57256000Y-30751000D01*
X57800585Y-30751000D01*
X57800597Y-30750999D01*
X57861093Y-30744494D01*
X57997964Y-30693444D01*
X57997965Y-30693444D01*
X58114904Y-30605904D01*
X58202444Y-30488965D01*
X58202444Y-30488964D01*
X58253494Y-30352093D01*
X58259999Y-30291597D01*
X58260000Y-30291585D01*
X58260000Y-29972000D01*
X57278330Y-29972000D01*
X57302075Y-29948255D01*
X57351444Y-29862745D01*
X57377000Y-29767370D01*
X57377000Y-29668630D01*
X57351444Y-29573255D01*
X57302075Y-29487745D01*
X57295830Y-29481500D01*
X57328790Y-29481500D01*
X57328791Y-29481500D01*
X57404598Y-29466420D01*
X57429179Y-29464000D01*
X58260000Y-29464000D01*
X58260000Y-29144414D01*
X58259999Y-29144402D01*
X58253494Y-29083906D01*
X58202444Y-28947036D01*
X58198127Y-28939129D01*
X58200147Y-28938025D01*
X58179752Y-28883358D01*
X58189021Y-28826140D01*
X58220783Y-28749461D01*
X58260500Y-28549791D01*
X58260500Y-28346209D01*
X58220783Y-28146539D01*
X58142876Y-27958454D01*
X58092459Y-27883001D01*
X58071245Y-27815249D01*
X58090028Y-27746782D01*
X58092454Y-27743005D01*
X58142876Y-27667546D01*
X58220783Y-27479461D01*
X58260500Y-27279791D01*
X58260500Y-27178000D01*
X59138502Y-27178000D01*
X59158457Y-27406086D01*
X59217715Y-27627240D01*
X59217717Y-27627246D01*
X59314477Y-27834749D01*
X59348263Y-27883001D01*
X59445802Y-28022300D01*
X59607700Y-28184198D01*
X59795251Y-28315523D01*
X60002757Y-28412284D01*
X60223913Y-28471543D01*
X60452000Y-28491498D01*
X60680087Y-28471543D01*
X60901243Y-28412284D01*
X61108749Y-28315523D01*
X61296300Y-28184198D01*
X61458198Y-28022300D01*
X61589523Y-27834749D01*
X61686284Y-27627243D01*
X61745543Y-27406087D01*
X61765498Y-27178000D01*
X69298502Y-27178000D01*
X69318457Y-27406086D01*
X69377715Y-27627240D01*
X69377717Y-27627246D01*
X69474477Y-27834749D01*
X69508263Y-27883001D01*
X69605802Y-28022300D01*
X69767700Y-28184198D01*
X69955251Y-28315523D01*
X70162757Y-28412284D01*
X70383913Y-28471543D01*
X70612000Y-28491498D01*
X70840087Y-28471543D01*
X71061243Y-28412284D01*
X71268749Y-28315523D01*
X71456300Y-28184198D01*
X71618198Y-28022300D01*
X71749523Y-27834749D01*
X71846284Y-27627243D01*
X71905543Y-27406087D01*
X71925498Y-27178000D01*
X71905543Y-26949913D01*
X71846284Y-26728757D01*
X71749523Y-26521251D01*
X71618198Y-26333700D01*
X71456300Y-26171802D01*
X71268749Y-26040477D01*
X71061246Y-25943717D01*
X71061240Y-25943715D01*
X70967771Y-25918670D01*
X70840087Y-25884457D01*
X70612000Y-25864502D01*
X70383913Y-25884457D01*
X70162759Y-25943715D01*
X70162753Y-25943717D01*
X69955250Y-26040477D01*
X69767703Y-26171799D01*
X69767697Y-26171804D01*
X69605804Y-26333697D01*
X69605799Y-26333703D01*
X69474477Y-26521250D01*
X69377717Y-26728753D01*
X69377715Y-26728759D01*
X69318457Y-26949913D01*
X69298502Y-27178000D01*
X61765498Y-27178000D01*
X61745543Y-26949913D01*
X61686284Y-26728757D01*
X61589523Y-26521251D01*
X61458198Y-26333700D01*
X61296300Y-26171802D01*
X61108749Y-26040477D01*
X60901246Y-25943717D01*
X60901240Y-25943715D01*
X60807771Y-25918670D01*
X60680087Y-25884457D01*
X60452000Y-25864502D01*
X60223913Y-25884457D01*
X60002759Y-25943715D01*
X60002753Y-25943717D01*
X59795250Y-26040477D01*
X59607703Y-26171799D01*
X59607697Y-26171804D01*
X59445804Y-26333697D01*
X59445799Y-26333703D01*
X59314477Y-26521250D01*
X59217717Y-26728753D01*
X59217715Y-26728759D01*
X59158457Y-26949913D01*
X59138502Y-27178000D01*
X58260500Y-27178000D01*
X58260500Y-27076209D01*
X58220783Y-26876539D01*
X58142876Y-26688454D01*
X58029772Y-26519182D01*
X57885818Y-26375228D01*
X57716546Y-26262124D01*
X57528461Y-26184217D01*
X57328793Y-26144500D01*
X57328791Y-26144500D01*
X56675209Y-26144500D01*
X56675206Y-26144500D01*
X56475538Y-26184217D01*
X56475533Y-26184219D01*
X56287453Y-26262124D01*
X56118186Y-26375225D01*
X56118179Y-26375230D01*
X55974230Y-26519179D01*
X55974225Y-26519186D01*
X55861124Y-26688453D01*
X55783219Y-26876533D01*
X55783217Y-26876538D01*
X55743500Y-27076206D01*
X34036000Y-27076206D01*
X34036000Y-25526000D01*
X34056002Y-25457879D01*
X34109658Y-25411386D01*
X34162000Y-25400000D01*
X83694000Y-25400000D01*
X83762121Y-25420002D01*
G37*
%TD.AperFunction*%
%TA.AperFunction,Conductor*%
G36*
X69635961Y-66324002D02*
G01*
X69656935Y-66340905D01*
X70325672Y-67009642D01*
X70424358Y-67108328D01*
X70453266Y-67127644D01*
X70453268Y-67127646D01*
X70503562Y-67161251D01*
X70540399Y-67185865D01*
X70593807Y-67207986D01*
X70669338Y-67239273D01*
X70806219Y-67266500D01*
X74789122Y-67266500D01*
X74857243Y-67286502D01*
X74892335Y-67320229D01*
X74949802Y-67402300D01*
X75111700Y-67564198D01*
X75193771Y-67621665D01*
X75238099Y-67677120D01*
X75247500Y-67724877D01*
X75247500Y-67931121D01*
X75227498Y-67999242D01*
X75193772Y-68034334D01*
X75111698Y-68091803D01*
X74949799Y-68253703D01*
X74818477Y-68441250D01*
X74721717Y-68648753D01*
X74721715Y-68648759D01*
X74662457Y-68869913D01*
X74642502Y-69098000D01*
X74662457Y-69326086D01*
X74721715Y-69547240D01*
X74721717Y-69547246D01*
X74818477Y-69754749D01*
X74938979Y-69926844D01*
X74949802Y-69942300D01*
X75111700Y-70104198D01*
X75299251Y-70235523D01*
X75334359Y-70251894D01*
X75338457Y-70253805D01*
X75391742Y-70300722D01*
X75411203Y-70368999D01*
X75390661Y-70436959D01*
X75338457Y-70482195D01*
X75299250Y-70500477D01*
X75111703Y-70631799D01*
X75111697Y-70631804D01*
X74949804Y-70793697D01*
X74949799Y-70793703D01*
X74818477Y-70981250D01*
X74721717Y-71188753D01*
X74721715Y-71188759D01*
X74679023Y-71348087D01*
X74662457Y-71409913D01*
X74642502Y-71638000D01*
X74662443Y-71865933D01*
X74648455Y-71935537D01*
X74626019Y-71966009D01*
X73109670Y-73482359D01*
X73109669Y-73482361D01*
X73032134Y-73598400D01*
X73032131Y-73598406D01*
X72994369Y-73689569D01*
X72994370Y-73689570D01*
X72979146Y-73726328D01*
X72979138Y-73726345D01*
X72978730Y-73727328D01*
X72978726Y-73727342D01*
X72955749Y-73842861D01*
X72955748Y-73842865D01*
X72951500Y-73864214D01*
X72951500Y-85667784D01*
X72978727Y-85804661D01*
X72978729Y-85804666D01*
X73032135Y-85933601D01*
X73109671Y-86049642D01*
X73109676Y-86049648D01*
X75148961Y-88088931D01*
X75182986Y-88151243D01*
X75177922Y-88222058D01*
X75135375Y-88278894D01*
X75076346Y-88301297D01*
X75076571Y-88302643D01*
X75071435Y-88303500D01*
X75071431Y-88303500D01*
X74921959Y-88328442D01*
X74849369Y-88340555D01*
X74849360Y-88340557D01*
X74636428Y-88413656D01*
X74636426Y-88413658D01*
X74438426Y-88520810D01*
X74438424Y-88520811D01*
X74260762Y-88659091D01*
X74108279Y-88824729D01*
X74108275Y-88824734D01*
X74081084Y-88866355D01*
X74027081Y-88912444D01*
X73956733Y-88922019D01*
X73892375Y-88892042D01*
X73886506Y-88886535D01*
X68320597Y-83320626D01*
X68286571Y-83258314D01*
X68291636Y-83187499D01*
X68334183Y-83130663D01*
X68398705Y-83106011D01*
X68564087Y-83091543D01*
X68785243Y-83032284D01*
X68992749Y-82935523D01*
X69180300Y-82804198D01*
X69342198Y-82642300D01*
X69473523Y-82454749D01*
X69570284Y-82247243D01*
X69629543Y-82026087D01*
X69649498Y-81798000D01*
X69629543Y-81569913D01*
X69570284Y-81348757D01*
X69473523Y-81141251D01*
X69342198Y-80953700D01*
X69180300Y-80791802D01*
X69166301Y-80782000D01*
X69021686Y-80680739D01*
X68992749Y-80660477D01*
X68953543Y-80642195D01*
X68900258Y-80595279D01*
X68880796Y-80527002D01*
X68901337Y-80459042D01*
X68953543Y-80413805D01*
X68955997Y-80412660D01*
X68992749Y-80395523D01*
X69180300Y-80264198D01*
X69342198Y-80102300D01*
X69473523Y-79914749D01*
X69570284Y-79707243D01*
X69629543Y-79486087D01*
X69649498Y-79258000D01*
X69629543Y-79029913D01*
X69570284Y-78808757D01*
X69473523Y-78601251D01*
X69342198Y-78413700D01*
X69180300Y-78251802D01*
X68992749Y-78120477D01*
X68953543Y-78102195D01*
X68900258Y-78055279D01*
X68880796Y-77987002D01*
X68901337Y-77919042D01*
X68953543Y-77873805D01*
X68955997Y-77872660D01*
X68992749Y-77855523D01*
X69180300Y-77724198D01*
X69342198Y-77562300D01*
X69473523Y-77374749D01*
X69570284Y-77167243D01*
X69629543Y-76946087D01*
X69649498Y-76718000D01*
X69629543Y-76489913D01*
X69570284Y-76268757D01*
X69473523Y-76061251D01*
X69342198Y-75873700D01*
X69180300Y-75711802D01*
X68992749Y-75580477D01*
X68953543Y-75562195D01*
X68900258Y-75515279D01*
X68880796Y-75447002D01*
X68901337Y-75379042D01*
X68953543Y-75333805D01*
X68955997Y-75332660D01*
X68992749Y-75315523D01*
X69180300Y-75184198D01*
X69342198Y-75022300D01*
X69473523Y-74834749D01*
X69570284Y-74627243D01*
X69629543Y-74406087D01*
X69649498Y-74178000D01*
X69629543Y-73949913D01*
X69570284Y-73728757D01*
X69473523Y-73521251D01*
X69342198Y-73333700D01*
X69180300Y-73171802D01*
X68992749Y-73040477D01*
X68953543Y-73022195D01*
X68900258Y-72975279D01*
X68880796Y-72907002D01*
X68901337Y-72839042D01*
X68953543Y-72793805D01*
X68955997Y-72792660D01*
X68992749Y-72775523D01*
X69180300Y-72644198D01*
X69342198Y-72482300D01*
X69473523Y-72294749D01*
X69570284Y-72087243D01*
X69629543Y-71866087D01*
X69649498Y-71638000D01*
X69629543Y-71409913D01*
X69570284Y-71188757D01*
X69473523Y-70981251D01*
X69342198Y-70793700D01*
X69180300Y-70631802D01*
X68992749Y-70500477D01*
X68953543Y-70482195D01*
X68900258Y-70435279D01*
X68880796Y-70367002D01*
X68901337Y-70299042D01*
X68953543Y-70253805D01*
X68955997Y-70252660D01*
X68992749Y-70235523D01*
X69180300Y-70104198D01*
X69342198Y-69942300D01*
X69473523Y-69754749D01*
X69570284Y-69547243D01*
X69629543Y-69326087D01*
X69649498Y-69098000D01*
X69629543Y-68869913D01*
X69570284Y-68648757D01*
X69473523Y-68441251D01*
X69342198Y-68253700D01*
X69180300Y-68091802D01*
X69115012Y-68046087D01*
X68992749Y-67960477D01*
X68952951Y-67941919D01*
X68899666Y-67895002D01*
X68880205Y-67826725D01*
X68900747Y-67758765D01*
X68952951Y-67713529D01*
X68992498Y-67695087D01*
X69179974Y-67563815D01*
X69179980Y-67563810D01*
X69341810Y-67401980D01*
X69341815Y-67401974D01*
X69473087Y-67214498D01*
X69569811Y-67007073D01*
X69569813Y-67007068D01*
X69622082Y-66812000D01*
X68647686Y-66812000D01*
X68656080Y-66803606D01*
X68708741Y-66712394D01*
X68736000Y-66610661D01*
X68736000Y-66505339D01*
X68708741Y-66403606D01*
X68656080Y-66312394D01*
X68647686Y-66304000D01*
X69567840Y-66304000D01*
X69635961Y-66324002D01*
G37*
%TD.AperFunction*%
%TA.AperFunction,Conductor*%
G36*
X79927243Y-70344502D02*
G01*
X79962335Y-70378229D01*
X79982318Y-70406767D01*
X80019802Y-70460300D01*
X80181700Y-70622198D01*
X80181703Y-70622200D01*
X80369253Y-70753525D01*
X80374015Y-70756274D01*
X80372971Y-70758082D01*
X80419439Y-70798990D01*
X80438905Y-70867265D01*
X80418369Y-70935227D01*
X80373223Y-70974354D01*
X80374267Y-70976161D01*
X80369501Y-70978912D01*
X80298109Y-71028900D01*
X80985209Y-71716000D01*
X80973339Y-71716000D01*
X80871606Y-71743259D01*
X80780394Y-71795920D01*
X80705920Y-71870394D01*
X80653259Y-71961606D01*
X80626000Y-72063339D01*
X80626000Y-72075209D01*
X79938900Y-71388109D01*
X79888913Y-71459500D01*
X79792188Y-71666926D01*
X79792186Y-71666931D01*
X79732951Y-71887997D01*
X79713004Y-72116000D01*
X79732951Y-72344002D01*
X79792186Y-72565068D01*
X79792188Y-72565073D01*
X79888913Y-72772501D01*
X79938899Y-72843888D01*
X80626000Y-72156788D01*
X80626000Y-72168661D01*
X80653259Y-72270394D01*
X80705920Y-72361606D01*
X80780394Y-72436080D01*
X80871606Y-72488741D01*
X80973339Y-72516000D01*
X80985210Y-72516000D01*
X80298110Y-73203098D01*
X80298110Y-73203100D01*
X80369498Y-73253086D01*
X80576926Y-73349811D01*
X80576931Y-73349813D01*
X80797999Y-73409048D01*
X80797995Y-73409048D01*
X81026000Y-73428995D01*
X81254002Y-73409048D01*
X81475068Y-73349813D01*
X81475073Y-73349811D01*
X81682497Y-73253088D01*
X81753888Y-73203099D01*
X81753888Y-73203097D01*
X81066791Y-72516000D01*
X81078661Y-72516000D01*
X81180394Y-72488741D01*
X81271606Y-72436080D01*
X81346080Y-72361606D01*
X81398741Y-72270394D01*
X81426000Y-72168661D01*
X81426000Y-72156791D01*
X82113097Y-72843888D01*
X82113098Y-72843888D01*
X82120287Y-72833623D01*
X82175745Y-72789295D01*
X82246364Y-72781986D01*
X82309724Y-72814017D01*
X82345709Y-72875218D01*
X82349500Y-72905894D01*
X82349500Y-77632339D01*
X82329498Y-77700460D01*
X82312595Y-77721434D01*
X78981434Y-81052595D01*
X78919122Y-81086621D01*
X78892339Y-81089500D01*
X77122878Y-81089500D01*
X77054757Y-81069498D01*
X77019665Y-81035771D01*
X76962200Y-80953703D01*
X76962195Y-80953697D01*
X76800302Y-80791804D01*
X76800296Y-80791799D01*
X76641686Y-80680739D01*
X76612749Y-80660477D01*
X76573543Y-80642195D01*
X76520258Y-80595279D01*
X76500796Y-80527002D01*
X76521337Y-80459042D01*
X76573543Y-80413805D01*
X76575997Y-80412660D01*
X76612749Y-80395523D01*
X76800300Y-80264198D01*
X76962198Y-80102300D01*
X77093523Y-79914749D01*
X77190284Y-79707243D01*
X77249543Y-79486087D01*
X77269498Y-79258000D01*
X77249543Y-79029913D01*
X77190284Y-78808757D01*
X77093523Y-78601251D01*
X76962198Y-78413700D01*
X76800300Y-78251802D01*
X76612749Y-78120477D01*
X76573543Y-78102195D01*
X76520258Y-78055279D01*
X76500796Y-77987002D01*
X76521337Y-77919042D01*
X76573543Y-77873805D01*
X76575997Y-77872660D01*
X76612749Y-77855523D01*
X76800300Y-77724198D01*
X76962198Y-77562300D01*
X77093523Y-77374749D01*
X77190284Y-77167243D01*
X77249543Y-76946087D01*
X77269498Y-76718000D01*
X77249543Y-76489913D01*
X77190284Y-76268757D01*
X77093523Y-76061251D01*
X76962198Y-75873700D01*
X76800300Y-75711802D01*
X76612749Y-75580477D01*
X76573543Y-75562195D01*
X76520258Y-75515279D01*
X76500796Y-75447002D01*
X76521337Y-75379042D01*
X76573543Y-75333805D01*
X76575997Y-75332660D01*
X76612749Y-75315523D01*
X76800300Y-75184198D01*
X76962198Y-75022300D01*
X77093523Y-74834749D01*
X77190284Y-74627243D01*
X77249543Y-74406087D01*
X77269498Y-74178000D01*
X77249543Y-73949913D01*
X77190284Y-73728757D01*
X77093523Y-73521251D01*
X76962198Y-73333700D01*
X76800300Y-73171802D01*
X76612749Y-73040477D01*
X76573543Y-73022195D01*
X76520258Y-72975279D01*
X76500796Y-72907002D01*
X76521337Y-72839042D01*
X76573543Y-72793805D01*
X76575997Y-72792660D01*
X76612749Y-72775523D01*
X76800300Y-72644198D01*
X76962198Y-72482300D01*
X77093523Y-72294749D01*
X77190284Y-72087243D01*
X77249543Y-71866087D01*
X77269498Y-71638000D01*
X77249543Y-71409913D01*
X77190284Y-71188757D01*
X77093523Y-70981251D01*
X76962198Y-70793700D01*
X76800300Y-70631802D01*
X76688778Y-70553713D01*
X76644450Y-70498256D01*
X76637141Y-70427636D01*
X76669172Y-70364276D01*
X76730373Y-70328291D01*
X76761049Y-70324500D01*
X79859122Y-70324500D01*
X79927243Y-70344502D01*
G37*
%TD.AperFunction*%
%TA.AperFunction,Conductor*%
G36*
X82309724Y-70314890D02*
G01*
X82345709Y-70376091D01*
X82349500Y-70406767D01*
X82349500Y-71326104D01*
X82329498Y-71394225D01*
X82275842Y-71440718D01*
X82205568Y-71450822D01*
X82140988Y-71421328D01*
X82120287Y-71398375D01*
X82113099Y-71388110D01*
X82113098Y-71388110D01*
X81426000Y-72075208D01*
X81426000Y-72063339D01*
X81398741Y-71961606D01*
X81346080Y-71870394D01*
X81271606Y-71795920D01*
X81180394Y-71743259D01*
X81078661Y-71716000D01*
X81066790Y-71716000D01*
X81753888Y-71028899D01*
X81753888Y-71028898D01*
X81682501Y-70978913D01*
X81677734Y-70976161D01*
X81678817Y-70974284D01*
X81632561Y-70933561D01*
X81613095Y-70865285D01*
X81633632Y-70797324D01*
X81678992Y-70758019D01*
X81677985Y-70756274D01*
X81682746Y-70753525D01*
X81682749Y-70753523D01*
X81870300Y-70622198D01*
X82032198Y-70460300D01*
X82120287Y-70334495D01*
X82175744Y-70290168D01*
X82246363Y-70282859D01*
X82309724Y-70314890D01*
G37*
%TD.AperFunction*%
%TA.AperFunction,Conductor*%
G36*
X79863949Y-62206502D02*
G01*
X79901310Y-62243583D01*
X79925278Y-62280268D01*
X80071237Y-62438820D01*
X80077762Y-62445908D01*
X80080815Y-62448284D01*
X80255424Y-62584189D01*
X80289205Y-62602470D01*
X80339596Y-62652482D01*
X80354949Y-62721799D01*
X80330389Y-62788412D01*
X80289209Y-62824096D01*
X80255704Y-62842228D01*
X80255698Y-62842232D01*
X80078097Y-62980465D01*
X79925674Y-63146041D01*
X79802580Y-63334451D01*
X79712179Y-63540543D01*
X79712176Y-63540550D01*
X79664455Y-63728999D01*
X79664456Y-63729000D01*
X80570297Y-63729000D01*
X80535075Y-63790007D01*
X80501000Y-63917174D01*
X80501000Y-64048826D01*
X80535075Y-64175993D01*
X80570297Y-64237000D01*
X79664455Y-64237000D01*
X79712176Y-64425449D01*
X79712179Y-64425456D01*
X79802580Y-64631548D01*
X79925674Y-64819958D01*
X80068981Y-64975632D01*
X80100401Y-65039297D01*
X80092414Y-65109843D01*
X80047555Y-65164872D01*
X80020313Y-65179024D01*
X79904795Y-65222111D01*
X79904792Y-65222112D01*
X79787738Y-65309738D01*
X79700112Y-65426792D01*
X79700110Y-65426797D01*
X79649011Y-65563795D01*
X79649009Y-65563803D01*
X79642500Y-65624350D01*
X79642500Y-67421649D01*
X79649009Y-67482196D01*
X79649011Y-67482204D01*
X79700110Y-67619202D01*
X79700112Y-67619207D01*
X79787738Y-67736261D01*
X79904792Y-67823887D01*
X79904794Y-67823888D01*
X79904796Y-67823889D01*
X79912400Y-67826725D01*
X80041795Y-67874988D01*
X80041803Y-67874990D01*
X80102350Y-67881499D01*
X80102355Y-67881499D01*
X80102362Y-67881500D01*
X80102368Y-67881500D01*
X81899632Y-67881500D01*
X81899638Y-67881500D01*
X81899645Y-67881499D01*
X81899649Y-67881499D01*
X81960196Y-67874990D01*
X81960199Y-67874989D01*
X81960201Y-67874989D01*
X82097204Y-67823889D01*
X82147990Y-67785871D01*
X82214510Y-67761059D01*
X82283884Y-67776150D01*
X82334087Y-67826351D01*
X82349500Y-67886738D01*
X82349500Y-68825232D01*
X82329498Y-68893353D01*
X82275842Y-68939846D01*
X82205568Y-68949950D01*
X82140988Y-68920456D01*
X82120287Y-68897503D01*
X82032200Y-68771703D01*
X82032195Y-68771697D01*
X81870302Y-68609804D01*
X81870296Y-68609799D01*
X81682749Y-68478477D01*
X81475246Y-68381717D01*
X81475240Y-68381715D01*
X81381771Y-68356670D01*
X81254087Y-68322457D01*
X81026000Y-68302502D01*
X80797913Y-68322457D01*
X80576759Y-68381715D01*
X80576753Y-68381717D01*
X80369250Y-68478477D01*
X80181703Y-68609799D01*
X80181697Y-68609804D01*
X80019804Y-68771697D01*
X80019799Y-68771703D01*
X79962335Y-68853771D01*
X79906878Y-68898099D01*
X79859122Y-68907500D01*
X77356298Y-68907500D01*
X77288177Y-68887498D01*
X77241684Y-68833842D01*
X77234591Y-68814112D01*
X77190284Y-68648757D01*
X77093523Y-68441251D01*
X76962198Y-68253700D01*
X76800300Y-68091802D01*
X76718228Y-68034334D01*
X76673900Y-67978876D01*
X76664500Y-67931121D01*
X76664500Y-67724877D01*
X76684502Y-67656756D01*
X76718227Y-67621665D01*
X76800300Y-67564198D01*
X76962198Y-67402300D01*
X77093523Y-67214749D01*
X77190284Y-67007243D01*
X77249543Y-66786087D01*
X77269498Y-66558000D01*
X77249543Y-66329913D01*
X77190284Y-66108757D01*
X77093523Y-65901251D01*
X76962198Y-65713700D01*
X76800300Y-65551802D01*
X76612749Y-65420477D01*
X76572951Y-65401919D01*
X76519666Y-65355002D01*
X76500205Y-65286725D01*
X76520747Y-65218765D01*
X76572951Y-65173529D01*
X76612498Y-65155087D01*
X76799974Y-65023815D01*
X76799980Y-65023810D01*
X76961810Y-64861980D01*
X76961815Y-64861974D01*
X77093087Y-64674498D01*
X77189811Y-64467073D01*
X77189813Y-64467068D01*
X77242082Y-64272000D01*
X76267686Y-64272000D01*
X76276080Y-64263606D01*
X76328741Y-64172394D01*
X76356000Y-64070661D01*
X76356000Y-63965339D01*
X76328741Y-63863606D01*
X76276080Y-63772394D01*
X76267686Y-63764000D01*
X77242082Y-63764000D01*
X77189813Y-63568931D01*
X77189811Y-63568926D01*
X77093087Y-63361501D01*
X76961815Y-63174025D01*
X76961810Y-63174019D01*
X76799980Y-63012189D01*
X76799974Y-63012184D01*
X76612497Y-62880911D01*
X76572949Y-62862469D01*
X76519665Y-62815551D01*
X76500205Y-62747273D01*
X76520748Y-62679314D01*
X76572950Y-62634081D01*
X76612749Y-62615523D01*
X76800300Y-62484198D01*
X76962198Y-62322300D01*
X77001233Y-62266551D01*
X77019665Y-62240229D01*
X77075122Y-62195901D01*
X77122878Y-62186500D01*
X79795828Y-62186500D01*
X79863949Y-62206502D01*
G37*
%TD.AperFunction*%
%TD*%
M02*
